<?xml version="1.0" encoding="iso-8859-1"?>
<!-- Generator: Adobe Illustrator 19.0.0, SVG Export Plug-In . SVG Version: 6.00 Build 0)  -->
<svg version="1.1" id="Layer_1" xmlns="http://www.w3.org/2000/svg" xmlns:xlink="http://www.w3.org/1999/xlink" x="0px" y="0px"
	 viewBox="0 0 496.2 496.2" style="enable-background:new 0 0 496.2 496.2;" xml:space="preserve">
<path style="fill:#25B7D3;" d="M496.2,248.1C496.2,111.1,385.1,0,248.1,0S0,111.1,0,248.1s111.1,248.1,248.1,248.1
	S496.2,385.1,496.2,248.1z"/>
<path style="fill:#B54215;" d="M288.5,328.2c-1.6-4.4,0-8.5,0-8.5c-3.5,0.5-8-2-12.6-7c-4.5-5-4.5-16.3-2.5-23.6
	c2-7.3,11.6-9,11.6-9c-1.9-2.5-0.5-11.1-0.5-11.1c7.5-13.6,0-33.2,0-33.2c-6.3-15-31.5-15.6-36.4-15.6s-30,0.6-36.4,15.6
	c0,0-7.5,19.6,0,33.2c0,0,1.4,8.5-0.5,11.1c0,0,9.6,1.8,11.6,9c2,7.4,2,18.6-2.5,23.6s-9,7.5-12.6,7c0,0,1.6,4.2,0,8.5
	c-1,2.8-7.8,22-6.5,31.7c1.2,8.8,4.4,30.1,46.1,31.1l0,0c0.3,0,0.6,0,0.8,0c0.3,0,0.6,0,0.8,0l0,0c41.7-1,44.9-22.4,46.1-31.1
	C296.3,350.2,289.5,330.9,288.5,328.2z"/>
<path style="fill:#A03513;" d="M247.5,390c-0.1,0-0.1,0-0.2,0c-41.3-1-44.1-22.3-45.1-30.3c-1.3-9.6,5.7-29,6.5-31.2
	c1.1-3.1,0.8-6.1,0.4-7.8c3.6-0.2,7.8-2.8,12-7.4c4.7-5.2,4.9-16.6,2.7-24.6c-1.7-6.2-8.3-8.7-11.1-9.5c1.2-3.4,0.2-9.7,0-10.5
	c0-0.1-0.1-0.2-0.1-0.3c-5.9-10.6-2.2-25.3-0.6-30.4l82,122.1c-1.1,8.3-4.4,28.9-45.1,29.9c-0.1,0-0.1,0-0.2,0h-0.6H247.5z"/>
<path style="fill:#8E280C;" d="M248.3,222.1c4.7,0,28.5,0.7,34.3,14.3c0.3,0.8,7,19.1,0.1,31.5c-0.1,0.2-0.2,0.4-0.2,0.6
	c-0.3,1.7-1,6.6-0.2,10c-3.3,1.1-9.2,3.8-10.8,9.9c-2.3,8.3-2,20,3,25.5c4,4.4,7.9,7,11.5,7.6c-0.3,1.9-0.4,4.6,0.6,7.3
	c2.9,7.8,7.4,23.1,6.4,30.7c-0.5,3.9-1.5,11.1-7.3,17.4c-7.1,7.6-19.5,11.6-36.8,12c-0.1,0-0.2,0-0.3,0h-0.1h-0.3l0,0l0,0h-0.3h-0.1
	c-0.1,0-0.2,0-0.3,0c-17.3-0.4-29.7-4.5-36.8-12c-5.9-6.2-6.8-13.5-7.3-17.4c-1-7.6,3.6-22.9,6.4-30.7c1-2.7,0.9-5.4,0.6-7.3
	c3.6-0.6,7.6-3.2,11.5-7.6c4.9-5.5,5.2-17.2,3-25.5c-1.7-6.1-7.5-8.8-10.8-9.9c0.8-3.5,0.1-8.3-0.2-10c0-0.2-0.1-0.4-0.2-0.6
	c-6.9-12.4-0.2-30.6,0.1-31.5c5.8-13.6,29.6-14.3,34.3-14.3L248.3,222.1L248.3,222.1 M248.3,220.1c-0.1,0-0.1,0-0.2,0s-0.1,0-0.2,0
	c-5.3,0-29.9,0.8-36.2,15.6c0,0-7.5,19.6,0,33.2c0,0,1.4,8.5-0.5,11.1c0,0,9.6,1.8,11.6,9c2,7.4,2,18.6-2.5,23.6
	c-4.1,4.6-8.3,7.1-11.7,7.1c-0.3,0-0.6,0-0.9-0.1c0,0,1.6,4.2,0,8.5c-1,2.8-7.8,22-6.5,31.7c1.2,8.8,4.4,30.1,46.1,31.1l0,0
	c0.3,0,0.6,0,0.8,0c0.3,0,0.6,0,0.8,0l0,0c41.7-1,44.9-22.4,46.1-31.1c1.3-9.6-5.5-28.9-6.5-31.7c-1.6-4.4,0-8.5,0-8.5
	c-0.3,0-0.6,0.1-0.9,0.1c-3.4,0-7.5-2.5-11.7-7.1c-4.5-5-4.5-16.3-2.5-23.6c2-7.3,11.6-9,11.6-9c-1.9-2.5-0.5-11.1-0.5-11.1
	c7.5-13.6,0-33.2,0-33.2C278.2,220.9,253.5,220.1,248.3,220.1L248.3,220.1z M288.5,319.6L288.5,319.6L288.5,319.6z"/>
<g>
	<path style="fill:#211917;" d="M258.7,339c-3.3,1.2-7.4,1.5-10.4,1.5s-7.2-0.3-10.4-1.5c0,0,13.1,31.9,3.3,45.5h14.3
		C245.7,370.9,258.7,339,258.7,339z"/>
	<path style="fill:#211917;" d="M236.3,302.7c0-0.5,0-0.9-0.1-1.4c-0.1-0.4-0.2-0.9-0.5-1.1c-0.5-0.5-1.1-0.5-1.9-0.3
		c-0.8,0.2-1.3,0.6-1.6,1.2c-0.4,0.6-0.6,1.3-0.8,2.2c-0.3,1.6-0.4,3.4-0.4,5.2c0,0.9,0,1.8,0,2.8v2.8c0,1.9-0.1,3.8-0.3,5.7
		c-0.1,1-0.2,1.9-0.4,2.9s-0.5,2-0.9,3c-0.1,0.3-0.3,0.5-0.4,0.8c-0.1,0.1-0.2,0.3-0.3,0.4s-0.1,0.1-0.1,0.2l-0.1,0.2
		c-0.4,0.4-0.8,0.8-1.3,1.1c-1,0.6-2.2,0.9-3.4,0.7c-0.6-0.1-1.2-0.4-1.6-0.8c-0.4-0.4-0.8-0.9-0.9-1.4c-0.3-1.1,0-2.1,0.4-2.9
		c-0.1,0.9,0,1.9,0.5,2.6c0.4,0.7,1.1,1,1.8,0.9c0.7,0,1.3-0.4,1.9-0.8c0.3-0.2,0.5-0.5,0.7-0.8l0.1-0.1l0.1-0.1
		c0-0.1,0.1-0.1,0.1-0.2c0.1-0.2,0.1-0.3,0.2-0.5c0.2-0.7,0.3-1.6,0.4-2.4c0.1-0.9,0.1-1.8,0.1-2.7c0.1-1.8,0.1-3.7,0.1-5.5
		c0-1.9,0-3.7,0.1-5.7c0.1-1.9,0.4-3.9,1.1-5.9c0.4-1,0.8-2,1.7-2.9c0.4-0.4,0.9-0.8,1.5-1.1c0.6-0.2,1.2-0.4,1.7-0.4
		c0.3,0,0.6,0,0.8,0c0.3,0,0.6,0.1,0.9,0.2c0.6,0.2,1.1,0.7,1.3,1.3C237,300.8,236.7,301.8,236.3,302.7z"/>
	
		<ellipse transform="matrix(0.3777 -0.9259 0.9259 0.3777 -161.0552 408.5568)" style="fill:#211917;" cx="223.424" cy="324.098" rx="3" ry="2"/>
	
		<ellipse transform="matrix(0.3777 -0.9259 0.9259 0.3777 -133.1542 405.2203)" style="fill:#211917;" cx="234.893" cy="301.672" rx="2.5" ry="1.6"/>
</g>
<g>
	<path style="fill:#332826;" d="M264.4,137.4c-2.4,0-2.6,2.5-2.6,2.5h-9.6v2v2h9.6c0,0,0.3,2.5,2.6,2.5c0,0,6.2-0.3,6.2-4.5
		C270.6,137.6,264.4,137.4,264.4,137.4z"/>
	<path style="fill:#332826;" d="M264.4,123.3c-2.4,0-2.6,2.5-2.6,2.5h-9.6v2v2h9.6c0,0,0.3,2.5,2.6,2.5c0,0,6.2-0.3,6.2-4.5
		C270.6,123.6,264.4,123.3,264.4,123.3z"/>
	<path style="fill:#332826;" d="M231.2,137.1c2.4,0,2.6-2.5,2.6-2.5h9.6v-2v-2h-9.6c0,0-0.2-2.5-2.6-2.5c0,0-6.2,0.3-6.2,4.5
		S231.2,137.1,231.2,137.1z"/>
	<path style="fill:#332826;" d="M231.2,151.2c2.4,0,2.6-2.5,2.6-2.5h9.6v-2v-2h-9.6c0,0-0.2-2.5-2.6-2.5c0,0-6.2,0.3-6.2,4.5
		S231.2,151.2,231.2,151.2z"/>
</g>
<g>
	<path style="fill:#211917;" d="M259.7,302.7c0-0.5,0-0.9,0.1-1.4c0.1-0.4,0.2-0.9,0.5-1.1c0.5-0.5,1.1-0.5,1.9-0.3s1.3,0.6,1.6,1.2
		c0.4,0.6,0.6,1.3,0.8,2.2c0.3,1.6,0.4,3.4,0.4,5.2c0,0.9,0,1.8,0,2.8v2.8c0,1.9,0.1,3.8,0.3,5.7c0.1,1,0.2,1.9,0.4,2.9
		c0.2,1,0.5,2,0.9,3c0.1,0.3,0.3,0.5,0.4,0.8c0.1,0.1,0.2,0.3,0.3,0.4c0.1,0.1,0.1,0.1,0.1,0.2l0.1,0.2c0.4,0.4,0.8,0.8,1.3,1.1
		c1,0.6,2.2,0.9,3.4,0.7c0.6-0.1,1.2-0.4,1.6-0.8s0.8-0.9,0.9-1.4c0.3-1.1,0-2.1-0.4-2.9c0.1,0.9,0,1.9-0.5,2.6
		c-0.4,0.7-1.1,1-1.8,0.9c-0.7,0-1.3-0.4-1.9-0.8c-0.3-0.2-0.5-0.5-0.7-0.8l-0.1-0.1l-0.1-0.1c0-0.1-0.1-0.1-0.1-0.2
		c-0.1-0.2-0.1-0.3-0.2-0.5c-0.2-0.7-0.3-1.6-0.4-2.4c-0.1-0.9-0.1-1.8-0.1-2.7c-0.1-1.8-0.1-3.7-0.1-5.5c0-1.9,0-3.7-0.1-5.7
		c-0.1-1.9-0.4-3.9-1.1-5.9c-0.4-1-0.8-2-1.7-2.9c-0.4-0.4-0.9-0.8-1.5-1.1c-0.6-0.2-1.2-0.4-1.7-0.4c-0.3,0-0.6,0-0.8,0
		c-0.3,0-0.6,0.1-0.9,0.2c-0.6,0.2-1.1,0.7-1.3,1.3C259.1,300.8,259.4,301.8,259.7,302.7z"/>
	
		<ellipse transform="matrix(0.3778 0.9259 -0.9259 0.3778 469.7846 -50.808)" style="fill:#211917;" cx="272.695" cy="324.134" rx="3" ry="2"/>
	
		<ellipse transform="matrix(0.3778 0.9259 -0.9259 0.3778 441.7335 -54.015)" style="fill:#211917;" cx="261.056" cy="301.66" rx="2.5" ry="1.6"/>
</g>
<path style="fill:#B74E13;" d="M255,113.5c0,0-0.8-3.3-3.3-3.3c0,0-0.3-4.8-3.8-5h-0.2c-3.5,0.3-3.8,5-3.8,5c-2.5,0-3.3,3.3-3.3,3.3
	c-2.8,0.2-2.3,2.3-2.3,2.3c-0.3,3.8,3.8,3.8,3.8,3.8c-1,1.8,1,2.5,1,2.5l-1.8,25.6c-0.8,6.5,2.3,7.8,2.3,7.8l4.1-0.2l4.1,0.2
	c0,0,3-1.3,2.3-7.8l-1.8-25.6c0,0,2-0.8,1-2.5c0,0,4,0,3.8-3.8C257.2,115.8,257.7,113.7,255,113.5z"/>
<path style="fill:#A34116;" d="M252.5,122c0,0-1.5,0.8-4.6,0.8s-4.6-0.8-4.6-0.8s-1.1-0.4-1.3-1.3c-0.3,1.3,1.3,1.9,1.3,1.9
	s1.5,0.8,4.6,0.8s4.6-0.8,4.6-0.8s1.5-0.6,1.3-1.9C253.5,121.6,252.5,122,252.5,122z"/>
<g>
	<polygon style="fill:#A84614;" points="248.2,129.8 253,129.8 252.7,125.8 248.2,125.8 	"/>
	<polygon style="fill:#A84614;" points="247.9,130.6 242.6,130.6 242.3,134.6 247.9,134.6 	"/>
	<polygon style="fill:#A84614;" points="250.2,143.9 254,143.9 253.7,139.9 250.2,139.9 	"/>
	<path style="fill:#A84614;" d="M246,144.7h-4.4l-0.2,3c0,0.3-0.1,0.7-0.1,1h4.7V144.7z"/>
</g>
<path style="fill:#211917;" d="M265.2,388.5c-0.9-3.8-3.9-5.9-8.6-5.9c-2.2,0-4.1,0.5-4.6,0.6c-8.1,0.1-9.1-5.7-9.2-5.9v-0.1
	c-1.8-7.6-6-10.3-6.2-10.4c-3.3-2.2-7.4-3.2-12.1-3.2c-9.7,0-19.2,4.7-21.2,5.7c3.7,9.6,13.7,20.9,43.9,21.7l0,0c0.3,0,0.6,0,0.8,0
	c0.3,0,0.6,0,0.8,0l0,0c6.3-0.2,11.7-0.8,16.4-1.8l-0.1-0.6L265.2,388.5z"/>
<g>
	<path style="fill:#332826;" d="M252.2,384.2c-9.3,0.3-10.3-6.8-10.3-6.8c-1.8-7.3-5.8-9.8-5.8-9.8c-11.9-7.7-29.7,1.2-32.3,2.6
		c4,9.3,14.3,20,43.5,20.8l0,0c0.3,0,0.6,0,0.8,0c0.3,0,0.6,0,0.8,0l0,0c5.9-0.1,11-0.7,15.4-1.6l-0.1-0.7
		C262.5,381.2,252.2,384.2,252.2,384.2z"/>
	<polygon style="fill:#332826;" points="258.2,287.9 252.7,151.5 247.8,152.2 242.9,151.5 237.4,287.9 	"/>
</g>
<polygon style="fill:#A84614;" points="250.5,121 252.7,151.5 247.8,152.2 242.9,151.5 245.1,121 "/>
<path style="fill:#E8CB21;" d="M260.2,316.9l-1.9-1.2c-0.1-0.1-0.2-0.1-0.4-0.1h-19.7c-0.1,0-0.3,0-0.4,0.1l-1.9,1.2
	c-0.2,0.1-0.3,0.3-0.3,0.5s0.1,0.4,0.3,0.6l1.9,1.4c0.1,0.1,0.3,0.1,0.4,0.1h19.7c0.1,0,0.3,0,0.4-0.1l1.9-1.4
	c0.2-0.1,0.3-0.3,0.3-0.6C260.5,317.2,260.4,317.1,260.2,316.9z"/>
<g>
	<path style="fill:#CEA493;" d="M240.9,344.5c-0.1,0-0.2-0.1-0.2-0.2l-2-26.1l5.7-163.9l0.3-9.4c0-0.1,0.1-0.3,0.3-0.2
		c0.1,0,0.2,0.1,0.2,0.3l-0.3,9.4l-5.8,163.7l2,26.1C241.1,344.4,241,344.5,240.9,344.5L240.9,344.5z"/>
	<path style="fill:#CEA493;" d="M245.2,344.2c-0.1,0-0.2-0.1-0.3-0.2l-0.8-25.9l2.6-163.6l0.3-24.3c0-0.1,0.1-0.3,0.3-0.2
		c0.1,0,0.2,0.1,0.2,0.3l-0.2,24.3l-2.7,163.5l0.9,25.8C245.5,344,245.4,344.2,245.2,344.2C245.3,344.2,245.2,344.2,245.2,344.2z"/>
	<path style="fill:#CEA493;" d="M255.1,344.5L255.1,344.5c-0.2,0-0.3-0.1-0.3-0.3l2-26.1l-5.7-163.9l-0.4-14.6
		c0-0.1,0.1-0.3,0.2-0.3s0.3,0.1,0.3,0.2l0.4,14.6l5.7,163.9l-2,26.2C255.4,344.4,255.3,344.5,255.1,344.5z"/>
	<path style="fill:#CEA493;" d="M250.8,344.2L250.8,344.2c-0.1,0-0.3-0.1-0.3-0.3l0.9-25.8l-2.6-163.5l-0.3-29.1
		c0-0.1,0.1-0.3,0.2-0.3l0,0c0.1,0,0.2,0.1,0.3,0.2l0.3,29.1l2.6,163.5l-0.9,25.8C251,344.1,250.9,344.2,250.8,344.2z"/>
</g>
<path style="fill:#C45118;" d="M255,113.5c0,0-0.8-3.3-3.3-3.3c0,0-0.3-4.8-3.8-5h-0.2c-3.5,0.3-3.8,5-3.8,5c-2.5,0-3.3,3.3-3.3,3.3
	c-2.8,0.2-2.3,2.3-2.3,2.3c-0.3,3.8,3.8,3.8,3.8,3.8c-1,1.8,1,2.5,1,2.5s1.5,0.8,4.6,0.8s4.6-0.8,4.6-0.8s2-0.8,1-2.5
	c0,0,4,0,3.8-3.8C257.2,115.8,257.7,113.7,255,113.5z"/>
<g>
	<path style="fill:#B5491A;" d="M251.7,110.2c0,1.6,0.3,3.2,0.6,4.7c0.2,0.8,0.4,1.5,0.6,2.3s0.4,1.5,0.5,2.3l0,0
		c-0.4-0.7-0.7-1.4-1-2.2c-0.3-0.8-0.4-1.6-0.5-2.3C251.7,113.4,251.6,111.8,251.7,110.2L251.7,110.2z"/>
	<path style="fill:#B5491A;" d="M255,113.5c0.2,0.8,0.4,1.7,0.6,2.5c0.1,0.4,0.3,0.8,0.4,1.2c0.1,0.4,0.2,0.8,0.2,1.3l0,0
		c-0.3-0.4-0.4-0.8-0.6-1.2c-0.2-0.4-0.2-0.8-0.3-1.3C255.1,115.2,255,114.4,255,113.5L255,113.5z"/>
	<path style="fill:#B5491A;" d="M244,110.2c0.1,1.6,0,3.2-0.3,4.8c-0.1,0.8-0.3,1.6-0.5,2.3c-0.3,0.8-0.6,1.5-1,2.2l0,0
		c0.2-0.8,0.4-1.5,0.5-2.3c0.2-0.8,0.4-1.5,0.6-2.3C243.6,113.4,243.9,111.8,244,110.2L244,110.2z"/>
	<path style="fill:#B5491A;" d="M240.7,113.5c0,0.9-0.1,1.7-0.3,2.6c-0.1,0.4-0.1,0.9-0.3,1.3s-0.3,0.8-0.6,1.2l0,0
		c0-0.5,0.1-0.9,0.2-1.3c0.1-0.4,0.2-0.8,0.4-1.2C240.2,115.2,240.4,114.3,240.7,113.5L240.7,113.5z"/>
</g>
<rect x="174.506" y="140.203" transform="matrix(-0.9999 -0.016 0.016 -0.9999 345.9997 525.8849)" style="fill:#A09393;" width="1.2" height="242.707"/>
<path style="fill:#480500;" d="M165.1,384.1H165c-0.9,0-1.6-0.4-1.6-0.9c0-0.4,0.7-37.8,4-83.5s-1.8-189.6-1.8-191
	c0-0.4,0.7-0.8,1.6-0.8c0.9,0,1.7,0.3,1.7,0.8c0.1,1.4,5.1,145.4,1.8,191.1s-4,83.2-4.1,83.6C166.7,383.8,166,384.1,165.1,384.1z"/>
<path style="fill:#7C7B7B;" d="M178.3,133.2h-2.8c-0.3,0-0.5,0.2-0.5,0.5v6.4c0,0.3,0.2,0.5,0.5,0.5h2.8c0.3,0,0.5-0.2,0.5-0.5v-6.4
	C178.8,133.4,178.6,133.2,178.3,133.2z"/>
<g>
	<path style="fill:#480500;" d="M179.5,121.3c0-0.7,0-1.2-0.1-1.6c0-0.5-0.1-1.3-0.9-1.3l0,0c0,0-3.9-0.1-6.9-0.1
		c-1.1,0-1.9,0-2.5,0c-1,0-1.8,0.1-1.8,0.9v20.3c0,0.7,0.6,1.3,1.3,1.3h2.5c0.4,0,0.7-0.3,0.8-0.7l1.3-6.6h5.2
		c0.8,0,0.9-0.8,0.9-1.3c0-0.4,0-0.9,0.1-1.6c0-1.2,0.1-2.9,0.1-4.7S179.5,122.5,179.5,121.3z"/>
	<path style="fill:#480500;" d="M163.5,382.5c0,0-0.4,3.5,1.4,4.5c2.6,1.4,7.1,3.4,6.9,4.9c-0.2,1.4,0.4,2.4,0.8,0.4
		c0.4-2,1-7.9,1-7.9s1-2.6-1-2.2s-5.7,1.6-5.9-1.6C166.5,377.2,163.5,382.5,163.5,382.5z"/>
</g>
<circle style="fill:#7C443A;" cx="174" cy="125.2" r="1.8"/>
<path style="fill:#110909;" d="M167.3,107.8c-0.9,0-1.7,0.4-1.6,0.8c0,0.1,0.1,1.5,0.1,3.9h3.3c-0.1-2.4-0.1-3.8-0.1-3.9
	C169,108.2,168.2,107.8,167.3,107.8z"/>
<g>
</g>
<g>
</g>
<g>
</g>
<g>
</g>
<g>
</g>
<g>
</g>
<g>
</g>
<g>
</g>
<g>
</g>
<g>
</g>
<g>
</g>
<g>
</g>
<g>
</g>
<g>
</g>
<g>
</g>
</svg>
