<?xml version="1.0" encoding="iso-8859-1"?>
<!-- Generator: Adobe Illustrator 19.0.0, SVG Export Plug-In . SVG Version: 6.00 Build 0)  -->
<svg version="1.1" id="Capa_1" xmlns="http://www.w3.org/2000/svg" xmlns:xlink="http://www.w3.org/1999/xlink" x="0px" y="0px"
	 viewBox="0 0 512 512" style="enable-background:new 0 0 512 512;" xml:space="preserve">
<path style="fill:#AF653D;" d="M512,256c0,46.613-12.455,90.321-34.231,127.969c-4.786,8.276-10.021,16.259-15.673,23.907
	C415.483,471.04,340.532,512,256,512S96.517,471.04,49.904,407.876c-5.653-7.649-10.888-15.632-15.673-23.907
	C12.455,346.321,0,302.613,0,256s12.455-90.321,34.231-127.969c4.786-8.276,10.021-16.259,15.673-23.907
	c15.914-21.567,35.14-40.552,56.926-56.184c7.899-5.674,16.133-10.909,24.67-15.673C168.344,11.713,210.808,0,256,0
	s87.656,11.713,124.5,32.266c8.537,4.765,16.771,10,24.67,15.673c21.786,15.632,41.012,34.617,56.926,56.184
	c5.653,7.649,10.888,15.632,15.673,23.907C499.545,165.679,512,209.387,512,256z"/>
<path style="fill:#353434;" d="M477.769,58.953v325.015c-18.965,32.799-45.004,61.001-76.016,82.516
	c-7.064,4.901-14.388,9.456-21.943,13.636c-12.121,6.708-24.837,12.466-38.066,17.157c-11.619,4.138-23.625,7.45-35.944,9.874
	c-12.633,2.497-25.6,4.065-38.828,4.608c-3.636,0.167-7.293,0.24-10.971,0.24s-7.335-0.073-10.971-0.24
	c-13.228-0.543-26.196-2.111-38.828-4.608c-12.319-2.424-24.325-5.736-35.944-9.874c-13.228-4.692-25.945-10.449-38.066-17.157
	c-7.555-4.18-14.879-8.735-21.943-13.636c-31.013-21.514-57.051-49.716-76.016-82.516V58.953c0-14.733,11.943-26.687,26.676-26.687
	h390.175C465.815,32.266,477.769,44.22,477.769,58.953z"/>
<path style="fill:#5B5560;" d="M462.096,58.953v348.923C415.483,471.04,340.532,512,256,512S96.517,471.04,49.904,407.876V58.953
	c0-6.071,4.932-11.013,11.003-11.013h390.175C457.153,47.94,462.096,52.882,462.096,58.953z"/>
<g>
	<path style="fill:#353434;" d="M132.19,113.768V480.12c-7.555-4.18-14.879-8.735-21.943-13.636V113.768
		c0-6.06,4.911-10.971,10.971-10.971c3.03,0,5.778,1.223,7.764,3.208C130.968,107.99,132.19,110.738,132.19,113.768z"/>
	<path style="fill:#353434;" d="M266.971,113.768V511.76c-3.636,0.167-7.293,0.24-10.971,0.24s-7.335-0.073-10.971-0.24V113.768
		c0-6.06,4.911-10.971,10.971-10.971c3.03,0,5.768,1.223,7.753,3.208C265.738,107.99,266.971,110.738,266.971,113.768z"/>
	<path style="fill:#353434;" d="M401.753,113.768v352.716c-7.064,4.901-14.388,9.456-21.943,13.636V113.768
		c0-6.06,4.911-10.971,10.971-10.971c3.03,0,5.778,1.223,7.764,3.208C400.53,107.99,401.753,110.738,401.753,113.768z"/>
</g>
<path style="fill:#EDBB57;" d="M150.451,243.852H91.979c-6.359,0-11.514-5.154-11.514-11.514v-38.096
	c0-6.359,5.154-11.514,11.514-11.514h58.47c6.359,0,11.514,5.154,11.514,11.514v38.096
	C161.964,238.698,156.809,243.852,150.451,243.852z"/>
<path style="fill:#E6993A;" d="M150.451,224.805H91.979c-6.359,0-11.514-5.154-11.514-11.514l0,0
	c0-6.359,5.154-11.514,11.514-11.514h58.47c6.359,0,11.514,5.154,11.514,11.514l0,0
	C161.964,219.649,156.809,224.805,150.451,224.805z"/>
<path style="fill:#EDBB57;" d="M285.235,452.723h-58.47c-6.359,0-11.514-5.154-11.514-11.514v-38.096
	c0-6.359,5.154-11.514,11.514-11.514h58.47c6.359,0,11.514,5.154,11.514,11.514v38.096
	C296.749,447.568,291.594,452.723,285.235,452.723z"/>
<path style="fill:#E6993A;" d="M285.235,433.674h-58.47c-6.359,0-11.514-5.155-11.514-11.514l0,0
	c0-6.359,5.154-11.514,11.514-11.514h58.47c6.359,0,11.514,5.155,11.514,11.514l0,0C296.749,428.52,291.594,433.674,285.235,433.674
	z"/>
<path style="fill:#EDBB57;" d="M420.027,302.258h-58.47c-6.359,0-11.514-5.154-11.514-11.514v-38.096
	c0-6.359,5.155-11.514,11.514-11.514h58.47c6.359,0,11.514,5.154,11.514,11.514v38.096
	C431.541,297.103,426.386,302.258,420.027,302.258z"/>
<path style="fill:#E6993A;" d="M420.027,283.209h-58.47c-6.359,0-11.514-5.154-11.514-11.514l0,0
	c0-6.359,5.155-11.514,11.514-11.514h58.47c6.359,0,11.514,5.154,11.514,11.514l0,0
	C431.541,278.055,426.386,283.209,420.027,283.209z"/>
<g>
	<path style="fill:#353434;" d="M203.696,131.939h-30.177c-2.631,0-4.765-2.807-4.765-6.269l0,0c0-3.463,2.134-6.269,4.765-6.269
		h30.177c2.631,0,4.765,2.807,4.765,6.269l0,0C208.46,129.133,206.328,131.939,203.696,131.939z"/>
	<path style="fill:#353434;" d="M203.696,169.556h-30.177c-2.631,0-4.765-2.807-4.765-6.269l0,0c0-3.463,2.134-6.269,4.765-6.269
		h30.177c2.631,0,4.765,2.807,4.765,6.269l0,0C208.46,166.749,206.328,169.556,203.696,169.556z"/>
	<path style="fill:#353434;" d="M203.696,207.172h-30.177c-2.631,0-4.765-2.807-4.765-6.269l0,0c0-3.463,2.134-6.269,4.765-6.269
		h30.177c2.631,0,4.765,2.807,4.765,6.269l0,0C208.46,204.365,206.328,207.172,203.696,207.172z"/>
	<path style="fill:#353434;" d="M203.696,244.788h-30.177c-2.631,0-4.765-2.807-4.765-6.269l0,0c0-3.463,2.134-6.269,4.765-6.269
		h30.177c2.631,0,4.765,2.807,4.765,6.269l0,0C208.46,241.982,206.328,244.788,203.696,244.788z"/>
	<path style="fill:#353434;" d="M203.696,282.405h-30.177c-2.631,0-4.765-2.807-4.765-6.269l0,0c0-3.463,2.134-6.269,4.765-6.269
		h30.177c2.631,0,4.765,2.807,4.765,6.269l0,0C208.46,279.598,206.328,282.405,203.696,282.405z"/>
	<path style="fill:#353434;" d="M203.696,320.021h-30.177c-2.631,0-4.765-2.807-4.765-6.269l0,0c0-3.463,2.134-6.269,4.765-6.269
		h30.177c2.631,0,4.765,2.807,4.765,6.269l0,0C208.46,317.214,206.328,320.021,203.696,320.021z"/>
	<path style="fill:#353434;" d="M203.696,357.637h-30.177c-2.631,0-4.765-2.807-4.765-6.269l0,0c0-3.463,2.134-6.269,4.765-6.269
		h30.177c2.631,0,4.765,2.807,4.765,6.269l0,0C208.46,354.831,206.328,357.637,203.696,357.637z"/>
	<path style="fill:#353434;" d="M203.696,395.254h-30.177c-2.631,0-4.765-2.807-4.765-6.269l0,0c0-3.463,2.134-6.269,4.765-6.269
		h30.177c2.631,0,4.765,2.807,4.765,6.269l0,0C208.46,392.447,206.328,395.254,203.696,395.254z"/>
	<path style="fill:#353434;" d="M203.696,432.87h-30.177c-2.631,0-4.765-2.807-4.765-6.269l0,0c0-3.463,2.134-6.269,4.765-6.269
		h30.177c2.631,0,4.765,2.807,4.765,6.269l0,0C208.46,430.063,206.328,432.87,203.696,432.87z"/>
	<path style="fill:#353434;" d="M203.696,470.486h-30.177c-2.631,0-4.765-2.807-4.765-6.269l0,0c0-3.463,2.134-6.269,4.765-6.269
		h30.177c2.631,0,4.765,2.807,4.765,6.269l0,0C208.46,467.68,206.328,470.486,203.696,470.486z"/>
	<path style="fill:#353434;" d="M208.457,501.833c0,1.735-0.533,3.302-1.4,4.43c-0.261,0.345-0.543,0.637-0.857,0.888
		c-12.319-2.424-24.325-5.736-35.944-9.874c0.846-1.066,1.996-1.714,3.26-1.714h30.177
		C206.326,495.564,208.457,498.375,208.457,501.833z"/>
	<path style="fill:#353434;" d="M338.484,131.939h-30.177c-2.631,0-4.765-2.807-4.765-6.269l0,0c0-3.463,2.134-6.269,4.765-6.269
		h30.177c2.631,0,4.765,2.807,4.765,6.269l0,0C343.249,129.133,341.115,131.939,338.484,131.939z"/>
	<path style="fill:#353434;" d="M338.484,169.556h-30.177c-2.631,0-4.765-2.807-4.765-6.269l0,0c0-3.463,2.134-6.269,4.765-6.269
		h30.177c2.631,0,4.765,2.807,4.765,6.269l0,0C343.249,166.749,341.115,169.556,338.484,169.556z"/>
	<path style="fill:#353434;" d="M338.484,207.172h-30.177c-2.631,0-4.765-2.807-4.765-6.269l0,0c0-3.463,2.134-6.269,4.765-6.269
		h30.177c2.631,0,4.765,2.807,4.765,6.269l0,0C343.249,204.365,341.115,207.172,338.484,207.172z"/>
	<path style="fill:#353434;" d="M338.484,244.788h-30.177c-2.631,0-4.765-2.807-4.765-6.269l0,0c0-3.463,2.134-6.269,4.765-6.269
		h30.177c2.631,0,4.765,2.807,4.765,6.269l0,0C343.249,241.982,341.115,244.788,338.484,244.788z"/>
	<path style="fill:#353434;" d="M338.484,282.405h-30.177c-2.631,0-4.765-2.807-4.765-6.269l0,0c0-3.463,2.134-6.269,4.765-6.269
		h30.177c2.631,0,4.765,2.807,4.765,6.269l0,0C343.249,279.598,341.115,282.405,338.484,282.405z"/>
	<path style="fill:#353434;" d="M338.484,320.021h-30.177c-2.631,0-4.765-2.807-4.765-6.269l0,0c0-3.463,2.134-6.269,4.765-6.269
		h30.177c2.631,0,4.765,2.807,4.765,6.269l0,0C343.249,317.214,341.115,320.021,338.484,320.021z"/>
	<path style="fill:#353434;" d="M338.484,357.637h-30.177c-2.631,0-4.765-2.807-4.765-6.269l0,0c0-3.463,2.134-6.269,4.765-6.269
		h30.177c2.631,0,4.765,2.807,4.765,6.269l0,0C343.249,354.831,341.115,357.637,338.484,357.637z"/>
	<path style="fill:#353434;" d="M338.484,395.254h-30.177c-2.631,0-4.765-2.807-4.765-6.269l0,0c0-3.463,2.134-6.269,4.765-6.269
		h30.177c2.631,0,4.765,2.807,4.765,6.269l0,0C343.249,392.447,341.115,395.254,338.484,395.254z"/>
	<path style="fill:#353434;" d="M338.484,432.87h-30.177c-2.631,0-4.765-2.807-4.765-6.269l0,0c0-3.463,2.134-6.269,4.765-6.269
		h30.177c2.631,0,4.765,2.807,4.765,6.269l0,0C343.249,430.063,341.115,432.87,338.484,432.87z"/>
	<path style="fill:#353434;" d="M338.484,470.486h-30.177c-2.631,0-4.765-2.807-4.765-6.269l0,0c0-3.463,2.134-6.269,4.765-6.269
		h30.177c2.631,0,4.765,2.807,4.765,6.269l0,0C343.249,467.68,341.115,470.486,338.484,470.486z"/>
	<path style="fill:#353434;" d="M341.744,497.277c-11.619,4.138-23.625,7.45-35.944,9.874c-1.358-1.097-2.257-3.072-2.257-5.319
		c0-1.735,0.533-3.302,1.4-4.43c0.857-1.139,2.048-1.839,3.365-1.839h30.177C339.749,495.564,340.898,496.212,341.744,497.277z"/>
</g>
<g>
</g>
<g>
</g>
<g>
</g>
<g>
</g>
<g>
</g>
<g>
</g>
<g>
</g>
<g>
</g>
<g>
</g>
<g>
</g>
<g>
</g>
<g>
</g>
<g>
</g>
<g>
</g>
<g>
</g>
</svg>
