<?xml version="1.0" encoding="iso-8859-1"?>
<!-- Generator: Adobe Illustrator 19.0.0, SVG Export Plug-In . SVG Version: 6.00 Build 0)  -->
<svg version="1.1" id="Capa_1" xmlns="http://www.w3.org/2000/svg" xmlns:xlink="http://www.w3.org/1999/xlink" x="0px" y="0px"
	 viewBox="0 0 512 512" style="enable-background:new 0 0 512 512;" xml:space="preserve">
<path style="fill:#5B5560;" d="M512,256c0,141.385-114.615,256-256,256c-32.507,0-63.592-6.06-92.202-17.105
	c-14.67-5.663-28.682-12.643-41.9-20.793c-3.688-2.267-7.314-4.639-10.867-7.084c-32.977-22.685-60.364-52.914-79.684-88.179
	c-8.516-15.527-15.454-32.026-20.626-49.298c-1.661-5.538-3.135-11.16-4.42-16.844C2.173,294.463,0,275.487,0,256
	C0,114.615,114.615,0,256,0c91.126,0,171.123,47.606,216.482,119.306c1.024,1.609,2.027,3.239,3.009,4.88
	c17.586,29.194,29.487,62.192,34.21,97.458C511.227,232.876,512,244.349,512,256z"/>
<circle style="fill:#736F77;" cx="256" cy="192.784" r="184.947"/>
<path style="fill:#E6E6E6;" d="M509.701,221.644c-2.873,15.559-8.422,31.504-16.53,47.083
	c-9.206,17.701-21.723,34.931-37.355,50.563c-13.657,13.657-28.526,24.942-43.875,33.708
	c-33.144,18.954-68.483,26.237-98.576,20.637c-6.134-1.139-12.288-1.108-18.233-0.021c-12.194,2.226-23.406,8.882-31.284,18.975
	c-14.326,18.359-32.235,38.599-52.6,58.953c-16.196,16.196-32.298,30.835-47.449,43.353c-18.756-7.241-36.446-16.635-52.767-27.878
	c14.618-18.975,33.186-40.061,54.408-61.283c20.365-20.365,40.594-38.275,58.953-52.6c10.094-7.868,16.76-19.09,18.975-31.284
	c1.097-5.935,1.128-12.1-0.01-18.233c-2.017-10.815-2.361-22.309-1.097-34.137c2.236-21.076,9.592-43.207,21.734-64.428
	c8.767-15.35,20.052-30.218,33.708-43.875c14.242-14.242,29.811-25.893,45.85-34.806c1.567-0.888,3.135-1.724,4.712-2.55
	c44.189-22.988,91.345-25.433,124.217-4.514c5.016,3.187,9.697,6.917,13.991,11.212
	C508.959,153.004,516.221,186.326,509.701,221.644z"/>
<path style="fill:#C4C2C6;" d="M486.473,130.518c-2.968-2.968-6.666-5.068-10.982-6.332c-20.773-6.134-55.933,6.823-93.372,33.489
	c-15.715,11.191-31.848,24.806-47.48,40.448c-13.657,13.646-25.778,27.679-36.08,41.493c-22.267,29.821-36.101,58.619-38.849,80.363
	c-0.554,4.43-2.017,9.164-4.242,13.97c-4.556,9.853-12.278,20.02-21.849,28.411c-17.429,15.266-37.104,33.719-57.469,54.084
	c-20.438,20.438-38.954,40.197-54.251,57.657c-3.688-2.267-7.314-4.639-10.867-7.084c14.618-18.975,33.186-40.061,54.408-61.283
	c20.365-20.365,40.594-38.275,58.953-52.6c10.094-7.868,16.76-19.09,18.975-31.284c1.097-5.935,1.128-12.1-0.01-18.233
	c-5.601-30.083,1.682-65.432,20.637-98.565c8.767-15.35,20.052-30.218,33.708-43.875c15.632-15.632,32.862-28.15,50.563-37.355
	c44.189-22.988,91.345-25.433,124.217-4.514C477.497,122.493,482.179,126.224,486.473,130.518z"/>
<g>
	<path style="fill:#F45367;" d="M455.813,319.291c-13.654,13.654-28.527,24.936-43.873,33.706L263.99,205.049
		c8.77-15.346,20.053-30.219,33.706-43.873c15.634-15.634,32.864-28.151,50.567-37.356l144.904,144.904
		C483.962,286.426,471.446,303.657,455.813,319.291z"/>
	<path style="fill:#F45367;" d="M295.131,373.614c-12.194,2.226-23.406,8.882-31.284,18.975
		c-14.326,18.359-32.235,38.599-52.6,58.953c-16.196,16.196-32.298,30.835-47.449,43.353c-18.756-7.241-36.446-16.635-52.767-27.878
		c14.618-18.975,33.186-40.061,54.408-61.283c20.365-20.365,40.594-38.275,58.953-52.6c10.094-7.868,16.76-19.09,18.975-31.284
		L295.131,373.614z"/>
</g>
<g>
	<path style="fill:#D63247;" d="M382.119,157.674c-15.715,11.194-31.844,24.811-47.479,40.445
		c-13.654,13.654-25.779,27.685-36.086,41.494l-34.563-34.563c8.77-15.346,20.053-30.219,33.706-43.873
		c15.634-15.634,32.864-28.151,50.567-37.356L382.119,157.674z"/>
	<path style="fill:#D63247;" d="M255.467,333.949c-4.556,9.853-12.278,20.02-21.849,28.411
		c-17.429,15.266-37.104,33.719-57.469,54.084c-20.438,20.438-38.954,40.197-54.251,57.657c-3.688-2.267-7.314-4.639-10.867-7.084
		c14.618-18.975,33.186-40.061,54.408-61.283c20.365-20.365,40.594-38.275,58.953-52.6c10.094-7.868,16.76-19.09,18.975-31.284
		L255.467,333.949z"/>
</g>
<path style="fill:#F45367;" d="M343.552,126.37c-2.017,18.86-8.119,38.567-18.087,57.72c-9.206,17.701-21.713,34.931-37.355,50.573
	c-13.646,13.646-28.526,24.931-43.865,33.698c-0.658,0.376-1.327,0.752-1.985,1.118c-32.569,18.119-67.103,25.004-96.59,19.519
	c-6.134-1.139-12.298-1.108-18.233-0.01c-12.194,2.215-23.406,8.882-31.284,18.975c-14.326,18.359-32.235,38.588-52.6,58.953
	c-4.075,4.075-8.15,8.056-12.204,11.922c-11.243-20.501-19.749-42.715-25.046-66.142c17.45-16.906,34.607-31.869,50.395-44.189
	c10.094-7.879,16.76-19.09,18.975-31.284c1.097-5.945,1.118-12.1-0.021-18.233c-5.601-30.093,1.693-65.432,20.637-98.576
	c8.777-15.339,20.052-30.218,33.708-43.875c15.632-15.632,32.862-28.15,50.573-37.355c50.928-26.499,105.817-25.694,138.209,6.698
	C338.986,66.09,346.906,95.065,343.552,126.37z"/>
<path style="fill:#D63247;" d="M318.777,45.881c-17.251-17.251-59.131-5.047-104.354,27.157
	c-15.715,11.201-31.848,24.816-47.48,40.448c-13.657,13.657-25.778,27.69-36.091,41.493c-22.256,29.832-36.101,58.619-38.839,80.363
	c-0.564,4.441-2.027,9.164-4.253,13.97c-4.545,9.864-12.267,20.02-21.849,28.411c-16.771,14.702-35.641,32.35-55.192,51.816
	c-1.661-5.538-3.135-11.16-4.42-16.844c17.45-16.906,34.607-31.869,50.395-44.189c10.094-7.879,16.76-19.09,18.975-31.284
	c1.097-5.945,1.118-12.1-0.021-18.233c-5.601-30.093,1.693-65.432,20.637-98.576c8.777-15.339,20.052-30.218,33.708-43.875
	c15.632-15.632,32.862-28.15,50.573-37.355C231.497,12.685,286.386,13.49,318.777,45.881z"/>
<g>
	<path style="fill:#E6E6E6;" d="M288.113,234.658c-13.654,13.654-28.527,24.937-43.873,33.706L96.292,120.416
		c8.77-15.346,20.053-30.219,33.706-43.873c15.634-15.634,32.864-28.151,50.567-37.356l144.904,144.904
		C316.263,201.794,303.747,219.024,288.113,234.658z"/>
	<path style="fill:#E6E6E6;" d="M127.436,288.987c-12.194,2.215-23.406,8.882-31.284,18.975
		c-14.326,18.359-32.235,38.588-52.6,58.953c-4.075,4.075-8.15,8.056-12.204,11.922c-11.243-20.501-19.749-42.715-25.046-66.142
		c17.45-16.906,34.607-31.869,50.395-44.189c10.094-7.879,16.76-19.09,18.975-31.284L127.436,288.987z"/>
</g>
<g>
	<path style="fill:#C4C2C6;" d="M214.419,73.041c-15.715,11.194-31.844,24.811-47.479,40.445
		c-13.654,13.654-25.779,27.685-36.086,41.494l-34.563-34.563c8.77-15.346,20.053-30.219,33.706-43.873
		c15.634-15.634,32.864-28.151,50.567-37.356L214.419,73.041z"/>
	<path style="fill:#C4C2C6;" d="M87.761,249.313c-4.545,9.864-12.267,20.02-21.849,28.411
		c-16.771,14.702-35.641,32.35-55.192,51.816c-1.661-5.538-3.135-11.16-4.42-16.844c17.45-16.906,34.607-31.869,50.395-44.189
		c10.094-7.879,16.76-19.09,18.975-31.284L87.761,249.313z"/>
</g>
<g>
</g>
<g>
</g>
<g>
</g>
<g>
</g>
<g>
</g>
<g>
</g>
<g>
</g>
<g>
</g>
<g>
</g>
<g>
</g>
<g>
</g>
<g>
</g>
<g>
</g>
<g>
</g>
<g>
</g>
</svg>
