<?xml version="1.0" encoding="iso-8859-1"?>
<!-- Generator: Adobe Illustrator 19.0.0, SVG Export Plug-In . SVG Version: 6.00 Build 0)  -->
<svg version="1.1" id="Capa_1" xmlns="http://www.w3.org/2000/svg" xmlns:xlink="http://www.w3.org/1999/xlink" x="0px" y="0px"
	 viewBox="0 0 512.001 512.001" style="enable-background:new 0 0 512.001 512.001;" xml:space="preserve">
<path style="fill:#62D6EA;" d="M511.508,256.493c0,65.347-24.529,124.969-64.909,170.147c-4.516,5.058-9.24,9.939-14.142,14.621
	c-3.869,3.702-7.863,7.29-11.962,10.731c-12.41,10.471-25.843,19.773-40.12,27.741c-9.595,5.36-19.575,10.116-29.879,14.215
	c-29.222,11.649-61.113,18.052-94.496,18.052s-65.274-6.403-94.496-18.052c-9.25-3.681-18.23-7.884-26.907-12.588
	c-1.001-0.532-1.992-1.074-2.972-1.627c-14.277-7.968-27.71-17.27-40.13-27.741c-4.099-3.442-8.093-7.029-11.962-10.731
	c-4.912-4.683-9.626-9.563-14.142-14.632c-40.37-45.178-64.899-104.8-64.899-170.137C0.493,115.38,114.887,0.985,256,0.985
	S511.508,115.379,511.508,256.493z"/>
<circle style="fill:#82ECF7;" cx="255.998" cy="193.393" r="184.591"/>
<path style="fill:#E6993A;" d="M506.221,2.107c1.613,1.186,2.91,2.828,3.673,4.839c2.134,5.621-0.745,11.898-6.384,13.95
	L155.172,147.502l-0.016-0.026c-0.376,4.833-3.449,9.245-8.281,11.08c-6.665,2.53-14.121-0.823-16.65-7.488
	c-0.342-0.9-0.575-1.816-0.706-2.731c-0.857-5.858,2.429-11.73,8.194-13.919c4.832-1.834,10.059-0.57,13.547,2.794l-0.013-0.033
	L495.866,0.758C499.451-0.66,503.336-0.019,506.221,2.107z"/>
<path style="fill:#EDBB57;" d="M506.221,2.107c-0.723,3.471-3.14,6.511-6.697,7.868l-346.267,132.18l-0.017-0.026
	c-0.294,4.833-3.296,9.295-8.098,11.208c-5.832,2.315-12.349,0.093-15.622-5c-0.857-5.858,2.429-11.73,8.194-13.919
	c4.832-1.834,10.059-0.57,13.547,2.794l-0.012-0.033L495.866,0.758C499.451-0.66,503.336-0.019,506.221,2.107z"/>
<path style="fill:#E6993A;" d="M492.356,130.172c1.304,1.519,2.196,3.413,2.485,5.544c0.808,5.957-3.413,11.423-9.37,12.148
	L117.537,192.51l-0.01-0.028c-1.459,4.622-5.448,8.227-10.57,8.923c-7.065,0.958-13.569-3.991-14.528-11.056
	c-0.129-0.954-0.15-1.898-0.071-2.82c0.488-5.9,5.016-10.878,11.127-11.709c5.122-0.696,9.927,1.716,12.566,5.783l-0.005-0.035
	l366.528-55.049C486.387,125.946,490.027,127.448,492.356,130.172z"/>
<path style="fill:#EDBB57;" d="M492.356,130.172c-1.487,3.217-4.529,5.633-8.301,6.151L116.88,186.868l-0.01-0.029
	c-1.379,4.642-5.31,8.311-10.421,9.089c-6.203,0.938-12.052-2.699-14.089-8.399c0.488-5.9,5.016-10.878,11.127-11.709
	c5.122-0.696,9.927,1.716,12.566,5.783l-0.005-0.035l366.528-55.049C486.387,125.946,490.027,127.448,492.356,130.172z"/>
<path style="fill:#F45367;" d="M446.599,240.13v186.51c-18.887,21.16-41.267,39.16-66.223,53.093
	c-9.595,5.36-19.575,10.116-29.879,14.215H161.504c-10.304-4.099-20.284-8.854-29.879-14.215
	c-24.967-13.933-47.347-31.933-66.234-53.104v-186.5L446.599,240.13L446.599,240.13z"/>
<path style="fill:#D63247;" d="M134.598,250.559v230.802c-1.001-0.532-1.992-1.074-2.972-1.627
	c-14.277-7.968-27.71-17.27-40.13-27.741c-4.099-3.442-8.093-7.029-11.962-10.731c-4.912-4.683-9.626-9.563-14.142-14.632V250.559
	L134.598,250.559L134.598,250.559z"/>
<g>
	<path style="fill:#DCDBDD;" d="M446.599,250.559h-8.906l-54.627,100.149l-54.626-100.149h-17.823L255.99,350.707l-54.627-100.149
		h-17.813l-48.953,89.751l-5.673,10.398L74.298,250.559h-8.906v16.342l54.627,100.138l-40.485,74.222
		c3.869,3.702,7.863,7.29,11.962,10.731l37.429-68.622l5.673,10.398l48.953,89.751h17.813l54.627-100.149l54.627,100.149h17.823
		l54.626-100.149l37.429,68.622c4.099-3.442,8.093-7.029,11.962-10.731l-40.485-74.222l54.627-100.149L446.599,250.559
		L446.599,250.559z M192.457,467.188l-54.627-100.149l54.627-100.149l54.627,100.149L192.457,467.188z M319.523,467.188
		l-54.616-100.149l54.616-100.149l54.626,100.149L319.523,467.188z"/>
	<path style="fill:#DCDBDD;" d="M49.104,221.186v22.126c0,6.096,4.941,11.038,11.038,11.038h391.712
		c6.096,0,11.037-4.941,11.037-11.038v-22.126c0-6.096-4.941-11.038-11.037-11.038H60.142
		C54.045,210.148,49.104,215.089,49.104,221.186z"/>
</g>
<path style="fill:#C4C2C6;" d="M109.162,254.346H60.146c-6.101,0-11.044-4.943-11.044-11.034v-22.13
	c0-6.09,4.943-11.034,11.044-11.034h49.016c-6.101,0-11.044,4.943-11.044,11.034v22.13
	C98.117,249.402,103.061,254.346,109.162,254.346z"/>
<path style="fill:#DCDBDD;" d="M380.375,479.734c-36.804,20.555-79.218,32.267-124.375,32.267s-87.571-11.712-124.375-32.267
	H380.375z"/>
<path style="fill:#C4C2C6;" d="M134.598,340.31v53.458l-5.673-10.398l-37.429,68.622c-4.099-3.442-8.093-7.029-11.962-10.731
	l40.485-74.222L65.392,266.901v-16.342h8.906l54.627,100.149L134.598,340.31z"/>
<g>
</g>
<g>
</g>
<g>
</g>
<g>
</g>
<g>
</g>
<g>
</g>
<g>
</g>
<g>
</g>
<g>
</g>
<g>
</g>
<g>
</g>
<g>
</g>
<g>
</g>
<g>
</g>
<g>
</g>
</svg>
