<?xml version="1.0" encoding="iso-8859-1"?>
<!-- Generator: Adobe Illustrator 19.0.0, SVG Export Plug-In . SVG Version: 6.00 Build 0)  -->
<svg version="1.1" id="Capa_1" xmlns="http://www.w3.org/2000/svg" xmlns:xlink="http://www.w3.org/1999/xlink" x="0px" y="0px"
	 viewBox="0 0 512 512" style="enable-background:new 0 0 512 512;" xml:space="preserve">
<path style="fill:#F45367;" d="M512,256c0,141.385-114.615,256-256,256c-26.394,0-51.858-3.992-75.818-11.41
	c-5.057-1.567-10.052-3.281-14.973-5.151c-27.376-10.386-52.496-25.339-74.459-43.928c-4.472-3.772-8.808-7.701-13.009-11.776
	C29.79,393.206,0,328.087,0,256C0,114.615,114.615,0,256,0S512,114.615,512,256z"/>
<circle style="fill:#FC7385;" cx="256" cy="192.784" r="184.947"/>
<g>
	<path style="fill:#EDBB57;" d="M178.862,337.943c-6.4,6.139-15.925,6.959-21.274,1.833c-5.349-5.126-4.496-14.258,1.905-20.395
		c6.4-6.139,15.925-6.959,21.274-1.833C186.115,322.674,185.262,331.805,178.862,337.943z"/>
	<path style="fill:#EDBB57;" d="M111.668,406.502c-6.4,6.139-15.925,6.959-21.274,1.833c-5.349-5.126-4.496-14.258,1.905-20.395
		c6.401-6.138,15.925-6.959,21.274-1.833C118.922,391.232,118.069,400.364,111.668,406.502z"/>
	<path style="fill:#EDBB57;" d="M209.461,308.597c-6.4,6.139-15.925,6.959-21.274,1.833c-5.349-5.126-4.496-14.258,1.905-20.395
		c6.4-6.139,15.925-6.959,21.274-1.833C216.715,293.328,215.862,302.459,209.461,308.597z"/>
	<path style="fill:#EDBB57;" d="M240.061,279.251c-6.4,6.139-15.925,6.959-21.274,1.833c-5.349-5.126-4.496-14.258,1.905-20.395
		c6.4-6.139,15.925-6.959,21.274-1.833C247.314,263.982,246.461,273.113,240.061,279.251z"/>
	<path style="fill:#EDBB57;" d="M269.424,248.72c-5.583,5.355-13.892,6.071-18.557,1.599c-4.665-4.472-3.923-12.437,1.661-17.791
		c5.583-5.355,13.892-6.071,18.558-1.599C275.751,235.4,275.008,243.366,269.424,248.72z"/>
	<path style="fill:#EDBB57;" d="M300.024,219.374c-5.583,5.355-13.892,6.071-18.558,1.599c-4.665-4.471-3.923-12.437,1.661-17.791
		c5.583-5.355,13.892-6.071,18.557-1.599C306.35,206.054,305.607,214.02,300.024,219.374z"/>
	<path style="fill:#EDBB57;" d="M329.63,189.076c-4.927,4.725-12.259,5.357-16.376,1.411c-4.117-3.946-3.461-10.975,1.466-15.7
		c4.927-4.725,12.259-5.357,16.376-1.411C335.213,177.322,334.556,184.351,329.63,189.076z"/>
	<path style="fill:#EDBB57;" d="M421.157,109.422l-48.818,61.273l-188.27,210.923l-49.915,55.913
		c-2.027,2.299-2.978,5.13-2.873,7.931s1.296,5.569,3.5,7.69c4.88,4.66,12.831,4.462,17.429-0.439
		c14.179-15.12,19.007-21.494,56.226-59.214c21.431-21.713,39.006-37.094,54.742-48.243c0.01,0,0.01-0.01,0.021-0.01
		c22.079-15.642,40.563-22.925,61.074-27.638c13.375-3.062,19.675-10.156,22.643-16.029c0.721-1.452,2.967-1.034,3.041,0.564
		c0.345,7.962,0.867,20.041,1.411,33.144c0.031,0.637,0.052,1.285,0.084,1.933c1.306,31.786,2.685,68.702,1.933,67.814
		c-16.792-19.989-48.358-20.898-67.302-2.748l-95.368,90.07c-3.271,3.145-6.802,5.883-10.533,8.234
		c-38.943-12.058-73.906-33.165-102.442-60.855c1.703-13.678,8.035-26.927,19.007-37.428l52.005-49.842l251.026-247.724
		c0.125-0.125,0.23-0.24,0.345-0.376c12.392-12.518,9.697-32.016-3.835-41.514c-2.33-1.63-4.974-2.988-7.91-3.939l-17.92-5.851
		c-16.008-3.563-30.469-11.776-41.42-23.5l8.902-8.537c9.801,8.756,21.42,15.412,34.095,19.54l32.423,10.553
		C429.975,59.423,438.7,89.799,421.157,109.422z"/>
</g>
<g>
	<path style="fill:#E6993A;" d="M412.63,107.154L161.614,365.328l-52.015,49.842c-10.668,10.219-16.948,23.05-18.85,36.342
		c-4.472-3.772-8.808-7.701-13.009-11.776c1.703-13.678,8.035-26.927,19.007-37.428l52.005-49.842l251.026-247.724
		c0.125-0.125,0.23-0.24,0.345-0.376c12.382-12.518,9.697-32.016-3.835-41.514C411.564,70.75,426.809,81.857,412.63,107.154z"/>
	<path style="fill:#E6993A;" d="M194.268,373.809c-1.13,0-2.261-0.419-3.141-1.262l-20.554-19.695
		c-1.81-1.735-1.871-4.609-0.137-6.42c1.736-1.811,4.609-1.871,6.42-0.137l20.554,19.695c1.81,1.735,1.871,4.609,0.137,6.42
		C196.655,373.34,195.463,373.809,194.268,373.809z"/>
	<path style="fill:#E6993A;" d="M153.361,387.303c-1.13,0-2.261-0.419-3.141-1.262l-20.554-19.695
		c-1.81-1.735-1.871-4.609-0.137-6.42c1.736-1.811,4.609-1.871,6.42-0.137l20.554,19.695c1.81,1.735,1.871,4.609,0.137,6.42
		C155.748,386.835,154.555,387.303,153.361,387.303z"/>
	<path style="fill:#E6993A;" d="M222.46,342.143c-1.13,0-2.261-0.419-3.141-1.262l-18.127-17.368
		c-1.81-1.735-1.871-4.609-0.137-6.42c1.735-1.811,4.609-1.871,6.42-0.137l18.127,17.368c1.81,1.735,1.871,4.609,0.137,6.42
		C224.847,341.674,223.654,342.143,222.46,342.143z"/>
	<path style="fill:#E6993A;" d="M250.651,310.477c-1.13,0-2.261-0.419-3.141-1.262l-15.699-15.042
		c-1.81-1.735-1.871-4.609-0.137-6.42c1.736-1.811,4.609-1.871,6.42-0.137l15.699,15.042c1.81,1.735,1.871,4.609,0.137,6.42
		C253.039,310.009,251.845,310.477,250.651,310.477z"/>
	<path style="fill:#E6993A;" d="M278.844,278.811c-1.13,0-2.261-0.419-3.141-1.262l-13.27-12.715
		c-1.81-1.735-1.871-4.609-0.137-6.42c1.735-1.811,4.609-1.871,6.42-0.137l13.27,12.715c1.81,1.735,1.871,4.609,0.137,6.42
		C281.23,278.343,280.038,278.811,278.844,278.811z"/>
	<path style="fill:#E6993A;" d="M307.035,247.146c-1.13,0-2.261-0.419-3.141-1.262l-10.842-10.389
		c-1.81-1.735-1.871-4.609-0.137-6.42c1.736-1.811,4.609-1.871,6.42-0.137l10.842,10.389c1.81,1.735,1.871,4.609,0.137,6.42
		C309.421,246.677,308.229,247.146,307.035,247.146z"/>
	<path style="fill:#E6993A;" d="M337.659,216.036c-1.13,0-2.261-0.419-3.141-1.262l-10.842-10.389
		c-1.81-1.735-1.871-4.609-0.137-6.42c1.736-1.811,4.609-1.871,6.42-0.137l10.842,10.389c1.81,1.735,1.871,4.609,0.137,6.42
		C340.046,215.568,338.853,216.036,337.659,216.036z"/>
</g>
<g>
	<path style="fill:#F4D984;" d="M233.429,415.678c8.563-8.205,8.563-21.507,0-29.712s-22.445-8.205-31.008,0
		c-8.563,8.205-8.563,21.507,0,29.712C210.984,423.883,224.866,423.883,233.429,415.678z"/>
	<path style="fill:#F4D984;" d="M198.809,452.002c8.563-8.205,8.563-21.507,0-29.712c-8.563-8.205-22.445-8.205-31.008,0
		s-8.563,21.507,0,29.712C176.362,460.206,190.246,460.206,198.809,452.002z"/>
</g>
<path style="fill:#5B5560;" d="M327.047,35.047l-26.072-24.982c-3.374-3.233-1.21-8.932,3.459-9.11l18.402-0.705
	c1.434-0.055,2.829,0.474,3.864,1.467l17.24,16.519c2.174,2.084,2.174,5.56,0,7.643l-9.569,9.169
	C332.324,37.008,329.094,37.008,327.047,35.047z"/>
<path style="fill:#E6993A;" d="M353.384,405.034c-16.792-19.989-48.358-20.898-67.302-2.748l-95.368,90.07
	c-3.271,3.145-6.802,5.883-10.533,8.234c-5.057-1.567-10.052-3.281-14.973-5.151c44.586-23.489,90.791-84.302,135.063-119.265
	c20.783-16.405,43.133-20.428,43.133-44.262l7.962,3.375C352.695,367.491,354.137,405.943,353.384,405.034z"/>
<g>
	<path style="fill:#F4D984;" d="M204.655,377.758c-5.896,6.624-15.328,8.192-21.063,3.504c-5.736-4.688-5.606-13.858,0.292-20.482
		s15.328-8.192,21.063-3.504C210.682,361.964,210.551,371.134,204.655,377.758z"/>
	<path style="fill:#F4D984;" d="M232.846,346.092c-5.896,6.624-15.328,8.192-21.063,3.504c-5.736-4.688-5.606-13.858,0.292-20.482
		c5.896-6.624,15.328-8.192,21.063-3.504C238.873,330.298,238.743,339.469,232.846,346.092z"/>
	<path style="fill:#F4D984;" d="M261.037,314.426c-5.896,6.624-15.328,8.192-21.063,3.504c-5.736-4.688-5.606-13.858,0.292-20.482
		c5.896-6.624,15.328-8.192,21.063-3.504C267.065,298.633,266.935,307.803,261.037,314.426z"/>
	<path style="fill:#F4D984;" d="M287.904,281.676c-5.144,5.778-13.37,7.146-18.375,3.056s-4.89-12.089,0.254-17.868
		c5.144-5.778,13.371-7.146,18.375-3.056C293.162,267.899,293.048,275.899,287.904,281.676z"/>
	<path style="fill:#F4D984;" d="M316.095,250.011c-5.144,5.778-13.371,7.146-18.375,3.056c-5.004-4.09-4.89-12.089,0.254-17.868
		c5.144-5.778,13.37-7.146,18.375-3.056C321.353,236.233,321.239,244.232,316.095,250.011z"/>
	<path style="fill:#F4D984;" d="M343.222,217.475c-4.539,5.099-11.799,6.306-16.214,2.697c-4.416-3.609-4.315-10.668,0.225-15.766
		c4.539-5.099,11.799-6.306,16.214-2.697C347.862,205.316,347.762,212.376,343.222,217.475z"/>
	<path style="fill:#F4D984;" d="M371.414,185.808c-4.539,5.099-11.799,6.306-16.214,2.697c-4.416-3.609-4.315-10.668,0.225-15.766
		c4.539-5.099,11.799-6.306,16.214-2.697S375.953,180.71,371.414,185.808z"/>
</g>
<path style="fill:#EDBB57;" d="M145.813,374.274c-6.425,6.157-15.955,7.006-21.287,1.898s-4.445-14.24,1.98-20.396
	c6.425-6.157,15.955-7.006,21.287-1.898C153.125,358.986,152.238,368.118,145.813,374.274z"/>
<g>
	<path style="fill:#E6993A;" d="M351.45,337.22c-4.807,1.599-8.046,0.512-8.046-5.308c0-22.591-67.239,4.859-80.206,13.333
		c22.079-15.642,40.563-22.925,61.074-27.638c13.375-3.062,19.675-10.156,22.643-16.029c0.721-1.452,2.967-1.034,3.041,0.564
		c0.345,7.962,0.867,20.041,1.411,33.144C351.398,335.924,351.419,336.572,351.45,337.22z"/>
	<path style="fill:#E6993A;" d="M359.216,299.524v103.443c0,4.37-3.531,7.912-7.9,7.912c-4.37,0-7.912-3.541-7.912-7.912V299.524
		c0-4.37,3.541-7.912,7.912-7.912c2.191,0,4.166,0.885,5.585,2.315C358.33,295.358,359.216,297.333,359.216,299.524z"/>
</g>
<path style="fill:#EDBB57;" d="M359.216,299.524v79.038c0,4.37-3.531,7.912-7.9,7.912c-4.37,0-7.912-3.541-7.912-7.912v-79.038
	c0-4.37,3.541-7.912,7.912-7.912c2.191,0,4.166,0.885,5.585,2.315C358.33,295.358,359.216,297.333,359.216,299.524z"/>
<g>
</g>
<g>
</g>
<g>
</g>
<g>
</g>
<g>
</g>
<g>
</g>
<g>
</g>
<g>
</g>
<g>
</g>
<g>
</g>
<g>
</g>
<g>
</g>
<g>
</g>
<g>
</g>
<g>
</g>
</svg>
