<?xml version="1.0" encoding="utf-8"?>
<!-- Generator: Adobe Illustrator 16.0.0, SVG Export Plug-In . SVG Version: 6.00 Build 0)  -->
<!DOCTYPE svg PUBLIC "-//W3C//DTD SVG 1.1//EN" "http://www.w3.org/Graphics/SVG/1.1/DTD/svg11.dtd">
<svg version="1.1" id="Capa_1" xmlns="http://www.w3.org/2000/svg" xmlns:xlink="http://www.w3.org/1999/xlink" x="0px" y="0px"
	 width="612px" height="792px" viewBox="0 0 612 792" enable-background="new 0 0 612 792" xml:space="preserve">
<path fill="#EDBB57" d="M612,396c0,168.999-137.001,306-306,306c-49.934,0-97.058-11.953-138.699-33.16
	c-24.643-12.552-47.374-28.352-67.595-46.837c-10.204-9.317-19.783-19.335-28.664-29.951
	c-18.435-22.082-33.834-46.813-45.513-73.516C9.104,481.018,0,439.576,0,396C0,227.001,137.001,90,306,90S612,227.001,612,396z"/>
<circle fill="#F4D984" cx="306" cy="320.437" r="221.07"/>
<g>
	<path fill="#DCDBDD" d="M554.72,117.143c5.106-5.106-1.743-20.233-6.85-25.339s-6.536,1.743-11.643,6.849
		s-11.955,6.536-6.849,11.641C534.486,115.4,549.613,122.249,554.72,117.143z"/>
	<path fill="#DCDBDD" d="M577.847,140.27c5.106-5.106,20.232,1.743,25.339,6.849s-1.742,6.536-6.849,11.641
		c-5.106,5.106-6.536,11.956-11.643,6.849C579.589,160.503,572.741,145.376,577.847,140.27z"/>
	<path fill="#DCDBDD" d="M523.808,148.055c5.106-5.106-1.743-20.233-6.85-25.339s-6.536,1.743-11.642,6.849
		c-5.106,5.106-11.956,6.536-6.85,11.641C503.572,146.313,518.701,153.163,523.808,148.055z"/>
	<path fill="#DCDBDD" d="M546.935,171.182c5.106-5.106,20.232,1.743,25.339,6.849s-1.742,6.536-6.849,11.641
		c-5.106,5.106-6.536,11.956-11.643,6.849C548.677,191.416,541.828,176.289,546.935,171.182z"/>
</g>
<path fill="#AF653D" d="M326.945,440.526c6.856,26.241,1.724,52.957-16.299,70.967c-7.669,7.682-16.336,15.075-25.592,21.995
	c-1.598-1.086-3.322-2.049-5.171-2.785c-16.474-6.682-36.42,4.122-44.527,24.13c-5.958,14.676-3.872,30.213,4.172,40.105
	c-15.45,25.979-30.426,46.849-39.855,56.278c-8.93,8.931-20.046,14.764-32.374,17.623
	c-62.948-32.074-113.332-85.293-141.771-150.303c3.209-9.691,8.444-18.435,15.738-25.729c9.43-9.43,30.313-24.405,56.279-39.855
	c9.893,8.043,25.429,10.129,40.105,4.172c20.008-8.105,30.813-28.04,24.13-44.527c-0.761-1.873-1.724-3.609-2.835-5.221
	c6.92-9.192,14.314-17.823,22.044-25.542c18.01-18.01,44.727-23.155,70.967-16.299c21.882,5.708,45.164-0.687,61.15-16.673
	l30.3,30.3C327.42,395.15,321.238,418.644,326.945,440.526z"/>
<g>
	<path fill="#DCDBDD" d="M205.315,531.47l-12.601,12.601c-1.707,1.707-4.475,1.707-6.181,0l-38.117-38.117
		c-1.707-1.707-1.707-4.476,0-6.181l12.601-12.602c1.707-1.706,4.475-1.706,6.181,0l38.118,38.118
		C207.022,526.994,207.022,529.762,205.315,531.47z"/>
	<path fill="#DCDBDD" d="M168.134,572.43l-48.079-48.079c-1.951-1.951-1.951-5.115,0-7.065l0,0c1.951-1.951,5.115-1.951,7.065,0
		l48.079,48.079c1.951,1.95,1.951,5.114,0,7.065l0,0C173.249,574.38,170.084,574.38,168.134,572.43z"/>
	<path fill="#DCDBDD" d="M138.599,592.527l-38.893,29.477c-10.204-9.317-19.783-19.334-28.664-29.951l28.914-38.169L138.599,592.527
		z"/>
</g>
<circle fill="#353434" cx="169.786" cy="633.956" r="10.534"/>
<rect x="493.23" y="177.863" transform="matrix(0.7071 0.7071 -0.7071 0.7071 278.4978 -306.6466)" width="32.359" height="9.99"/>
<path fill="#EAC76C" d="M609.723,126.435l-5.846,1.714c-4.266,1.246-8.267,3.267-11.799,5.953
	c-9.459,7.198-18.396,14.988-26.752,23.342c-11.101,11.101-21.196,23.209-30.221,36.226l-14.246,0.627l-2.296,2.385l-3.471,3.594
	l-21.195,21.992l-5.758,5.987l-21.198,21.991l-5.766,5.979l-21.196,21.991l-5.767,5.979l-21.196,21.991l-5.758,5.987l-21.196,21.991
	l-5.767,5.979l-15.693,16.277l-5.758,5.987l-15.693,16.276l-5.768,5.979l-15.685,16.285l-5.767,5.979l-15.693,16.276l-5.758,5.987
	l-13.354,13.848l-31.891-31.891l13.848-13.354l5.987-5.757l16.276-15.693l5.979-5.767l16.285-15.685l5.979-5.766l16.276-15.693
	l5.987-5.758l16.276-15.693l5.979-5.766l21.99-21.196l5.987-5.758l21.991-21.197l5.979-5.767l21.99-21.195l5.979-5.766
	l21.991-21.197l5.987-5.758l21.99-21.196l3.594-3.471l2.385-2.296l0.628-14.246c24.736-17.142,46.153-38.188,63.711-62.582
	c0.159-0.212,0.318-0.406,0.495-0.583c1.678-1.678,4.397-1.855,6.297-0.309c6.359,5.194,13.01,10.042,19.871,14.538
	c6.87,4.486,13.988,8.619,21.302,12.363C612.814,121.895,612.47,125.63,609.723,126.435z"/>
<path fill="#AF653D" d="M609.723,126.435l-5.846,1.714c-4.266,1.246-8.267,3.267-11.799,5.953
	c-9.459,7.198-18.396,14.988-26.752,23.342c-11.101,11.101-21.196,23.209-30.221,36.226l-14.246,0.627l-2.296,2.385l-22.972-22.972
	l2.385-2.296l0.628-14.246c24.737-17.142,46.153-38.188,63.711-62.582c0.159-0.213,0.318-0.406,0.495-0.583
	c1.678-1.678,4.397-1.855,6.297-0.308c6.359,5.193,13.01,10.042,19.871,14.537c6.87,4.486,13.988,8.62,21.302,12.363
	C612.814,121.895,612.47,125.63,609.723,126.435z"/>
<g>
	<circle fill="#DCDBDD" cx="558.031" cy="120.455" r="8.43"/>
	<circle fill="#DCDBDD" cx="528.443" cy="150.038" r="8.431"/>
	<circle fill="#DCDBDD" cx="543.019" cy="164.613" r="8.43"/>
	<circle fill="#DCDBDD" cx="572.607" cy="135.026" r="8.431"/>
</g>
<g>
	<polygon fill="#5B5560" points="488.137,228.253 464.018,204.134 470.008,198.376 493.896,222.266 	"/>
	<polygon fill="#5B5560" points="461.176,256.223 436.049,231.097 442.027,225.331 466.942,250.244 	"/>
	<polygon fill="#5B5560" points="434.213,284.193 408.08,258.06 414.058,252.292 439.979,278.214 	"/>
	<polygon fill="#5B5560" points="407.259,312.171 380.101,285.014 386.088,279.255 413.017,306.183 	"/>
	<polygon fill="#5B5560" points="380.296,340.141 352.131,311.978 358.109,306.209 386.063,334.162 	"/>
	<polygon fill="#5B5560" points="358.844,362.406 329.867,333.429 335.854,327.671 364.602,356.417 	"/>
	<polygon fill="#5B5560" points="337.382,384.661 307.611,354.89 313.59,349.124 343.149,378.682 	"/>
	<polygon fill="#5B5560" points="315.931,406.927 285.347,376.342 291.325,370.575 321.697,400.947 	"/>
	<polygon fill="#5B5560" points="294.479,429.19 263.081,397.793 269.07,392.035 300.236,423.203 	"/>
</g>
<path fill="#DCDBDD" d="M284.018,452.767l-11.946,11.946c-1.887,1.887-4.949,1.887-6.837,0l-37.463-37.464
	c-1.887-1.888-1.887-4.948,0-6.837l11.946-11.946c1.887-1.888,4.948-1.888,6.837,0l37.463,37.464
	C285.906,447.818,285.906,450.878,284.018,452.767z"/>
<g>
	
		<rect x="300.926" y="94.669" transform="matrix(0.7014 0.7128 -0.7128 0.7014 353.5721 -105.5789)" fill="#FFFFFF" width="3.747" height="549.097"/>
	
		<rect x="307.683" y="101.397" transform="matrix(0.7056 0.7086 -0.7086 0.7056 357.5399 -108.6717)" fill="#FFFFFF" width="3.747" height="549.132"/>
	
		<rect x="41.95" y="381.054" transform="matrix(-0.7055 0.7087 -0.7087 -0.7055 811.2015 428.7687)" fill="#FFFFFF" width="549.131" height="3.747"/>
	
		<rect x="48.671" y="387.787" transform="matrix(-0.7015 0.7127 -0.7127 -0.7015 827.725 432.621)" fill="#FFFFFF" width="549.175" height="3.748"/>
</g>
<rect x="79.786" y="568.209" transform="matrix(0.7071 0.7071 -0.7071 0.7071 440.2552 83.5468)" fill="#DCDBDD" width="78.984" height="9.992"/>
<polygon fill="#5B5560" points="515.091,200.275 491.998,177.18 497.977,171.414 520.859,194.296 "/>
<path fill="#FF0000" d="M237.69,671.104c-11.908,1.121-24.285-2.59-34.279-11.409L22.308,500.024
	c-20.005-17.636-22.958-49.002-6.597-70.063c16.36-21.061,45.835-23.837,65.84-6.199l144.877,127.73l266.605-343.191
	c16.362-21.055,45.843-23.837,65.836-6.199c20.011,17.637,22.963,49.01,6.598,70.064L269.247,653.495
	C261.065,664.02,249.605,669.98,237.69,671.104z"/>
</svg>
