<?xml version="1.0" encoding="iso-8859-1"?>
<!-- Generator: Adobe Illustrator 19.0.0, SVG Export Plug-In . SVG Version: 6.00 Build 0)  -->
<svg version="1.1" id="Capa_1" xmlns="http://www.w3.org/2000/svg" xmlns:xlink="http://www.w3.org/1999/xlink" x="0px" y="0px"
	 viewBox="0 0 512 512" style="enable-background:new 0 0 512 512;" xml:space="preserve">
<path style="fill:#62D6EA;" d="M512,256c0,141.385-114.615,256-256,256c-13.761,0-27.272-1.087-40.448-3.187
	c-3.542-0.554-7.053-1.191-10.543-1.891c-41.556-8.401-79.454-26.864-111.062-52.736c-13.113-10.731-25.14-22.747-35.903-35.84
	C32.141,386.79,13.625,348.923,5.162,307.399c-0.711-3.479-1.348-7.001-1.912-10.533C1.108,283.554,0,269.908,0,256
	C0,114.615,114.615,0,256,0S512,114.615,512,256z"/>
<circle style="fill:#82ECF7;" cx="256" cy="192.784" r="184.947"/>
<g>
	<path style="fill:#DDDAE0;" d="M458.68,15.579c3.186-3.186,0.6-10.938-2.586-14.124c-3.186-3.186-5.766-0.6-8.952,2.586
		c-3.186,3.186-5.772,5.766-2.586,8.952C447.743,16.179,455.494,18.765,458.68,15.579z"/>
	<path style="fill:#DDDAE0;" d="M444.983,33.71c3.186-3.186,0.6-10.938-2.586-14.124c-3.186-3.186-5.766-0.6-8.952,2.586
		c-3.186,3.186-5.772,5.766-2.586,8.952C434.045,34.31,441.797,36.896,444.983,33.71z"/>
	<path style="fill:#DDDAE0;" d="M426.852,47.407c3.186-3.186,0.6-10.938-2.586-14.124c-3.186-3.186-5.766-0.6-8.952,2.586
		s-5.772,5.766-2.586,8.952C415.915,48.007,423.666,50.594,426.852,47.407z"/>
	<path style="fill:#DDDAE0;" d="M496.418,53.318c3.186-3.186,10.938-0.6,14.124,2.586c3.186,3.186,0.6,5.766-2.586,8.952
		c-3.186,3.186-5.766,5.772-8.952,2.586C495.819,64.255,493.233,56.504,496.418,53.318z"/>
	<path style="fill:#DDDAE0;" d="M478.287,67.015c3.186-3.186,10.938-0.6,14.124,2.586c3.186,3.186,0.6,5.766-2.586,8.952
		s-5.766,5.772-8.952,2.586S475.102,70.2,478.287,67.015z"/>
	<path style="fill:#DDDAE0;" d="M464.591,85.146c3.186-3.186,10.938-0.6,14.124,2.586c3.186,3.186,0.6,5.766-2.586,8.952
		c-3.186,3.186-5.766,5.772-8.952,2.586C463.99,96.083,461.404,88.331,464.591,85.146z"/>
</g>
<path style="fill:#D63247;" d="M340.449,307.44c-2.644,7.774-6.98,14.942-13.04,21.002c-5.799,5.799-14.66,9.874-25.098,12.34
	c-30.741,7.241-51.733,35.965-49.946,67.521c2.09,37.271-9.561,73.373-34.085,97.896c-0.899,0.899-1.808,1.776-2.727,2.612
	c-3.542-0.554-7.053-1.191-10.543-1.891C104.667,486.64,25.6,407.688,5.162,307.399c-0.711-3.479-1.348-7.001-1.912-10.533
	c0.899-0.993,1.839-1.964,2.79-2.915c23.019-23.03,56.289-34.722,91.146-34.314c32.057,0.387,59.34-22.277,65.317-53.781
	c2.309-12.184,6.656-22.58,13.197-29.121c23.468-23.479,63.812-21.201,90.081,5.078c3.897,3.897,12.361,16.677,15.193,21.096
	l11.755,45.599c0.606,6.353,3.333,12.549,8.192,17.398c4.995,5.005,11.41,7.753,17.93,8.255
	C335.067,275.404,345.725,292.07,340.449,307.44z"/>
<path style="fill:#F45367;" d="M332.549,304.724c-2.33,6.813-6.04,12.8-11.055,17.805c-4.399,4.399-11.692,7.899-21.096,10.115
	c-34.701,8.171-58.41,40.187-56.383,76.131c2.027,36.018-9.509,69.381-31.64,91.512c-2.361,2.361-4.817,4.566-7.367,6.635
	C104.667,486.64,25.6,407.688,5.162,307.399c2.111-2.612,4.368-5.12,6.781-7.534c20.647-20.647,51.681-32.256,85.149-31.869
	c35.924,0.428,66.884-25.046,73.624-60.583c2.121-11.201,5.883-19.769,10.888-24.775c20.177-20.177,55.296-17.899,78.273,5.078
	c2.602,2.612,9.206,12.204,13.333,18.578l11.264,43.708c0.951,8.223,4.671,15.956,10.543,21.817c6.207,6.207,14.44,10,23.197,10.679
	c4.911,0.376,8.244,2.769,10.188,4.712C332.999,291.798,334.618,298.674,332.549,304.724z"/>
<path style="fill:#EDBB57;" d="M505.204,50.144c-19.92,9.842-38.169,33.677-43.71,41.376c-1.153,1.611-2.859,2.697-4.92,3.147
	l-8.053,1.759c-2.357,0.51-4.434,1.552-6.118,3.044c-0.259,0.229-0.517,0.473-0.761,0.731l-2.416,2.564l-2.778,2.94l-19.189,20.356
	l-5.911,6.28l-19.196,20.348l-5.911,6.28l-19.189,20.356l-5.918,6.273l-19.189,20.356l-5.918,6.273L322.765,226.3l-5.918,6.273
	l-13.263,14.075l-5.918,6.273l-13.263,14.075l-5.918,6.272l-13.41,14.223l-40.312-40.312l14.223-13.41l6.273-5.918l14.067-13.27
	l6.273-5.918l14.075-13.263l6.273-5.918l14.067-13.27l6.272-5.918l20.356-19.189l6.273-5.918l20.348-19.196l6.28-5.911
	l20.348-19.196l6.272-5.918l20.356-19.189l2.94-2.778l2.572-2.423c0.251-0.236,0.495-0.495,0.724-0.753
	c1.492-1.684,2.519-3.761,3.036-6.111l1.773-8.053c0.45-2.062,1.53-3.761,3.133-4.92c7.699-5.541,31.549-23.791,41.383-43.717
	c1.478-2.985,5.505-3.495,9.036-1.071c6.207,4.256,12.465,8.49,16.868,11.459c2.254,1.515,5.327,4.588,6.835,6.835
	c2.978,4.411,7.211,10.669,11.459,16.868C508.705,44.647,508.196,48.673,505.204,50.144z"/>
<g>
	<path style="fill:#5B5560;" d="M251.465,309.867l-8.728,8.728c-2.474,2.474-6.486,2.474-8.96,0l-40.138-40.138
		c-2.474-2.474-2.474-6.486,0-8.96l8.728-8.728c2.474-2.474,6.486-2.474,8.96,0l40.138,40.138
		C253.939,303.381,253.939,307.392,251.465,309.867z"/>
	<path style="fill:#5B5560;" d="M204.502,356.829l-8.728,8.728c-2.474,2.474-6.486,2.474-8.96,0l-40.138-40.138
		c-2.474-2.474-2.474-6.486,0-8.96l8.728-8.728c2.474-2.474,6.486-2.474,8.96,0l40.138,40.138
		C206.977,350.344,206.977,354.355,204.502,356.829z"/>
	
		<rect x="124.776" y="345.023" transform="matrix(-0.7071 0.7071 -0.7071 -0.7071 496.1874 550.9316)" style="fill:#5B5560;" width="18.432" height="66.413"/>
</g>
<path style="fill:#F45367;" d="M505.204,50.144c-19.92,9.842-38.169,33.677-43.71,41.376c-1.153,1.611-2.859,2.697-4.92,3.147
	l-8.053,1.759c-2.357,0.51-4.434,1.552-6.118,3.044c-0.259,0.229-0.517,0.473-0.761,0.731l-2.416,2.564l-29.761-29.761l2.572-2.423
	c0.251-0.236,0.495-0.495,0.724-0.753c1.492-1.684,2.519-3.761,3.036-6.111l1.773-8.053c0.45-2.062,1.53-3.761,3.133-4.92
	c7.699-5.541,31.549-23.791,41.383-43.717c1.477-2.985,5.505-3.495,9.036-1.071c6.207,4.256,12.465,8.49,16.868,11.459
	c2.254,1.515,5.327,4.588,6.835,6.835c2.978,4.411,7.211,10.669,11.459,16.868C508.705,44.647,508.196,48.673,505.204,50.144z"/>
<circle style="fill:#5B5560;" cx="137.885" cy="451.521" r="7.979"/>
<g>
	<path style="fill:#353434;" d="M139.406,302.834c2.171-3.115,6.763-11.495-0.482-18.738c-9.096-9.096-27.858-2.464-39.607,9.286
		c-11.75,11.75-15.729,13.834-21.035,11.75c0,0,3.411,4.169-2.464,10.044c-5.874,5.874-35.058,35.058-43.776,26.342
		c-2.53-2.53-2.672-5.555-1.612-8.573c2.296,1.284,5.251,0.955,7.204-0.997c2.355-2.355,2.355-6.173,0-8.527
		c-2.355-2.355-6.173-2.355-8.527,0c-0.383,0.383-0.697,0.808-0.956,1.256c-2.171,3.116-6.762,11.494,0.482,18.737
		c9.096,9.096,27.857,2.464,39.607-9.286c11.75-11.75,15.729-13.834,21.035-11.75c0,0-3.412-4.169,2.464-10.044
		c5.874-5.874,35.058-35.058,43.776-26.342c2.53,2.53,2.672,5.555,1.612,8.573c-2.296-1.284-5.251-0.955-7.204,0.997
		c-2.355,2.355-2.355,6.173,0,8.527c2.355,2.355,6.173,2.355,8.527,0C138.833,303.707,139.148,303.283,139.406,302.834z"/>
	<path style="fill:#353434;" d="M204.443,367.871c3.115-2.171,11.495-6.763,18.738,0.482c9.096,9.096,2.464,27.858-9.286,39.607
		c-11.75,11.75-13.834,15.729-11.75,21.035c0,0-4.169-3.411-10.044,2.464c-5.874,5.874-35.058,35.058-26.342,43.776
		c2.53,2.53,5.555,2.672,8.573,1.612c-1.284-2.296-0.955-5.251,0.997-7.204c2.355-2.355,6.173-2.355,8.527,0
		c2.355,2.355,2.355,6.173,0,8.527c-0.383,0.383-0.808,0.697-1.256,0.956c-3.116,2.171-11.494,6.762-18.737-0.482
		c-9.096-9.096-2.464-27.857,9.286-39.607s13.834-15.729,11.75-21.035c0,0,4.169,3.412,10.044-2.464
		c5.874-5.874,35.058-35.058,26.342-43.776c-2.53-2.53-5.555-2.672-8.573-1.612c1.284,2.296,0.955,5.251-0.997,7.204
		c-2.355,2.355-6.173,2.355-8.527,0c-2.355-2.355-2.355-6.173,0-8.527C203.57,368.444,203.995,368.13,204.443,367.871z"/>
	<polygon style="fill:#353434;" points="411.347,132.342 379.894,100.889 386.167,94.971 417.258,126.062 	"/>
	<polygon style="fill:#353434;" points="386.24,158.97 353.265,125.995 359.546,120.084 392.151,152.69 	"/>
	<polygon style="fill:#353434;" points="361.134,185.598 326.645,151.109 332.917,145.191 367.053,179.325 	"/>
	<polygon style="fill:#353434;" points="336.028,212.226 300.016,176.215 306.289,170.296 341.946,205.954 	"/>
	<polygon style="fill:#353434;" points="316.848,232.574 279.675,195.403 285.949,189.485 322.766,226.302 	"/>
	<polygon style="fill:#353434;" points="297.666,252.923 259.328,214.583 265.601,208.665 303.585,246.65 	"/>
	<polygon style="fill:#353434;" points="278.486,273.271 238.987,233.772 245.259,227.854 284.404,266.998 	"/>
</g>
<g>
	<circle style="fill:#DDDAE0;" cx="465.418" cy="22.431" r="4.702"/>
	<circle style="fill:#DDDAE0;" cx="433.277" cy="54.575" r="4.702"/>
	<circle style="fill:#DDDAE0;" cx="451.375" cy="40.164" r="4.702"/>
	<circle style="fill:#DDDAE0;" cx="489.796" cy="46.814" r="4.702"/>
	<circle style="fill:#DDDAE0;" cx="457.665" cy="78.952" r="4.702"/>
	<circle style="fill:#DDDAE0;" cx="472.064" cy="60.855" r="4.702"/>
	
		<rect x="246.277" y="7.509" transform="matrix(-0.697 -0.717 0.717 -0.697 250.5392 582.6772)" style="fill:#DDDAE0;" width="4.179" height="461.8"/>
	
		<rect x="254.809" y="16.074" transform="matrix(-0.7052 -0.709 0.709 -0.7052 262.9711 603.2565)" style="fill:#DDDAE0;" width="4.18" height="461.769"/>
	
		<rect x="42.882" y="261.783" transform="matrix(0.6971 -0.717 0.717 0.6971 -106.2559 276.2403)" style="fill:#DDDAE0;" width="461.833" height="4.18"/>
	
		<rect x="34.352" y="253.244" transform="matrix(0.7052 -0.7091 0.7091 0.7052 -102.8367 263.3626)" style="fill:#DDDAE0;" width="461.802" height="4.18"/>
</g>
<path style="fill:#353434;" d="M406.523,75.782l5.512-5.201c0.251-0.236,0.495-0.495,0.724-0.753l29.643,29.643
	c-0.259,0.229-0.517,0.473-0.761,0.731l-5.194,5.505L406.523,75.782z"/>
<path style="fill:#EDBB57;" d="M125.273,434.479l-31.326,19.707c-13.113-10.731-25.14-22.747-35.903-35.84l19.717-31.389
	L125.273,434.479z"/>
<g>
</g>
<g>
</g>
<g>
</g>
<g>
</g>
<g>
</g>
<g>
</g>
<g>
</g>
<g>
</g>
<g>
</g>
<g>
</g>
<g>
</g>
<g>
</g>
<g>
</g>
<g>
</g>
<g>
</g>
</svg>
