<?xml version="1.0" encoding="iso-8859-1"?>
<!-- Generator: Adobe Illustrator 19.0.0, SVG Export Plug-In . SVG Version: 6.00 Build 0)  -->
<svg version="1.1" id="Capa_1" xmlns="http://www.w3.org/2000/svg" xmlns:xlink="http://www.w3.org/1999/xlink" x="0px" y="0px"
	 viewBox="0 0 512 512" style="enable-background:new 0 0 512 512;" xml:space="preserve">
<path style="fill:#62D6EA;" d="M512,256c0,141.385-114.615,256-256,256c-21.483,0-42.35-2.644-62.286-7.628
	c-8.944-2.236-17.701-4.942-26.248-8.098C92.881,468.783,34.617,407.562,11.191,331.097c-2.623-8.568-4.817-17.335-6.541-26.269
	C1.599,289.019,0,272.697,0,256C0,114.615,114.615,0,256,0S512,114.615,512,256z"/>
<circle style="fill:#82ECF7;" cx="256" cy="192.784" r="184.947"/>
<g>
	<path style="fill:#DDDAE0;" d="M451.63,20.463c-4.438,4.438-13.48,2.59-17.917-1.847c-4.437-4.438-2.59-9.785,1.847-14.223
		c4.438-4.438,9.785-6.285,14.223-1.847C454.221,6.983,456.068,16.026,451.63,20.463z"/>
	<path style="fill:#DDDAE0;" d="M431.173,47.015c-4.438,4.438-13.479,2.59-17.917-1.847s-2.59-9.785,1.847-14.223
		s9.785-6.285,14.223-1.847C433.764,33.535,435.611,42.579,431.173,47.015z"/>
	<path style="fill:#DDDAE0;" d="M409.145,71.999c-4.438,4.438-13.48,2.59-17.917-1.847c-4.437-4.438-2.59-9.785,1.847-14.223
		c4.438-4.438,9.785-6.285,14.223-1.847C411.737,58.518,413.583,67.561,409.145,71.999z"/>
</g>
<path style="fill:#AF653D;" d="M253.356,295.131l-43.76-43.771c-32.758-16.948-74.731-17.544-113.507-6.374
	c-29.842,8.579-57.772,24.116-78.19,44.544c-4.848,4.848-9.268,9.968-13.249,15.297c1.724,8.934,3.918,17.701,6.541,26.269
	c23.427,76.466,81.69,137.686,156.275,165.177c8.547,3.156,17.304,5.862,26.248,8.098c7.586-5.036,14.775-10.898,21.462-17.586
	c8.892-8.892,16.865-19.216,23.74-30.511C268.298,407.991,277.64,342.089,253.356,295.131z"/>
<path style="fill:#353434;" d="M238.915,456.275c-16.159,1.969-33.16-0.416-47.818-11.967c-44.134-34.798,0-77.235-19.521-106.94
	c-19.521-29.705-51.756-9.353-75.503-33.1c-23.747-23.747,0.008-59.283,0.008-59.283c38.787-11.169,80.757-10.567,113.518,6.374
	l43.76,43.777C277.635,342.087,268.307,407.991,238.915,456.275z"/>
<path style="fill:#EAC76C;" d="M219.061,324.815c-4.795,5.031-12.79,5.135-17.703,0.222c-3.879-3.879-4.795-9.878-2.113-14.659
	c6.849-12.228,5.231-27.914-4.84-38.501l6.982-6.642l0.007-0.007l2.468-2.334l4.559-4.307l15.96-15.073l4.566-4.3l15.959-15.073
	l4.559-4.307l16.218-15.316l4.559-4.307l19.587-18.494l4.559-4.307l19.587-18.508l4.566-4.3l19.587-18.508l4.559-4.307
	l20.089-18.966c0.746-0.717,1.389-1.508,1.906-2.394l0.015,0.015l29.458,1.367l0.118,28.194c-0.887,0.532-1.692,1.16-2.401,1.913
	l-18.966,20.089l-4.307,4.559l-18.494,19.602l-4.307,4.559l-18.501,19.594l-4.3,4.566l-18.494,19.587l-4.307,4.559l-15.309,16.225
	l-4.307,4.559l-15.073,15.959l-4.3,4.566l-15.073,15.96l-4.3,4.566l-2.35,2.483L219.061,324.815z"/>
<circle style="fill:#353434;" cx="145.105" cy="359.602" r="20.514"/>
<path style="fill:#AF653D;" d="M469.35,60.002c0,0,20.768,22.085,35.258,7.595c14.49-14.49,7.455-39.965-19.241-56.123
	c-26.696-16.157-52.559,18.572-61.957,36.836c-8.105,15.752-20.948,30.197-35.535,33.228c-4.784,0.994-8.644,4.097-10.558,8.498
	l-14.54,22.78l29.095,29.095c0,0,30.069,14.262,50.005-14.54C461.814,98.57,469.35,60.002,469.35,60.002z"/>
<g>
	<polygon style="fill:#353434;" points="368.597,166.56 338.127,136.09 342.686,131.781 372.904,162.001 	"/>
	<polygon style="fill:#353434;" points="345.796,190.72 313.973,158.898 318.539,154.598 350.103,186.161 	"/>
	<polygon style="fill:#353434;" points="322.995,214.881 289.828,181.714 294.386,177.406 327.295,210.315 	"/>
	<polygon style="fill:#353434;" points="300.194,239.027 265.682,204.515 270.241,200.207 304.501,234.468 	"/>
	<polygon style="fill:#353434;" points="280.577,259.811 244.905,224.139 249.464,219.831 284.885,255.252 	"/>
	<polygon style="fill:#353434;" points="261.205,280.336 224.38,243.511 228.947,239.212 265.504,275.769 	"/>
	<polygon style="fill:#353434;" points="241.832,300.862 203.862,262.891 208.421,258.584 246.132,296.295 	"/>
</g>
<g>
	
		<rect x="237.019" y="70.119" transform="matrix(-0.707 -0.7072 0.7072 -0.707 220.3518 622.4207)" style="fill:#FFFFFF;" width="4.18" height="390.893"/>
	
		<rect x="228.157" y="61.248" transform="matrix(-0.707 -0.7072 0.7072 -0.707 211.4977 601.011)" style="fill:#FFFFFF;" width="4.18" height="390.893"/>
	
		<rect x="245.878" y="78.986" transform="matrix(-0.707 -0.7072 0.7072 -0.707 229.2029 643.8228)" style="fill:#FFFFFF;" width="4.18" height="390.893"/>
</g>
<rect x="54.729" y="396.992" transform="matrix(-0.7071 -0.7071 0.7071 -0.7071 -111.9352 760.1115)" style="fill:#EDBB57;" width="93.455" height="12.492"/>
<g>
</g>
<g>
</g>
<g>
</g>
<g>
</g>
<g>
</g>
<g>
</g>
<g>
</g>
<g>
</g>
<g>
</g>
<g>
</g>
<g>
</g>
<g>
</g>
<g>
</g>
<g>
</g>
<g>
</g>
</svg>
