<?xml version="1.0" encoding="iso-8859-1"?>
<!-- Generator: Adobe Illustrator 19.0.0, SVG Export Plug-In . SVG Version: 6.00 Build 0)  -->
<svg version="1.1" id="Capa_1" xmlns="http://www.w3.org/2000/svg" xmlns:xlink="http://www.w3.org/1999/xlink" x="0px" y="0px"
	 viewBox="0 0 512 512" style="enable-background:new 0 0 512 512;" xml:space="preserve">
<path style="fill:#56B774;" d="M512,256c0,141.385-114.615,256-256,256c-8.913,0-17.711-0.46-26.384-1.337
	C113.162,498.73,19.822,408.743,2.79,293.878C0.951,281.516,0,268.873,0,256C0,114.615,114.615,0,256,0S512,114.615,512,256z"/>
<circle style="fill:#6CD182;" cx="256" cy="192.784" r="184.947"/>
<g>
	<path style="fill:#DDDAE0;" d="M449.404,23.561c5.032-5.032,2.404-15.821-2.629-20.854c-5.032-5.032-10.564-2.404-15.596,2.629
		c-5.032,5.033-7.661,10.564-2.629,15.596C433.583,25.965,444.371,28.595,449.404,23.561z"/>
	<path style="fill:#DDDAE0;" d="M430.563,49.545c5.032-5.032,2.404-15.821-2.629-20.854c-5.032-5.032-10.564-2.404-15.596,2.629
		c-5.032,5.033-7.661,10.564-2.629,15.596C414.741,51.948,425.529,54.577,430.563,49.545z"/>
	<path style="fill:#DDDAE0;" d="M411.721,75.527c5.032-5.032,2.404-15.821-2.629-20.854s-10.564-2.404-15.596,2.629
		c-5.032,5.033-7.661,10.564-2.629,15.596C395.899,77.931,406.689,80.56,411.721,75.527z"/>
</g>
<path style="fill:#EDBB57;" d="M259.73,229.815L2.79,293.878C19.822,408.743,113.162,498.73,229.616,510.663l62.057-248.905
	L259.73,229.815z"/>
<circle style="fill:#DDDAE0;" cx="161.155" cy="360.333" r="31.869"/>
<circle style="fill:#353434;" cx="161.155" cy="360.333" r="21.819"/>
<rect x="61.486" y="415.814" transform="matrix(-0.7071 -0.7071 0.7071 -0.7071 -136.4823 794.0294)" style="fill:#4D4D4D;" width="69.443" height="18.933"/>
<polygon style="fill:#5B5560;" points="466.919,87.33 270.39,283.872 226.567,327.682 193.792,294.918 237.615,251.095 
	434.156,54.568 "/>
<path style="fill:#EDBB57;" d="M473.866,13.666l33.947,33.954c6.249,6.25,5.38,16.617-1.82,21.74l-73.189,52.083L400.041,88.68
	l52.081-73.196C457.247,8.283,467.617,7.416,473.866,13.666z"/>
<g>
	<circle style="fill:#5B5560;" cx="465.168" cy="36.368" r="9.056"/>
	<circle style="fill:#5B5560;" cx="437.091" cy="94.981" r="9.056"/>
	<circle style="fill:#5B5560;" cx="451.124" cy="65.676" r="9.056"/>
</g>
<g>
	
		<rect x="245.029" y="29.087" transform="matrix(-0.7071 -0.7071 0.7071 -0.7071 243.7524 607.2491)" style="fill:#FFFFFF;" width="5.224" height="448.111"/>
	
		<rect x="255.382" y="39.438" transform="matrix(-0.7071 -0.7071 0.7071 -0.7071 254.1056 632.2411)" style="fill:#FFFFFF;" width="5.224" height="448.111"/>
	
		<rect x="265.719" y="49.776" transform="matrix(-0.7071 -0.7071 0.7071 -0.7071 264.4423 657.1981)" style="fill:#FFFFFF;" width="5.224" height="448.111"/>
</g>
<g>
</g>
<g>
</g>
<g>
</g>
<g>
</g>
<g>
</g>
<g>
</g>
<g>
</g>
<g>
</g>
<g>
</g>
<g>
</g>
<g>
</g>
<g>
</g>
<g>
</g>
<g>
</g>
<g>
</g>
</svg>
