<?xml version="1.0" encoding="iso-8859-1"?>
<!-- Generator: Adobe Illustrator 19.0.0, SVG Export Plug-In . SVG Version: 6.00 Build 0)  -->
<svg version="1.1" id="Capa_1" xmlns="http://www.w3.org/2000/svg" xmlns:xlink="http://www.w3.org/1999/xlink" x="0px" y="0px"
	 viewBox="0 0 512 512" style="enable-background:new 0 0 512 512;" xml:space="preserve">
<path style="fill:#F29151;" d="M512,256c0,141.385-114.615,256-256,256c-24.054,0-47.334-3.312-69.402-9.519
	C101,478.427,33.573,411,9.519,325.402C3.312,303.334,0,280.054,0,256C0,114.615,114.615,0,256,0S512,114.615,512,256z"/>
<circle style="fill:#F9A36F;" cx="256" cy="192.784" r="184.947"/>
<g>
	
		<rect x="437.033" y="40.07" transform="matrix(-0.7071 -0.7071 0.7071 -0.7071 766.9435 406.3918)" style="fill:#5B5560;" width="61.21" height="8.573"/>
	
		<rect x="415.172" y="61.932" transform="matrix(-0.7071 -0.7071 0.7071 -0.7071 714.1646 428.2547)" style="fill:#5B5560;" width="61.21" height="8.573"/>
	<path style="fill:#5B5560;" d="M446.001,22.713c4.543-4.543,0.213-16.241-4.33-20.784s-7.58-0.213-12.124,4.33
		c-4.544,4.543-8.874,7.58-4.33,12.124S441.458,27.256,446.001,22.713z"/>
	<path style="fill:#5B5560;" d="M424.35,44.364c4.543-4.543,0.213-16.241-4.33-20.784s-7.58-0.213-12.124,4.33
		c-4.544,4.543-8.874,7.58-4.33,12.124S419.806,48.907,424.35,44.364z"/>
	<path style="fill:#5B5560;" d="M489.285,65.997c4.543-4.543,16.241-0.213,20.784,4.33c4.543,4.543,0.213,7.58-4.33,12.124
		c-4.543,4.543-7.58,8.874-12.124,4.33C489.071,82.237,484.742,70.54,489.285,65.997z"/>
	<path style="fill:#5B5560;" d="M467.634,87.648c4.543-4.543,16.241-0.213,20.784,4.33c4.543,4.543,0.213,7.58-4.33,12.124
		c-4.543,4.544-7.58,8.874-12.124,4.33C467.419,103.888,463.089,92.191,467.634,87.648z"/>
</g>
<path style="fill:#62D6EA;" d="M314.264,246.502l-48.765-48.755c-31.002-19.937-63.592-23.437-84.814-2.215
	c-8.411,8.411-17.042,22.737-23.897,39.643c-7.649,18.84-24.283,32.716-44.189,36.854c-39.884,8.307-77.939,26.875-95.786,44.732
	c-2.748,2.738-5.172,5.622-7.293,8.641C33.573,411,101,478.427,186.598,502.481c3.02-2.121,5.904-4.545,8.641-7.293
	c17.857-17.847,36.425-55.902,44.732-95.786c4.138-19.905,18.024-36.53,36.864-44.189c16.917-6.844,31.222-15.485,39.643-23.897
	C337.701,310.094,334.169,277.514,314.264,246.502z"/>
<path style="fill:#353434;" d="M233.499,278.504c19.598,19.581,19.598,51.339,0,70.937c-19.581,19.581-51.339,19.581-70.937,0
	c-19.581-19.598-19.581-51.356,0-70.937C182.16,258.906,213.918,258.906,233.499,278.504z"/>
<path style="fill:#4D4D4D;" d="M230.447,236.988L402.796,76.005l38.305-0.69l-5.103,33.892l-160.97,172.348l-0.193,0.209
	c-6.095,6.568-16.742,4.765-20.653-3.297c-2.113-4.355-4.978-8.438-8.595-12.05c-3.61-3.615-7.689-6.478-12.041-8.591
	c-8.062-3.914-9.865-14.563-3.292-20.657L230.447,236.988z"/>
<path style="fill:#62D6EA;" d="M490.441,21.566c-8.86-8.86-19.433-16.021-31.219-20.949l-44.617,51.112
	c-6.027,6.911-10.106,15.285-11.803,24.274l33.203,33.203c4.494-0.857,8.834-2.304,12.912-4.287
	c4.079-1.983,7.898-4.504,11.344-7.517l51.121-44.625C506.444,40.999,499.309,30.434,490.441,21.566z M442.637,63.082
	c-3.706,3.706-9.717,3.706-13.423,0c-3.706-3.706-3.706-9.717,0-13.423l23.815-23.815c3.706-3.706,9.717-3.706,13.423,0
	c1.854,1.854,2.779,4.287,2.779,6.711c0,2.425-0.927,4.859-2.779,6.711L442.637,63.082z M462.339,82.784
	c-3.706,3.706-9.717,3.706-13.423,0c-3.706-3.706-3.706-9.717,0-13.423l23.815-23.815c3.706-3.706,9.716-3.706,13.423,0
	c1.854,1.854,2.779,4.287,2.779,6.711c0,2.425-0.927,4.859-2.779,6.711L462.339,82.784z"/>
<g>
	
		<rect x="255.761" y="17.852" transform="matrix(-0.7071 -0.7071 0.7071 -0.7071 277.5868 572.3392)" style="fill:#FFFFFF;" width="3.135" height="421.654"/>
	
		<rect x="264.415" y="26.521" transform="matrix(-0.707 -0.7072 0.7072 -0.707 286.1793 593.2599)" style="fill:#FFFFFF;" width="3.135" height="421.654"/>
	
		<rect x="273.077" y="35.176" transform="matrix(-0.707 -0.7072 0.7072 -0.707 294.845 614.1584)" style="fill:#FFFFFF;" width="3.135" height="421.654"/>
	
		<rect x="281.738" y="43.841" transform="matrix(-0.707 -0.7072 0.7072 -0.707 303.5016 635.0756)" style="fill:#FFFFFF;" width="3.135" height="421.654"/>
</g>
<path style="fill:#5B5560;" d="M154.836,414.997l-13.319,13.319c-2.017,2.017-5.287,2.017-7.305,0L83.686,377.79
	c-2.017-2.017-2.017-5.287,0-7.305l13.319-13.319c2.017-2.017,5.287-2.017,7.305,0l50.527,50.527
	C156.854,409.71,156.854,412.98,154.836,414.997z"/>
<g>
</g>
<g>
</g>
<g>
</g>
<g>
</g>
<g>
</g>
<g>
</g>
<g>
</g>
<g>
</g>
<g>
</g>
<g>
</g>
<g>
</g>
<g>
</g>
<g>
</g>
<g>
</g>
<g>
</g>
</svg>
