<?xml version="1.0" encoding="iso-8859-1"?>
<!-- Generator: Adobe Illustrator 19.0.0, SVG Export Plug-In . SVG Version: 6.00 Build 0)  -->
<svg version="1.1" id="Capa_1" xmlns="http://www.w3.org/2000/svg" xmlns:xlink="http://www.w3.org/1999/xlink" x="0px" y="0px"
	 viewBox="0 0 512 512" style="enable-background:new 0 0 512 512;" xml:space="preserve">
<path style="fill:#62D6EA;" d="M512,256c0,81.575-38.149,154.227-97.583,201.111C370.834,491.489,315.82,512,256,512
	c-59.831,0-114.855-20.522-158.438-54.899C38.139,410.216,0,337.565,0,256C0,114.615,114.615,0,256,0S512,114.615,512,256z"/>
<circle style="fill:#82ECF7;" cx="256" cy="192.784" r="184.947"/>
<g>
	<polygon style="fill:#EDBB57;" points="340.846,50.845 252.473,70.541 171.135,50.845 255.997,0.001 	"/>
	<path style="fill:#EDBB57;" d="M414.417,457.111C370.834,491.489,315.82,512,256,512c-35.276,0-68.89-7.137-99.464-20.041
		c-21.285-8.976-41.096-20.752-58.974-34.858l16.133-89.088L256,336.865l142.284,31.148L414.417,457.111z"/>
</g>
<polygon style="fill:#353434;" points="398.284,368.013 113.695,368.013 171.133,50.845 340.846,50.845 381.304,274.202 "/>
<g>
	<rect x="229.219" y="94.427" style="fill:#F7AD3E;" width="26.778" height="273.586"/>
	<rect x="256" y="94.427" style="fill:#F7AD3E;" width="26.778" height="273.586"/>
</g>
<rect x="249.94" y="94.427" style="fill:#4D4D4D;" width="12.106" height="273.586"/>
<polygon style="fill:#E6E6E6;" points="337.398,111.47 263.607,368.013 248.383,368.013 323.344,107.426 "/>
<polygon style="fill:#C4C2C6;" points="346.817,176.252 327.62,220.228 300.731,212.494 273.822,204.754 280.925,157.299 
	313.88,166.778 "/>
<path style="fill:#E6993A;" d="M169.347,368.013l-12.81,123.946c-21.285-8.976-41.096-20.752-58.974-34.858l16.133-89.088H169.347z"
	/>
<g>
</g>
<g>
</g>
<g>
</g>
<g>
</g>
<g>
</g>
<g>
</g>
<g>
</g>
<g>
</g>
<g>
</g>
<g>
</g>
<g>
</g>
<g>
</g>
<g>
</g>
<g>
</g>
<g>
</g>
</svg>
