<?xml version="1.0" encoding="iso-8859-1"?>
<!-- Generator: Adobe Illustrator 19.0.0, SVG Export Plug-In . SVG Version: 6.00 Build 0)  -->
<svg version="1.1" id="Capa_1" xmlns="http://www.w3.org/2000/svg" xmlns:xlink="http://www.w3.org/1999/xlink" x="0px" y="0px"
	 viewBox="0 0 512 512" style="enable-background:new 0 0 512 512;" xml:space="preserve">
<path style="fill:#56B774;" d="M512,256c0,141.385-114.615,256-256,256c-49.695,0-96.078-14.158-135.346-38.661
	c-8.432-5.266-16.551-11.013-24.294-17.199c-5.099-4.075-10.031-8.328-14.796-12.779c-4.817-4.472-9.456-9.132-13.897-13.97
	C25.652,383.791,0,322.884,0,256C0,114.615,114.615,0,256,0S512,114.615,512,256z"/>
<circle style="fill:#6CD182;" cx="256" cy="192.261" r="184.947"/>
<path style="fill:#353434;" d="M92.166,422.323c-3.582,0-7.006-2.053-8.578-5.524c-2.138-4.724-0.06-10.283,4.66-12.432
	c1.921-0.875,48.018-21.39,133.088-18.743c5.191,0.162,9.269,4.5,9.107,9.691c-0.161,5.191-4.552,9.253-9.691,9.107
	c-80.255-2.496-124.292,16.874-124.727,17.07C94.77,422.055,93.458,422.323,92.166,422.323z"/>
<path style="fill:#9E5329;" d="M304.899,397.631c2.582-0.09,5.156,0.262,7.685,0.785c0.879,0.182,1.759,0.354,2.642,0.518l0,0l0,0
	c27.684,5.158,57.235,1.329,84.018-12.907c62.055-32.984,86.304-110.589,54.015-173.008
	c-33.094-63.974-111.993-88.334-175.299-54.474c-26.863,14.368-46.558,36.895-57.676,62.882l0,0l0,0
	c-0.353,0.825-0.698,1.653-1.035,2.485c-0.97,2.395-2.105,4.73-3.613,6.828c-25.691,35.734-124.066,27.097-117.441,69.976
	c7.146,46.257,35.243,0.098,74.28,60.429c28.512,65.959-25.479,63.706,9.03,95.328C213.489,485.785,260.914,399.164,304.899,397.631
	z"/>
<path style="fill:#353434;" d="M92.142,422.329c-1.533,0-3.079-0.374-4.499-1.149c-3.883-2.118-5.765-6.656-4.521-10.9
	c20.242-69.059,60.92-159.071,61.328-159.973c2.144-4.73,7.716-6.828,12.448-4.682c4.73,2.144,6.826,7.718,4.682,12.448
	c-0.327,0.722-26.842,59.4-47.439,117.722c25.036-25.009,61.583-57.532,90.801-67.271c4.927-1.645,10.254,1.02,11.895,5.948
	c1.643,4.928-1.021,10.254-5.948,11.895c-17.71,5.903-42.511,23.659-71.722,51.346c-22.547,21.371-39.741,41.17-39.911,41.368
	C97.418,421.201,94.801,422.329,92.142,422.329z"/>
<path style="fill:#AF653D;" d="M305.366,291.246c2.445-0.835,5.01-1.245,7.583-1.478c0.893-0.081,1.786-0.171,2.678-0.27l0,0l0,0
	c27.99-3.093,55.161-15.327,76.664-36.719c49.823-49.564,50.523-130.865,1.517-181.238c-50.225-51.626-132.798-52.058-183.563-1.293
	c-21.542,21.542-33.856,48.811-36.96,76.907l0,0l0,0c-0.098,0.892-0.189,1.785-0.27,2.678c-0.234,2.573-0.644,5.138-1.477,7.583
	c-14.223,41.65-110.875,61.914-92.1,101.028c20.254,42.196,33.758-10.127,88.613,36.289c46.416,54.855-5.908,68.358,36.289,88.613
	C243.452,402.122,263.717,305.47,305.366,291.246z"/>
<path style="fill:#9E5329;" d="M234.931,94.935c-21.546,21.546-35.884,46.787-42.365,71.497c-0.211,0.785-0.405,1.569-0.599,2.354
	c-0.549,2.254-1.249,4.523-2.312,6.751c-17.934,37.935-104.242,68.544-93.304,99.82c0.076,0.228,0.161,0.447,0.245,0.667
	c-5.941-1.029-11.258-5.3-17.157-17.579c-18.778-39.116,77.877-59.378,92.097-101.027c0.844-2.447,1.249-5.012,1.477-7.587
	c0.085-0.894,0.178-1.781,0.278-2.675c3.097-28.094,15.41-55.362,36.956-76.907c50.332-50.332,131.956-50.332,182.289,0
	C355.832,33.547,285.262,44.603,234.931,94.935z"/>
<g>
	<path style="fill:#353434;" d="M213.617,289.666l-40.498-40.498c-4.896-4.896-4.896-12.836,0-17.733l2.521-2.521
		c4.896-4.896,12.836-4.896,17.733,0l40.498,40.498c4.896,4.896,4.896,12.836,0,17.733l-2.521,2.521
		C226.452,294.563,218.513,294.563,213.617,289.666z"/>
	<path style="fill:#353434;" d="M121.469,472.085c-0.261,0.261-0.533,0.502-0.815,0.731c-8.432-5.266-16.551-11.013-24.294-17.199
		c-4.012-7.534-6.949-15.506-9.049-22.413c-2.257,3.25-4.159,6.457-5.747,9.634c-4.817-4.472-9.456-9.132-13.897-13.97
		c4.42-7.45,10.25-15.015,17.826-22.591c2.508-2.508,6.217-3.396,9.582-2.288c3.375,1.108,5.831,4.012,6.363,7.513
		c0.052,0.313,5.151,32.413,20.031,47.292C125.147,462.461,125.147,468.417,121.469,472.085z"/>
	<path style="fill:#353434;" d="M114.813,428.297c-1.603,0-3.228-0.411-4.714-1.273l-36.999-21.483
		c-4.491-2.608-6.018-8.363-3.411-12.855c2.609-4.491,8.364-6.017,12.854-3.411l36.999,21.483c4.491,2.608,6.018,8.363,3.411,12.855
		C121.209,426.619,118.056,428.297,114.813,428.297z"/>
</g>
<g>
</g>
<g>
</g>
<g>
</g>
<g>
</g>
<g>
</g>
<g>
</g>
<g>
</g>
<g>
</g>
<g>
</g>
<g>
</g>
<g>
</g>
<g>
</g>
<g>
</g>
<g>
</g>
<g>
</g>
</svg>
