<?xml version="1.0" encoding="iso-8859-1"?>
<!-- Generator: Adobe Illustrator 19.0.0, SVG Export Plug-In . SVG Version: 6.00 Build 0)  -->
<svg version="1.1" id="Capa_1" xmlns="http://www.w3.org/2000/svg" xmlns:xlink="http://www.w3.org/1999/xlink" x="0px" y="0px"
	 viewBox="0 0 512 512" style="enable-background:new 0 0 512 512;" xml:space="preserve">
<path style="fill:#E6E6E6;" d="M512,256c0,115.158-76.037,212.553-180.642,244.726c-16.102,4.953-32.872,8.359-50.155,10.052
	C272.917,511.582,264.505,512,256,512c-0.481,0-0.961,0-1.442-0.01c-40.458-0.219-78.691-9.833-112.64-26.76
	c-33.823-16.865-63.394-41.002-86.653-70.363c-10.731-13.531-20.104-28.16-27.951-43.708C9.843,336.541,0,297.42,0,256
	C0,114.615,114.615,0,256,0c41.43,0,80.551,9.832,115.169,27.303c15.548,7.847,30.177,17.23,43.708,27.951
	c29.362,23.27,53.499,52.84,70.363,86.664C502.366,176.274,512,215.009,512,256z"/>
<circle style="fill:#EDECEB;" cx="256" cy="192.784" r="184.947"/>
<path style="fill:#AF653D;" d="M509.315,117.844l-24.074,24.074l-92.662,92.651c-15.423-15.423-42.475-15.454-76.894,3.668
	c-18.829,10.459-39.852,26.655-62.391,49.183c-5.13,5.13-9.937,10.188-14.409,15.151c-51.158,56.717-60.385,102.191-38.442,124.134
	l-58.525,58.525c-49.413-24.639-89.746-64.784-114.604-114.072l6.74-6.74l204.831-204.831L394.971,3.5L509.315,117.844z"/>
<g>
	<path style="fill:#9E5329;" d="M148.386,478.762l-6.468,6.468c-49.413-24.639-89.746-64.784-114.604-114.072l6.74-6.74
		L148.386,478.762z"/>
	
		<rect x="410.056" y="8.432" transform="matrix(0.7071 -0.7071 0.7071 0.7071 60.9184 325.6294)" style="fill:#9E5329;" width="26.946" height="161.696"/>
	
		<rect x="378.302" y="40.189" transform="matrix(0.7071 -0.7071 0.7071 0.7071 29.1618 312.4778)" style="fill:#9E5329;" width="26.946" height="161.696"/>
	<path style="fill:#9E5329;" d="M430.801,39.33L55.265,414.866c-10.731-13.531-20.104-28.16-27.951-43.708L371.169,27.303
		L394.971,3.5L430.801,39.33z"/>
	<path style="fill:#9E5329;" d="M315.685,82.787v155.449c-18.829,10.459-39.852,26.655-62.391,49.183
		c-5.13,5.13-9.937,10.188-14.409,15.151V159.587L315.685,82.787z"/>
	<path style="fill:#9E5329;" d="M331.358,72.788v427.938c-16.102,4.953-32.872,8.359-50.155,10.052
		C272.917,511.582,264.505,512,256,512c-0.481,0-0.961,0-1.442-0.01V72.788c0-14.587,11.828-26.415,26.415-26.415h23.97
		c0.439,0,0.878,0.01,1.317,0.031h0.042C320.261,47.114,331.358,58.661,331.358,72.788z"/>
</g>
<path style="fill:#AF653D;" d="M331.358,72.788v427.938c-16.102,4.953-32.872,8.359-50.155,10.052V72.788
	c0-14.127,11.097-25.673,25.057-26.384h0.042C320.261,47.114,331.358,58.661,331.358,72.788z"/>
<g>
</g>
<g>
</g>
<g>
</g>
<g>
</g>
<g>
</g>
<g>
</g>
<g>
</g>
<g>
</g>
<g>
</g>
<g>
</g>
<g>
</g>
<g>
</g>
<g>
</g>
<g>
</g>
<g>
</g>
</svg>
