<?xml version="1.0" encoding="iso-8859-1"?>
<!-- Generator: Adobe Illustrator 19.0.0, SVG Export Plug-In . SVG Version: 6.00 Build 0)  -->
<svg version="1.1" id="Capa_1" xmlns="http://www.w3.org/2000/svg" xmlns:xlink="http://www.w3.org/1999/xlink" x="0px" y="0px"
	 viewBox="0 0 512 512" style="enable-background:new 0 0 512 512;" xml:space="preserve">
<path style="fill:#EDBB57;" d="M512,256c0,141.385-114.615,256-256,256c-32.423,0-63.425-6.029-91.972-17.021
	c-45.181-17.398-84.177-47.229-112.786-85.305c-14.085-18.735-25.663-39.476-34.22-61.701c0,0-0.01,0,0-0.01
	C6.029,319.415,0,288.413,0,256C0,114.615,114.615,0,256,0c32.423,0,63.436,6.029,91.982,17.021c0,0,0-0.01,0.01,0
	c22.225,8.558,42.956,20.135,61.691,34.231c38.076,28.609,67.908,67.605,85.295,112.776C505.971,192.575,512,223.587,512,256z"/>
<circle style="fill:#F4D984;" cx="256" cy="192.784" r="184.947"/>
<path style="fill:#62D6EA;" d="M496.891,142.054c0,7.356-0.637,14.712-1.912,21.974c-4.336,24.827-16.091,48.609-35.276,67.793
	L231.811,459.713c-19.174,19.174-42.956,30.929-67.783,35.265c-67.406-25.955-121.051-79.6-147.007-147.007
	c4.336-24.827,16.091-48.609,35.276-67.783L280.179,52.297c19.184-19.184,42.977-30.939,67.814-35.276
	c39.351-6.875,81.324,4.89,111.71,35.276C484.498,77.082,496.891,109.568,496.891,142.054z"/>
<path style="fill:#41ADD1;" d="M475.92,72.15c-20.062-13.281-43.071-20.24-66.236-20.898c-33.698-0.982-67.72,11.4-93.435,37.115
	L88.357,316.249c-25.715,25.725-38.097,59.726-37.115,93.424c-14.085-18.735-25.663-39.476-34.22-61.701c0,0-0.01,0,0-0.01
	c4.336-24.816,16.091-48.598,35.276-67.772L280.179,52.297c19.174-19.174,42.977-30.939,67.803-35.276c0,0,0-0.01,0.01,0
	c39.351-6.886,81.314,4.88,111.71,35.276C465.889,58.472,471.291,65.128,475.92,72.15z"/>
<path style="fill:#C4C2C6;" d="M365.352,365.356c-6.115,6.115-14.117,9.165-22.133,9.165c-8.017,0-16.018-3.049-22.133-9.165
	L146.644,190.914c-12.222-12.222-12.222-32.044,0-44.266c6.115-6.115,14.117-9.165,22.133-9.165c8.018,0,16.018,3.049,22.133,9.165
	L365.352,321.09C377.574,333.312,377.574,353.134,365.352,365.356z"/>
<path style="fill:#E6E6E6;" d="M374.515,343.665c-0.149,10.645-8.996,19.31-19.641,19.364c-0.054,0-0.109,0-0.162,0
	c-8.014,0-16.018-3.051-22.131-9.164L204.863,226.147c-6.227-6.227-9.281-14.42-9.167-22.578
	c0.149-10.645,8.996-19.31,19.641-19.364c0.054,0,0.109,0,0.162,0c8.025,0,16.018,3.051,22.131,9.164l127.718,127.718
	C371.575,327.313,374.63,335.506,374.515,343.665z"/>
<g>
	<circle style="fill:#353434;" cx="437.676" cy="185.605" r="13.625"/>
	<circle style="fill:#353434;" cx="364.408" cy="258.873" r="13.625"/>
	<circle style="fill:#353434;" cx="401.042" cy="222.239" r="13.625"/>
	<circle style="fill:#353434;" cx="400.583" cy="148.511" r="13.625"/>
	<circle style="fill:#353434;" cx="327.314" cy="221.78" r="13.625"/>
	<circle style="fill:#353434;" cx="363.948" cy="185.145" r="13.625"/>
	<circle style="fill:#353434;" cx="363.489" cy="111.417" r="13.625"/>
	<circle style="fill:#353434;" cx="290.22" cy="184.686" r="13.625"/>
	<circle style="fill:#353434;" cx="326.855" cy="148.052" r="13.625"/>
	<circle style="fill:#353434;" cx="326.395" cy="74.324" r="13.625"/>
	<circle style="fill:#353434;" cx="253.127" cy="147.592" r="13.625"/>
	<circle style="fill:#353434;" cx="289.761" cy="110.958" r="13.625"/>
	<circle style="fill:#353434;" cx="258.863" cy="364.408" r="13.625"/>
	<circle style="fill:#353434;" cx="185.605" cy="437.676" r="13.625"/>
	<circle style="fill:#353434;" cx="222.239" cy="401.042" r="13.625"/>
	<circle style="fill:#353434;" cx="221.78" cy="327.314" r="13.625"/>
	<circle style="fill:#353434;" cx="148.511" cy="400.583" r="13.625"/>
	<circle style="fill:#353434;" cx="185.145" cy="363.948" r="13.625"/>
	<circle style="fill:#353434;" cx="184.686" cy="290.231" r="13.625"/>
	<circle style="fill:#353434;" cx="111.417" cy="363.489" r="13.625"/>
	<circle style="fill:#353434;" cx="148.052" cy="326.855" r="13.625"/>
	<circle style="fill:#353434;" cx="147.592" cy="253.137" r="13.625"/>
	<circle style="fill:#353434;" cx="74.324" cy="326.395" r="13.625"/>
	<circle style="fill:#353434;" cx="110.958" cy="289.761" r="13.625"/>
</g>
<g>
</g>
<g>
</g>
<g>
</g>
<g>
</g>
<g>
</g>
<g>
</g>
<g>
</g>
<g>
</g>
<g>
</g>
<g>
</g>
<g>
</g>
<g>
</g>
<g>
</g>
<g>
</g>
<g>
</g>
</svg>
