<?xml version="1.0" encoding="iso-8859-1"?>
<!-- Generator: Adobe Illustrator 19.0.0, SVG Export Plug-In . SVG Version: 6.00 Build 0)  -->
<svg version="1.1" id="Capa_1" xmlns="http://www.w3.org/2000/svg" xmlns:xlink="http://www.w3.org/1999/xlink" x="0px" y="0px"
	 viewBox="0 0 512 512" style="enable-background:new 0 0 512 512;" xml:space="preserve">
<path style="fill:#56B774;" d="M512,256c0,141.4-114.6,256-256,256c-38.1,0-74.3-8.3-106.8-23.3c-35.5-16.3-66.6-40.5-91.1-70.3
	c-13.9-16.9-25.6-35.5-34.8-55.6C8.3,330.3,0,294.1,0,256C0,114.6,114.6,0,256,0S512,114.6,512,256z"/>
<circle style="fill:#6CD182;" cx="256" cy="192.8" r="184.9"/>
<path style="fill:#EDBB57;" d="M377.2,290.9l-228,197.8c-35.5-16.3-66.6-40.5-91.1-70.3c-13.9-16.9-25.6-35.5-34.8-55.6l197.8-228.1
	l76.4,76.4L377.2,290.9z"/>
<path style="fill:#E6993A;" d="M259,205.3L58.1,418.4c-13.9-16.9-25.6-35.5-34.8-55.6l197.8-228.1L259,205.3z"/>
<path style="fill:#353434;" d="M498.4,182.3c-4.2,18.6-12.2,36.5-24.1,52.4l-31.2,30.7c-19.9,14.3-42.6,22.7-65.8,25.4
	c-47.5-16.5-88.4-46.6-118.2-85.6c-16.1-21.1-29-44.9-37.9-70.5l0,0c2.7-23.3,11.2-46,25.4-65.8l30.7-31.2
	c16-11.8,33.9-19.9,52.4-24.1c17.1-3.9,34.7-4.5,52-2c22.5,3.3,44.3,12.1,63.3,26.2c5.4,4.1,10.7,8.6,15.6,13.5
	c5,4.9,9.4,10.2,13.5,15.6c2.8,3.8,5.4,7.7,7.8,11.7c9.6,16.1,15.8,33.7,18.4,51.7C502.9,147.6,502.2,165.3,498.4,182.3z"/>
<path style="fill:#5B5560;" d="M498.4,182.3c-4.2,18.6-12.2,36.5-24.1,52.4l-31.2,30.7c-19.9,14.3-42.6,22.7-65.8,25.4
	c-47.5-16.5-88.4-46.6-118.2-85.6c4-17.5,13.1-42.7,22.3-62.7c6.4-13.9,15.3-26.6,26-37.6l6.4-6.5c16.9-17.1,38-29.7,61.4-35.6
	c1-0.3,2.1-0.5,3.1-0.7c17.1-3.9,34.7-4.5,52-2c18,2.7,35.6,8.8,51.7,18.4c9.6,16.1,15.8,33.7,18.4,51.7
	C502.9,147.6,502.2,165.3,498.4,182.3z"/>
<path style="fill:#E6E6E6;" d="M479.6,259.2c-4.8,10.5-17.1,15.2-27.6,10.4c-46.6-21-88.5-50.2-124-85.7
	c-15.4-15.4-29.6-32-42.5-49.7c-16.8-23.1-31.3-47.9-43.2-74.3c-4.8-10.5-0.1-22.9,10.4-27.6c10.5-4.8,22.9-0.1,27.6,10.4
	c8.2,18.1,17.8,35.5,28.6,52c39.1,59.5,94.5,107.1,160.2,136.8C479.7,236.3,484.4,248.7,479.6,259.2z"/>
<path style="fill:#C4C2C6;" d="M309,94.8c-13.4-6-35.3,12.9-23.5,39.5c-16.8-23.1-31.3-47.9-43.2-74.3c-4.8-10.5-0.1-22.9,10.4-27.6
	c10.5-4.8,22.9-0.1,27.6,10.4C288.6,61,298.2,78.3,309,94.8z"/>
<g>
</g>
<g>
</g>
<g>
</g>
<g>
</g>
<g>
</g>
<g>
</g>
<g>
</g>
<g>
</g>
<g>
</g>
<g>
</g>
<g>
</g>
<g>
</g>
<g>
</g>
<g>
</g>
<g>
</g>
</svg>
