<?xml version="1.0" encoding="iso-8859-1"?>
<!-- Generator: Adobe Illustrator 19.0.0, SVG Export Plug-In . SVG Version: 6.00 Build 0)  -->
<svg version="1.1" id="Capa_1" xmlns="http://www.w3.org/2000/svg" xmlns:xlink="http://www.w3.org/1999/xlink" x="0px" y="0px"
	 viewBox="0 0 512 512" style="enable-background:new 0 0 512 512;" xml:space="preserve">
<path style="fill:#62D6EA;" d="M512,256c0,52.684-15.914,101.669-43.207,142.367c-16.812,25.078-37.919,47-62.286,64.752
	c0,0,0,0-0.01,0C364.251,493.861,312.247,512,256,512c-95.828,0-179.357-52.652-223.232-130.602
	c-10.94-19.425-19.414-40.427-24.994-62.579C2.696,298.715,0,277.671,0,256C0,114.615,114.615,0,256,0S512,114.615,512,256z"/>
<circle style="fill:#82ECF7;" cx="256" cy="192.784" r="184.947"/>
<path style="fill:#9E5329;" d="M189.714,37.941l11.978,71.149c0.44,2.611-1.267,5.075-3.843,5.598c-0.052,0.02-0.116,0.03-0.17,0.04
	l-7.544,1.27c-2.664,0.448-5.189-1.348-5.637-4.012l-11.978-71.149c-0.448-2.664,1.348-5.189,4.012-5.637l7.544-1.27
	c0.053-0.009,0.118-0.02,0.173-0.018C186.854,33.559,189.274,35.329,189.714,37.941z"/>
<path style="fill:#AF653D;" d="M189.714,37.941l11.978,71.149c0.44,2.611-1.267,5.075-3.843,5.598
	c-2.603,0.36-5.034-1.418-5.474-4.029L180.396,39.51c-0.44-2.611,1.276-5.089,3.854-5.6
	C186.854,33.559,189.274,35.329,189.714,37.941z"/>
<path style="fill:#9E5329;" d="M213.245,177.714l11.978,71.149c0.44,2.611-1.267,5.075-3.843,5.598
	c-0.052,0.02-0.116,0.031-0.17,0.04l-7.544,1.27c-2.664,0.448-5.189-1.348-5.637-4.012l-11.978-71.149
	c-0.448-2.664,1.348-5.188,4.012-5.637l7.544-1.27c0.053-0.009,0.118-0.02,0.173-0.019
	C210.385,173.333,212.805,175.103,213.245,177.714z"/>
<path style="fill:#AF653D;" d="M213.245,177.714l11.978,71.149c0.44,2.611-1.267,5.075-3.843,5.598
	c-2.603,0.36-5.034-1.418-5.474-4.029l-11.978-71.149c-0.44-2.611,1.276-5.089,3.854-5.6
	C210.385,173.333,212.805,175.103,213.245,177.714z"/>
<path style="fill:#9E5329;" d="M228.902,257.589l11.978,71.149c0.44,2.611-1.783,5.162-5.006,5.793
	c-0.065,0.022-0.145,0.036-0.213,0.047l-9.429,1.587c-3.331,0.561-6.395-1.145-6.843-3.81l-11.978-71.149
	c-0.448-2.664,1.888-5.279,5.219-5.84l9.429-1.587c0.067-0.012,0.147-0.025,0.216-0.026
	C225.527,253.295,228.462,254.977,228.902,257.589z"/>
<path style="fill:#AF653D;" d="M228.902,257.589l11.978,71.149c0.44,2.611-1.783,5.162-5.006,5.793c-3.25,0.47-6.2-1.221-6.64-3.833
	l-11.978-71.149c-0.44-2.611,1.794-5.175,5.019-5.796C225.527,253.295,228.462,254.977,228.902,257.589z"/>
<path style="fill:#E6E6E6;" d="M193.067,42.356l-22.27,3.749c-2.555,0.43-4.975-1.293-5.405-3.847l-2.181-12.957
	c-0.431-2.555,1.293-4.975,3.847-5.405l22.27-3.749c2.555-0.43,4.975,1.293,5.405,3.847l2.181,12.957
	C197.345,39.507,195.622,41.927,193.067,42.356z"/>
<path style="fill:#C4C2C6;" d="M177.359,40.039l-2.115-12.56c-0.448-2.664,1.348-5.188,4.012-5.637l-12,2.02
	c-2.664,0.448-4.461,2.972-4.012,5.637l2.115,12.56c0.448,2.664,2.973,4.461,5.637,4.012l12-2.02
	C180.331,44.5,177.807,42.704,177.359,40.039z"/>
<path style="fill:#E6E6E6;" d="M230.608,265.347l-22.27,3.749c-2.555,0.431-4.975-1.293-5.405-3.847l-2.181-12.957
	c-0.43-2.555,1.293-4.975,3.847-5.405l22.27-3.749c2.555-0.43,4.975,1.293,5.405,3.847l2.181,12.957
	C234.885,262.497,233.163,264.917,230.608,265.347z"/>
<path style="fill:#9E5329;" d="M208.859,107.884l10.744,63.82c0.448,2.666-1.348,5.189-4.012,5.637l-21.879,3.683
	c-2.664,0.448-5.189-1.348-5.637-4.012l-10.744-63.82c-0.448-2.664,1.348-5.189,4.012-5.637l21.879-3.683
	C205.887,103.422,208.41,105.218,208.859,107.884z"/>
<path style="fill:#AF653D;" d="M208.859,107.884l10.744,63.82c0.448,2.666-1.348,5.189-4.012,5.637l-11.132,1.875
	c-2.664,0.448-5.189-1.348-5.637-4.012l-10.745-63.82c-0.448-2.664,1.348-5.189,4.012-5.637l11.132-1.875
	C205.887,103.422,208.41,105.218,208.859,107.884z"/>
<path style="fill:#E6E6E6;" d="M217.504,187.509l-22.27,3.749c-2.555,0.431-4.975-1.293-5.405-3.847l-2.181-12.957
	c-0.43-2.555,1.293-4.975,3.847-5.405l22.27-3.749c2.555-0.431,4.975,1.293,5.405,3.847l2.181,12.957
	C221.781,184.659,220.059,187.079,217.504,187.509z"/>
<g>
	<path style="fill:#C4C2C6;" d="M201.795,185.192l-2.115-12.56c-0.448-2.665,1.348-5.188,4.012-5.637l-12,2.02
		c-2.664,0.448-4.461,2.972-4.012,5.637l2.115,12.56c0.448,2.664,2.973,4.461,5.637,4.012l12-2.02
		C204.768,189.653,202.243,187.857,201.795,185.192z"/>
	<path style="fill:#C4C2C6;" d="M214.899,263.031l-2.115-12.56c-0.448-2.664,1.348-5.188,4.012-5.637l-12,2.02
		c-2.664,0.448-4.461,2.972-4.012,5.637l2.115,12.56c0.448,2.664,2.973,4.461,5.637,4.012l12-2.02
		C217.872,267.491,215.347,265.696,214.899,263.031z"/>
</g>
<path style="fill:#F45367;" d="M469.817,390.134c-0.261,2.842-0.606,5.58-1.024,8.234c-16.812,25.078-37.919,47-62.286,64.752
	c0,0,0,0-0.01,0c-30.887,9.268-74.439,13.73-133.757,18.15C134.886,491.52,128.052,349.111,72.223,349.111
	c-20.093,0-31.775,13.74-39.455,32.287c-10.94-19.425-19.414-40.427-24.994-62.579c14.075-18.787,30.051-31.033,47.271-38.63
	c0-0.01,0.01-0.01,0.01-0.01c78.744-34.806,183.442,27.314,250.713,4.002c58.138-20.156,117.06-6.29,146.087,33.531
	C465.502,336.394,472.545,360.814,469.817,390.134z"/>
<path style="fill:#9E5329;" d="M483.987,43.954l-17.814,69.916c-0.654,2.565-3.211,4.129-5.778,3.566
	c-0.055-0.003-0.119-0.019-0.171-0.032l-7.414-1.889c-2.619-0.668-4.2-3.33-3.534-5.95l17.814-69.916
	c0.668-2.619,3.331-4.2,5.95-3.534l7.414,1.889c0.053,0.014,0.116,0.029,0.166,0.054C483.143,38.791,484.64,41.387,483.987,43.954z"
	/>
<path style="fill:#AF653D;" d="M483.987,43.954l-17.814,69.916c-0.654,2.565-3.211,4.129-5.778,3.566
	c-2.526-0.723-4.031-3.333-3.377-5.898l17.814-69.916c0.654-2.566,3.225-4.138,5.788-3.563
	C483.143,38.791,484.64,41.387,483.987,43.954z"/>
<path style="fill:#9E5329;" d="M448.991,181.305l-17.814,69.916c-0.654,2.566-3.211,4.129-5.778,3.566
	c-0.055-0.002-0.119-0.019-0.171-0.032l-7.413-1.889c-2.618-0.668-4.2-3.331-3.533-5.95L432.096,177
	c0.668-2.619,3.33-4.201,5.95-3.533l7.414,1.889c0.053,0.014,0.116,0.029,0.166,0.053
	C448.147,176.143,449.645,178.739,448.991,181.305z"/>
<path style="fill:#AF653D;" d="M448.991,181.305l-17.814,69.916c-0.654,2.566-3.211,4.129-5.778,3.566
	c-2.525-0.722-4.031-3.332-3.377-5.898l17.814-69.916c0.654-2.566,3.225-4.138,5.788-3.563
	C448.147,176.143,449.645,178.739,448.991,181.305z"/>
<path style="fill:#9E5329;" d="M431.013,260.691l-17.814,69.916c-0.654,2.566-3.718,4.001-6.921,3.275
	c-0.069-0.006-0.147-0.026-0.214-0.043l-9.266-2.361c-3.274-0.834-5.385-3.633-4.719-6.252l17.814-69.916
	c0.668-2.618,3.861-4.065,7.135-3.231l9.266,2.361c0.066,0.017,0.145,0.037,0.208,0.064
	C429.663,255.399,431.667,258.124,431.013,260.691z"/>
<path style="fill:#AF653D;" d="M431.013,260.691l-17.814,69.916c-0.654,2.566-3.718,4.001-6.921,3.275
	c-3.162-0.884-5.177-3.624-4.523-6.19l17.814-69.916c0.654-2.566,3.734-4.008,6.934-3.272
	C429.663,255.399,431.667,258.124,431.013,260.691z"/>
<path style="fill:#E6E6E6;" d="M485.268,49.348l-21.883-5.576c-2.511-0.639-4.027-3.193-3.388-5.704l3.244-12.732
	c0.639-2.511,3.193-4.027,5.704-3.388l21.883,5.576c2.511,0.639,4.027,3.193,3.388,5.704l-3.244,12.732
	C490.333,48.471,487.779,49.988,485.268,49.348z"/>
<path style="fill:#C4C2C6;" d="M471.838,40.877l3.144-12.342c0.668-2.619,3.33-4.2,5.949-3.533l-11.792-3.004
	c-2.618-0.667-5.282,0.914-5.949,3.533l-3.144,12.342c-0.667,2.619,0.914,5.281,3.533,5.949l11.792,3.004
	C472.753,46.159,471.172,43.496,471.838,40.877z"/>
<path style="fill:#E6E6E6;" d="M429.436,268.476l-21.883-5.576c-2.511-0.639-4.027-3.193-3.388-5.704l3.244-12.732
	c0.639-2.511,3.193-4.027,5.704-3.388l21.883,5.576c2.511,0.639,4.027,3.193,3.388,5.704l-3.244,12.732
	C434.501,267.599,431.947,269.116,429.436,268.476z"/>
<path style="fill:#9E5329;" d="M473.216,115.665l-15.98,62.715c-0.668,2.62-3.331,4.2-5.95,3.534l-21.5-5.478
	c-2.619-0.668-4.2-3.33-3.533-5.95l15.98-62.715c0.668-2.619,3.331-4.2,5.95-3.534l21.5,5.478
	C472.302,110.383,473.883,113.046,473.216,115.665z"/>
<path style="fill:#AF653D;" d="M473.216,115.665l-15.98,62.715c-0.668,2.62-3.331,4.2-5.95,3.534l-10.94-2.788
	c-2.619-0.668-4.2-3.33-3.533-5.95l15.98-62.715c0.668-2.619,3.331-4.2,5.95-3.534l10.94,2.788
	C472.302,110.383,473.883,113.046,473.216,115.665z"/>
<path style="fill:#E6E6E6;" d="M448.926,191.986l-21.883-5.576c-2.511-0.639-4.027-3.193-3.388-5.704l3.244-12.732
	c0.639-2.511,3.193-4.027,5.704-3.388l21.883,5.576c2.511,0.639,4.027,3.193,3.388,5.704l-3.244,12.732
	C453.99,191.11,451.436,192.626,448.926,191.986z"/>
<g>
	<path style="fill:#C4C2C6;" d="M435.495,183.516l3.144-12.342c0.668-2.619,3.33-4.201,5.949-3.533l-11.792-3.004
		c-2.619-0.667-5.282,0.914-5.949,3.533l-3.144,12.342c-0.667,2.619,0.914,5.281,3.533,5.949l11.792,3.004
		C436.41,188.797,434.828,186.134,435.495,183.516z"/>
	<path style="fill:#C4C2C6;" d="M416.006,260.006l3.144-12.342c0.668-2.619,3.33-4.201,5.949-3.533l-11.792-3.004
		c-2.619-0.667-5.282,0.914-5.949,3.533l-3.144,12.342c-0.667,2.618,0.915,5.282,3.533,5.949l11.792,3.004
		C416.921,265.287,415.339,262.624,416.006,260.006z"/>
</g>
<path style="fill:#9E5329;" d="M329.696,39.008v72.15c0,2.648-2.092,4.795-4.719,4.882c-0.054,0.01-0.12,0.01-0.174,0.01h-7.65
	c-2.702,0-4.893-2.19-4.893-4.892v-72.15c0-2.702,2.19-4.893,4.893-4.893h7.65c0.054,0,0.12,0,0.174,0.011
	C327.604,34.212,329.696,36.359,329.696,39.008z"/>
<path style="fill:#AF653D;" d="M329.696,39.008v72.15c0,2.648-2.092,4.795-4.719,4.882c-2.626-0.076-4.729-2.234-4.729-4.882v-72.15
	c0-2.648,2.103-4.805,4.729-4.882C327.604,34.212,329.696,36.359,329.696,39.008z"/>
<path style="fill:#9E5329;" d="M329.696,180.747v72.15c0,2.648-2.092,4.795-4.719,4.882c-0.054,0.012-0.12,0.012-0.174,0.012h-7.65
	c-2.702,0-4.893-2.19-4.893-4.893v-72.15c0-2.702,2.19-4.892,4.893-4.892h7.65c0.054,0,0.12,0,0.174,0.01
	C327.604,175.954,329.696,178.1,329.696,180.747z"/>
<path style="fill:#AF653D;" d="M329.696,180.747v72.15c0,2.648-2.092,4.795-4.719,4.882c-2.626-0.076-4.729-2.234-4.729-4.882
	v-72.15c0-2.648,2.103-4.805,4.729-4.882C327.604,175.954,329.696,178.1,329.696,180.747z"/>
<path style="fill:#9E5329;" d="M331.875,262.114v72.15c0,2.648-2.615,4.795-5.898,4.882c-0.068,0.011-0.149,0.011-0.217,0.011
	h-9.562c-3.378,0-6.116-2.19-6.116-4.893v-72.15c0-2.702,2.738-4.892,6.116-4.892h9.562c0.068,0,0.149,0,0.217,0.01
	C329.26,257.319,331.875,259.465,331.875,262.114z"/>
<path style="fill:#AF653D;" d="M331.875,262.114v72.15c0,2.648-2.615,4.795-5.898,4.882c-3.283-0.076-5.912-2.234-5.912-4.882
	v-72.15c0-2.648,2.629-4.805,5.912-4.882C329.26,257.319,331.875,259.465,331.875,262.114z"/>
<path style="fill:#E6E6E6;" d="M332.269,43.918h-22.582c-2.591,0-4.692-2.1-4.692-4.692V26.089c0-2.591,2.1-4.692,4.692-4.692
	h22.583c2.591,0,4.692,2.1,4.692,4.692v13.139C336.961,41.818,334.861,43.918,332.269,43.918z"/>
<path style="fill:#C4C2C6;" d="M317.164,39.026V26.29c0-2.702,2.19-4.892,4.892-4.892h-12.168c-2.702,0-4.892,2.19-4.892,4.892
	v12.736c0,2.702,2.19,4.892,4.892,4.892h12.168C319.354,43.918,317.164,41.728,317.164,39.026z"/>
<path style="fill:#E6E6E6;" d="M332.269,270.048h-22.582c-2.591,0-4.692-2.1-4.692-4.692v-13.139c0-2.591,2.1-4.692,4.692-4.692
	h22.583c2.591,0,4.692,2.1,4.692,4.692v13.139C336.961,267.947,334.861,270.048,332.269,270.048z"/>
<path style="fill:#9E5329;" d="M336.964,111.158v64.718c0,2.703-2.19,4.893-4.893,4.893h-22.185c-2.702,0-4.893-2.19-4.893-4.893
	v-64.718c0-2.702,2.19-4.893,4.893-4.893h22.186C334.774,106.265,336.964,108.455,336.964,111.158z"/>
<path style="fill:#AF653D;" d="M336.964,111.158v64.718c0,2.703-2.19,4.893-4.893,4.893h-11.289c-2.702,0-4.893-2.19-4.893-4.893
	v-64.718c0-2.702,2.19-4.893,4.893-4.893h11.289C334.774,106.265,336.964,108.455,336.964,111.158z"/>
<path style="fill:#E6E6E6;" d="M332.269,191.114h-22.582c-2.591,0-4.692-2.1-4.692-4.692v-13.139c0-2.591,2.1-4.692,4.692-4.692
	h22.583c2.591,0,4.692,2.1,4.692,4.692v13.139C336.961,189.014,334.861,191.114,332.269,191.114z"/>
<g>
	<path style="fill:#C4C2C6;" d="M317.164,186.222v-12.736c0-2.702,2.19-4.892,4.892-4.892h-12.168c-2.702,0-4.892,2.19-4.892,4.892
		v12.736c0,2.702,2.19,4.892,4.892,4.892h12.168C319.354,191.114,317.164,188.924,317.164,186.222z"/>
	<path style="fill:#C4C2C6;" d="M317.164,265.155v-12.736c0-2.702,2.19-4.892,4.892-4.892h-12.168c-2.702,0-4.892,2.19-4.892,4.892
		v12.736c0,2.702,2.19,4.892,4.892,4.892h12.168C319.354,270.048,317.164,267.857,317.164,265.155z"/>
</g>
<path style="fill:#AF653D;" d="M123.249,290.041l-15.073,7.249c-3.372,1.622-7.414,0.074-8.84-3.384L43.704,159.009l-10.781-26.142
	c-2.361-5.727,5.854-9.679,8.852-4.258l13.692,24.741l70.655,127.671C127.935,284.296,126.621,288.419,123.249,290.041z"/>
<path style="fill:#9E5329;" d="M35.341,126.561c-0.52,0.251-0.375,1.885,0.927,4.693l11.885,25.615l61.316,132.158
	c1.57,3.392,3.584,5.918,4.409,5.521l-5.696,2.74c-3.369,1.62-7.415,0.071-8.848-3.387L43.704,159.009l-10.775-26.149
	C31.745,129.997,33.21,127.586,35.341,126.561z"/>
<path style="fill:#5B5560;" d="M55.468,153.351l-11.765,5.658l-26.62-61.15c-2.056-4.725,4.821-8.033,7.229-3.476L55.468,153.351z"
	/>
<path style="fill:#E6E6E6;" d="M66.116,165.747l-20.351,9.789c-2.335,1.123-5.138,0.141-6.261-2.194l-5.695-11.84
	c-1.123-2.335-0.141-5.138,2.194-6.261l20.351-9.789c2.335-1.123,5.138-0.141,6.261,2.194l5.695,11.841
	C69.433,161.82,68.451,164.624,66.116,165.747z"/>
<path style="fill:#C4C2C6;" d="M50.383,167.886l-5.52-11.477c-1.171-2.436-0.146-5.358,2.288-6.53l-10.966,5.275
	c-2.435,1.171-3.46,4.094-2.288,6.53l5.52,11.477c1.171,2.435,4.095,3.46,6.53,2.288l10.966-5.275
	C54.477,171.344,51.553,170.32,50.383,167.886z"/>
<path style="fill:#E6E6E6;" d="M111.458,260.019l-20.351,9.789c-2.334,1.123-5.138,0.141-6.261-2.194l-5.695-11.84
	c-1.123-2.335-0.141-5.138,2.194-6.261l20.351-9.789c2.334-1.123,5.138-0.141,6.261,2.194l5.695,11.841
	C114.776,256.093,113.794,258.896,111.458,260.019z"/>
<path style="fill:#C4C2C6;" d="M95.725,262.158l-5.52-11.477c-1.171-2.436-0.146-5.358,2.288-6.53l-10.966,5.275
	c-2.435,1.171-3.46,4.094-2.288,6.53l5.52,11.477c1.171,2.435,4.095,3.46,6.53,2.288l10.966-5.275
	C99.819,265.617,96.897,264.593,95.725,262.158z"/>
<g>
	<path style="fill:#D63247;" d="M469.817,390.134c-0.261,2.842-0.606,5.58-1.024,8.234c-16.812,25.078-37.93,47.01-62.297,64.752
		c-30.887,9.268-74.439,13.73-133.757,18.15C134.886,491.52,128.052,349.111,72.223,349.111c-20.093,0-31.775,13.74-39.455,32.287
		c-10.94-19.425-19.414-40.427-24.994-62.579c14.075-18.787,30.051-31.033,47.271-38.63c-31.451,20.898-4.326,53.791,40.709,42.162
		c45.046-11.619,54.491,108.251,157.654,103.163s191.3-10,198.447-107.802C465.502,336.394,472.545,360.814,469.817,390.134z"/>
	<path style="fill:#D63247;" d="M490.116,258.054c-1.794,0-3.552-0.924-4.538-2.568c-1.404-2.34-13.17-24.723,5.805-89.174
		c15.595-52.962-9.952-73.348-14.519-76.495l-25.539-5.606c-32.963,20.349-63.467,15.806-83.402,8.294
		C350.125,85.8,337.674,75.78,333.395,72.03h-27.132c-64.615,20.225-99.394-3.864-108.227-11.393l-25.128,5.384
		c-4.533,4.702-23.025,26.23-18.993,60.783c4.891,41.925,1.537,71.056,1.392,72.277c-0.342,2.865-2.938,4.907-5.805,4.57
		c-2.865-0.341-4.911-2.94-4.57-5.805c0.033-0.285,3.344-29.216-1.394-69.829c-5.126-43.936,22.084-69.556,23.245-70.625
		c0.686-0.632,1.531-1.07,2.444-1.265l29.257-6.269c1.774-0.376,3.61,0.185,4.864,1.49c0.063,0.064,8.073,8.123,24.313,13.42
		c15.063,4.912,40.513,8.391,76.221-2.939c0.511-0.162,1.045-0.245,1.581-0.245h29.951c1.355,0,2.658,0.527,3.633,1.469
		c0.122,0.118,13.037,12.405,32.906,19.806c26.159,9.745,51.583,6.849,75.571-8.601c1.169-0.752,2.588-1.007,3.949-0.711
		l28.56,6.269c0.541,0.119,1.06,0.323,1.536,0.604c1.6,0.945,38.966,23.884,19.839,88.843c-17.702,60.123-6.933,80.729-6.821,80.929
		c1.484,2.474,0.658,5.642-1.816,7.127C491.939,257.818,491.023,258.054,490.116,258.054z"/>
	<circle style="fill:#D63247;" cx="489.357" cy="256.982" r="13.932"/>
	<path style="fill:#D63247;" d="M503.293,308.178c0-7.695-6.238-42.493-13.932-42.493c-7.694,0-13.933,34.799-13.933,42.493
		c0,7.694,6.238,13.932,13.932,13.932C497.054,322.11,503.293,315.873,503.293,308.178z"/>
	<circle style="fill:#D63247;" cx="150.12" cy="144.478" r="13.932"/>
	<path style="fill:#D63247;" d="M164.049,195.674c0-7.695-6.238-42.493-13.932-42.493c-7.695,0-13.932,34.798-13.932,42.493
		s6.238,13.932,13.932,13.932S164.049,203.367,164.049,195.674z"/>
</g>
<g>
</g>
<g>
</g>
<g>
</g>
<g>
</g>
<g>
</g>
<g>
</g>
<g>
</g>
<g>
</g>
<g>
</g>
<g>
</g>
<g>
</g>
<g>
</g>
<g>
</g>
<g>
</g>
<g>
</g>
</svg>
