<?xml version="1.0" encoding="iso-8859-1"?>
<!-- Generator: Adobe Illustrator 19.0.0, SVG Export Plug-In . SVG Version: 6.00 Build 0)  -->
<svg version="1.1" id="Capa_1" xmlns="http://www.w3.org/2000/svg" xmlns:xlink="http://www.w3.org/1999/xlink" x="0px" y="0px"
	 viewBox="0 0 512 512" style="enable-background:new 0 0 512 512;" xml:space="preserve">
<path style="fill:#62D6EA;" d="M512,256c0,141.385-114.615,256-256,256c-57.448,0-110.467-18.913-153.182-50.866
	c-8.516-6.374-16.624-13.27-24.283-20.626c-10.041-9.665-19.299-20.146-27.669-31.326C18.923,366.467,0,313.448,0,256
	C0,114.615,114.615,0,256,0c31.242,0,61.179,5.601,88.858,15.851c40.929,15.141,76.936,40.458,104.939,72.871
	c19.822,22.946,35.641,49.445,46.352,78.42C506.399,194.821,512,224.758,512,256z"/>
<circle style="fill:#82ECF7;" cx="256" cy="192.784" r="184.947"/>
<path style="fill:#EDBB57;" d="M370.38,248.858c-26.133-26.133-68.504-26.133-94.636,0L158.621,365.981
	c-26.122,26.133-26.122,68.504,0,94.626c13.061,13.061,30.198,19.602,47.313,19.602c17.136,0,34.252-6.541,47.323-19.602
	L370.38,343.495C396.513,317.362,396.513,274.991,370.38,248.858z M350.704,323.819L233.582,440.931
	c-15.245,15.245-40.04,15.245-55.286,0c-15.235-15.235-15.235-40.04,0-55.275l117.123-117.123c15.245-15.235,40.04-15.235,55.286,0
	C365.939,283.779,365.939,308.574,350.704,323.819z"/>
<path style="fill:#E6993A;" d="M370.38,248.858c-1.676-1.676-3.422-3.242-5.223-4.703c21.319,26.281,19.754,64.957-4.703,89.413
	L243.331,450.68c-13.072,13.061-30.187,19.602-47.323,19.602c-14.919,0-29.852-4.974-42.09-14.9
	c1.461,1.801,3.026,3.547,4.703,5.224c13.061,13.061,30.198,19.602,47.313,19.602c17.136,0,34.252-6.541,47.323-19.602
	L370.38,343.495C396.513,317.362,396.513,274.991,370.38,248.858z"/>
<path style="fill:#EDBB57;" d="M505.03,160.914l-1.014,1.003c-2.32,2.33-5.005,4.065-7.868,5.224
	c-7.596,3.082-16.468,2.069-23.228-3.041l-0.146,0.199c0,0-65.421-7.701-107.75,34.628L102.818,461.134
	c-8.516-6.374-16.624-13.27-24.283-20.626c-10.041-9.665-19.299-20.146-27.669-31.326l262.196-262.207
	c42.329-42.329,34.638-107.75,34.638-107.75l0.188-0.146c-5.11-6.771-6.113-15.642-3.03-23.228c1.16-2.863,2.905-5.548,5.224-7.868
	l1.003-1.014c9.289-9.289,24.346-9.289,33.625,0l120.32,120.31C514.32,136.568,514.32,151.625,505.03,160.914z"/>
<path style="fill:#E6993A;" d="M505.03,160.914l-1.014,1.003c-2.32,2.33-5.005,4.065-7.868,5.224
	c-7.596,3.082-16.468,2.069-23.228-3.041l-0.146,0.199c0,0-65.421-7.701-107.75,34.628L102.818,461.134
	c-8.516-6.374-16.624-13.27-24.283-20.626L342.57,176.473c21.159-21.17,41.921-36.007,57.396-45.547
	c15.464-9.55,25.642-13.803,25.642-13.803l-16.624-16.624c0.784,0.794,1.63,1.526,2.518,2.173c9.31,7.043,22.601,6.322,31.096-2.173
	l1.014-1.003c3.093-3.093,5.162-6.823,6.186-10.773c2.069-7.899,0.01-16.666-6.186-22.862l61.419,61.419
	C514.32,136.568,514.32,151.625,505.03,160.914z"/>
<g>
	<path style="fill:#353434;" d="M295.88,232.457c-5.529,0-10.817-2.694-14.147-7.202c-3.209-4.345-4.134-9.809-2.538-14.993
		c2.188-7.108,8.636-12.005,16.045-12.185l0.408-0.004c6.778,0,12.985,4.021,15.678,10.08c0.21,0.414,0.383,0.844,0.518,1.282
		c2.601,7.121,0.122,15.333-6.08,19.802c-2.925,2.108-6.341,3.221-9.882,3.221h-0.002V232.457z"/>
	<path style="fill:#353434;" d="M116.903,411.376c-4.651,0-9.203-1.889-12.49-5.181c-3.187-3.194-4.937-7.443-4.928-11.965
		c0.02-9.429,7.823-17.101,17.397-17.101c4.474,0,8.713,1.725,11.936,4.857l0.149,0.149c1.514,1.56,2.706,3.33,3.542,5.262
		c0,0,0.076,0.178,0.113,0.269c0.046,0.115,0.089,0.228,0.129,0.341l0.004-0.002c2.563,6.736,0.703,14.42-4.626,19.121
		C125.022,409.866,121.035,411.376,116.903,411.376C116.904,411.376,116.904,411.376,116.903,411.376z"/>
	<path style="fill:#353434;" d="M161.449,366.694c-3.978,0-7.852-1.375-10.911-3.872c-5.285-4.314-7.513-11.353-5.678-17.93
		c2.021-7.238,8.668-12.42,16.166-12.603l0.411-0.005c6.552,0,12.659,3.864,15.505,9.712c0.307,0.541,0.55,1.116,0.723,1.705
		c2.607,7.156,0.036,15.422-6.326,19.881C168.439,365.619,165.019,366.694,161.449,366.694L161.449,366.694z"/>
	<path style="fill:#353434;" d="M206.38,321.931c-5.422,0-10.644-2.614-13.97-6.993c-3.221-4.243-4.246-9.63-2.812-14.78
		c2.019-7.24,8.666-12.423,16.168-12.605l0.414-0.005c5.066,0,9.777,2.23,13.004,5.944h0.929l2.029,4.797
		c3.031,7.404,0.445,16.077-6.15,20.621C213.124,320.886,209.801,321.931,206.38,321.931L206.38,321.931z"/>
	<path style="fill:#353434;" d="M250.922,277.248c-7.179,0-13.673-4.537-16.158-11.289c-2.31-6.278-0.745-13.389,3.988-18.117
		c3.19-3.185,7.641-5.012,12.214-5.012c3.19,0,6.26,0.862,8.926,2.498c0.408,0.223,0.797,0.481,1.164,0.773
		c5.892,4.233,8.518,12.163,6.255,19.188c-2.243,6.964-8.658,11.768-15.96,11.953C251.207,277.246,251.065,277.248,250.922,277.248
		L250.922,277.248z"/>
</g>
<g>
</g>
<g>
</g>
<g>
</g>
<g>
</g>
<g>
</g>
<g>
</g>
<g>
</g>
<g>
</g>
<g>
</g>
<g>
</g>
<g>
</g>
<g>
</g>
<g>
</g>
<g>
</g>
<g>
</g>
</svg>
