<?xml version="1.0" encoding="iso-8859-1"?>
<!-- Generator: Adobe Illustrator 19.0.0, SVG Export Plug-In . SVG Version: 6.00 Build 0)  -->
<svg version="1.1" id="Capa_1" xmlns="http://www.w3.org/2000/svg" xmlns:xlink="http://www.w3.org/1999/xlink" x="0px" y="0px"
	 viewBox="0 0 512 512" style="enable-background:new 0 0 512 512;" xml:space="preserve">
<path style="fill:#56B774;" d="M511.999,255.46c0.292,141.149-112.52,255.272-253.665,256.53
	c-53.572,0.478-103.382-15.501-144.682-43.186c-20.605-13.814-39.1-30.542-54.878-49.591c-6.51-7.858-12.549-16.102-18.098-24.701
	C14.932,354.586,0,307.033,0,256s14.932-98.586,40.678-138.512c5.538-8.61,11.588-16.854,18.098-24.701
	C105.723,36.101,176.651,0,256,0C397.206,0,511.708,114.322,511.999,255.46z"/>
<circle style="fill:#6CD182;" cx="256" cy="192.784" r="184.947"/>
<g>
	<rect x="40.677" y="69.245" style="fill:#AF653D;" width="430.655" height="79.319"/>
	<path style="fill:#AF653D;" d="M471.333,180.935v176.64h-71.784v27.815h-71.764v27.794H256v27.805h-71.784v27.815h-70.562
		c-29.1-19.508-53.99-44.826-72.976-74.292V180.935L471.333,180.935L471.333,180.935z"/>
</g>
<g>
	<rect x="399.559" y="69.245" style="fill:#9E5329;" width="18.098" height="288.329"/>
	<rect x="327.785" y="69.245" style="fill:#9E5329;" width="18.098" height="316.144"/>
	<rect x="256.011" y="69.245" style="fill:#9E5329;" width="18.098" height="343.939"/>
	<rect x="184.226" y="69.245" style="fill:#9E5329;" width="18.098" height="371.743"/>
	<rect x="112.452" y="69.245" style="fill:#9E5329;" width="18.098" height="399.559"/>
	<path style="fill:#9E5329;" d="M58.776,69.245v349.968c-6.51-7.858-12.549-16.102-18.098-24.701V69.245H58.776z"/>
</g>
<path style="fill:#EDBB57;" d="M16.062,149.722v41.89c0,8.574,6.952,15.526,15.526,15.526h9.089h71.766h71.777h71.777h71.789h71.766
	h71.777h9.077c8.574,0,15.526-6.952,15.526-15.526v-41.89c0-8.574-6.952-15.526-15.526-15.526h-9.077h-71.777h-71.766h-71.789
	H184.22h-71.777H40.677h-9.089C23.014,134.196,16.062,141.148,16.062,149.722z"/>
<path style="fill:#E6993A;" d="M50.148,134.196H31.589c-8.574,0-15.526,6.952-15.526,15.526v41.89
	c0,8.574,6.952,15.526,15.526,15.526h18.559V134.196z"/>
<g>
</g>
<g>
</g>
<g>
</g>
<g>
</g>
<g>
</g>
<g>
</g>
<g>
</g>
<g>
</g>
<g>
</g>
<g>
</g>
<g>
</g>
<g>
</g>
<g>
</g>
<g>
</g>
<g>
</g>
</svg>
