<?xml version="1.0" encoding="iso-8859-1"?>
<!-- Generator: Adobe Illustrator 19.0.0, SVG Export Plug-In . SVG Version: 6.00 Build 0)  -->
<svg version="1.1" id="Capa_1" xmlns="http://www.w3.org/2000/svg" xmlns:xlink="http://www.w3.org/1999/xlink" x="0px" y="0px"
	 viewBox="0 0 512 512" style="enable-background:new 0 0 512 512;" xml:space="preserve">
<circle style="fill:#62D6EA;" cx="256" cy="256" r="256"/>
<g>
	<circle style="fill:#EDBB57;" cx="251.82" cy="33.248" r="21.803"/>
	<circle style="fill:#EDBB57;" cx="251.82" cy="478.845" r="21.803"/>
	<circle style="fill:#EDBB57;" cx="474.624" cy="256.042" r="21.803"/>
	<circle style="fill:#EDBB57;" cx="29.025" cy="256.042" r="21.803"/>
	<path style="fill:#EDBB57;" d="M33.2,256.051c0,123.042,99.751,222.793,222.793,222.793c123.052,0,222.804-99.751,222.804-222.793
		c0-123.052-99.751-222.804-222.804-222.804c-44.097,0-85.203,12.816-119.797,34.925c-8.709,5.553-17.01,11.711-24.836,18.411
		C63.521,127.436,33.2,188.201,33.2,256.051z"/>
</g>
<path style="fill:#C4C2C6;" d="M45.09,256.051c0,116.475,94.427,210.902,210.902,210.902c116.485,0,210.913-94.427,210.913-210.902
	c0-116.485-94.427-210.913-210.913-210.913c-41.744,0-80.656,12.131-113.403,33.061c-8.244,5.256-16.102,11.086-23.51,17.429
	C73.794,134.3,45.09,191.821,45.09,256.051z"/>
<circle style="fill:#E6E6E6;" cx="256" cy="256.052" r="185.71"/>
<path style="fill:#C4C2C6;" d="M119.08,95.628l2.748,3.584l16.687,21.723l98.816,128.679c0.01-0.021,0.021-0.031,0.042-0.052
	c-0.857,1.306-1.651,2.664-2.361,4.075c-2.205,4.326-3.72,9.091-4.389,14.179c-0.658,5.078-0.428,10.083,0.575,14.827
	c3.751,17.69,18.286,31.901,37.23,34.398c24.033,3.156,46.08-13.772,49.225-37.804c3.156-24.033-13.772-46.07-37.794-49.225
	c-6.719-0.888-13.281-0.188-19.32,1.776l-99.14-129.097L144.753,81.02l-2.163-2.821C134.346,83.455,126.488,89.285,119.08,95.628z"
	/>
<path style="fill:#AF653D;" d="M227.041,287.783c6.022,17.045,22.276,29.251,41.391,29.258c24.234,0,43.888-19.653,43.888-43.888
	c-0.007-24.242-19.653-43.888-43.888-43.888c-19.107,0-35.369,12.213-41.391,29.258c-1.619,4.574-2.497,9.501-2.497,14.63
	S225.422,283.209,227.041,287.783z"/>
<path style="fill:#9E5329;" d="M227.041,287.783c-1.619-4.574-2.497-9.501-2.497-14.63c0-5.127,0.88-10.056,2.497-14.63
	c4.349-12.311,14.041-22.098,26.286-26.586c-0.059,0.161-0.123,0.319-0.181,0.481c-1.619,4.574-2.497,9.501-2.497,14.63
	c0,5.127,0.88,10.056,2.497,14.63c6.022,17.045,22.276,29.251,41.39,29.259c5.309,0,10.399-0.944,15.109-2.672
	c-6.16,16.793-22.291,28.779-41.216,28.779C249.317,317.035,233.062,304.828,227.041,287.783z"/>
<path style="fill:#5B5560;" d="M56.42,61.145c-5.716,5.705-5.716,14.973,0,20.689l38.306,38.306l19.372,19.372l114.719,114.719
	c2.09-4.378,4.953-8.485,8.579-12.11s7.732-6.489,12.11-8.579L134.411,118.448l-19.32-19.32L77.109,61.145
	c-2.863-2.863-6.604-4.284-10.344-4.284S59.283,58.282,56.42,61.145z"/>
<g>
</g>
<g>
</g>
<g>
</g>
<g>
</g>
<g>
</g>
<g>
</g>
<g>
</g>
<g>
</g>
<g>
</g>
<g>
</g>
<g>
</g>
<g>
</g>
<g>
</g>
<g>
</g>
<g>
</g>
</svg>
