<?xml version="1.0" encoding="iso-8859-1"?>
<!-- Generator: Adobe Illustrator 19.0.0, SVG Export Plug-In . SVG Version: 6.00 Build 0)  -->
<svg version="1.1" id="Capa_1" xmlns="http://www.w3.org/2000/svg" xmlns:xlink="http://www.w3.org/1999/xlink" x="0px" y="0px"
	 viewBox="0 0 512 512" style="enable-background:new 0 0 512 512;" xml:space="preserve">
<path style="fill:#F45367;" d="M512,256c0,13.615-1.066,26.979-3.114,40.009c-0.596,3.814-1.275,7.596-2.038,11.348
	c-0.836,4.096-1.766,8.15-2.79,12.163c-0.972,3.783-2.017,7.544-3.156,11.254c-2.664,8.746-5.789,17.293-9.331,25.61
	c-1.599,3.751-3.291,7.45-5.057,11.107c-3.49,7.199-7.304,14.2-11.431,21.002c-1.996,3.312-4.075,6.572-6.228,9.77
	C422.933,466.85,344.743,512,256,512c-23.468,0-46.195-3.156-67.772-9.07c-5.235-1.442-10.397-3.03-15.485-4.786
	c-3.103-1.066-6.175-2.184-9.216-3.375c-5.58-2.152-11.076-4.504-16.457-7.043c-4.075-1.912-8.088-3.939-12.048-6.06
	c-45.234-24.304-82.317-61.806-106.099-107.353c-2.111-4.054-4.127-8.171-6.019-12.351c-2.435-5.329-4.681-10.752-6.74-16.269
	c-1.149-3.072-2.247-6.165-3.281-9.289c-1.693-5.11-3.229-10.303-4.598-15.548C2.884,300.136,0,278.403,0,256
	C0,114.615,114.615,0,256,0S512,114.615,512,256z"/>
<circle style="fill:#FC7385;" cx="256" cy="192.784" r="184.947"/>
<path style="fill:#D63247;" d="M504.059,319.519c-0.972,3.783-2.017,7.544-3.156,11.254c-3.312-0.031-6.478,1.139-8.997,3.323
	c-2.717,2.372-4.357,5.663-4.598,9.258c-0.334,4.921,1.317,9.529,4.263,13.03c-1.599,3.751-3.291,7.45-5.057,11.107
	c-7.095-5.904-11.358-15.026-10.679-24.921c0.46-6.656,3.479-12.748,8.516-17.136c5.036-4.389,11.473-6.552,18.129-6.092
	C503.014,319.384,503.536,319.436,504.059,319.519z"/>
<g>
	<path style="fill:#DDDAE0;" d="M449.714,18.873c-3.977,3.977-12.867,1.536-16.844-2.441c-3.977-3.977-1.536-7.984,2.441-11.961
		s7.984-6.419,11.961-2.441C451.249,6.008,453.692,14.895,449.714,18.873z"/>
	<path style="fill:#DDDAE0;" d="M408.704,59.882c-3.977,3.977-12.867,1.536-16.844-2.441c-3.977-3.977-1.536-7.984,2.441-11.961
		c3.977-3.977,7.984-6.419,11.961-2.441C410.239,47.017,412.681,55.904,408.704,59.882z"/>
	<path style="fill:#DDDAE0;" d="M327.116,146.978c-3.977,3.977-12.867,1.536-16.844-2.441c-3.977-3.977-1.536-7.984,2.441-11.961
		c3.977-3.977,7.984-6.419,11.961-2.441C328.651,134.114,331.093,143.002,327.116,146.978z"/>
	<path style="fill:#DDDAE0;" d="M493.125,62.284c-3.977,3.977-1.536,12.867,2.441,16.844c3.977,3.977,7.984,1.536,11.961-2.441
		c3.977-3.977,6.419-7.984,2.441-11.961C505.992,60.748,497.103,58.306,493.125,62.284z"/>
	<path style="fill:#DDDAE0;" d="M452.116,103.293c-3.977,3.977-1.536,12.867,2.441,16.844c3.977,3.977,7.984,1.536,11.961-2.441
		c3.977-3.977,6.419-7.984,2.441-11.961S456.093,99.315,452.116,103.293z"/>
</g>
<path style="fill:#5B5560;" d="M266.219,380.061c0,54.314-31.901,101.177-77.991,122.87c-5.235-1.442-10.397-3.03-15.485-4.786
	c-13.082-4.493-25.694-10.021-37.721-16.478c-45.234-24.304-82.317-61.806-106.099-107.353c-6.322-12.1-11.692-24.775-16.039-37.909
	c-1.693-5.11-3.229-10.303-4.598-15.548c21.995-45.307,68.43-76.528,122.18-76.528C205.437,244.328,266.219,305.089,266.219,380.061
	z"/>
<path style="fill:#E6E6E6;" d="M255.885,380.061c0,54.418-34.68,100.749-83.143,118.084c-13.082-4.493-25.694-10.021-37.721-16.478
	c-45.234-24.304-82.317-61.806-106.099-107.353c-6.322-12.1-11.692-24.775-16.039-37.909
	c17.721-47.731,63.676-81.742,117.582-81.742C199.722,254.663,255.885,310.805,255.885,380.061z"/>
<g>
	<path style="fill:#77717C;" d="M453.8,93.117L199.938,346.968l-13.851,13.851l-37.694-37.706l13.851-13.851L325.48,146.037
		c2.677-2.689,6.206-4.345,9.975-4.681c1.884-0.168,3.708-0.672,5.401-1.464c1.693-0.792,3.229-1.872,4.574-3.217l75.947-75.947
		L453.8,93.117z"/>
	<path style="fill:#77717C;" d="M198.856,476.671c-1.59,0-3.162-0.724-4.189-2.096c-1.727-2.31-1.255-5.585,1.056-7.312
		c6.567-4.91,12.582-10.562,17.875-16.799c1.866-2.201,5.163-2.469,7.363-0.602c2.2,1.867,2.469,5.164,0.602,7.364
		c-5.8,6.834-12.388,13.027-19.583,18.406C201.041,476.332,199.943,476.671,198.856,476.671z M235.404,430.264
		c-0.685,0-1.381-0.136-2.052-0.422c-2.653-1.134-3.884-4.205-2.75-6.858c3.181-7.44,5.539-15.285,7.009-23.321l0.032-0.186
		c0.522-2.839,3.251-4.716,6.083-4.193c2.809,0.516,4.677,3.189,4.209,5.996l-0.025,0.144c-1.608,8.841-4.201,17.477-7.701,25.668
		C239.362,429.076,237.432,430.264,235.404,430.264z M243.062,400.475l0.008,0.001l-0.287-0.053L243.062,400.475z M243.836,371.79
		c-2.611,0-4.867-1.953-5.182-4.61c-0.962-8.112-2.856-16.136-5.628-23.85c-0.977-2.716,0.434-5.707,3.149-6.683
		c2.715-0.975,5.709,0.434,6.683,3.149c3.04,8.457,5.116,17.255,6.17,26.153c0.34,2.865-1.707,5.464-4.572,5.803
		C244.249,371.779,244.042,371.79,243.836,371.79z M221.903,316.962c-1.591,0-3.163-0.724-4.189-2.097
		c-4.91-6.571-10.561-12.588-16.794-17.882c-2.198-1.868-2.467-5.165-0.599-7.364c1.868-2.199,5.165-2.467,7.364-0.599
		c6.829,5.801,13.019,12.392,18.398,19.591c1.727,2.311,1.254,5.585-1.057,7.312C224.088,316.624,222.991,316.962,221.903,316.962z
		 M43.309,311.568c-1.193,0-2.393-0.406-3.374-1.238c-2.201-1.865-2.473-5.162-0.608-7.363c5.794-6.838,12.378-13.036,19.569-18.422
		c2.307-1.73,5.584-1.26,7.313,1.049c1.729,2.309,1.26,5.584-1.05,7.314c-6.562,4.916-12.571,10.573-17.86,16.813
		C46.265,310.94,44.792,311.568,43.309,311.568z M175.504,280.39c-0.686,0-1.383-0.136-2.055-0.423
		c-7.491-3.208-15.393-5.581-23.488-7.054l-0.199-0.036c-2.84-0.512-4.726-3.228-4.215-6.068c0.511-2.839,3.227-4.727,6.069-4.215
		l0.22,0.04c8.86,1.612,17.519,4.212,25.729,7.728c2.652,1.136,3.882,4.207,2.746,6.859
		C179.46,279.202,177.53,280.39,175.504,280.39z M91.836,277.872c-2.14,0-4.147-1.325-4.914-3.453
		c-0.98-2.715,0.427-5.708,3.142-6.687c8.449-3.048,17.246-5.135,26.144-6.203c2.876-0.343,5.465,1.701,5.811,4.565
		c0.343,2.865-1.7,5.466-4.565,5.81c-8.116,0.974-16.137,2.877-23.845,5.657C93.023,277.771,92.424,277.872,91.836,277.872z
		 M173.944,485.731c-0.972-2.717-3.971-4.117-6.677-3.145c-6.552,2.351-13.333,4.075-20.198,5.141
		c5.381,2.539,10.877,4.89,16.457,7.043c2.445-0.7,4.88-1.494,7.273-2.351C173.516,491.436,174.926,488.448,173.944,485.731z
		 M27.564,330.355c-2.654-1.128-5.726,0.104-6.855,2.759c-1.745,4.086-3.271,8.297-4.545,12.581
		c2.058,5.517,4.305,10.94,6.74,16.269c0.178-0.387,0.313-0.805,0.387-1.243l0.031-0.157c1.463-8.046,3.814-15.903,7.001-23.353
		C31.451,334.555,30.218,331.494,27.564,330.355z"/>
</g>
<path style="fill:#FFFFFF;" d="M232.197,380.061c0,54.648-43.102,99.224-97.176,101.606c-16.384-8.808-31.702-19.341-45.704-31.378
	c-1.327-1.128-2.644-2.278-3.939-3.459c-2.748-2.445-5.444-4.953-8.077-7.523c-1.243-1.212-2.476-2.445-3.699-3.689
	c-2.581-2.623-5.11-5.298-7.565-8.025c-1.181-1.296-2.341-2.602-3.48-3.918c-13.04-15.026-24.346-31.577-33.635-49.361
	c2.968-53.499,47.303-95.963,101.543-95.963c21.88,0,42.151,6.907,58.744,18.672c1.442,1.014,2.853,2.069,4.232,3.166
	c2.894,2.278,5.663,4.713,8.286,7.304c1.254,1.212,2.466,2.466,3.636,3.751c2.508,2.717,4.869,5.58,7.043,8.558
	c1.066,1.421,2.079,2.873,3.051,4.347C226.043,340.187,232.197,359.403,232.197,380.061z"/>
<path style="fill:#666666;" d="M98.07,375.069c-3.935-3.933-10.311-3.934-14.246,0c-3.933,3.934-3.933,10.311,0,14.245
	l38.587,38.587c1.968,1.966,4.546,2.95,7.123,2.95s5.156-0.983,7.123-2.951c3.933-3.934,3.933-10.311,0-14.245L98.07,375.069z"/>
<g>
	<path style="fill:#E6E6E6;" d="M448.857,67.751L205.364,311.244L77.302,439.306c-1.243-1.212-2.476-2.445-3.699-3.689
		L445.158,64.063L448.857,67.751z"/>
	<path style="fill:#E6E6E6;" d="M437.363,56.257L193.442,300.189L66.038,427.593c-1.181-1.296-2.341-2.602-3.48-3.918
		L433.664,52.569L437.363,56.257z"/>
	<path style="fill:#E6E6E6;" d="M460.351,79.245L215.458,324.148l-126.14,126.14c-1.327-1.128-2.644-2.278-3.939-3.459
		L456.652,75.557L460.351,79.245z"/>
</g>
<path style="fill:#5B5560;" d="M444.178,17.019c-4.327,4.327-6.639,10.041-7.042,16.247c-0.442,6.824-5.845,12.227-12.668,12.668
	c-6.207,0.402-11.92,2.714-16.247,7.042c-11.29,11.29-8.864,32.02,5.418,46.302c14.282,14.282,35.011,16.708,46.302,5.418
	c4.327-4.327,6.639-10.041,7.042-16.247c0.442-6.824,5.845-12.227,12.668-12.668c6.207-0.402,11.92-2.714,16.247-7.042
	c11.29-11.29,8.864-32.02-5.418-46.302S455.468,5.729,444.178,17.019z"/>
<g>
	<circle style="fill:#DDDAE0;" cx="458.23" cy="29.24" r="7.053"/>
	<circle style="fill:#DDDAE0;" cx="483.673" cy="54.68" r="7.053"/>
	<circle style="fill:#DDDAE0;" cx="420.551" cy="66.926" r="7.053"/>
	<circle style="fill:#DDDAE0;" cx="445.994" cy="92.369" r="7.053"/>
	
		<rect x="393.699" y="93.839" transform="matrix(-0.7071 -0.7071 0.7071 -0.7071 641.9852 461.6985)" style="fill:#DDDAE0;" width="45.829" height="8.101"/>
	
		<rect x="367.651" y="119.885" transform="matrix(-0.7071 -0.7071 0.7071 -0.7071 579.1006 487.7433)" style="fill:#DDDAE0;" width="45.829" height="8.101"/>
	
		<rect x="342.905" y="144.639" transform="matrix(-0.7071 -0.7071 0.7071 -0.7071 519.3536 512.5026)" style="fill:#DDDAE0;" width="45.829" height="8.101"/>
	
		<rect x="307.696" y="170.809" transform="matrix(-0.7071 -0.7071 0.7071 -0.7071 447.1285 534.9249)" style="fill:#DDDAE0;" width="53.31" height="8.101"/>
	
		<rect x="276.293" y="202.2" transform="matrix(-0.7071 -0.7071 0.7071 -0.7071 371.3227 566.3087)" style="fill:#DDDAE0;" width="53.31" height="8.101"/>
	
		<rect x="246.742" y="231.757" transform="matrix(-0.7071 -0.7071 0.7071 -0.7071 299.977 595.8705)" style="fill:#DDDAE0;" width="53.31" height="8.101"/>
	
		<rect x="212.387" y="266.124" transform="matrix(-0.7071 -0.7071 0.7071 -0.7071 217.0283 630.2454)" style="fill:#DDDAE0;" width="53.31" height="8.101"/>
</g>
<g>
</g>
<g>
</g>
<g>
</g>
<g>
</g>
<g>
</g>
<g>
</g>
<g>
</g>
<g>
</g>
<g>
</g>
<g>
</g>
<g>
</g>
<g>
</g>
<g>
</g>
<g>
</g>
<g>
</g>
</svg>
