<?xml version="1.0" encoding="iso-8859-1"?>
<!-- Generator: Adobe Illustrator 19.0.0, SVG Export Plug-In . SVG Version: 6.00 Build 0)  -->
<svg version="1.1" id="Capa_1" xmlns="http://www.w3.org/2000/svg" xmlns:xlink="http://www.w3.org/1999/xlink" x="0px" y="0px"
	 viewBox="0 0 512 512" style="enable-background:new 0 0 512 512;" xml:space="preserve">
<path style="fill:#EDBB57;" d="M512,256c0,141.384-114.614,255.998-255.998,255.998c-46.728,0-90.54-12.518-128.25-34.398
	c-8.077-4.692-15.882-9.801-23.374-15.318c-1.243-0.909-2.487-1.839-3.709-2.779c-5.245-4.012-10.324-8.213-15.235-12.612
	c-6.092-5.433-11.912-11.159-17.45-17.157c-9.989-10.804-19.059-22.465-27.073-34.868c-5.601-8.652-10.7-17.669-15.235-27
	C9.23,334.064,0.003,296.113,0.003,256s9.226-78.064,25.673-111.866c4.2-8.652,8.882-17.021,14.012-25.088
	C85.078,47.492,164.992,0.002,256.002,0.002C397.386,0.002,512,114.615,512,256z"/>
<circle style="fill:#F4D984;" cx="255.998" cy="192.782" r="184.946"/>
<rect x="41.607" y="114.175" style="fill:#5B5560;" width="10.449" height="65.483"/>
<path style="fill:#E6E6E6;" d="M67.984,160.841v268.892c-9.989-10.804-19.059-22.465-27.073-34.868
	c-5.601-8.652-10.7-17.669-15.235-27V160.841H67.984z"/>
<path style="fill:#C4C2C6;" d="M40.911,160.841v234.024c-5.601-8.652-10.7-17.669-15.235-27V160.841H40.911z"/>
<rect x="101.365" y="114.175" style="fill:#5B5560;" width="10.449" height="65.483"/>
<path style="fill:#E6E6E6;" d="M127.752,160.841V477.6c-8.077-4.692-15.882-9.801-23.374-15.318
	c-1.243-0.909-2.487-1.839-3.709-2.779c-5.245-4.012-10.324-8.213-15.235-12.612v-286.05L127.752,160.841L127.752,160.841z"/>
<path style="fill:#C4C2C6;" d="M100.668,160.841v298.661c-5.245-4.012-10.324-8.213-15.235-12.612v-286.05L100.668,160.841
	L100.668,160.841z"/>
<rect x="161.133" y="114.175" style="fill:#5B5560;" width="10.449" height="65.483"/>
<rect x="145.198" y="160.85" style="fill:#E6E6E6;" width="42.316" height="313.457"/>
<rect x="145.198" y="160.85" style="fill:#C4C2C6;" width="15.235" height="313.457"/>
<rect x="220.89" y="114.175" style="fill:#5B5560;" width="10.449" height="65.483"/>
<rect x="204.955" y="160.85" style="fill:#E6E6E6;" width="42.316" height="283.678"/>
<rect x="204.955" y="160.85" style="fill:#C4C2C6;" width="15.235" height="283.678"/>
<rect x="280.658" y="114.175" style="fill:#5B5560;" width="10.449" height="65.483"/>
<rect x="264.723" y="160.85" style="fill:#E6E6E6;" width="42.316" height="249.196"/>
<rect x="264.723" y="160.85" style="fill:#C4C2C6;" width="15.235" height="249.196"/>
<rect x="340.415" y="114.175" style="fill:#5B5560;" width="10.449" height="65.483"/>
<rect x="324.481" y="160.85" style="fill:#E6E6E6;" width="42.316" height="220.984"/>
<rect x="324.481" y="160.85" style="fill:#C4C2C6;" width="15.235" height="220.984"/>
<rect x="400.183" y="114.175" style="fill:#5B5560;" width="10.449" height="65.483"/>
<rect x="384.248" y="160.85" style="fill:#E6E6E6;" width="42.316" height="190.724"/>
<rect x="384.248" y="160.85" style="fill:#C4C2C6;" width="15.235" height="190.724"/>
<rect x="459.94" y="114.175" style="fill:#5B5560;" width="10.449" height="65.483"/>
<rect x="444.006" y="160.85" style="fill:#E6E6E6;" width="42.316" height="164.602"/>
<rect x="444.006" y="160.85" style="fill:#C4C2C6;" width="15.235" height="164.602"/>
<path style="fill:#AF653D;" d="M493.137,140.474H18.86C8.444,140.474,0,132.03,0,121.613v-11.984
	c0-9.969,7.758-18.217,17.708-18.826l474.275-29.036c10.85-0.665,20.014,7.956,20.014,18.825v41.02
	C511.997,132.029,503.553,140.474,493.137,140.474z"/>
<rect x="354.281" y="49.569" style="fill:#E6E6E6;" width="114.416" height="36.047"/>
<rect x="354.281" y="67.593" style="fill:#C4C2C6;" width="114.416" height="18.023"/>
<g>
</g>
<g>
</g>
<g>
</g>
<g>
</g>
<g>
</g>
<g>
</g>
<g>
</g>
<g>
</g>
<g>
</g>
<g>
</g>
<g>
</g>
<g>
</g>
<g>
</g>
<g>
</g>
<g>
</g>
</svg>
