<?xml version="1.0" encoding="iso-8859-1"?>
<!-- Generator: Adobe Illustrator 19.0.0, SVG Export Plug-In . SVG Version: 6.00 Build 0)  -->
<svg version="1.1" id="Capa_1" xmlns="http://www.w3.org/2000/svg" xmlns:xlink="http://www.w3.org/1999/xlink" x="0px" y="0px"
	 viewBox="0 0 512 512" style="enable-background:new 0 0 512 512;" xml:space="preserve">
<path style="fill:#AF653D;" d="M512,256c0,17.324-1.724,34.252-5.005,50.604c-4.43,22.099-11.703,43.175-21.431,62.819
	c-31.796,64.25-89.788,113.235-160.015,133.015c-5.862,1.651-11.818,3.103-17.847,4.336c-16.697,3.427-33.99,5.224-51.701,5.224
	c-29.32,0-57.49-4.932-83.717-14.002c-4.253-1.473-8.453-3.051-12.601-4.744C66.03,455.209,0.003,363.31,0.003,256
	c0-141.384,114.614-255.998,255.998-255.998S512,114.616,512,256z"/>
<circle style="fill:#BC7A58;" cx="255.998" cy="192.782" r="184.946"/>
<path style="fill:#DCDBDD;" d="M325.55,346.707v155.731c-5.862,1.651-11.818,3.103-17.847,4.336V346.707L325.55,346.707
	L325.55,346.707z"/>
<path style="fill:#C4C2C6;" d="M325.55,346.707v63.728c-2.957,0.021-5.935,0.031-8.923,0.031c-2.988,0-5.966-0.01-8.923-0.031
	v-63.728H325.55z"/>
<path style="fill:#E6993A;" d="M319.996,145.568c7.715,3.981,11.973,8.346,11.973,12.911c0,19.105-74.312,34.582-165.977,34.582
	C74.312,193.06,0,177.583,0,158.478c0-4.565,4.257-8.93,11.973-12.911"/>
<ellipse style="fill:#EDBB57;" cx="165.981" cy="132.648" rx="165.981" ry="34.575"/>
<path style="fill:#DCDBDD;" d="M172.285,193.056v304.941c-4.253-1.473-8.453-3.051-12.601-4.744V193.056H172.285z"/>
<path style="fill:#E6993A;" d="M107.875,132.016c17.324-9.341,37.104-14.604,58.112-14.604s40.787,5.263,58.112,14.604
	l-28.891,5.184c-19.326,3.467-39.114,3.467-58.441,0L107.875,132.016z"/>
<path style="fill:#C4C2C6;" d="M172.285,193.056v19.832c-2.079,0.01-4.18,0.021-6.29,0.021c-2.111,0-4.221-0.01-6.311-0.021v-19.832
	H172.285z"/>
<path style="fill:#DCDBDD;" d="M165.986,127.035c-3.479,0-6.302-2.821-6.302-6.302V37.799c0-3.479,2.821-6.302,6.302-6.302
	s6.302,2.821,6.302,6.302v82.935C172.287,124.214,169.466,127.035,165.986,127.035z"/>
<path style="fill:#EDBB57;" d="M506.995,306.604c-4.43,22.099-11.703,43.175-21.431,62.819
	c-42.747,9.206-102.64,14.921-168.938,14.921c-129.849,0-235.122-21.932-235.122-48.985c0-27.063,105.273-48.985,235.122-48.985
	C394.909,286.375,464.259,294.337,506.995,306.604z"/>
<path style="fill:#E6993A;" d="M234.312,334.454c24.54-13.233,52.559-20.688,82.318-20.688c29.759,0,57.778,7.455,82.318,20.688
	l-40.926,7.342c-27.376,4.911-55.407,4.911-82.784,0L234.312,334.454z"/>
<path style="fill:#DCDBDD;" d="M316.629,327.399c-4.93,0-8.927-3.997-8.927-8.927V200.991c0-4.93,3.997-8.927,8.927-8.927
	c4.93,0,8.926,3.997,8.926,8.927v117.481C325.556,323.402,321.559,327.399,316.629,327.399z"/>
<g>
</g>
<g>
</g>
<g>
</g>
<g>
</g>
<g>
</g>
<g>
</g>
<g>
</g>
<g>
</g>
<g>
</g>
<g>
</g>
<g>
</g>
<g>
</g>
<g>
</g>
<g>
</g>
<g>
</g>
</svg>
