<?xml version="1.0" encoding="iso-8859-1"?>
<!-- Generator: Adobe Illustrator 19.0.0, SVG Export Plug-In . SVG Version: 6.00 Build 0)  -->
<svg version="1.1" id="Capa_1" xmlns="http://www.w3.org/2000/svg" xmlns:xlink="http://www.w3.org/1999/xlink" x="0px" y="0px"
	 viewBox="0 0 512 512" style="enable-background:new 0 0 512 512;" xml:space="preserve">
<path style="fill:#62D6EA;" d="M512,256c0,23.667-3.208,46.582-9.226,68.336c-5.454,19.759-13.228,38.557-22.998,56.08
	c-1.181,2.142-2.403,4.263-3.657,6.363c-1.327,2.226-2.685,4.43-4.075,6.614c-6.228,9.77-13.103,19.091-20.553,27.899
	c-1.693,2.006-3.417,3.981-5.172,5.925c-1.766,1.964-3.563,3.897-5.392,5.799c-0.909,0.951-1.829,1.902-2.748,2.832
	c-8.046,8.161-16.645,15.778-25.725,22.789c-2.664,2.069-5.381,4.086-8.14,6.04c-3.741,2.664-7.565,5.235-11.452,7.701
	C353.28,497.476,306.333,512,256,512s-97.28-14.524-136.861-39.622c-3.897-2.466-7.722-5.036-11.463-7.711
	c-2.759-1.954-5.475-3.971-8.14-6.029c-9.08-7.022-17.68-14.649-25.725-22.81c-0.92-0.93-1.839-1.86-2.738-2.811
	c-1.839-1.902-3.636-3.845-5.402-5.81c-1.755-1.943-3.469-3.918-5.162-5.925c-7.461-8.808-14.336-18.129-20.564-27.909
	c-1.39-2.173-2.738-4.378-4.065-6.593c-1.254-2.1-2.476-4.232-3.657-6.374c-9.77-17.523-17.544-36.31-22.998-56.069
	C3.208,302.582,0,279.667,0,256C0,114.615,114.615,0,256,0S512,114.615,512,256z"/>
<rect id="SVGCleanerId_0" x="35.882" y="68.002" style="fill:#DCDBDD;" width="440.236" height="56.201"/>
<g>
	<path style="fill:#5B5560;" d="M9.223,236.624V48.347c0-8.94,7.247-16.188,16.188-16.188h461.171
		c8.94,0,16.188,7.247,16.188,16.188v188.277"/>
	<path style="fill:#5B5560;" d="M502.774,236.628v87.709C472.879,432.546,373.718,512,256,512S39.121,432.546,9.226,324.336v-87.709
		L502.774,236.628L502.774,236.628z"/>
</g>
<g>
	<rect id="SVGCleanerId_0_1_" x="35.882" y="68.002" style="fill:#DCDBDD;" width="440.236" height="56.201"/>
</g>
<path style="fill:#C4C2C6;" d="M476.115,128.266H35.879c-2.248,0-4.069-1.822-4.069-4.069V67.997c0-2.248,1.822-4.069,4.069-4.069
	h440.236c2.248,0,4.069,1.822,4.069,4.069v56.201C480.184,126.444,478.363,128.266,476.115,128.266z M39.947,120.128h432.099V72.066
	H39.947V120.128z"/>
<path style="fill:#56B774;" d="M70.332,90.105H55.958c-2.248,0-4.069-1.822-4.069-4.069c0-2.248,1.822-4.069,4.069-4.069h14.374
	c2.248,0,4.069,1.822,4.069,4.069C74.402,88.282,72.58,90.105,70.332,90.105z"/>
<g>
	<path style="fill:#5B5560;" d="M70.332,110.228H55.958c-2.248,0-4.069-1.822-4.069-4.069c0-2.248,1.822-4.069,4.069-4.069h14.374
		c2.248,0,4.069,1.822,4.069,4.069C74.402,108.406,72.58,110.228,70.332,110.228z"/>
	<path style="fill:#5B5560;" d="M101.189,90.105H86.814c-2.248,0-4.069-1.822-4.069-4.069c0-2.248,1.822-4.069,4.069-4.069h14.374
		c2.248,0,4.069,1.822,4.069,4.069C105.258,88.282,103.435,90.105,101.189,90.105z"/>
</g>
<path style="fill:#56B774;" d="M101.189,110.228H86.814c-2.248,0-4.069-1.822-4.069-4.069c0-2.248,1.822-4.069,4.069-4.069h14.374
	c2.248,0,4.069,1.822,4.069,4.069C105.258,108.406,103.435,110.228,101.189,110.228z"/>
<path style="fill:#5B5560;" d="M132.045,90.105h-14.374c-2.248,0-4.069-1.822-4.069-4.069c0-2.248,1.822-4.069,4.069-4.069h14.374
	c2.248,0,4.069,1.822,4.069,4.069C136.114,88.282,134.291,90.105,132.045,90.105z"/>
<path style="fill:#F45367;" d="M132.045,110.228h-14.374c-2.248,0-4.069-1.822-4.069-4.069c0-2.248,1.822-4.069,4.069-4.069h14.374
	c2.248,0,4.069,1.822,4.069,4.069C136.114,108.406,134.291,110.228,132.045,110.228z"/>
<path style="fill:#56B774;" d="M162.901,90.105h-14.374c-2.248,0-4.069-1.822-4.069-4.069c0-2.248,1.822-4.069,4.069-4.069h14.374
	c2.248,0,4.069,1.822,4.069,4.069C166.969,88.282,165.147,90.105,162.901,90.105z"/>
<g>
	<path style="fill:#5B5560;" d="M162.901,110.228h-14.374c-2.248,0-4.069-1.822-4.069-4.069c0-2.248,1.822-4.069,4.069-4.069h14.374
		c2.248,0,4.069,1.822,4.069,4.069C166.969,108.406,165.147,110.228,162.901,110.228z"/>
	<path style="fill:#5B5560;" d="M193.756,90.105h-14.374c-2.248,0-4.069-1.822-4.069-4.069c0-2.248,1.822-4.069,4.069-4.069h14.374
		c2.248,0,4.069,1.822,4.069,4.069C197.825,88.282,196.004,90.105,193.756,90.105z"/>
</g>
<path style="fill:#56B774;" d="M193.756,110.228h-14.374c-2.248,0-4.069-1.822-4.069-4.069c0-2.248,1.822-4.069,4.069-4.069h14.374
	c2.248,0,4.069,1.822,4.069,4.069C197.825,108.406,196.004,110.228,193.756,110.228z"/>
<g>
	<circle style="fill:#F45367;" cx="332.215" cy="96.099" r="11.504"/>
	<circle style="fill:#F45367;" cx="386.361" cy="96.099" r="11.504"/>
	<circle style="fill:#F45367;" cx="440.508" cy="96.099" r="11.504"/>
</g>
<rect x="217.057" y="86.037" style="fill:#5B5560;" width="77.887" height="20.124"/>
<rect x="35.882" y="151.531" style="fill:#DCDBDD;" width="440.236" height="90.185"/>
<g>
	<rect x="65.673" y="151.531" style="fill:#C4C2C6;" width="8.139" height="90.185"/>
	<rect x="99.537" y="151.531" style="fill:#C4C2C6;" width="8.139" height="90.185"/>
	<rect x="133.402" y="151.531" style="fill:#C4C2C6;" width="8.139" height="90.185"/>
	<rect x="167.267" y="151.531" style="fill:#C4C2C6;" width="8.139" height="90.185"/>
	<rect x="201.132" y="151.531" style="fill:#C4C2C6;" width="8.139" height="90.185"/>
	<rect x="234.998" y="151.531" style="fill:#C4C2C6;" width="8.139" height="90.185"/>
	<rect x="268.863" y="151.531" style="fill:#C4C2C6;" width="8.139" height="90.185"/>
	<rect x="302.728" y="151.531" style="fill:#C4C2C6;" width="8.139" height="90.185"/>
	<rect x="336.593" y="151.531" style="fill:#C4C2C6;" width="8.139" height="90.185"/>
	<rect x="370.458" y="151.531" style="fill:#C4C2C6;" width="8.139" height="90.185"/>
	<rect x="404.313" y="151.531" style="fill:#C4C2C6;" width="8.139" height="90.185"/>
	<rect x="438.178" y="151.531" style="fill:#C4C2C6;" width="8.139" height="90.185"/>
</g>
<g>
	<path style="fill:#353434;" d="M64.658,202.352h10.167c2.293,0,4.15-1.858,4.15-4.15v-45.067c0-2.293-1.858-4.15-4.15-4.15H64.658
		c-2.293,0-4.15,1.858-4.15,4.15v45.067C60.509,200.494,62.367,202.352,64.658,202.352z"/>
	<path style="fill:#353434;" d="M98.522,202.352h10.168c2.293,0,4.15-1.858,4.15-4.15v-45.067c0-2.293-1.858-4.15-4.15-4.15H98.522
		c-2.293,0-4.15,1.858-4.15,4.15v45.067C94.373,200.494,96.231,202.352,98.522,202.352z"/>
	<path style="fill:#353434;" d="M166.252,202.352h10.167c2.293,0,4.15-1.858,4.15-4.15v-45.067c0-2.293-1.858-4.15-4.15-4.15
		h-10.167c-2.293,0-4.15,1.858-4.15,4.15v45.067C162.101,200.494,163.96,202.352,166.252,202.352z"/>
	<path style="fill:#353434;" d="M200.116,202.352h10.168c2.293,0,4.15-1.858,4.15-4.15v-45.067c0-2.293-1.858-4.15-4.15-4.15
		h-10.168c-2.292,0-4.15,1.858-4.15,4.15v45.067C195.965,200.494,197.824,202.352,200.116,202.352z"/>
	<path style="fill:#353434;" d="M233.981,202.352h10.168c2.293,0,4.15-1.858,4.15-4.15v-45.067c0-2.293-1.858-4.15-4.15-4.15
		h-10.168c-2.292,0-4.15,1.858-4.15,4.15v45.067C229.831,200.494,231.688,202.352,233.981,202.352z"/>
	<path style="fill:#353434;" d="M301.709,202.352h10.168c2.293,0,4.15-1.858,4.15-4.15v-45.067c0-2.293-1.858-4.15-4.15-4.15
		h-10.168c-2.293,0-4.15,1.858-4.15,4.15v45.067C297.559,200.494,299.418,202.352,301.709,202.352z"/>
	<path style="fill:#353434;" d="M335.574,202.352h10.167c2.293,0,4.15-1.858,4.15-4.15v-45.067c0-2.293-1.858-4.15-4.15-4.15
		h-10.167c-2.293,0-4.15,1.858-4.15,4.15v45.067C331.424,200.494,333.282,202.352,335.574,202.352z"/>
	<path style="fill:#353434;" d="M433.017,153.134v45.067c0,2.292,1.858,4.15,4.15,4.15h10.167c2.293,0,4.15-1.858,4.15-4.15v-45.067
		c0-2.293-1.858-4.15-4.15-4.15h-10.167C434.875,148.984,433.017,150.842,433.017,153.134z"/>
	<path style="fill:#353434;" d="M403.302,202.352h10.168c2.292,0,4.15-1.858,4.15-4.15v-45.067c0-2.293-1.858-4.15-4.15-4.15
		h-10.168c-2.293,0-4.15,1.858-4.15,4.15v45.067C399.152,200.494,401.011,202.352,403.302,202.352z"/>
</g>
<path style="fill:#C4C2C6;" d="M480.184,241.711h-8.138v-86.115H39.947v86.115h-8.139v-90.185c0-2.248,1.822-4.069,4.069-4.069
	h440.236c2.248,0,4.069,1.822,4.069,4.069v90.185H480.184z"/>
<rect x="35.882" y="266.856" style="fill:#DCDBDD;" width="440.236" height="90.185"/>
<g>
	<rect x="65.673" y="266.856" style="fill:#C4C2C6;" width="8.139" height="90.185"/>
	<rect x="99.537" y="266.856" style="fill:#C4C2C6;" width="8.139" height="90.185"/>
	<rect x="133.402" y="266.856" style="fill:#C4C2C6;" width="8.139" height="90.185"/>
	<rect x="167.267" y="266.856" style="fill:#C4C2C6;" width="8.139" height="90.185"/>
	<rect x="201.132" y="266.856" style="fill:#C4C2C6;" width="8.139" height="90.185"/>
	<rect x="234.998" y="266.856" style="fill:#C4C2C6;" width="8.139" height="90.185"/>
	<rect x="268.863" y="266.856" style="fill:#C4C2C6;" width="8.139" height="90.185"/>
	<rect x="302.728" y="266.856" style="fill:#C4C2C6;" width="8.139" height="90.185"/>
	<rect x="336.593" y="266.856" style="fill:#C4C2C6;" width="8.139" height="90.185"/>
	<rect x="370.458" y="266.856" style="fill:#C4C2C6;" width="8.139" height="90.185"/>
	<rect x="404.313" y="266.856" style="fill:#C4C2C6;" width="8.139" height="90.185"/>
	<rect x="438.178" y="266.856" style="fill:#C4C2C6;" width="8.139" height="90.185"/>
</g>
<g>
	<path style="fill:#353434;" d="M64.658,317.683h10.167c2.293,0,4.15-1.858,4.15-4.15v-45.068c0-2.293-1.858-4.15-4.15-4.15H64.658
		c-2.293,0-4.15,1.858-4.15,4.15v45.068C60.509,315.826,62.367,317.683,64.658,317.683z"/>
	<path style="fill:#353434;" d="M98.522,317.683h10.168c2.293,0,4.15-1.858,4.15-4.15v-45.068c0-2.293-1.858-4.15-4.15-4.15H98.522
		c-2.293,0-4.15,1.858-4.15,4.15v45.068C94.373,315.826,96.231,317.683,98.522,317.683z"/>
	<path style="fill:#353434;" d="M166.252,317.683h10.167c2.293,0,4.15-1.858,4.15-4.15v-45.068c0-2.293-1.858-4.15-4.15-4.15
		h-10.167c-2.293,0-4.15,1.858-4.15,4.15v45.068C162.101,315.826,163.96,317.683,166.252,317.683z"/>
	<path style="fill:#353434;" d="M200.116,317.683h10.168c2.293,0,4.15-1.858,4.15-4.15v-45.068c0-2.293-1.858-4.15-4.15-4.15
		h-10.168c-2.292,0-4.15,1.858-4.15,4.15v45.068C195.965,315.826,197.824,317.683,200.116,317.683z"/>
	<path style="fill:#353434;" d="M233.981,317.683h10.168c2.293,0,4.15-1.858,4.15-4.15v-45.068c0-2.293-1.858-4.15-4.15-4.15
		h-10.168c-2.292,0-4.15,1.858-4.15,4.15v45.068C229.831,315.826,231.688,317.683,233.981,317.683z"/>
	<path style="fill:#353434;" d="M301.709,317.683h10.168c2.293,0,4.15-1.858,4.15-4.15v-45.068c0-2.293-1.858-4.15-4.15-4.15
		h-10.168c-2.293,0-4.15,1.858-4.15,4.15v45.068C297.559,315.826,299.418,317.683,301.709,317.683z"/>
	<path style="fill:#353434;" d="M335.574,317.683h10.167c2.293,0,4.15-1.858,4.15-4.15v-45.068c0-2.293-1.858-4.15-4.15-4.15
		h-10.167c-2.293,0-4.15,1.858-4.15,4.15v45.068C331.424,315.826,333.282,317.683,335.574,317.683z"/>
	<path style="fill:#353434;" d="M433.017,268.467v45.068c0,2.293,1.858,4.15,4.15,4.15h10.167c2.293,0,4.15-1.858,4.15-4.15v-45.068
		c0-2.293-1.858-4.15-4.15-4.15h-10.167C434.875,264.316,433.017,266.174,433.017,268.467z"/>
	<path style="fill:#353434;" d="M403.302,317.683h10.168c2.292,0,4.15-1.858,4.15-4.15v-45.068c0-2.293-1.858-4.15-4.15-4.15
		h-10.168c-2.293,0-4.15,1.858-4.15,4.15v45.068C399.152,315.826,401.011,317.683,403.302,317.683z"/>
</g>
<path style="fill:#C4C2C6;" d="M480.184,357.044h-8.138v-86.115H39.947v86.115h-8.139v-90.185c0-2.248,1.822-4.069,4.069-4.069
	h440.236c2.248,0,4.069,1.822,4.069,4.069v90.185H480.184z"/>
<path style="fill:#DCDBDD;" d="M476.118,382.192v4.587c-20.637,34.67-49.236,64.042-83.257,85.598H119.139
	c-34.022-21.556-62.621-50.928-83.257-85.598v-4.587L476.118,382.192L476.118,382.192z"/>
<g>
	<path style="fill:#C4C2C6;" d="M73.812,382.192v53.635c-2.79-2.811-5.496-5.684-8.14-8.62v-45.014L73.812,382.192L73.812,382.192z"
		/>
	<path style="fill:#C4C2C6;" d="M107.677,382.192v82.474c-2.759-1.954-5.475-3.971-8.14-6.029v-76.445H107.677z"/>
	<rect x="133.402" y="382.192" style="fill:#C4C2C6;" width="8.139" height="90.185"/>
	<rect x="167.267" y="382.192" style="fill:#C4C2C6;" width="8.139" height="90.185"/>
	<rect x="201.132" y="382.192" style="fill:#C4C2C6;" width="8.139" height="90.185"/>
	<rect x="234.998" y="382.192" style="fill:#C4C2C6;" width="8.139" height="90.185"/>
	<rect x="268.863" y="382.192" style="fill:#C4C2C6;" width="8.139" height="90.185"/>
	<rect x="302.728" y="382.192" style="fill:#C4C2C6;" width="8.139" height="90.185"/>
	<rect x="336.593" y="382.192" style="fill:#C4C2C6;" width="8.139" height="90.185"/>
	<rect x="370.458" y="382.192" style="fill:#C4C2C6;" width="8.139" height="90.185"/>
	<path style="fill:#C4C2C6;" d="M412.453,382.192v76.445c-2.664,2.069-5.381,4.086-8.14,6.04v-82.484H412.453z"/>
	<path style="fill:#C4C2C6;" d="M446.318,382.192v45.025c-2.644,2.936-5.36,5.82-8.14,8.631v-53.656H446.318z"/>
</g>
<g>
	<path style="fill:#353434;" d="M78.973,383.801v45.066c0,2.288-1.86,4.148-4.148,4.148h-3.751c-1.839-1.902-3.636-3.845-5.402-5.81
		c-1.755-1.943-3.469-3.918-5.162-5.925v-37.48c0-2.299,1.86-4.148,4.148-4.148h10.167
		C77.113,379.653,78.973,381.503,78.973,383.801z"/>
	<path style="fill:#353434;" d="M98.522,433.016h10.168c2.293,0,4.15-1.858,4.15-4.15v-45.068c0-2.293-1.858-4.15-4.15-4.15H98.522
		c-2.293,0-4.15,1.858-4.15,4.15v45.068C94.373,431.158,96.231,433.016,98.522,433.016z"/>
	<path style="fill:#353434;" d="M166.252,433.016h10.167c2.293,0,4.15-1.858,4.15-4.15v-45.068c0-2.293-1.858-4.15-4.15-4.15
		h-10.167c-2.293,0-4.15,1.858-4.15,4.15v45.068C162.101,431.158,163.96,433.016,166.252,433.016z"/>
	<path style="fill:#353434;" d="M200.116,433.016h10.168c2.293,0,4.15-1.858,4.15-4.15v-45.068c0-2.293-1.858-4.15-4.15-4.15
		h-10.168c-2.292,0-4.15,1.858-4.15,4.15v45.068C195.965,431.158,197.824,433.016,200.116,433.016z"/>
	<path style="fill:#353434;" d="M233.981,433.016h10.168c2.293,0,4.15-1.858,4.15-4.15v-45.068c0-2.293-1.858-4.15-4.15-4.15
		h-10.168c-2.292,0-4.15,1.858-4.15,4.15v45.068C229.831,431.158,231.688,433.016,233.981,433.016z"/>
	<path style="fill:#353434;" d="M301.709,433.016h10.168c2.293,0,4.15-1.858,4.15-4.15v-45.068c0-2.293-1.858-4.15-4.15-4.15
		h-10.168c-2.293,0-4.15,1.858-4.15,4.15v45.068C297.559,431.158,299.418,433.016,301.709,433.016z"/>
	<path style="fill:#353434;" d="M335.574,433.016h10.167c2.293,0,4.15-1.858,4.15-4.15v-45.068c0-2.293-1.858-4.15-4.15-4.15
		h-10.167c-2.293,0-4.15,1.858-4.15,4.15v45.068C331.424,431.158,333.282,433.016,335.574,433.016z"/>
	<path style="fill:#353434;" d="M451.49,383.801v37.491c-1.693,2.006-3.417,3.981-5.172,5.925c-1.766,1.964-3.563,3.897-5.392,5.799
		h-3.762c-2.288,0-4.148-1.86-4.148-4.148v-45.066c0-2.299,1.86-4.148,4.148-4.148h10.167
		C449.63,379.653,451.49,381.503,451.49,383.801z"/>
	<path style="fill:#353434;" d="M403.302,433.016h10.168c2.292,0,4.15-1.858,4.15-4.15v-45.068c0-2.293-1.858-4.15-4.15-4.15
		h-10.168c-2.293,0-4.15,1.858-4.15,4.15v45.068C399.152,431.158,401.011,433.016,403.302,433.016z"/>
</g>
<path style="fill:#C4C2C6;" d="M479.775,380.416c-1.181,2.142-2.403,4.263-3.657,6.363c-1.327,2.226-2.685,4.43-4.075,6.614v-7.137
	H39.946v7.116c-1.39-2.173-2.738-4.378-4.065-6.593c-1.254-2.1-2.476-4.232-3.657-6.374c0.658-1.358,2.048-2.288,3.657-2.288
	h440.236C477.727,378.117,479.117,379.058,479.775,380.416z"/>
<g>
</g>
<g>
</g>
<g>
</g>
<g>
</g>
<g>
</g>
<g>
</g>
<g>
</g>
<g>
</g>
<g>
</g>
<g>
</g>
<g>
</g>
<g>
</g>
<g>
</g>
<g>
</g>
<g>
</g>
</svg>
