<?xml version="1.0" encoding="iso-8859-1"?>
<!-- Generator: Adobe Illustrator 19.0.0, SVG Export Plug-In . SVG Version: 6.00 Build 0)  -->
<svg version="1.1" id="Capa_1" xmlns="http://www.w3.org/2000/svg" xmlns:xlink="http://www.w3.org/1999/xlink" x="0px" y="0px"
	 viewBox="0 0 512 512" style="enable-background:new 0 0 512 512;" xml:space="preserve">
<path style="fill:#EDBB57;" d="M512,256c0,141.385-114.615,256-256,256c-26.321,0-51.702-3.971-75.598-11.348
	c-4.096-1.264-8.161-2.633-12.163-4.096c-11.849-4.326-23.291-9.498-34.252-15.464c-5.81-3.145-11.494-6.52-17.021-10.104
	c-0.063-0.042-0.136-0.084-0.199-0.136c-1.024-0.658-2.038-1.327-3.041-2.006C96.256,457.143,80.3,443.34,66.226,427.813
	c-11.995-13.239-22.632-27.753-31.66-43.301c-0.773-1.306-1.515-2.623-2.257-3.95C11.724,343.698,0,301.213,0,256
	C0,114.615,114.615,0,256,0c45.223,0,87.698,11.724,124.562,32.298c19.163,10.689,36.812,23.782,52.537,38.86
	C481.729,117.75,512,183.338,512,256z"/>
<circle style="fill:#F4D984;" cx="256" cy="192.784" r="184.947"/>
<path style="fill:#E6E6E6;" d="M441.751,173.328L133.987,481.092c-5.81-3.145-11.494-6.52-17.021-10.104
	c-35.067-22.737-64.24-53.812-84.658-90.425L340.647,72.223L441.751,173.328z"/>
<path style="fill:#C4C2C6;" d="M466.61,198.186L168.239,496.556c-11.849-4.326-23.291-9.498-34.252-15.464
	c-5.81-3.145-11.494-6.52-17.021-10.104c-0.063-0.042-0.136-0.084-0.199-0.136c-1.024-0.658-2.038-1.327-3.041-2.006
	c-1.588-3.49-3.856-8.046-7.231-14.096l308.339-308.339L466.61,198.186z"/>
<path style="fill:#F45367;" d="M468.271,212.783L180.402,500.652c-22.643-6.99-43.959-17.032-63.436-29.665l307.597-307.597
	l-87.542-87.542l43.541-43.551l24.806-24.806c9.989-9.989,26.196-9.989,36.185,0c4.89,4.89,7.492,11.431,7.492,18.098
	c0,3.135-0.575,6.29-1.755,9.32L433.1,71.158l-1.672,4.274c-5.036,12.884-3.992,27.345,2.863,39.361l38.16,66.968
	C478.198,191.854,476.494,204.56,468.271,212.783z"/>
<g>
	
		<rect x="340.92" y="94.036" transform="matrix(-0.7071 0.7071 -0.7071 -0.7071 698.6584 22.9471)" style="fill:#C4C2C6;" width="7.314" height="124.269"/>
	
		<rect x="226.594" y="208.264" transform="matrix(-0.7071 0.7071 -0.7071 -0.7071 584.0966 298.3846)" style="fill:#C4C2C6;" width="7.314" height="123.798"/>
	
		<rect x="111.958" y="322.886" transform="matrix(-0.7071 0.7071 -0.7071 -0.7071 469.4518 575.118)" style="fill:#C4C2C6;" width="7.314" height="123.798"/>
	
		<rect x="284.439" y="139.718" transform="matrix(-0.7071 0.7071 -0.7071 -0.7071 616.1112 96.3727)" style="fill:#C4C2C6;" width="7.314" height="72.139"/>
	
		<rect x="248.075" y="177.075" transform="matrix(-0.7071 0.7071 -0.7071 -0.7071 582.1483 189.9621)" style="fill:#C4C2C6;" width="7.314" height="76.946"/>
	
		<rect x="168.704" y="254.527" transform="matrix(-0.7071 0.7071 -0.7071 -0.7071 498.1543 370.4175)" style="fill:#C4C2C6;" width="7.314" height="67.707"/>
	
		<rect x="131.738" y="292.269" transform="matrix(-0.7071 0.7071 -0.7071 -0.7071 463.0412 464.1367)" style="fill:#C4C2C6;" width="7.314" height="71.397"/>
	<path style="fill:#C4C2C6;" d="M84.25,423.852l-5.172,5.172l-44.513-44.513c-0.773-1.306-1.515-2.623-2.257-3.95l4.326-4.326
		L84.25,423.852z"/>
</g>
<g>
	<path style="fill:#4D4D4D;" d="M191.601,302.436l-5.172,5.172l-4.737,4.731c-1.72,1.719-1.721,4.506-0.002,6.226l43.678,43.687
		l10.439-10.439l9.979-9.979l-43.687-43.678c-1.72-1.719-4.508-1.718-6.226,0.002L191.601,302.436z"/>
	<path style="fill:#4D4D4D;" d="M310.257,183.776l-4.499,4.504l-5.172,5.172l-4.509,4.505c-1.72,1.719-1.721,4.507-0.002,6.225
		l43.678,43.687l20.417-20.417l-43.687-43.678C314.764,182.055,311.976,182.055,310.257,183.776z"/>
	<path style="fill:#4D4D4D;" d="M262.534,231.503l-4.511,4.507c-1.721,1.719-1.721,4.507-0.001,6.227l43.686,43.677l10.209-10.209
		l10.198-10.198l-43.679-43.679c-1.719-1.719-4.506-1.719-6.224,0l-4.506,4.506L262.534,231.503z"/>
	<path style="fill:#4D4D4D;" d="M131.396,456.223l-14.629,14.629c-18.662-12.121-35.652-26.614-50.542-43.039l5.82-5.82l5.172-5.172
		l4.263-4.274c1.724-1.714,4.504-1.724,6.228,0L131.396,456.223z"/>
	<path style="fill:#4D4D4D;" d="M148.149,345.888l-4.511,4.507c-1.721,1.719-1.721,4.507-0.001,6.227l43.686,43.677l10.209-10.209
		l10.198-10.198l-43.679-43.679c-1.719-1.719-4.506-1.719-6.224,0l-4.506,4.506L148.149,345.888z"/>
	<circle style="fill:#4D4D4D;" cx="426.433" cy="212.511" r="10.512"/>
	<circle style="fill:#4D4D4D;" cx="396.131" cy="242.813" r="10.512"/>
	<circle style="fill:#4D4D4D;" cx="365.829" cy="273.115" r="10.512"/>
	<circle style="fill:#4D4D4D;" cx="335.527" cy="303.428" r="10.512"/>
	<circle style="fill:#4D4D4D;" cx="305.225" cy="333.73" r="10.512"/>
</g>
<g>
</g>
<g>
</g>
<g>
</g>
<g>
</g>
<g>
</g>
<g>
</g>
<g>
</g>
<g>
</g>
<g>
</g>
<g>
</g>
<g>
</g>
<g>
</g>
<g>
</g>
<g>
</g>
<g>
</g>
</svg>
