<?xml version="1.0" encoding="iso-8859-1"?>
<!-- Generator: Adobe Illustrator 19.0.0, SVG Export Plug-In . SVG Version: 6.00 Build 0)  -->
<svg version="1.1" id="Capa_1" xmlns="http://www.w3.org/2000/svg" xmlns:xlink="http://www.w3.org/1999/xlink" x="0px" y="0px"
	 viewBox="0 0 512 512" style="enable-background:new 0 0 512 512;" xml:space="preserve">
<path style="fill:#F45367;" d="M512,256c0,35.035-7.043,68.43-19.78,98.847c-1.912,4.556-3.95,9.049-6.113,13.469
	c-2.121,4.347-4.368,8.631-6.74,12.842C435.524,459.243,351.922,512,256,512C114.615,512,0,397.385,0,256
	C0,116.182,112.086,2.55,251.298,0.052C252.865,0.01,254.433,0,256,0s3.135,0.01,4.702,0.052C399.914,2.55,512,116.182,512,256z"/>
<circle style="fill:#FC7385;" cx="256" cy="192.784" r="184.947"/>
<circle style="fill:#5B5560;" cx="256" cy="256" r="217.057"/>
<path style="fill:#E6993A;" d="M437.75,256c0,54.868-24.315,104.061-62.757,137.394C343.113,421.031,301.505,437.76,256,437.76
	c-100.383,0-181.76-81.377-181.76-181.76c0-62.903,31.953-118.345,80.52-150.967C183.693,85.598,218.52,74.25,256,74.25
	C356.373,74.25,437.75,155.617,437.75,256z"/>
<path style="fill:#EDBB57;" d="M437.75,256c0,19.675-3.124,38.619-8.913,56.362c-3.114,9.571-7.001,18.787-11.588,27.575
	c-10.637,20.396-25.025,38.515-42.256,53.457c-28.933,19.435-63.76,30.783-101.23,30.783c-100.383,0-181.76-81.377-181.76-181.76
	c0-54.868,24.315-104.061,62.757-137.383C183.693,85.598,218.52,74.25,256,74.25C356.373,74.25,437.75,155.617,437.75,256z"/>
<path style="fill:#E6993A;" d="M428.837,312.362c-3.114,9.571-7.001,18.787-11.588,27.575l-77.406-77.406l-1.212,1.202
	c-7.69,7.701-20.177,7.701-27.878,0l-21.985-21.995c-7.701-7.69-7.701-20.177-0.01-27.878l21.995-21.995
	c7.701-7.69,20.187-7.69,27.878,0l21.995,21.995c7.701,7.701,7.701,20.187,0,27.878l-1.202,1.212L428.837,312.362z"/>
<circle style="fill:#5B5560;" cx="256" cy="256" r="44.65"/>
<path style="fill:#AF653D;" d="M492.22,354.847c-1.912,4.556-3.95,9.049-6.113,13.469c-2.121,4.347-4.368,8.631-6.74,12.842
	L331.88,233.671l19.581-19.581L492.22,354.847z"/>
<path style="fill:#9E5329;" d="M486.107,368.316c-2.121,4.347-4.368,8.631-6.74,12.842L331.88,233.671l9.791-9.791L486.107,368.316z
	"/>
<path style="fill:#C4C2C6;" d="M348.04,180.376l21.988,21.988c7.699,7.699,7.699,20.185,0,27.884l-21.988,21.989
	c-7.699,7.699-20.185,7.699-27.884,0l-21.988-21.988c-7.699-7.699-7.699-20.185,0-27.884l21.989-21.989
	C327.854,172.677,340.341,172.677,348.04,180.376z"/>
<g>
	<path style="fill:#DCDBDD;" d="M348.04,180.376l21.988,21.988c7.699,7.699,7.699,20.185,0,27.884l-4.81,4.81
		c-7.699,7.699-20.185,7.699-27.884,0l-21.988-21.988c-7.699-7.699-7.699-20.185,0-27.884l4.81-4.81
		C327.854,172.677,340.341,172.677,348.04,180.376z"/>
	<path style="fill:#DCDBDD;" d="M336.453,70.814c-0.892,0-1.793-0.253-2.592-0.783L256,18.46l-77.861,51.57
		c-2.165,1.435-5.083,0.841-6.517-1.324s-0.841-5.082,1.324-6.517L256,7.182l83.054,55.01c2.164,1.435,2.758,4.352,1.324,6.517
		C339.473,70.073,337.977,70.814,336.453,70.814z"/>
	<path style="fill:#DCDBDD;" d="M260.702,0.052v12.769c0,2.602-2.1,4.702-4.702,4.702s-4.702-2.1-4.702-4.702V0.052
		C252.865,0.01,254.433,0,256,0S259.135,0.01,260.702,0.052z"/>
</g>
<g>
</g>
<g>
</g>
<g>
</g>
<g>
</g>
<g>
</g>
<g>
</g>
<g>
</g>
<g>
</g>
<g>
</g>
<g>
</g>
<g>
</g>
<g>
</g>
<g>
</g>
<g>
</g>
<g>
</g>
</svg>
