<?xml version="1.0" encoding="iso-8859-1"?>
<!-- Generator: Adobe Illustrator 19.0.0, SVG Export Plug-In . SVG Version: 6.00 Build 0)  -->
<svg version="1.1" id="Capa_1" xmlns="http://www.w3.org/2000/svg" xmlns:xlink="http://www.w3.org/1999/xlink" x="0px" y="0px"
	 viewBox="0 0 512 512" style="enable-background:new 0 0 512 512;" xml:space="preserve">
<circle style="fill:#5B5560;" cx="256" cy="256" r="256"/>
<circle style="fill:#736F77;" cx="256" cy="192.784" r="184.947"/>
<g>
	<path style="fill:#E6993A;" d="M330.735,9.215c-0.01,0-0.01,0-0.021,0c-10.219-1.599-20.689-2.424-31.347-2.424
		c-52.757,0-100.78,20.198-136.777,53.279C122.383,97.028,97.18,150.057,97.18,208.979c0,111.658,90.52,202.177,202.188,202.177
		c10.658,0,21.128-0.825,31.347-2.414c23.688-3.688,46.017-11.494,66.226-22.653c62.359-34.429,104.605-100.833,104.605-177.11
		C501.545,107.979,427.493,24.282,330.735,9.215z"/>
	<path style="fill:#E6993A;" d="M266.474,62.505c-0.01,0-0.01,0-0.021,0c-10.219-1.599-20.689-2.424-31.347-2.424
		c-49.852,0-95.483,18.045-130.738,47.94c-43.708,37.094-71.45,92.432-71.45,154.248c0,111.658,90.52,202.177,202.188,202.177
		c10.658,0,21.128-0.825,31.347-2.414c49.006-7.628,92.191-32.862,122.87-69.036c29.915-35.244,47.961-80.875,47.961-130.727
		C437.284,161.269,363.232,77.572,266.474,62.505z"/>
</g>
<path style="fill:#EDBB57;" d="M266.474,62.505c-0.01,0-0.01,0-0.021,0c-10.219-1.599-20.689-2.424-31.347-2.424
	c-49.852,0-95.483,18.045-130.738,47.94c-29.895,35.255-47.94,80.896-47.94,130.738c0,111.658,90.52,202.177,202.188,202.177
	c10.658,0,21.128-0.826,31.347-2.414c37.533-5.841,71.659-22.016,99.359-45.526c29.915-35.244,47.961-80.875,47.961-130.727
	C437.284,161.269,363.232,77.572,266.474,62.505z"/>
<path style="fill:#E6993A;" d="M235.106,227.128c-19.404,0-35.14,15.736-35.14,35.14c0,9.707,3.939,18.484,10.292,24.848
	c6.363,6.363,15.151,10.292,24.848,10.292c9.697,0,18.484-3.929,24.848-10.292c6.353-6.363,10.292-15.141,10.292-24.848
	C270.246,242.865,254.51,227.128,235.106,227.128z"/>
<path style="fill:#4D4D4D;" d="M232.691,425.14c-3.815,0-8.411-1.354-13.803-5.151c-17.141-12.071-20.936-42.318-11.279-89.904
	c6.913-34.065,18.131-64.413,18.604-65.688c0.855-2.298,3.09-3.78,5.522-3.743c2.45,0.057,4.594,1.663,5.339,3.998
	c9.404,29.466,16.012,64.765,17.678,94.426c1.319,23.477,0.17,53.458-12.788,62.968C239.687,423.718,236.599,425.14,232.691,425.14z
	 M231.184,285.605c-3.807,12.033-8.729,29.084-12.335,46.887c-8.393,41.43-6.029,69.167,6.656,78.1
	c6.452,4.544,8.867,2.772,9.66,2.189c7.864-5.771,9.285-32.188,8.114-53.057C241.982,336.634,237.591,310.008,231.184,285.605z"/>
<g>
</g>
<g>
</g>
<g>
</g>
<g>
</g>
<g>
</g>
<g>
</g>
<g>
</g>
<g>
</g>
<g>
</g>
<g>
</g>
<g>
</g>
<g>
</g>
<g>
</g>
<g>
</g>
<g>
</g>
</svg>
