<?xml version="1.0" encoding="iso-8859-1"?>
<!-- Generator: Adobe Illustrator 19.0.0, SVG Export Plug-In . SVG Version: 6.00 Build 0)  -->
<svg version="1.1" id="Capa_1" xmlns="http://www.w3.org/2000/svg" xmlns:xlink="http://www.w3.org/1999/xlink" x="0px" y="0px"
	 viewBox="0 0 512 512" style="enable-background:new 0 0 512 512;" xml:space="preserve">
<path style="fill:#56B774;" d="M512,256c0,141.385-114.615,256-256,256c-34.785,0-67.939-6.938-98.168-19.508
	c-46.968-19.508-86.873-52.611-114.813-94.396c-9.122-13.646-16.969-28.233-23.364-43.562C6.99,324.2,0,290.921,0,256
	C0,114.615,114.615,0,256,0S512,114.615,512,256z"/>
<circle style="fill:#6CD182;" cx="256" cy="192.784" r="184.947"/>
<path style="fill:#9E5329;" d="M249.752,370.824L229.94,397.04l-72.108,95.451c-46.968-19.508-86.873-52.611-114.813-94.396
	c-9.122-13.646-16.969-28.233-23.364-43.562l121.804-92.024C152.649,284.693,227.579,359.623,249.752,370.824z"/>
<g>
	<path style="fill:#AF653D;" d="M229.94,397.04l-72.108,95.451c-46.968-19.508-86.873-52.611-114.813-94.396l75.828-57.292
		c18.233-13.772,47.637-8.046,67.291,12.999C199.826,368.452,215.761,384.199,229.94,397.04z"/>
	<path style="fill:#AF653D;" d="M465.211,260.568l-87.246,87.246c-22.799,22.799-52.494,34.482-82.375,35.066
		c-15.809,0.322-31.66-2.483-46.571-8.396c-12.776-5.05-24.849-12.395-35.608-22.019c-1.677-1.491-3.312-3.042-4.923-4.651
		l-49.951-49.951c-1.609-1.609-3.16-3.244-4.651-4.923c-9.625-10.759-16.97-22.832-22.019-35.608
		c-5.913-14.911-8.718-30.762-8.396-46.571c0.584-29.881,12.267-59.576,35.066-82.375l87.246-87.246L465.211,260.568z"/>
</g>
<path style="fill:#9E5329;" d="M168.568,307.894l-10.031-10.031c-1.609-1.609-3.16-3.244-4.651-4.923
	c-9.625-10.759-16.97-22.832-22.019-35.608c-5.913-14.911-8.718-30.762-8.396-46.571c0.584-29.881,12.267-59.576,35.066-82.375
	l87.246-87.246l44.055,44.055l-87.246,87.246c-22.799,22.799-38.099,48.875-44.563,72.877c-3.431,12.7-4.372,24.806-2.644,35.532
	c1.474,9.2,4.923,17.376,10.454,24.043C166.696,305.937,167.603,306.927,168.568,307.894z"/>
<path style="fill:#C4C2C6;" d="M463.516,275.716L236.565,48.765c-2.499-2.499-2.364-6.447-0.008-8.802
	c0.348-0.348,0.746-0.66,1.186-0.932c0.06-0.043,0.136-0.085,0.204-0.118l7.414-4.126l22.578-12.547
	c2.431-1.347,5.465-0.924,7.43,1.042l213.633,213.633c1.965,1.965,2.389,4.999,1.042,7.43l-12.547,22.578l-4.126,7.414
	c-0.033,0.068-0.076,0.144-0.118,0.204C471.158,277.987,466.38,278.58,463.516,275.716z"/>
<path style="fill:#E6E6E6;" d="M463.516,275.716L277.231,89.432c-2.499-2.499-2.364-6.447-0.008-8.802
	c0.348-0.348,0.746-0.66,1.186-0.932c0.06-0.043,0.136-0.085,0.204-0.118l7.414-4.126l22.578-12.547
	c2.431-1.347,5.465-0.924,7.43,1.042l172.966,172.966c1.965,1.965,2.389,4.999,1.042,7.43l-12.547,22.578l-4.126,7.414
	c-0.033,0.068-0.076,0.144-0.118,0.204C471.158,277.987,466.38,278.58,463.516,275.716z"/>
<g>
	<path style="fill:#353434;" d="M255.95,45.377l-93.651,93.651c-20.765,20.765-33.803,46.072-38.827,71.733
		c-0.322,15.809,2.483,31.66,8.396,46.571c-8.099-37.209,4.431-80.442,36.362-112.374l87.72-87.72l44.902,44.902l-87.72,87.72
		c-35.854,35.854-57.45,75.037-59.245,103.08c1.491,1.677,3.042,3.312,4.651,4.923l3.83,3.83
		c-3.203-24.942,19.105-68.31,56.695-105.901l87.72-87.72l91.499,91.499l-87.72,87.72c-37.59,37.59-80.959,59.898-105.901,56.695
		l3.83,3.83c1.609,1.609,3.244,3.16,4.923,4.651c28.043-1.796,67.227-23.391,103.08-59.245l87.72-87.72l44.902,44.902l-87.72,87.72
		c-31.931,31.931-75.165,44.461-112.374,36.362c14.911,5.913,30.762,8.718,46.571,8.396c25.662-5.024,50.968-18.062,71.733-38.827
		l93.651-93.651L255.95,45.377z"/>
	<path style="fill:#353434;" d="M473.25,274.539L237.742,39.031c0.06-0.043,0.136-0.085,0.204-0.118l7.414-4.126l232.136,232.136
		l-4.126,7.414C473.335,274.404,473.293,274.479,473.25,274.539z"/>
</g>
<g>
</g>
<g>
</g>
<g>
</g>
<g>
</g>
<g>
</g>
<g>
</g>
<g>
</g>
<g>
</g>
<g>
</g>
<g>
</g>
<g>
</g>
<g>
</g>
<g>
</g>
<g>
</g>
<g>
</g>
</svg>
