<?xml version="1.0" encoding="iso-8859-1"?>
<!-- Generator: Adobe Illustrator 19.0.0, SVG Export Plug-In . SVG Version: 6.00 Build 0)  -->
<svg version="1.1" id="Capa_1" xmlns="http://www.w3.org/2000/svg" xmlns:xlink="http://www.w3.org/1999/xlink" x="0px" y="0px"
	 viewBox="0 0 512 512" style="enable-background:new 0 0 512 512;" xml:space="preserve">
<path style="fill:#EDBB57;" d="M512,256c0,141.385-114.615,256-256,256c-25.987,0-51.064-3.866-74.689-11.065
	C94.49,474.488,27.23,403.153,6.583,313.96C2.278,295.33,0,275.937,0,256C0,114.615,114.615,0,256,0S512,114.615,512,256z"/>
<circle style="fill:#F4D984;" cx="256" cy="192.784" r="184.947"/>
<path style="fill:#F45367;" d="M283.857,265.707L181.311,500.934C94.49,474.488,27.23,403.153,6.583,313.96l244.537-77.949
	l0.418,0.408l31.775,28.766L283.857,265.707z"/>
<g>
	<path style="fill:#5B5560;" d="M131.429,413.622l-31.864-31.411c-4.421-4.356-11.537-4.313-15.898,0.094
		c-4.361,4.407-4.313,11.513,0.106,15.869l31.864,31.411c1.684,1.66,3.762,2.682,5.929,3.066c3.516,0.623,7.27-0.434,9.968-3.16
		C135.895,425.083,135.848,417.978,131.429,413.622z"/>
	<path style="fill:#5B5560;" d="M124.359,357.231l31.865,31.409c1.685,1.661,3.762,2.682,5.929,3.066
		c3.517,0.623,7.27-0.434,9.968-3.161c4.361-4.408,4.314-11.513-0.106-15.869l-31.865-31.409
		c-4.422-4.356-11.539-4.313-15.898,0.095C119.892,345.77,119.94,352.875,124.359,357.231z"/>
	<path style="fill:#5B5560;" d="M166.421,456.701c-1.093-4.959-5.564-8.667-10.658-8.804c-4.581-0.123-8.843,2.619-10.641,6.817
		c-3.773,8.811,5.061,18.16,14.092,14.972C164.465,467.831,167.665,462.147,166.421,456.701
		C166.26,455.974,166.584,457.413,166.421,456.701z"/>
</g>
<path style="fill:#EAC76C;" d="M247.815,304.888l-39.735-39.735l13.987-13.307l3.79-3.599l17.917-17.045l3.783-3.606l10.506-9.989
	l7.448-7.034l3.798-3.591l17.984-16.994l3.798-3.591l21.116-19.949l3.797-3.591l21.116-19.949l3.798-3.591l21.116-19.949
	l3.798-3.591l21.116-19.949l3.798-3.591l13.617-12.864c0.746-0.717,1.396-1.515,1.921-2.408l0.007,0.007l21.412,10.98l8.245,18.693
	c-0.879,0.525-1.692,1.174-2.394,1.922l-12.871,13.61l-3.591,3.798l-19.949,21.119l-3.591,3.798l-19.957,21.109l-3.591,3.798
	l-19.956,21.109l-3.591,3.798l-19.949,21.116l-3.591,3.798l-17.002,17.976l-3.591,3.798l-16.993,17.984l-3.591,3.798l-6.14,6.494
	l-10.884,11.445l-3.599,3.79L247.815,304.888z"/>
<g>
	<polygon style="fill:#5B5560;" points="417.094,125.974 386.949,95.829 390.747,92.237 420.685,122.176 	"/>
	<polygon style="fill:#5B5560;" points="393.555,150.888 362.035,119.368 365.832,115.778 397.145,147.09 	"/>
	<polygon style="fill:#5B5560;" points="370.007,175.795 337.121,142.909 340.918,139.317 373.598,171.998 	"/>
	<polygon style="fill:#5B5560;" points="346.46,200.702 312.206,166.448 316.004,162.858 350.05,196.904 	"/>
	<polygon style="fill:#5B5560;" points="322.919,225.615 287.293,189.989 291.09,186.397 326.511,221.818 	"/>
	<polygon style="fill:#5B5560;" points="302.328,247.39 265.511,210.573 269.309,206.982 305.919,243.592 	"/>
	<polygon style="fill:#5B5560;" points="281.743,269.171 243.774,231.201 247.556,227.595 285.334,265.374 	"/>
	<polygon style="fill:#5B5560;" points="261.122,290.901 222.066,251.845 225.857,248.247 264.721,287.111 	"/>
</g>
<g>
	<path style="fill:#FFFFFF;" d="M416.632,91.648l-343.5,343.5c-1.212-1.243-2.424-2.497-3.615-3.762L412.944,87.96L416.632,91.648z"
		/>
	<path style="fill:#FFFFFF;" d="M408.263,83.278L65.034,426.506c-1.16-1.306-2.309-2.623-3.448-3.95L404.564,79.579L408.263,83.278z
		"/>
	<path style="fill:#FFFFFF;" d="M425.012,100.028L81.617,443.423c-1.275-1.191-2.539-2.393-3.793-3.605L421.313,96.329
		L425.012,100.028z"/>
	<path style="fill:#FFFFFF;" d="M433.382,108.398L90.478,451.302c-1.337-1.139-2.654-2.278-3.96-3.438l343.165-343.165
		L433.382,108.398z"/>
</g>
<g>
	<path style="fill:#DDDAE0;" d="M418.635,55.356c3.231-3.231,0.488-11.21-2.742-14.44c-3.231-3.231-5.726-0.488-8.957,2.742
		c-3.231,3.231-5.973,5.726-2.742,8.957C407.426,55.844,415.405,58.585,418.635,55.356z"/>
	<path style="fill:#DDDAE0;" d="M437.646,45.489c3.231-3.231,0.488-11.21-2.742-14.44c-3.23-3.231-5.726-0.488-8.957,2.742
		s-5.973,5.726-2.742,8.957C426.435,45.977,434.415,48.718,437.646,45.489z"/>
	<path style="fill:#DDDAE0;" d="M456.656,35.622c3.231-3.231,0.488-11.21-2.742-14.44c-3.231-3.231-5.726-0.488-8.957,2.742
		s-5.973,5.726-2.742,8.957C445.445,36.11,453.425,38.852,456.656,35.622z"/>
	<path style="fill:#DDDAE0;" d="M475.666,25.755c3.231-3.231,0.488-11.21-2.742-14.44c-3.23-3.231-5.726-0.488-8.957,2.742
		c-3.231,3.231-5.973,5.726-2.742,8.957S472.435,28.985,475.666,25.755z"/>
	<path style="fill:#DDDAE0;" d="M494.676,15.888c3.231-3.231,0.488-11.21-2.742-14.44c-3.231-3.231-5.726-0.488-8.957,2.742
		s-5.973,5.726-2.742,8.957C483.466,16.377,491.446,19.118,494.676,15.888z"/>
</g>
<path style="fill:#F45367;" d="M404.36,79.377V65.125c0-2.486,1.383-4.765,3.589-5.911l90.533-47.057
	c3.751-1.95,8.348,0.043,9.488,4.115l3.78,13.502c0.568,2.031,0.142,4.213-1.151,5.88l-53.379,68.794
	c-1.144,1.474-2.855,2.401-4.715,2.555l-18.953,1.565"/>
<g>
	<circle style="fill:#DDDAE0;" cx="425.535" cy="62.255" r="5.747"/>
	<circle style="fill:#DDDAE0;" cx="444.155" cy="51.998" r="5.747"/>
	<circle style="fill:#DDDAE0;" cx="462.785" cy="41.747" r="5.747"/>
	<circle style="fill:#DDDAE0;" cx="481.405" cy="31.493" r="5.747"/>
	<circle style="fill:#DDDAE0;" cx="500.036" cy="21.244" r="5.747"/>
</g>
<g>
</g>
<g>
</g>
<g>
</g>
<g>
</g>
<g>
</g>
<g>
</g>
<g>
</g>
<g>
</g>
<g>
</g>
<g>
</g>
<g>
</g>
<g>
</g>
<g>
</g>
<g>
</g>
<g>
</g>
</svg>
