<?xml version="1.0" encoding="iso-8859-1"?>
<!-- Generator: Adobe Illustrator 19.0.0, SVG Export Plug-In . SVG Version: 6.00 Build 0)  -->
<svg version="1.1" id="Capa_1" xmlns="http://www.w3.org/2000/svg" xmlns:xlink="http://www.w3.org/1999/xlink" x="0px" y="0px"
	 viewBox="0 0 512 512" style="enable-background:new 0 0 512 512;" xml:space="preserve">
<path style="fill:#EDBB57;" d="M512,256c0,141.385-114.615,256-256,256c-29.215,0-57.281-4.89-83.435-13.908
	c-60.531-20.856-110.801-63.781-141.166-119.171c-6.896-12.56-12.758-25.757-17.492-39.476C4.89,313.292,0,285.215,0,256
	C0,114.615,114.615,0,256,0S512,114.615,512,256z"/>
<circle style="fill:#F4D984;" cx="256" cy="192.784" r="184.947"/>
<path style="fill:#AF653D;" d="M458.961,207.433l-3.438-5.831l-7.858-13.333l-37.428-63.54l-4.901-8.328l-9.216-5.799l-72.913-45.84
	l-12.904-8.119l-5.747-3.615l-0.042-0.021c-3.479,1.432-6.98,2.936-10.512,4.524c-15.809,7.084-31.995,15.736-48.295,25.809
	c-10.867,6.719-21.797,14.075-32.674,22.058c-22.758,16.645-45.369,35.976-67.124,57.731
	c-37.345,37.345-94.124,119.265-132.002,176.316c25.59,74.261,84.396,133.057,158.657,158.647
	c57.051-37.878,138.951-94.647,176.306-132.002c21.755-21.755,41.085-44.366,57.731-67.124
	c7.973-10.888,15.339-21.807,22.047-32.684c6.499-10.512,12.403-20.982,17.669-31.326l0.01-0.01
	c2.894-5.695,5.622-11.348,8.129-16.959c1.588-3.521,3.093-7.032,4.524-10.512L458.961,207.433z"/>
<path style="fill:#9E5329;" d="M304.515,53.008c-51.294,21.055-107.332,58.849-158.616,110.122
	c-37.345,37.345-94.114,119.265-131.992,176.316c4.733,13.72,10.595,26.917,17.492,39.476
	C72.077,325.413,140.1,238.038,180.454,197.684c51.273-51.284,104.218-92.181,150.361-118.376l68.535,33.332L304.515,53.008z"/>
<path style="fill:#F7AD3E;" d="M403.677,114.744l-4.327-2.103l4.695,2.951L403.677,114.744z M49.823,459.585l1.668,0.95
	l-1.856-1.291L49.823,459.585z"/>
<path style="fill:#C4C2C6;" d="M458.991,207.464L304.526,52.999l20.824-13.162l5.123-3.241c5.901-3.728,13.589-2.865,18.515,2.062
	l124.345,124.345c4.934,4.934,5.798,12.622,2.062,18.515l-3.241,5.123l-7.278,11.519L458.991,207.464z"/>
<path style="fill:#DCDBDD;" d="M458.991,207.464L330.422,78.895l25.947-16.403c5.901-3.728,13.589-2.865,18.515,2.061l98.45,98.45
	c4.934,4.934,5.798,12.622,2.062,18.515l-10.52,16.643L458.991,207.464z"/>
<path style="fill:#353434;" d="M322.442,214.81l-25.253-25.253c-2.74-2.74-3.229-7.006-1.18-10.294l11.967-19.207
	c2.835-4.551,9.168-5.276,12.959-1.485l32.492,32.492c3.791,3.791,3.066,10.124-1.485,12.959l-19.207,11.967
	C329.448,218.038,325.181,217.549,322.442,214.81z"/>
<path style="fill:#5B5560;" d="M395.424,117.894l-1.319-1.319c-2.312-2.312-6.061-2.312-8.374,0l-65.173,65.173
	c-2.312,2.312-2.312,6.061,0,8.374l1.319,1.319c2.312,2.312,6.061,2.312,8.374,0l65.173-65.173
	C397.736,123.954,397.736,120.205,395.424,117.894z"/>
<path style="fill:#353434;" d="M406.602,298.97l-20.328-20.328c-2.745-2.745-3.233-7.012-1.18-10.296l11.972-19.207
	c2.822-4.549,9.16-5.277,12.947-1.488l18.635,18.635C421.936,277.155,414.573,288.075,406.602,298.97z"/>
<path style="fill:#5B5560;" d="M459.665,183.751l-1.583-0.985c-2.776-1.728-6.428-0.878-8.155,1.899l-48.701,78.251
	c-1.728,2.776-0.878,6.428,1.899,8.155l1.583,0.985c2.776,1.728,6.428,0.878,8.155-1.899l48.701-78.251
	C463.292,189.13,462.442,185.479,459.665,183.751z"/>
<g>
	<path style="fill:#353434;" d="M262.938,115.01l-19.207,11.972c-3.292,2.044-7.56,1.557-10.296-1.18l-20.405-20.405
		c10.887-7.979,21.807-15.342,32.677-22.056l18.712,18.712C268.206,105.842,267.479,112.179,262.938,115.01z"/>
	<path style="fill:#353434;" d="M328.322,52.407l0.985,1.583c1.728,2.776,0.878,6.428-1.899,8.155l-78.251,48.701
		c-2.776,1.728-6.428,0.878-8.155-1.899l-0.985-1.583c-1.728-2.776-0.878-6.428,1.899-8.155l78.251-48.701
		C322.942,48.781,326.594,49.631,328.322,52.407z"/>
	<path style="fill:#353434;" d="M453.972,217.497L294.495,58.019c-3.335-3.335-2.514-8.945,1.651-11.177
		c6.072-3.266,13.897-7.551,18.788-10.237c2.745-1.514,6.158-1.026,8.373,1.189l150.891,150.891
		c2.215,2.215,2.702,5.627,1.189,8.373c-2.685,4.892-6.969,12.716-10.237,18.788C462.917,220.011,457.307,220.832,453.972,217.497z"
		/>
</g>
<path style="fill:#5B5560;" d="M453.972,217.497L318.047,81.571c-3.344-3.344-2.522-8.954,1.642-11.186
	c6.08-3.258,13.906-7.543,18.788-10.237c2.753-1.505,6.166-1.018,8.381,1.197l127.339,127.339c2.215,2.215,2.702,5.627,1.189,8.373
	c-2.685,4.892-6.969,12.716-10.237,18.788C462.917,220.011,457.307,220.832,453.972,217.497z"/>
<g>
</g>
<g>
</g>
<g>
</g>
<g>
</g>
<g>
</g>
<g>
</g>
<g>
</g>
<g>
</g>
<g>
</g>
<g>
</g>
<g>
</g>
<g>
</g>
<g>
</g>
<g>
</g>
<g>
</g>
</svg>
