<?xml version="1.0" encoding="iso-8859-1"?>
<!-- Generator: Adobe Illustrator 19.0.0, SVG Export Plug-In . SVG Version: 6.00 Build 0)  -->
<svg version="1.1" id="Capa_1" xmlns="http://www.w3.org/2000/svg" xmlns:xlink="http://www.w3.org/1999/xlink" x="0px" y="0px"
	 viewBox="0 0 512 512" style="enable-background:new 0 0 512 512;" xml:space="preserve">
<path style="fill:#5B5560;" d="M512,256c0,36.76-7.753,71.711-21.703,103.309c-11.964,27.094-28.484,51.712-48.588,72.892
	C395.065,481.353,329.112,512,256,512C114.615,512,0,397.385,0,256S114.615,0,256,0S512,114.615,512,256z"/>
<circle style="fill:#736F77;" cx="256" cy="192.784" r="184.947"/>
<path style="fill:#EDBB57;" d="M316.531,48.953c-10.407-18.61-36.446-18.61-46.864,0l-77.312,138.104l2.135,5.153l-17.516,22.317
	l-98.44,175.815c-10.418,18.599,2.602,41.859,23.437,41.859H441.71c20.104-21.18,36.624-45.798,48.588-72.892L316.531,48.953z
	 M126.892,389.454l80.426-143.642l9.202-29.235l6.168,1.774l70.416-125.773l166.212,296.876H126.892z"/>
<path style="fill:#E6993A;" d="M269.667,48.953l-77.312,138.104l-15.381,27.47l-98.44,175.815
	c-10.418,18.599,2.602,41.859,23.437,41.859h17.763c-20.835,0-33.855-23.259-23.437-41.859L287.431,48.953
	c3.49-6.228,8.725-10.376,14.555-12.434C290.429,32.434,276.595,36.582,269.667,48.953z"/>
<path style="fill:#DCDBDD;" d="M41.557,53.216c2.9-2.99,6.703-4.491,10.496-4.491c3.803,0,7.607,1.5,10.506,4.491l129.794,133.846
	l30.34,31.287l51.177,52.775c8.731-1.91,18.191,0.636,24.971,7.629c10.65,10.982,10.65,28.797,0,39.791
	c-10.661,10.982-27.936,10.982-38.587,0c-6.78-6.991-9.249-16.758-7.398-25.762l-45.543-46.965l-30.34-31.287L41.557,74.885
	C35.747,68.905,35.747,59.207,41.557,53.216z"/>
<path style="fill:#C4C2C6;" d="M304.045,311.04c-1.285,2.706-3.02,5.245-5.204,7.502c-10.658,10.982-27.93,10.982-38.588,0
	c-6.771-6.99-9.247-16.75-7.398-25.757l-45.537-46.968l-30.344-31.284L41.557,74.883c-5.81-5.977-5.81-15.673,0-21.661
	c2.518-2.591,5.726-4.075,9.007-4.409c-0.596,4.556,0.815,9.341,4.221,12.842l135.419,139.651l30.344,31.284l45.537,46.968
	c-1.849,9.007,0.627,18.766,7.398,25.757C281.748,313.831,293.993,315.742,304.045,311.04z"/>
<g>
</g>
<g>
</g>
<g>
</g>
<g>
</g>
<g>
</g>
<g>
</g>
<g>
</g>
<g>
</g>
<g>
</g>
<g>
</g>
<g>
</g>
<g>
</g>
<g>
</g>
<g>
</g>
<g>
</g>
</svg>
