<?xml version="1.0" encoding="iso-8859-1"?>
<!-- Generator: Adobe Illustrator 19.0.0, SVG Export Plug-In . SVG Version: 6.00 Build 0)  -->
<svg version="1.1" id="Capa_1" xmlns="http://www.w3.org/2000/svg" xmlns:xlink="http://www.w3.org/1999/xlink" x="0px" y="0px"
	 viewBox="0 0 512 512" style="enable-background:new 0 0 512 512;" xml:space="preserve">
<path style="fill:#F45367;" d="M512,256c0,141.385-114.615,256-256,256c-63.822,0-122.169-23.343-166.996-61.962
	c-3.521-3.041-6.959-6.165-10.313-9.394c-5.851-5.611-11.431-11.504-16.729-17.648C23.343,378.169,0,319.801,0,256
	C0,114.615,114.615,0,256,0c39.727,0,77.343,9.049,110.895,25.192c11.943,5.757,23.374,12.403,34.2,19.884
	c25.757,17.732,48.097,40.072,65.839,65.818c4.712,6.844,9.112,13.928,13.145,21.232c2.372,4.253,4.618,8.579,6.729,12.978
	C502.951,178.657,512,216.273,512,256z"/>
<circle style="fill:#FC7385;" cx="256" cy="192.784" r="184.947"/>
<path style="fill:#DCDBDD;" d="M386.487,5.595L176.18,215.902c-28.4,28.411-32.392,72.119-11.964,104.835L61.962,422.99
	c8.338,9.676,17.377,18.714,27.042,27.042l102.254-102.254c32.705,20.417,76.424,16.447,104.835-11.964l210.307-210.307
	c3.741-3.741,5.601-8.631,5.601-13.521s-1.87-9.791-5.601-13.521c-7.471-7.471-19.571-7.471-27.042,0L269.051,308.773
	c-17.951,17.951-47.062,18.15-65.254,0.564c-18.735-18.098-18.411-48.556,0.01-66.968L401.105,45.061l12.424-12.424
	c3.741-3.73,5.601-8.62,5.601-13.521c0-4.89-1.86-9.78-5.601-13.521C406.058-1.865,393.958-1.865,386.487,5.595z"/>
<g>
	<path style="fill:#C4C2C6;" d="M278.902,318.625c-17.954,17.954-47.065,18.146-65.256,0.561c-1.889-1.825-3.575-3.781-5.077-5.833
		c18.202,13.399,44.026,11.876,60.482-4.58L479.357,98.467c7.47-7.47,19.572-7.47,27.042,0c1.739,1.739,3.055,3.737,3.985,5.863
		c-6.999-3.058-15.447-1.741-21.176,3.988"/>
	<path style="fill:#C4C2C6;" d="M396.34,15.449c5.726-5.726,14.179-7.043,21.18-3.981c-0.93-2.132-2.247-4.127-3.992-5.872
		c-7.471-7.461-19.571-7.461-27.042,0L176.18,215.902c-28.4,28.411-32.392,72.119-11.964,104.835L61.962,422.99
		c3.041,3.521,6.165,6.959,9.394,10.313L174.07,330.59c-20.428-32.716-16.447-76.424,11.964-104.835"/>
</g>
<g>
</g>
<g>
</g>
<g>
</g>
<g>
</g>
<g>
</g>
<g>
</g>
<g>
</g>
<g>
</g>
<g>
</g>
<g>
</g>
<g>
</g>
<g>
</g>
<g>
</g>
<g>
</g>
<g>
</g>
</svg>
