<?xml version="1.0" encoding="iso-8859-1"?>
<!-- Generator: Adobe Illustrator 19.0.0, SVG Export Plug-In . SVG Version: 6.00 Build 0)  -->
<svg version="1.1" id="Capa_1" xmlns="http://www.w3.org/2000/svg" xmlns:xlink="http://www.w3.org/1999/xlink" x="0px" y="0px"
	 viewBox="0 0 512 512" style="enable-background:new 0 0 512 512;" xml:space="preserve">
<circle style="fill:#56B774;" cx="256" cy="256" r="256"/>
<circle style="fill:#6CD182;" cx="256" cy="192.784" r="184.947"/>
<path style="fill:#353434;" d="M158.623,335.969c-17.021,17.021-42.339,20.689-62.934,11.013
	c-5.663-2.664-10.971-6.332-15.653-11.013c-21.692-21.703-21.703-56.884,0-78.587L158.623,335.969z"/>
<g>
	<path style="fill:#5B5560;" d="M158.623,335.969c-17.021,17.021-42.339,20.689-62.934,11.013
		c-9.697-20.595-6.04-45.913,10.992-62.955L158.623,335.969z"/>
	<path style="fill:#5B5560;" d="M379.884,87.39l-0.008,0.008c7.394,4.842-19.256,44.162-12.766,50.652
		c6.491,6.491,45.81-20.159,50.652-12.766l54.575-54.575c5.233-5.233,7.845-12.08,7.836-18.944
		c0.008-6.864-2.604-13.711-7.836-18.944c-10.466-10.466-27.431-10.457-37.888,0L379.884,87.39z"/>
</g>
<g>
	<path style="fill:#DCDBDD;" d="M58.387,185.761l110.877,146.647l150.128,114.357l0.008,0.008
		c9.867-9.867,17.912-21.244,23.881-33.635c5.979-12.383,9.901-25.765,11.49-39.624c3.177-27.717,15.646-53.534,35.371-73.259
		l15.846-15.846c25.582-25.582,38.364-59.105,38.364-92.619c-0.008-25.018-7.124-50.028-21.365-71.731
		c-4.842-7.394-10.509-14.397-17-20.888c-6.491-6.491-13.494-12.157-20.888-17c-50.809-33.332-119.686-27.665-164.351,17
		l-15.844,15.847c-9.858,9.858-21.244,17.912-33.635,23.881c-12.383,5.979-25.765,9.901-39.624,11.49
		C103.929,153.567,78.121,166.028,58.387,185.761z"/>
	<path style="fill:#DCDBDD;" d="M45.665,181.891c-5.467,0-10.925,2.074-15.1,6.248c-8.331,8.331-8.331,21.851,0,30.182
		l88.835,88.835l78.587,78.587l88.835,88.835c4.174,4.174,9.633,6.249,15.1,6.249c5.459,0.008,10.925-2.074,15.09-6.239
		c7.541-7.541,8.261-19.317,2.169-27.665c-0.643-0.885-1.371-1.736-2.169-2.534L60.756,188.131c-0.79-0.79-1.631-1.51-2.516-2.152
		C54.508,183.253,50.082,181.882,45.665,181.891z"/>
</g>
<g>
	<path style="fill:#C4C2C6;" d="M45.665,181.891c4.417-0.008,8.843,1.363,12.574,4.088c0.885,0.642,1.727,1.363,2.516,2.152
		l84.358,84.358c-0.79-0.79-1.631-1.51-2.516-2.152c-3.731-2.725-8.158-4.096-12.574-4.088c-5.467,0-10.925,2.074-15.1,6.248
		c-8.331,8.331-8.331,21.851,0,30.182l-84.358-84.358c-8.331-8.331-8.331-21.851,0-30.182
		C34.74,183.965,40.198,181.891,45.665,181.891z"/>
	<path style="fill:#C4C2C6;" d="M131.646,150.39c13.858-1.588,27.24-5.511,39.624-11.49c12.392-5.971,23.778-14.024,33.635-23.881
		l15.846-15.846c44.665-44.665,113.542-50.332,164.35-17c7.394,4.842,14.397,10.509,20.887,17c6.491,6.491,12.157,13.494,17,20.888
		c1.261,1.923,2.446,3.879,3.595,5.851c-50.144-29.229-115.523-22.375-158.496,20.599l-15.846,15.846
		c-9.859,9.859-21.244,17.912-33.635,23.881c-12.383,5.979-25.764,9.901-39.624,11.49c-27.717,3.176-53.525,15.637-73.259,35.371
		l-47.337-47.337C78.121,166.028,103.929,153.567,131.646,150.39z"/>
</g>
<g>
</g>
<g>
</g>
<g>
</g>
<g>
</g>
<g>
</g>
<g>
</g>
<g>
</g>
<g>
</g>
<g>
</g>
<g>
</g>
<g>
</g>
<g>
</g>
<g>
</g>
<g>
</g>
<g>
</g>
</svg>
