<?xml version="1.0" encoding="iso-8859-1"?>
<!-- Generator: Adobe Illustrator 19.0.0, SVG Export Plug-In . SVG Version: 6.00 Build 0)  -->
<svg version="1.1" id="Capa_1" xmlns="http://www.w3.org/2000/svg" xmlns:xlink="http://www.w3.org/1999/xlink" x="0px" y="0px"
	 viewBox="0 0 512 512" style="enable-background:new 0 0 512 512;" xml:space="preserve">
<path style="fill:#5B5560;" d="M512,256c0,70.06-28.139,133.559-73.749,179.775c-15.935,16.154-34.001,30.198-53.75,41.681
	c-27.314,15.882-57.825,26.864-90.352,31.723C281.704,511.039,268.967,512,256,512c-12.967,0-25.715-0.961-38.16-2.832h-0.01
	c-32.528-4.848-63.028-15.83-90.342-31.723c-19.749-11.473-37.815-25.527-53.75-41.681C28.139,389.548,0,326.05,0,256
	C0,114.615,114.615,0,256,0S512,114.615,512,256z"/>
<circle style="fill:#736F77;" cx="256" cy="192.784" r="184.947"/>
<g>
	<path style="fill:#DCDBDD;" d="M422.845,185.564c1.538-1.126,3.004-2.396,4.391-3.783c15.237-15.237,15.237-39.953-0.009-55.199
		c-15.237-15.237-39.953-15.237-55.189,0c-1.386,1.386-2.656,2.853-3.783,4.391L422.845,185.564z"/>
	<path style="fill:#DCDBDD;" d="M143.736,464.666c-1.118,1.546-2.393,3.009-3.783,4.399c-3.688,3.688-7.931,6.489-12.466,8.38
		c-19.749-11.473-37.815-25.527-53.75-41.681c1.181-8.014,4.848-15.736,11.024-21.901c1.379-1.39,2.853-2.654,4.389-3.783
		L143.736,464.666z"/>
	<path style="fill:#DCDBDD;" d="M438.251,435.775c-15.935,16.154-34.001,30.198-53.75,41.681c-4.535-1.912-8.777-4.702-12.476-8.401
		c-1.379-1.39-2.644-2.842-3.772-4.389l54.596-54.585c1.536,1.128,2.988,2.382,4.378,3.772
		C433.392,420.028,437.07,427.75,438.251,435.775z"/>
	<path style="fill:#DCDBDD;" d="M143.74,130.974c-1.126-1.538-2.396-3.004-3.783-4.391c-15.237-15.237-39.953-15.237-55.199,0.009
		c-15.237,15.237-15.237,39.953,0,55.189c1.386,1.386,2.843,2.647,4.381,3.773L143.74,130.974z"/>
	<path style="fill:#DCDBDD;" d="M453.354,336.424c1.884,0.29,3.819,0.429,5.779,0.429c21.549,0,39.025-17.477,39.025-39.037
		c0-21.549-17.477-39.025-39.025-39.025c-1.96,0-3.895,0.139-5.779,0.429V336.424z"/>
	<path style="fill:#DCDBDD;" d="M58.64,336.424c-1.884,0.29-3.819,0.429-5.779,0.429c-21.549,0-39.025-17.477-39.025-39.037
		c0-21.549,17.477-39.025,39.025-39.025c1.96,0,3.895,0.139,5.779,0.429C58.64,259.22,58.64,336.424,58.64,336.424z"/>
	<path style="fill:#DCDBDD;" d="M295.027,500.945c0,2.821-0.303,5.58-0.878,8.234C281.704,511.039,268.967,512,256,512
		c-12.967,0-25.715-0.961-38.16-2.832h-0.01c-0.564-2.654-0.867-5.402-0.867-8.223c0-1.954,0.146-3.877,0.428-5.768h77.207
		C294.891,497.068,295.027,498.991,295.027,500.945z"/>
	<path style="fill:#DCDBDD;" d="M294.599,100.465c0.29-1.884,0.429-3.819,0.429-5.779c0-21.549-17.477-39.025-39.037-39.025
		c-21.549,0-39.025,17.477-39.025,39.025c0,1.96,0.139,3.882,0.429,5.767L294.599,100.465z"/>
</g>
<circle style="fill:#D8783F;" cx="256" cy="297.827" r="201.059"/>
<circle style="fill:#F29151;" cx="256" cy="297.827" r="187.465"/>
<circle style="fill:#D8783F;" cx="286.302" cy="266.47" r="149.42"/>
<g>
</g>
<g>
</g>
<g>
</g>
<g>
</g>
<g>
</g>
<g>
</g>
<g>
</g>
<g>
</g>
<g>
</g>
<g>
</g>
<g>
</g>
<g>
</g>
<g>
</g>
<g>
</g>
<g>
</g>
</svg>
