<?xml version="1.0" encoding="iso-8859-1"?>
<!-- Generator: Adobe Illustrator 19.0.0, SVG Export Plug-In . SVG Version: 6.00 Build 0)  -->
<svg version="1.1" id="Capa_1" xmlns="http://www.w3.org/2000/svg" xmlns:xlink="http://www.w3.org/1999/xlink" x="0px" y="0px"
	 viewBox="0 0 512 512" style="enable-background:new 0 0 512 512;" xml:space="preserve">
<path style="fill:#62D6EA;" d="M512,256c0,141.385-114.615,256-256,256c-54.565,0-105.138-17.063-146.672-46.164
	c-8.119-5.684-15.893-11.828-23.28-18.39c-7.053-6.259-13.751-12.905-20.062-19.895c-3.041-3.365-5.998-6.813-8.861-10.344
	c-3.103-3.814-6.092-7.722-8.965-11.724c-0.679-0.93-1.348-1.87-1.996-2.811c-1.996-2.832-3.918-5.705-5.778-8.62
	C14.817,354.22,0,306.834,0,256C0,114.615,114.615,0,256,0c54.565,0,105.127,17.063,146.662,46.164
	c16.457,11.504,31.483,24.91,44.795,39.873c6.552,7.398,12.706,15.172,18.38,23.291C494.937,150.862,512,201.446,512,256z"/>
<circle style="fill:#82ECF7;" cx="256" cy="192.784" r="184.947"/>
<g>
	<path style="fill:#DCDBDD;" d="M157.543,316.05c-3.061,3.061-8.023,3.061-11.083,0l-30.293-30.293
		c-3.061-3.06-3.061-8.022,0-11.083c3.061-3.06,8.023-3.06,11.083,0l30.293,30.293C160.604,308.028,160.604,312.989,157.543,316.05z
		"/>
	<path style="fill:#DCDBDD;" d="M412.448,61.145c-3.06,3.061-8.023,3.061-11.083,0l-30.293-30.293
		c-3.061-3.061-3.061-8.022,0-11.083c3.06-3.061,8.023-3.061,11.083,0l30.293,30.293C415.509,53.123,415.509,58.085,412.448,61.145z
		"/>
	<path style="fill:#DCDBDD;" d="M389.543,38.24L134.638,293.145c-3.061,3.06-8.023,3.06-11.083,0s-3.061-8.022,0-11.083
		L378.46,27.158c3.06-3.061,8.023-3.061,11.083,0C392.604,30.217,392.604,35.18,389.543,38.24z"/>
	<path style="fill:#DCDBDD;" d="M508.709,66.456l-42.872,42.872L109.328,465.836c-8.119-5.684-15.893-11.828-23.28-18.39
		c-7.053-6.259-13.751-12.905-20.062-19.895c-3.041-3.365-5.998-6.813-8.861-10.344c-3.103-3.814-6.092-7.722-8.965-11.724
		c-0.679-0.93-1.348-1.87-1.996-2.811l42.308-42.308l314.19-314.201l42.872-42.872l42.339,42.329L508.709,66.456z"/>
</g>
<path style="fill:#C4C2C6;" d="M508.709,66.456l-42.872,42.872L109.328,465.836c-8.119-5.684-15.893-11.828-23.28-18.39
	L487.873,45.62L508.709,66.456z"/>
<g>
	<path style="fill:#EAE7E5;" d="M211.11,268.394c11.223,11.223,7.751,32.886-7.758,48.394
		c-15.508,15.508-37.172,18.982-48.394,7.758c-1.655-1.655-2.993-3.539-4.012-5.593c-5.926-11.88-1.456-29.576,11.77-42.802
		c13.225-13.225,30.921-17.695,42.802-11.77C207.571,265.402,209.455,266.738,211.11,268.394z"/>
	<path style="fill:#EAE7E5;" d="M281.058,198.447c11.223,11.223,7.744,32.893-7.758,48.394
		c-15.508,15.508-37.172,18.982-48.394,7.758c-1.655-1.655-2.993-3.539-4.012-5.593c-5.926-11.88-1.456-29.577,11.77-42.802
		c13.218-13.218,30.921-17.695,42.802-11.77C277.519,195.454,279.403,196.792,281.058,198.447z"/>
	<path style="fill:#EAE7E5;" d="M350.998,128.507c11.223,11.223,7.751,32.886-7.758,48.394
		c-15.501,15.501-37.172,18.982-48.394,7.758c-1.655-1.655-2.993-3.539-4.012-5.593c-5.926-11.88-1.448-29.584,11.77-42.802
		c13.225-13.225,30.921-17.695,42.802-11.77C347.459,125.514,349.343,126.852,350.998,128.507z"/>
	<path style="fill:#EAE7E5;" d="M420.944,58.559c11.223,11.223,7.751,32.886-7.758,48.394
		c-15.509,15.508-37.172,18.982-48.394,7.758c-1.655-1.655-2.993-3.539-4.012-5.593c-5.926-11.88-1.456-29.577,11.77-42.802
		c13.225-13.225,30.921-17.695,42.802-11.77C417.405,55.567,419.289,56.904,420.944,58.559z"/>
</g>
<g>
	<path style="fill:#FFFFFF;" d="M205.517,264.382c5.926,11.88,1.456,29.576-11.77,42.802c-13.225,13.225-30.921,17.695-42.802,11.77
		c-5.926-11.88-1.456-29.576,11.77-42.802C175.941,262.927,193.636,258.457,205.517,264.382z"/>
	<path style="fill:#FFFFFF;" d="M275.464,194.435c5.926,11.88,1.448,29.584-11.77,42.802c-13.225,13.225-30.921,17.695-42.802,11.77
		c-5.926-11.88-1.456-29.577,11.77-42.802C245.88,192.986,263.584,188.509,275.464,194.435z"/>
	<path style="fill:#FFFFFF;" d="M345.405,124.494c5.926,11.88,1.456,29.577-11.77,42.802c-13.218,13.218-30.921,17.695-42.802,11.77
		c-5.926-11.88-1.448-29.584,11.77-42.802C315.828,123.039,333.523,118.569,345.405,124.494z"/>
	<path style="fill:#FFFFFF;" d="M415.351,54.547c5.926,11.88,1.456,29.577-11.77,42.802s-30.921,17.695-42.802,11.77
		c-5.926-11.88-1.456-29.577,11.77-42.802C385.774,53.091,403.471,48.621,415.351,54.547z"/>
	<path style="fill:#FFFFFF;" d="M187.097,300.534c-2.244,2.244-5.883,2.244-8.127,0l-36.943-36.943
		c-2.244-2.244-2.244-5.884,0-8.127c2.244-2.244,5.883-2.244,8.127,0l36.943,36.943C189.342,294.651,189.342,298.29,187.097,300.534
		z"/>
	<path style="fill:#FFFFFF;" d="M257.043,230.589c-2.244,2.244-5.883,2.244-8.127,0l-36.943-36.943
		c-2.244-2.244-2.244-5.884,0-8.127c2.244-2.244,5.883-2.244,8.127,0l36.943,36.943
		C259.287,224.705,259.286,228.345,257.043,230.589z"/>
	<path style="fill:#FFFFFF;" d="M326.987,160.645c-2.244,2.244-5.883,2.244-8.127,0l-36.943-36.943
		c-2.244-2.244-2.244-5.884,0-8.127c2.244-2.244,5.883-2.244,8.127,0l36.943,36.943C329.232,154.761,329.231,158.4,326.987,160.645z
		"/>
	<path style="fill:#FFFFFF;" d="M396.932,90.699c-2.244,2.244-5.883,2.244-8.127,0l-36.943-36.943c-2.244-2.244-2.244-5.884,0-8.127
		c2.244-2.244,5.883-2.244,8.127,0l36.943,36.943C399.176,84.816,399.176,88.456,396.932,90.699z"/>
</g>
<path style="fill:#EAE7E5;" d="M100.833,392.704l-34.847,34.847c-3.041-3.365-5.998-6.813-8.861-10.344
	c-3.103-3.814-6.092-7.722-8.965-11.724c-0.679-0.93-1.348-1.87-1.996-2.811c-1.996-2.832-3.918-5.705-5.778-8.62l30.898-30.898
	c4.65-4.66,11.619-5.59,17.189-2.79c1.4,0.7,2.706,1.63,3.866,2.79l8.495,8.495C106.653,377.459,106.653,386.894,100.833,392.704z"
	/>
<path style="fill:#353434;" d="M91.23,383.101l-34.105,34.105c-3.103-3.814-6.092-7.722-8.965-11.724l32.726-32.726
	c0.512-0.512,1.337-0.512,1.849,0l8.495,8.495C91.742,381.764,91.742,382.589,91.23,383.101z"/>
<path style="fill:#C4C2C6;" d="M445.091,2.835l64.066,64.066c3.791,3.791,3.784,9.931,0,13.713
	c-3.783,3.783-9.915,3.783-13.706-0.007l-64.066-64.066c-1.891-1.891-2.837-4.374-2.83-6.849c-0.007-2.475,0.938-4.958,2.83-6.849
	C435.168-0.941,441.307-0.948,445.091,2.835z"/>
<path style="fill:#DCDBDD;" d="M445.091,2.835l45.779,45.779c3.783,3.783,3.784,9.931,0,13.713
	c-3.783,3.783-9.923,3.775-13.706-0.007l-45.779-45.779c-1.891-1.891-2.837-4.374-2.83-6.849c-0.007-2.475,0.938-4.958,2.83-6.849
	C435.168-0.941,441.307-0.948,445.091,2.835z"/>
<g>
</g>
<g>
</g>
<g>
</g>
<g>
</g>
<g>
</g>
<g>
</g>
<g>
</g>
<g>
</g>
<g>
</g>
<g>
</g>
<g>
</g>
<g>
</g>
<g>
</g>
<g>
</g>
<g>
</g>
</svg>
