<?xml version="1.0" encoding="iso-8859-1"?>
<!-- Generator: Adobe Illustrator 19.0.0, SVG Export Plug-In . SVG Version: 6.00 Build 0)  -->
<svg version="1.1" id="Capa_1" xmlns="http://www.w3.org/2000/svg" xmlns:xlink="http://www.w3.org/1999/xlink" x="0px" y="0px"
	 viewBox="0 0 512 512" style="enable-background:new 0 0 512 512;" xml:space="preserve">
<path style="fill:#56B774;" d="M512,256c0,141.385-114.615,256-256,256c-52.851,0-101.951-16.008-142.733-43.447
	c-8.568-5.778-16.771-12.048-24.566-18.777c-17.251-14.911-32.486-32.068-45.244-51.043C16.008,357.961,0,308.84,0,256
	C0,114.615,114.615,0,256,0c52.851,0,101.951,16.008,142.733,43.447c18.975,12.769,36.143,28.003,51.043,45.255
	c6.729,7.795,13.009,15.997,18.777,24.566C495.992,154.039,512,203.16,512,256z"/>
<circle style="fill:#6CD182;" cx="256" cy="192.784" r="184.947"/>
<path style="fill:#F29151;" d="M488.573,93.247L113.267,468.553c-8.568-5.778-16.771-12.048-24.566-18.777
	c-17.251-14.911-32.486-32.068-45.244-51.043L398.733,43.447l20.02-20.02L488.573,93.247z"/>
<g>
	<path style="fill:#D8783F;" d="M488.573,93.247L113.267,468.553c-8.568-5.778-16.771-12.048-24.566-18.777L466.902,71.576
		L488.573,93.247z"/>
	<path style="fill:#D8783F;" d="M438.095,10.737l63.172,63.172c3.672,3.672,5.512,8.482,5.505,13.292
		c0.007,4.81-1.833,9.62-5.505,13.292c-7.352,7.352-19.247,7.352-26.592,0.007l-63.172-63.172c-7.345-7.345-7.352-19.247,0-26.599
		C418.848,3.387,430.751,3.394,438.095,10.737z"/>
</g>
<path style="fill:#F29151;" d="M438.095,10.737l37.681,37.681c3.672,3.672,5.512,8.482,5.512,13.299
	c0,4.802-1.833,9.62-5.505,13.292c-7.352,7.352-19.254,7.345-26.599,0l-37.681-37.681c-7.345-7.345-7.352-19.247,0-26.599
	C418.848,3.387,430.751,3.394,438.095,10.737z"/>
<path style="fill:#D8783F;" d="M126.683,322.149l63.172,63.172c3.672,3.672,5.512,8.482,5.505,13.292
	c0.007,4.81-1.833,9.62-5.505,13.292c-7.352,7.352-19.247,7.352-26.592,0.007l-63.172-63.172c-7.345-7.345-7.352-19.247,0-26.599
	C107.436,314.797,119.34,314.805,126.683,322.149z"/>
<path style="fill:#F29151;" d="M126.683,322.149l37.681,37.681c3.672,3.672,5.512,8.482,5.512,13.299
	c0,4.802-1.833,9.62-5.505,13.292c-7.352,7.352-19.254,7.345-26.599,0l-37.681-37.681c-7.345-7.345-7.352-19.247,0-26.599
	C107.436,314.797,119.34,314.805,126.683,322.149z"/>
<path style="fill:#D8783F;" d="M89.198,359.636l63.172,63.172c3.672,3.672,5.512,8.482,5.505,13.292
	c0.007,4.81-1.833,9.62-5.505,13.292c-7.352,7.352-19.247,7.352-26.592,0.007l-63.172-63.172c-7.345-7.345-7.352-19.247,0-26.599
	C69.95,352.284,81.853,352.292,89.198,359.636z"/>
<path style="fill:#F29151;" d="M89.198,359.636l37.681,37.681c3.672,3.672,5.512,8.482,5.512,13.299
	c0,4.802-1.833,9.62-5.505,13.292c-7.352,7.352-19.254,7.345-26.599,0l-37.681-37.681c-7.345-7.345-7.352-19.247,0-26.599
	C69.95,352.284,81.853,352.292,89.198,359.636z"/>
<g>
	<circle style="fill:#353434;" cx="397.093" cy="114.907" r="19.591"/>
	<circle style="fill:#353434;" cx="331.891" cy="180.109" r="19.591"/>
	<circle style="fill:#353434;" cx="266.689" cy="245.311" r="19.591"/>
	<circle style="fill:#353434;" cx="201.488" cy="310.512" r="19.591"/>
</g>
<g>
</g>
<g>
</g>
<g>
</g>
<g>
</g>
<g>
</g>
<g>
</g>
<g>
</g>
<g>
</g>
<g>
</g>
<g>
</g>
<g>
</g>
<g>
</g>
<g>
</g>
<g>
</g>
<g>
</g>
</svg>
