<?xml version="1.0" encoding="iso-8859-1"?>
<!-- Generator: Adobe Illustrator 19.0.0, SVG Export Plug-In . SVG Version: 6.00 Build 0)  -->
<svg version="1.1" id="Capa_1" xmlns="http://www.w3.org/2000/svg" xmlns:xlink="http://www.w3.org/1999/xlink" x="0px" y="0px"
	 viewBox="0 0 512 512" style="enable-background:new 0 0 512 512;" xml:space="preserve">
<path style="fill:#AF653D;" d="M512,256c0,141.385-114.615,256-256,256c-43.186,0-83.874-10.689-119.557-29.571
	c-4.89-2.591-9.697-5.339-14.399-8.234c-10.198-6.269-19.916-13.239-29.1-20.846c-5.569-4.598-10.94-9.425-16.091-14.482
	c-6.301-6.165-12.278-12.654-17.91-19.446c-18.192-21.912-32.81-46.916-42.924-74.104c-4.033-10.825-7.356-22.006-9.906-33.468
	C2.111,293.878,0,275.184,0,256C0,114.615,114.615,0,256,0c55.798,0,107.426,17.847,149.483,48.159
	c31.525,22.706,57.668,52.402,76.163,86.831C501.018,171.018,512,212.229,512,256z"/>
<circle style="fill:#BC7A58;" cx="256" cy="192.784" r="184.947"/>
<path style="fill:#EDBB57;" d="M196.253,239.783c-0.961,1.254-2.351,2.006-3.814,2.194c-1.452,0.188-2.988-0.178-4.242-1.139
	l-18.16-13.97c-7.168-5.507-11.045-13.845-10.616-22.873c0.449-9.665,5.653-18.766,13.573-23.751
	c2.685-1.693,6.238-0.888,7.931,1.797c1.682,2.685,0.878,6.238-1.808,7.931c-4.712,2.968-7.941,8.683-8.213,14.566
	c-0.251,5.287,1.933,9.989,6.144,13.218c0,0,0,0,0.01,0.01l18.139,13.96C197.716,233.66,198.186,237.265,196.253,239.783z"/>
<path style="fill:#E6993A;" d="M196.253,239.783c-0.961,1.254-2.351,2.006-3.814,2.194c-1.452,0.188-2.988-0.178-4.242-1.139
	l-18.16-13.97c10.909-2.685,7.22-8.777,7.022-9.101l18.139,13.96C197.716,233.66,198.186,237.265,196.253,239.783z"/>
<path style="fill:#EDBB57;" d="M81.333,332.257c-1.459,0.19-2.989-0.176-4.248-1.142l-57.264-44.03
	c-2.516-1.935-2.987-5.543-1.053-8.059c1.935-2.516,5.542-2.987,8.059-1.053l57.264,44.03c2.516,1.935,2.987,5.543,1.053,8.059
	C84.176,331.319,82.791,332.066,81.333,332.257z"/>
<g>
	
		<rect x="118.303" y="328.317" transform="matrix(-0.7928 -0.6095 0.6095 -0.7928 16.146 676.0643)" style="fill:#E6993A;" width="9.403" height="13.94"/>
	
		<rect x="145.549" y="349.262" transform="matrix(-0.7928 -0.6095 0.6095 -0.7928 52.2249 730.2198)" style="fill:#E6993A;" width="9.403" height="13.94"/>
	
		<rect x="173.071" y="370.431" transform="matrix(-0.7928 -0.6095 0.6095 -0.7928 88.6612 784.9463)" style="fill:#E6993A;" width="9.403" height="13.94"/>
	
		<rect x="88.283" y="305.237" transform="matrix(-0.7928 -0.6095 0.6095 -0.7928 -23.6047 616.3882)" style="fill:#E6993A;" width="9.403" height="13.94"/>
</g>
<path style="fill:#EDBB57;" d="M308.632,269.437c-7.356-19.059-18.275-36.174-31.838-50.625c-0.01-0.01-0.021-0.031-0.031-0.042
	c-33.364-35.537-82.745-55.056-134.75-48.264C67.793,180.193,12.518,240.285,6.113,311.85c8.955,40.249,27.387,76.936,52.83,107.572
	c5.632,6.792,11.609,13.281,17.91,19.446c5.151,5.057,10.522,9.885,16.091,14.482c9.185,7.607,18.902,14.576,29.1,20.846
	l59.099,7.941l52.454-17.92l69.204-46.979l11.755-56.707l12.163-58.64L308.632,269.437z M179.639,458.533
	c-73.206,9.571-140.288-42.015-149.849-115.221c-9.571-73.195,42.015-140.288,115.221-149.849
	c71.137-9.289,136.505,39.173,148.908,109.087c0.355,2.027,0.669,4.075,0.94,6.134c2.152,16.488,1.202,32.674-2.393,47.95
	C280.085,409.192,236.345,451.124,179.639,458.533z"/>
<g>
	<path style="fill:#E6993A;" d="M276.762,218.77c-33.061-31.023-79.235-47.543-127.697-41.211
		c-74.219,9.686-129.494,69.778-135.899,141.343c1.839,8.286,2.602,17.209,2.853,26.415c-4.033-10.825-7.356-22.006-9.906-33.468
		c6.405-71.565,61.68-131.657,135.899-141.343C194.027,163.715,243.399,183.233,276.762,218.77z"/>
	<path style="fill:#E6993A;" d="M326.719,301.892l-12.163,58.64c-6.719-0.188-53.947,42.224-60.822,39.414
		c-10.825-4.441,33.51-36.663,33.51-60.174c0-8.228,4.826-30.032,6.676-37.22c9.038-35.171-5.005-68.702-17.126-83.738
		c13.563,14.451,24.482,31.566,31.838,50.625L326.719,301.892z"/>
</g>
<g>
	<path style="fill:#EDBB57;" d="M511.843,111.031c-0.815,12.81-14.806,19.968-30.198,23.96c-11.348,2.947-23.448,4.169-31.577,4.681
		c-7.335,0.449-14.461,2.706-20.626,6.708c-46.529,30.114-53.196,81.074-65.672,138.627c0,0.01,0,0.01,0,0.021
		c-8.422,38.881-19.487,80.771-47.292,121.292c-45.484,66.309-115.524,90.676-180.036,76.11
		c-15.517-8.213-30.083-17.972-43.499-29.079l101.48,17.565l90.425-53.969l7.481-55.913l1.369-10.303
		c32.883-127.373,9.916-190.454-6.468-216.555c-5.538-8.829-14.085-15.36-24.085-18.317c-18.432-5.454-51.785-18.672-45.537-41.556
		c6.28-22.998,51.305-33.259,101.888-33.97c18.338-0.251,37.397,0.742,55.62,2.853c10.167,1.181,20.365,2.853,30.365,4.974
		C462.817,60.228,513.4,86.298,511.843,111.031z"/>
	<path style="fill:#EDBB57;" d="M206.618,426.747c-7.586,15.036-21.379,25.213-39.884,29.424c-2.529,0.575-5.13,1.034-7.785,1.39
		c-25.37,3.312-55.85-3.751-82.098-18.693c-6.301-6.165-12.278-12.654-17.91-19.446c1.964-2.393,5.475-2.8,7.941-0.909
		c26.561,20.428,62.798,31.263,90.697,27.627c2.257-0.293,4.462-0.69,6.604-1.17c15.266-3.479,26.091-11.358,32.172-23.406
		c5.496-10.877,6.74-21.253,3.814-31.713c-6.123-21.974-29.989-40.323-47.428-53.718l-95.242-73.226
		c-2.518-1.933-2.988-5.548-1.055-8.067c1.944-2.508,5.548-2.978,8.067-1.045l95.242,73.226
		c18.714,14.378,44.345,34.074,51.482,59.737C214.925,399.914,213.368,413.372,206.618,426.747z"/>
</g>
<path style="fill:#E6993A;" d="M235.014,399.933c-10.142,1.326-20.831-0.848-31.927-6.513c-4.975-2.544-10.087-5.826-15.2-9.757
	L83.335,303.271c-18.776-14.437-28.223-29.57-28.076-44.978c0.088-10.423,4.658-20.66,13.585-30.419
	c35.292-38.575,62.882-24.454,73.106-16.593l109.988,84.57c2.516,1.935,2.987,5.543,1.053,8.059
	c-1.935,2.516-5.542,2.987-8.059,1.053l-109.988-84.57c-16.536-12.713-36.998-7.302-57.619,15.239
	c-6.953,7.601-10.51,15.26-10.573,22.764c-0.11,11.613,7.826,23.643,23.59,35.763l104.552,80.39
	c4.559,3.506,9.075,6.41,13.424,8.634c12.848,6.56,24.276,7.388,34.935,2.532c10.898-4.943,20.82-15.776,29.497-32.201
	c3.237-6.13,6.234-12.941,8.934-20.293l-17.377-13.361c-2.516-1.935-2.987-5.543-1.053-8.059c1.935-2.516,5.542-2.987,8.059-1.053
	l23.964,18.426l-1.345,3.908c-3.236,9.402-6.943,18.082-11.018,25.801c-9.897,18.731-21.641,31.279-34.904,37.296
	C243.792,398.101,239.455,399.352,235.014,399.933z"/>
<path style="fill:#5B5560;" d="M78.024,397.301c-1,0-2.008-0.318-2.863-0.975c-2.058-1.583-2.444-4.535-0.861-6.594l32.202-41.88
	c1.583-2.058,4.534-2.444,6.594-0.861c2.058,1.583,2.444,4.535,0.861,6.594l-32.202,41.88
	C80.829,396.669,79.434,397.301,78.024,397.301z"/>
<path style="fill:#EDBB57;" d="M149.327,331.385c-1.459,0.19-2.989-0.176-4.248-1.142c-2.516-1.935-2.987-5.543-1.053-8.059
	l67.443-87.713c1.483-1.929,1.12-4.704-0.809-6.187c-1.929-1.483-4.704-1.12-6.187,0.809l-67.443,87.713
	c-1.935,2.516-5.542,2.987-8.059,1.053c-2.516-1.935-2.987-5.543-1.053-8.059l67.443-87.713c5.347-6.953,15.352-8.26,22.305-2.914
	c6.953,5.347,8.26,15.353,2.914,22.305l-67.443,87.713C152.172,330.448,150.786,331.195,149.327,331.385z"/>
<g>
	<path style="fill:#E6993A;" d="M131.673,313.552l67.443-87.713c5.235-6.808,14.928-8.186,21.857-3.224
		c-0.9-1.278-2.003-2.442-3.306-3.444c-6.953-5.346-16.959-4.039-22.305,2.914l-67.443,87.713c-1.935,2.516-1.463,6.124,1.053,8.059
		c0.549,0.422,1.155,0.708,1.778,0.905C130.215,317.039,130.489,315.092,131.673,313.552z"/>
	<path style="fill:#E6993A;" d="M147.78,325.937l67.443-87.713c1.483-1.929,1.12-4.704-0.809-6.187
		c-0.626-0.482-1.344-0.748-2.075-0.851c0.154,1.127-0.123,2.313-0.869,3.284l-67.443,87.713c-1.935,2.516-1.463,6.124,1.053,8.059
		c0.549,0.422,1.155,0.708,1.778,0.906C146.322,329.424,146.596,327.477,147.78,325.937z"/>
</g>
<path style="fill:#EDBB57;" d="M177.149,352.777c-1.459,0.19-2.989-0.176-4.248-1.142c-2.516-1.935-2.987-5.543-1.053-8.059
	l67.443-87.713c1.483-1.929,1.12-4.704-0.809-6.187c-1.929-1.483-4.704-1.12-6.187,0.809l-67.443,87.713
	c-1.935,2.516-5.542,2.987-8.059,1.053c-2.516-1.935-2.987-5.543-1.053-8.059l67.443-87.713c5.347-6.953,15.352-8.26,22.305-2.914
	c6.953,5.347,8.26,15.353,2.914,22.305l-67.443,87.713C179.993,351.84,178.608,352.587,177.149,352.777z"/>
<g>
	<path style="fill:#E6993A;" d="M159.494,334.944l67.443-87.713c5.235-6.808,14.928-8.186,21.857-3.224
		c-0.9-1.278-2.003-2.442-3.306-3.444c-6.953-5.346-16.959-4.039-22.305,2.914l-67.443,87.713c-1.935,2.516-1.463,6.124,1.053,8.059
		c0.549,0.422,1.155,0.708,1.778,0.905C158.038,338.431,158.31,336.484,159.494,334.944z"/>
	<path style="fill:#E6993A;" d="M175.602,347.329l67.443-87.713c1.483-1.929,1.12-4.704-0.809-6.187
		c-0.626-0.482-1.344-0.748-2.075-0.851c0.154,1.127-0.123,2.313-0.869,3.284l-67.443,87.713c-1.935,2.516-1.463,6.124,1.053,8.059
		c0.549,0.422,1.155,0.708,1.778,0.906C174.145,350.816,174.419,348.869,175.602,347.329z"/>
	<path style="fill:#E6993A;" d="M190.66,335.206c-1.459,0.19-2.989-0.176-4.248-1.142c-2.516-1.935-2.987-5.543-1.053-8.059
		l18.132-23.581c0.716-0.93,1.026-2.087,0.872-3.255c-0.153-1.168-0.749-2.207-1.68-2.922c-0.941-0.724-2.098-1.034-3.266-0.882
		c-1.168,0.153-2.207,0.749-2.922,1.68l-18.132,23.58c-1.935,2.516-5.542,2.987-8.059,1.053c-2.516-1.935-2.987-5.543-1.053-8.059
		l18.132-23.581c2.587-3.364,6.332-5.52,10.545-6.071c4.213-0.551,8.386,0.572,11.751,3.158c3.375,2.596,5.532,6.34,6.082,10.553
		c0.551,4.213-0.572,8.386-3.158,11.751l-18.132,23.581C193.505,334.268,192.119,335.015,190.66,335.206z"/>
</g>
<path style="fill:#EDBB57;" d="M263.882,400.099c-3.427,0.448-6.848,0.409-10.148-0.154c-7.065-1.203-17.076-5.342-24.659-18.226
	c-10.806-18.364,14.219-52.003,31.264-65.674c1.686-1.352,2.64-3.365,2.618-5.52c-0.022-2.146-1.011-4.128-2.715-5.438
	c-3.042-2.34-7.421-1.768-9.76,1.275l-50.308,65.427c-1.935,2.516-5.543,2.987-8.059,1.053c-2.516-1.935-2.987-5.543-1.053-8.059
	l50.309-65.427c6.203-8.067,17.811-9.583,25.878-3.381c4.518,3.474,7.143,8.734,7.201,14.432c0.059,5.707-2.463,11.03-6.92,14.605
	c-7.951,6.376-16.87,16.95-22.722,26.937c-6.222,10.617-8.4,19.567-5.827,23.941c4.289,7.289,9.901,11.57,16.682,12.725
	c7.327,1.247,35.218-13.481,41.951-19.171c2.424-2.049,12.347,10.975,14.396,13.399c2.049,2.424-24.054,5.408-26.477,7.456
	C279.129,395.71,271.49,399.105,263.882,400.099z"/>
<path style="fill:#E6993A;" d="M270.911,299.722c-8.046-5.904-19.414-4.305-25.537,3.647l-50.301,65.421
	c-1.139,1.484-1.442,3.354-0.972,5.036c-0.7-0.188-1.379-0.512-1.985-0.982c-2.518-1.933-2.988-5.538-1.055-8.056l50.312-65.431
	c6.207-8.067,17.816-9.582,25.882-3.375C268.664,297.068,269.887,298.321,270.911,299.722z"/>
<g>
	<circle style="fill:#F4D984;" cx="110.226" cy="350.72" r="13.061"/>
	<circle style="fill:#F4D984;" cx="80.792" cy="328.077" r="13.061"/>
	<circle style="fill:#F4D984;" cx="138.282" cy="372.287" r="13.061"/>
	<circle style="fill:#F4D984;" cx="164.624" cy="392.547" r="13.061"/>
</g>
<g>
	<path style="fill:#EDBB57;" d="M78.637,397.261c-1.193,0.156-2.446-0.143-3.475-0.935c-2.058-1.583-2.444-4.535-0.861-6.594
		l32.202-41.879c1.583-2.058,4.535-2.444,6.594-0.861c2.058,1.583,2.444,4.535,0.861,6.594l-32.202,41.88
		C80.964,396.494,79.83,397.105,78.637,397.261z"/>
	<path style="fill:#EDBB57;" d="M106.688,418.83c-1.193,0.156-2.446-0.143-3.475-0.935c-2.058-1.583-2.444-4.535-0.861-6.594
		l32.202-41.88c1.583-2.058,4.535-2.444,6.594-0.861c2.058,1.583,2.444,4.535,0.861,6.594l-32.202,41.88
		C109.015,418.063,107.882,418.674,106.688,418.83z"/>
	<path style="fill:#EDBB57;" d="M133.034,439.088c-1.193,0.156-2.446-0.143-3.475-0.935c-2.058-1.583-2.444-4.535-0.861-6.594
		l32.202-41.88c1.583-2.058,4.535-2.444,6.594-0.861c2.058,1.583,2.444,4.535,0.861,6.594l-32.202,41.88
		C135.361,438.321,134.228,438.931,133.034,439.088z"/>
	<path style="fill:#EDBB57;" d="M261.704,366.56c-17.82,2.328-36.14-2.392-50.773-13.643l-72.068-55.413
		c-3.081-2.37-7.517-1.79-9.887,1.292l-5.71,7.427c-1.935,2.516-5.542,2.987-8.059,1.053c-2.516-1.935-2.987-5.543-1.053-8.059
		l5.71-7.427c6.233-8.106,17.898-9.631,26.004-3.397l72.068,55.413c16.462,12.658,38.536,15.387,57.609,7.123
		c2.912-1.261,6.296,0.075,7.558,2.988c1.262,2.912-0.075,6.296-2.988,7.558C274.163,364.053,267.964,365.741,261.704,366.56z"/>
</g>
<g>
	<path style="fill:#E6993A;" d="M283.998,99.874c25.995,19.987,66.881,69.431,8.332,261.154l1.374-10.295
		c32.876-127.376,9.914-190.459-6.468-216.559c-5.537-8.824-14.094-15.357-24.09-18.318c-18.427-5.453-51.788-18.672-45.536-41.556
		c6.28-22.992,51.306-33.258,101.889-33.965C268.962,41.247,257.348,79.383,283.998,99.874z"/>
	<path style="fill:#E6993A;" d="M450.066,139.667c-7.328,0.451-14.461,2.712-20.621,6.708
		c-46.531,30.116-53.204,81.074-65.675,138.627C363.78,146.018,413.34,134.085,450.066,139.667z"/>
</g>
<g>
</g>
<g>
</g>
<g>
</g>
<g>
</g>
<g>
</g>
<g>
</g>
<g>
</g>
<g>
</g>
<g>
</g>
<g>
</g>
<g>
</g>
<g>
</g>
<g>
</g>
<g>
</g>
<g>
</g>
</svg>
