<?xml version="1.0" encoding="iso-8859-1"?>
<!-- Generator: Adobe Illustrator 19.0.0, SVG Export Plug-In . SVG Version: 6.00 Build 0)  -->
<svg version="1.1" id="Capa_1" xmlns="http://www.w3.org/2000/svg" xmlns:xlink="http://www.w3.org/1999/xlink" x="0px" y="0px"
	 viewBox="0 0 512 512" style="enable-background:new 0 0 512 512;" xml:space="preserve">
<path style="fill:#F45367;" d="M512,256c0,33.437-6.416,65.39-18.077,94.678c-6.593,16.562-14.879,32.287-24.628,46.937
	c-2.027,3.051-4.117,6.05-6.269,9.007c-2.038,2.79-4.127,5.538-6.269,8.244c-7.158,9.038-14.921,17.575-23.218,25.569
	c-2.215,2.132-4.462,4.221-6.76,6.269c-2.372,2.132-4.796,4.221-7.252,6.269c-9.038,7.513-18.61,14.409-28.63,20.637
	C351.723,497.946,305.507,512,256,512s-95.723-14.054-134.896-38.39c-10.031-6.228-19.592-13.124-28.63-20.637
	c-2.456-2.048-4.88-4.138-7.262-6.269c-2.288-2.048-4.535-4.138-6.74-6.269c-3.668-3.521-7.22-7.158-10.658-10.888
	c-1.661-1.797-3.291-3.615-4.88-5.454c-2.497-2.842-4.911-5.747-7.262-8.694c-2.142-2.685-4.232-5.423-6.269-8.192
	c-2.152-2.936-4.242-5.925-6.269-8.955c-9.728-14.524-18.004-30.093-24.628-46.519C6.572,322.163,0,289.844,0,256
	s6.572-66.163,18.505-95.734c6.625-16.415,14.9-31.984,24.628-46.508c3.009-4.504,6.165-8.903,9.446-13.197
	c5.507-7.189,11.379-14.075,17.596-20.637C116.83,30.699,182.826,0,256,0s139.17,30.699,185.825,79.924
	c6.217,6.562,12.089,13.448,17.596,20.637c3.438,4.493,6.74,9.101,9.874,13.824c9.749,14.649,18.035,30.365,24.628,46.937
	C505.584,190.61,512,222.563,512,256z"/>
<circle style="fill:#FC7385;" cx="256" cy="192.784" r="184.947"/>
<path style="fill:#DCDBDD;" d="M308.546,26.183H202.89c-7.576,0-13.716,6.141-13.716,13.716v9.97v5.747v25.875h11.494V63.028
	c0-4.093,3.319-7.411,7.411-7.411h95.278c4.093,0,7.411,3.319,7.411,7.411v18.463h11.494V55.617V49.87v-9.97
	C322.262,32.324,316.121,26.183,308.546,26.183z"/>
<path style="fill:#353434;" d="M493.923,102.013v248.665c-20.375,51.169-56.79,94.218-103.027,122.932H121.104
	C75.18,445.095,38.964,402.442,18.505,351.734v-249.72c0-12.194,9.895-22.089,22.089-22.089h431.24
	C484.039,79.924,493.923,89.819,493.923,102.013z"/>
<path style="fill:#5B5560;" d="M463.026,169.629v236.993c-2.038,2.79-4.127,5.538-6.269,8.244
	c-7.158,9.038-14.921,17.575-23.218,25.569c-2.215,2.132-4.462,4.221-6.76,6.269H85.211c-2.288-2.048-4.535-4.138-6.74-6.269
	c-8.14-7.826-15.757-16.196-22.8-25.036c-2.142-2.685-4.232-5.423-6.269-8.192V169.629H463.026z"/>
<path style="fill:#DCDBDD;" d="M300.147,138.231c0,6.928-5.622,12.549-12.549,12.549s-12.539-5.622-12.539-12.549
	c0-5.465,3.49-10.115,8.359-11.828c1.306-0.47,2.717-0.721,4.18-0.721s2.873,0.251,4.18,0.721
	C296.657,128.116,300.147,132.766,300.147,138.231z"/>
<path style="fill:#353434;" d="M291.777,126.402v11.828c0,2.309-1.87,4.18-4.18,4.18c-2.309,0-4.18-1.87-4.18-4.18v-11.828
	c1.306-0.47,2.717-0.721,4.18-0.721C289.061,125.681,290.471,125.932,291.777,126.402z"/>
<path style="fill:#DCDBDD;" d="M202.237,138.231c0,6.928-5.622,12.549-12.549,12.549s-12.539-5.622-12.539-12.549
	c0-5.465,3.49-10.115,8.359-11.828c1.306-0.47,2.717-0.721,4.18-0.721c1.463,0,2.873,0.251,4.18,0.721
	C198.747,128.116,202.237,132.766,202.237,138.231z"/>
<path style="fill:#353434;" d="M193.867,126.402v11.828c0,2.309-1.87,4.18-4.18,4.18s-4.18-1.87-4.18-4.18v-11.828
	c1.306-0.47,2.717-0.721,4.18-0.721C191.15,125.681,192.561,125.932,193.867,126.402z"/>
<path style="fill:#DCDBDD;" d="M153.281,138.231c0,6.928-5.622,12.549-12.549,12.549s-12.539-5.622-12.539-12.549
	c0-5.465,3.49-10.115,8.359-11.828c1.306-0.47,2.717-0.721,4.18-0.721c1.463,0,2.873,0.251,4.18,0.721
	C149.791,128.116,153.281,132.766,153.281,138.231z"/>
<path style="fill:#353434;" d="M144.912,126.402v11.828c0,2.309-1.87,4.18-4.18,4.18s-4.18-1.87-4.18-4.18v-11.828
	c1.306-0.47,2.717-0.721,4.18-0.721C142.195,125.681,143.606,125.932,144.912,126.402z"/>
<path style="fill:#DCDBDD;" d="M104.326,138.231c0,6.928-5.622,12.549-12.549,12.549s-12.539-5.622-12.539-12.549
	c0-5.465,3.49-10.115,8.359-11.828c1.306-0.47,2.717-0.721,4.18-0.721s2.873,0.251,4.18,0.721
	C100.836,128.116,104.326,132.766,104.326,138.231z"/>
<path style="fill:#353434;" d="M95.956,126.402v11.828c0,2.309-1.87,4.18-4.18,4.18c-2.309,0-4.18-1.87-4.18-4.18v-11.828
	c1.306-0.47,2.717-0.721,4.18-0.721C93.24,125.681,94.65,125.932,95.956,126.402z"/>
<path style="fill:#DCDBDD;" d="M251.191,138.231c0,6.928-5.622,12.549-12.549,12.549c-6.928,0-12.539-5.622-12.539-12.549
	c0-5.465,3.49-10.115,8.359-11.828c1.306-0.47,2.717-0.721,4.18-0.721c1.463,0,2.873,0.251,4.18,0.721
	C247.701,128.116,251.191,132.766,251.191,138.231z"/>
<path style="fill:#353434;" d="M242.822,126.402v11.828c0,2.309-1.87,4.18-4.18,4.18c-2.309,0-4.18-1.87-4.18-4.18v-11.828
	c1.306-0.47,2.717-0.721,4.18-0.721C240.106,125.681,241.516,125.932,242.822,126.402z"/>
<g>
	<path style="fill:#DCDBDD;" d="M438.856,150.971h-21.479c-1.89,0-3.423-1.533-3.423-3.423v-18.637c0-1.89,1.533-3.423,3.423-3.423
		h21.479c1.89,0,3.423,1.533,3.423,3.423v18.637C442.278,149.438,440.746,150.971,438.856,150.971z"/>
	<path style="fill:#DCDBDD;" d="M382.144,150.971h-21.479c-1.89,0-3.423-1.533-3.423-3.423v-18.637c0-1.89,1.533-3.423,3.423-3.423
		h21.479c1.89,0,3.423,1.533,3.423,3.423v18.637C385.567,149.438,384.034,150.971,382.144,150.971z"/>
</g>
<g>
	
		<rect x="82.741" y="154.29" transform="matrix(-0.707 -0.7072 0.7072 -0.707 1.3463 413.8354)" style="fill:#353434;" width="7.314" height="104.698"/>
	
		<rect x="107.647" y="143.985" transform="matrix(-0.707 -0.7072 0.7072 -0.707 26.257 473.9406)" style="fill:#353434;" width="7.314" height="175.092"/>
	
		<rect x="132.528" y="133.667" transform="matrix(-0.707 -0.7072 0.7072 -0.707 51.1343 534.0045)" style="fill:#353434;" width="7.314" height="245.486"/>
	
		<rect x="157.429" y="123.361" transform="matrix(-0.7071 -0.7071 0.7071 -0.7071 76.0763 594.124)" style="fill:#353434;" width="7.313" height="315.891"/>
	<path style="fill:#353434;" d="M325.141,172.21L67.814,429.547c-1.661-1.797-3.291-3.615-4.88-5.454l257.045-257.055
		L325.141,172.21z"/>
	
		<rect x="230.129" y="112.235" transform="matrix(-0.707 -0.7072 0.7072 -0.707 181.1431 691.3611)" style="fill:#353434;" width="7.314" height="391.843"/>
	
		<rect x="279.899" y="112.239" transform="matrix(-0.707 -0.7072 0.7072 -0.707 266.0987 726.5642)" style="fill:#353434;" width="7.314" height="391.843"/>
	
		<rect x="325.283" y="122.954" transform="matrix(-0.7071 -0.7071 0.7071 -0.7071 340.4956 766.2301)" style="fill:#353434;" width="7.313" height="379.284"/>
	
		<rect x="350.148" y="183.062" transform="matrix(-0.707 -0.7072 0.7072 -0.707 365.2639 826.3306)" style="fill:#353434;" width="7.314" height="308.879"/>
	
		<rect x="375.036" y="243.141" transform="matrix(-0.707 -0.7072 0.7072 -0.707 390.1516 886.4052)" style="fill:#353434;" width="7.314" height="238.485"/>
	
		<rect x="399.909" y="303.22" transform="matrix(-0.707 -0.7072 0.7072 -0.707 415.014 946.4693)" style="fill:#353434;" width="7.314" height="168.091"/>
	
		<rect x="424.808" y="363.324" transform="matrix(-0.707 -0.7072 0.7072 -0.707 439.9091 1006.5765)" style="fill:#353434;" width="7.314" height="97.676"/>
</g>
<path style="fill:#DCDBDD;" d="M463.026,100.561H49.403c-3.459,0-6.269,2.811-6.269,6.269v291.422
	c3.939,5.893,8.129,11.619,12.539,17.147v-225.05c0-7.983,6.478-14.451,14.461-14.451h372.172c7.983,0,14.451,6.468,14.451,14.451
	v224.517c4.409-5.569,8.589-11.316,12.539-17.251V106.83C469.295,103.372,466.495,100.561,463.026,100.561z M327.387,152.66
	c0,5.914-4.786,10.7-10.689,10.7H66.361c-5.904,0-10.689-4.786-10.689-10.7V123.8c0-5.914,4.786-10.7,10.689-10.7h250.337
	c5.904,0,10.689,4.786,10.689,10.7V152.66z M456.756,151.855c0,6.353-5.151,11.504-11.504,11.504h-93.821
	c-6.353,0-11.504-5.151-11.504-11.504v-27.251c0-6.353,5.151-11.504,11.504-11.504h93.821c6.353,0,11.504,5.151,11.504,11.504
	V151.855z M92.473,452.974h327.053c4.817-4.012,9.498-8.192,14.012-12.539H78.472C82.986,444.792,87.656,448.972,92.473,452.974z"/>
<g>
</g>
<g>
</g>
<g>
</g>
<g>
</g>
<g>
</g>
<g>
</g>
<g>
</g>
<g>
</g>
<g>
</g>
<g>
</g>
<g>
</g>
<g>
</g>
<g>
</g>
<g>
</g>
<g>
</g>
</svg>
