<?xml version="1.0" encoding="iso-8859-1"?>
<!-- Generator: Adobe Illustrator 19.0.0, SVG Export Plug-In . SVG Version: 6.00 Build 0)  -->
<svg version="1.1" id="Capa_1" xmlns="http://www.w3.org/2000/svg" xmlns:xlink="http://www.w3.org/1999/xlink" x="0px" y="0px"
	 viewBox="0 0 512 512" style="enable-background:new 0 0 512 512;" xml:space="preserve">
<path style="fill:#56B774;" d="M512,256c0,60.594-21.055,116.287-56.257,160.131c-13.333,16.614-28.693,31.525-45.714,44.366
	C367.167,492.826,313.825,512,256,512c-10.877,0-21.588-0.679-32.11-1.996c-5.559-0.69-11.055-1.567-16.488-2.612
	c-44.022-8.464-84.041-28.191-116.924-56.09c-1.337-1.139-2.654-2.278-3.96-3.438c-1.661-1.463-3.291-2.947-4.901-4.441
	c-1.275-1.191-2.539-2.393-3.793-3.605c-1.578-1.536-3.145-3.093-4.692-4.671c-1.212-1.243-2.424-2.497-3.615-3.762
	c-1.515-1.609-2.999-3.239-4.483-4.88c-1.16-1.306-2.309-2.623-3.448-3.95C33.489,389.789,13.531,349.821,4.848,305.81
	c-1.076-5.454-1.975-10.971-2.696-16.541C0.731,278.382,0,267.274,0,256c0-14.66,1.233-29.038,3.605-43.018
	c3.96-23.416,11.097-45.756,20.961-66.55C65.62,59.862,153.819,0,256,0C397.385,0,512,114.615,512,256z"/>
<circle style="fill:#6CD182;" cx="256" cy="192.784" r="184.947"/>
<g>
	<path style="fill:#DDDAE0;" d="M418.635,55.356c3.231-3.231,0.488-11.21-2.742-14.44c-3.231-3.231-5.726-0.488-8.957,2.742
		c-3.231,3.231-5.973,5.726-2.742,8.957C407.426,55.844,415.405,58.585,418.635,55.356z"/>
	<path style="fill:#DDDAE0;" d="M437.646,45.489c3.231-3.231,0.488-11.21-2.742-14.44c-3.23-3.231-5.726-0.488-8.957,2.742
		s-5.973,5.726-2.742,8.957C426.435,45.977,434.415,48.718,437.646,45.489z"/>
	<path style="fill:#DDDAE0;" d="M456.656,35.622c3.231-3.231,0.488-11.21-2.742-14.44c-3.231-3.231-5.726-0.488-8.957,2.742
		s-5.973,5.726-2.742,8.957C445.445,36.11,453.425,38.852,456.656,35.622z"/>
	<path style="fill:#DDDAE0;" d="M475.666,25.755c3.231-3.231,0.488-11.21-2.742-14.44c-3.23-3.231-5.726-0.488-8.957,2.742
		c-3.231,3.231-5.973,5.726-2.742,8.957S472.435,28.985,475.666,25.755z"/>
	<path style="fill:#DDDAE0;" d="M494.676,15.888c3.231-3.231,0.488-11.21-2.742-14.44c-3.231-3.231-5.726-0.488-8.957,2.742
		s-5.973,5.726-2.742,8.957C483.466,16.377,491.446,19.118,494.676,15.888z"/>
</g>
<path style="fill:#55B1B5;" d="M331.797,338.118c-3.051,8.997-8.088,17.293-15.099,24.304c-6.708,6.708-16.959,11.431-29.038,14.284
	c-35.579,8.37-59.873,41.608-57.804,78.127c1.076,18.996-0.951,37.731-5.966,55.171c-5.559-0.69-11.055-1.567-16.488-2.612
	C105.399,487.79,24.931,407.646,4.848,305.81c-1.076-5.454-1.975-10.971-2.696-16.541c15.266-4.493,31.545-6.677,48.138-6.478
	c37.094,0.449,68.681-25.767,75.598-62.224c2.654-14.096,7.69-26.143,15.256-33.708c21.723-21.723,55.944-24.388,84.323-9.028
	c8.861,4.807,10.271,16.812,3.124,23.918c-0.042,0.042-0.094,0.094-0.136,0.136c-18.578,18.568-21.264,45.986-6.008,61.241
	c12.904,12.904,34.523,12.978,52.13,1.442l4.754,15.757c1.588,3.553,3.824,6.834,6.729,9.738c5.768,5.768,13.197,8.955,20.752,9.54
	C325.569,301.046,337.899,320.334,331.797,338.118z"/>
<path style="fill:#62D6EA;" d="M316.134,332.748c-2.33,6.875-6.071,12.894-11.139,17.962c-4.127,4.127-11.63,7.638-21.138,9.885
	c-43.416,10.209-73.08,50.239-70.531,95.169c1.024,18.139-1.055,35.652-5.925,51.628C105.399,487.79,24.931,407.646,4.848,305.81
	c14.106-4.409,29.424-6.646,45.255-6.457c44.91,0.543,83.623-31.295,92.056-75.703c2.152-11.431,5.945-20.334,10.689-25.078
	c15.527-15.527,40.5-18.317,62.736-7.21c-23.907,24.994-26.185,62.13-4.848,83.466c13.678,13.678,33.907,17.941,53.572,12.445
	c2.424,5.381,5.81,10.261,10.041,14.493c8.349,8.349,19.414,13.437,31.19,14.346c3.574,0.282,6.019,2.027,7.44,3.459
	C316.447,323.041,317.691,328.213,316.134,332.748z"/>
<path style="fill:#EAC76C;" d="M247.815,304.888l-39.735-39.735l13.987-13.307l3.79-3.599l17.917-17.045l3.783-3.606l10.506-9.989
	l7.448-7.034l3.798-3.591l17.984-16.994l3.798-3.591l21.116-19.949l3.797-3.591l21.116-19.949l3.798-3.591l21.116-19.949
	l3.798-3.591l21.116-19.949l3.798-3.591l13.617-12.864c0.746-0.717,1.396-1.515,1.921-2.408l0.007,0.007l21.412,10.98l8.245,18.693
	c-0.879,0.525-1.692,1.174-2.394,1.922l-12.871,13.61l-3.591,3.798l-19.949,21.119l-3.591,3.798l-19.957,21.109l-3.591,3.798
	l-19.956,21.109l-3.591,3.798l-19.949,21.116l-3.591,3.798l-17.002,17.976l-3.591,3.798l-16.993,17.984l-3.591,3.798l-6.14,6.494
	l-10.884,11.445l-3.599,3.79L247.815,304.888z"/>
<path style="fill:#5B5560;" d="M404.36,79.377V65.125c0-2.486,1.383-4.765,3.589-5.911l90.533-47.057
	c3.751-1.95,8.348,0.043,9.488,4.115l3.78,13.502c0.568,2.031,0.142,4.213-1.151,5.88l-53.379,68.794
	c-1.144,1.474-2.855,2.401-4.715,2.555l-18.953,1.565"/>
<g>
	<circle style="fill:#DDDAE0;" cx="425.535" cy="62.255" r="5.747"/>
	<circle style="fill:#DDDAE0;" cx="444.155" cy="51.998" r="5.747"/>
	<circle style="fill:#DDDAE0;" cx="462.785" cy="41.747" r="5.747"/>
	<circle style="fill:#DDDAE0;" cx="481.405" cy="31.493" r="5.747"/>
	<circle style="fill:#DDDAE0;" cx="500.036" cy="21.244" r="5.747"/>
</g>
<g>
	<path style="fill:#5B5560;" d="M215.987,336.896l-39.918-39.918c-3.723-3.723-3.723-9.758,0-13.481l18.439-18.439
		c3.723-3.723,9.758-3.723,13.481,0l39.918,39.918c3.723,3.723,3.723,9.758,0,13.481l-18.439,18.439
		C225.745,340.619,219.71,340.619,215.987,336.896z"/>
	<path style="fill:#5B5560;" d="M113.579,439.302l-39.918-39.918c-3.723-3.723-3.723-9.758,0-13.481L92.1,367.463
		c3.723-3.723,9.758-3.723,13.481,0l39.918,39.918c3.723,3.723,3.723,9.758,0,13.481l-18.439,18.439
		C123.339,443.025,117.302,443.025,113.579,439.302z"/>
	<path style="fill:#5B5560;" d="M173.872,379.011l-39.918-39.918c-3.723-3.723-3.723-9.758,0-13.481l2.478-2.479
		c3.723-3.723,9.758-3.723,13.481,0l39.918,39.918c3.723,3.723,3.723,9.758,0,13.481l-2.479,2.478
		C183.63,382.734,177.595,382.734,173.872,379.011z"/>
	<polygon style="fill:#5B5560;" points="417.094,125.974 386.949,95.829 390.747,92.237 420.685,122.176 	"/>
	<polygon style="fill:#5B5560;" points="393.555,150.888 362.035,119.368 365.832,115.778 397.145,147.09 	"/>
	<polygon style="fill:#5B5560;" points="370.007,175.795 337.121,142.909 340.918,139.317 373.598,171.998 	"/>
	<polygon style="fill:#5B5560;" points="346.46,200.702 312.206,166.448 316.004,162.858 350.05,196.904 	"/>
	<polygon style="fill:#5B5560;" points="322.919,225.615 287.293,189.989 291.09,186.397 326.511,221.818 	"/>
	<polygon style="fill:#5B5560;" points="302.328,247.39 265.511,210.573 269.309,206.982 305.919,243.592 	"/>
	<polygon style="fill:#5B5560;" points="281.743,269.171 243.774,231.201 247.556,227.595 285.334,265.374 	"/>
	<polygon style="fill:#5B5560;" points="261.122,290.901 222.066,251.845 225.857,248.247 264.721,287.111 	"/>
</g>
<g>
	<path style="fill:#FFFFFF;" d="M416.632,91.648l-343.5,343.5c-1.212-1.243-2.424-2.497-3.615-3.762L412.944,87.96L416.632,91.648z"
		/>
	<path style="fill:#FFFFFF;" d="M408.263,83.278L65.034,426.506c-1.16-1.306-2.309-2.623-3.448-3.95L404.564,79.579L408.263,83.278z
		"/>
	<path style="fill:#FFFFFF;" d="M425.012,100.028L81.617,443.423c-1.275-1.191-2.539-2.393-3.793-3.605L421.313,96.329
		L425.012,100.028z"/>
	<path style="fill:#FFFFFF;" d="M433.382,108.398L90.478,451.302c-1.337-1.139-2.654-2.278-3.96-3.438l343.165-343.165
		L433.382,108.398z"/>
</g>
<g>
</g>
<g>
</g>
<g>
</g>
<g>
</g>
<g>
</g>
<g>
</g>
<g>
</g>
<g>
</g>
<g>
</g>
<g>
</g>
<g>
</g>
<g>
</g>
<g>
</g>
<g>
</g>
<g>
</g>
</svg>
