<?xml version="1.0" encoding="iso-8859-1"?>
<!-- Generator: Adobe Illustrator 19.0.0, SVG Export Plug-In . SVG Version: 6.00 Build 0)  -->
<svg version="1.1" id="Capa_1" xmlns="http://www.w3.org/2000/svg" xmlns:xlink="http://www.w3.org/1999/xlink" x="0px" y="0px"
	 viewBox="0 0 512 512" style="enable-background:new 0 0 512 512;" xml:space="preserve">
<path style="fill:#62D6EA;" d="M512,256c0,141.385-114.615,256-256,256c-19.623,0-38.734-2.205-57.083-6.384
	c-6.74-1.536-13.375-3.333-19.905-5.402c-31.514-9.916-60.395-25.778-85.337-46.258c-4.148-3.396-8.171-6.917-12.089-10.574
	c-8.568-7.973-16.593-16.53-23.98-25.6C21.588,373.687,0,317.356,0,256C0,114.615,114.615,0,256,0
	c30.762,0,60.259,5.423,87.583,15.381C414.511,41.2,470.8,97.479,496.619,168.406C506.577,195.73,512,225.238,512,256z"/>
<circle style="fill:#82ECF7;" cx="256" cy="192.784" r="184.947"/>
<g>
	<path style="fill:#C4C2C6;" d="M108.46,345.694l-14.043,14.043l-32.569-32.569l-0.554,0.564c-0.052,0.052-0.104,0.104-0.167,0.157
		l-6.625,6.635c-1.944,1.944-4.483,2.915-7.022,2.915c-2.55,0-5.089-0.972-7.022-2.915c-3.887-3.877-3.887-10.167,0-14.043
		l29.947-29.947c3.877-3.887,10.167-3.887,14.043,0c3.824,3.824,3.877,10.01,0.136,13.897l-8.694,8.694L108.46,345.694z"/>
	<path style="fill:#C4C2C6;" d="M220.944,232.323L206.9,246.366l-32.12-32.12l-1.17,1.16l-6.792,6.792
		c-1.933,1.944-4.472,2.915-7.022,2.915c-2.539,0-5.078-0.972-7.022-2.915c-3.877-3.877-3.877-10.167,0-14.043l6.75-6.75
		c0.01-0.01,0.031-0.031,0.042-0.042l23.165-23.155c3.877-3.877,10.167-3.887,14.043,0c3.877,3.877,3.877,10.167,0,14.043
		l-7.952,7.952L220.944,232.323z"/>
	<path style="fill:#C4C2C6;" d="M163.903,287.608l-14.043,14.043l-31.242-31.242l-1.17,1.16l-6.792,6.792
		c-1.933,1.943-4.472,2.915-7.022,2.915c-2.539,0-5.078-0.972-7.022-2.915c-3.877-3.877-3.877-10.167,0-14.043l6.437-6.426
		c0.115-0.125,0.23-0.24,0.355-0.366l23.165-23.155l0.366-0.355c3.897-3.532,9.927-3.406,13.678,0.355
		c3.877,3.877,3.877,10.167,0,14.043l-7.952,7.952L163.903,287.608z"/>
</g>
<g>
	<path style="fill:#DDDAE0;" d="M108.46,345.694l-7.252,7.252l-32.569-32.569l-6.792,6.792l-0.554,0.564
		c-0.052,0.052-0.104,0.104-0.167,0.157c-1.923,1.839-4.389,2.759-6.855,2.759c-2.55,0-5.089-0.972-7.022-2.915
		c-3.887-3.877-3.887-10.167,0-14.043l23.155-23.155c3.877-3.887,10.167-3.887,14.043,0c3.824,3.824,3.877,10.01,0.136,13.897
		l-8.694,8.694L108.46,345.694z"/>
	<path style="fill:#DDDAE0;" d="M220.944,232.323l-7.252,7.252l-32.12-32.12l-6.792,6.792l-1.17,1.16
		c-1.933,1.944-4.472,2.915-7.022,2.915c-2.539,0-5.078-0.972-7.022-2.915c-3.866-3.866-3.877-10.125-0.042-14.002
		c0.01-0.01,0.031-0.031,0.042-0.042l23.165-23.155c3.877-3.877,10.167-3.887,14.043,0c3.877,3.877,3.877,10.167,0,14.043
		l-7.952,7.952L220.944,232.323z"/>
	<path style="fill:#DDDAE0;" d="M163.903,287.608l-7.252,7.252l-31.242-31.242l-6.792,6.792l-1.17,1.16
		c-1.933,1.943-4.472,2.915-7.022,2.915c-2.539,0-5.078-0.972-7.022-2.915c-3.751-3.751-3.877-9.78-0.355-13.678
		c0.115-0.125,0.23-0.24,0.355-0.366l23.165-23.155l0.366-0.355c3.897-3.532,9.927-3.406,13.678,0.355
		c3.877,3.877,3.877,10.167,0,14.043l-7.952,7.952L163.903,287.608z"/>
</g>
<path style="fill:#EDBB57;" d="M506.096,134.583L377.407,5.893C373.478,1.964,368.327,0,363.165,0
	c-5.151,0-10.313,1.964-14.252,5.893c-2.717,2.717-4.483,6.019-5.329,9.488c-1.588,6.604,0.188,13.845,5.329,19.007l0,0
	c2.586,2.58,4.136,6.025,4.319,9.674c0.927,18.572,0.326,77.758-40.368,118.452l-72.903,72.913v0.01l-19.153-19.153l-14.973,14.984
	l-14.973,14.973l19.143,19.143l-26.216,26.206l-19.132-19.132l-29.957,29.947l19.143,19.153l-26.206,26.196h-0.01l-19.132-19.143
	l-29.947,29.968l19.132,19.132l-40.072,40.072c7.387,9.07,15.412,17.627,23.98,25.6l29.989-26.812
	c-10.459,10.47-16.436,23.73-17.899,37.386c29.812,24.483,65.259,42.356,104.101,51.397c0.628-0.18,1.37-0.393,1.998-0.573
	l12.487-12.487l4.963,4.953c8.265,8.276,21.671,8.276,29.947,0c8.276-8.265,8.276-21.682,0-29.957l-4.942-4.942l5.277-5.298
	l20.908-20.908l4.963,4.953c8.276,8.255,21.692,8.255,29.968,0c8.265-8.276,8.265-21.692,0-29.968l-4.963-4.953l5.298-5.298
	l20.919-20.908l4.598,4.598c8.124,8.124,21.362,8.716,29.761,0.878c8.813-8.224,8.993-22.017,0.541-30.469l-4.953-4.953v-0.01
	l5.298-5.287l39.633-39.643c24.357-24.357,24.346-63.843,0-88.189c-12.184-12.184-28.139-18.265-44.105-18.275
	c-1.881,0-3.751,0.094-5.632,0.251c40.624-40.371,99.479-41.029,118.112-40.11c3.68,0.182,7.161,1.714,9.762,4.323l0,0
	c5.151,5.151,12.403,6.928,19.007,5.329c3.469-0.846,6.76-2.623,9.477-5.329C513.964,155.209,513.964,142.44,506.096,134.583z
	 M170.935,475.93c-8.411,8.401-22.1,8.401-30.521,0c-8.401-8.411-8.401-22.1,0-30.511l12.487-12.487l30.511,30.511L170.935,475.93z
	 M218.666,428.189l-5.298,5.298l-30.521-30.501h0.021l26.196-26.206l30.511,30.511L218.666,428.189z M274.84,372.025l-5.298,5.298
	l-30.521-30.511l26.216-26.196l30.501,30.501L274.84,372.025z M370.615,245.718c8.411,8.422,8.411,22.121,0,30.521l-39.622,39.633
	l-5.298,5.287v0.01l-30.511-30.511v-0.01l5.298-5.287l39.633-39.643C348.515,237.317,362.214,237.317,370.615,245.718z"/>
<g>
	<path style="fill:#E6993A;" d="M506.098,134.58l-46.806-46.806c7.865,7.865,7.865,20.629,0,28.494s-20.616,7.865-28.481,0
		l19.756,19.756l-0.003-0.001c-0.122-0.015-75.204-8.818-123.997,39.67c-37.193,34.545-69.858,76.478-69.858,76.478l9.639,9.653
		l28.838,28.839v-0.014l5.297-5.283l-23.543-23.543l-5.304-5.304l39.624-39.636c10.752-10.752,24.442-16.763,38.477-18.02
		c48.832-48.528,123.999-39.67,123.999-39.67v-0.001l3.88,3.88c7.865,7.865,20.616,7.865,28.481,0
		C513.963,155.209,513.963,142.445,506.098,134.58z"/>
	<polygon style="fill:#E6993A;" points="239.019,346.816 244.315,341.52 226.73,323.925 247.639,303.015 236.384,291.761 
		210.18,317.965 221.435,329.219 	"/>
	<polygon style="fill:#E6993A;" points="182.852,402.983 182.865,402.983 188.161,397.687 170.565,380.09 191.471,359.184 
		180.217,347.929 159.309,368.835 159.309,368.835 154.014,374.131 165.268,385.387 	"/>
	<path style="fill:#E6993A;" d="M354.544,350.009v0.01l4.953,4.953c8.276,8.276,8.276,21.671,0,29.947s-21.671,8.276-29.947,0
		l-4.953-4.953l-20.919,20.908l-5.298,5.298l0.01,0.01l0.073,0.084l4.88,4.859c1.546,1.557,2.811,3.291,3.783,5.141
		c4.2,7.993,2.936,18.098-3.783,24.827c-6.729,6.719-16.833,7.983-24.827,3.772c-1.849-0.961-3.584-2.226-5.141-3.772l-4.963-4.953
		l-20.908,20.908l-5.277,5.298l4.942,4.942c4.148,4.138,6.207,9.561,6.207,14.984c0,5.423-2.058,10.836-6.207,14.973
		c-4.138,4.138-9.55,6.207-14.973,6.207s-10.836-2.069-14.973-6.207l-4.963-4.953l-12.487,12.487
		c-0.282,0.282-0.575,0.564-0.857,0.836c-6.74-1.536-13.375-3.333-19.905-5.402c3.114-2.132,6.071-4.587,8.84-7.356l12.487-12.487
		l-16.917-16.927l-4.598-4.598c8.276,8.276,21.682,8.276,29.957,0s8.276-21.671,0-29.947l4.587,4.587l5.298-5.298l5.298,5.298
		l11.63,11.64l20.908-20.908l4.963,4.953l-21.88-21.88l-4.587-4.598c8.276,8.276,21.671,8.276,29.947,0
		c8.276-8.276,8.276-21.671,0-29.947l4.598,4.587v-0.01l5.298-5.298l5.287,5.298l11.63,11.64l20.919-20.908L291.15,346.53
		c8.276,8.276,21.671,8.276,29.947,0s8.276-21.682,0-29.957l4.598,4.598v-0.01l5.298-5.287l5.298,5.298l11.63,11.64l39.633-39.643
		c22.34-22.34,24.189-57.396,5.559-81.847c2.215,1.703,4.336,3.542,6.363,5.569c24.346,24.346,24.357,63.833,0,88.189
		l-39.633,39.643L354.544,350.009z"/>
	<polygon style="fill:#E6993A;" points="78.545,358.578 92.693,344.43 215.432,467.169 200.338,480.371 	"/>
	<polygon style="fill:#E6993A;" points="134.698,302.404 148.846,288.256 271.585,410.995 256.491,424.197 	"/>
	<polygon style="fill:#E6993A;" points="190.861,246.241 205.009,232.093 327.748,354.832 312.654,368.034 	"/>
</g>
<g>
</g>
<g>
</g>
<g>
</g>
<g>
</g>
<g>
</g>
<g>
</g>
<g>
</g>
<g>
</g>
<g>
</g>
<g>
</g>
<g>
</g>
<g>
</g>
<g>
</g>
<g>
</g>
<g>
</g>
</svg>
