<?xml version="1.0" encoding="iso-8859-1"?>
<!-- Generator: Adobe Illustrator 19.0.0, SVG Export Plug-In . SVG Version: 6.00 Build 0)  -->
<svg version="1.1" id="Capa_1" xmlns="http://www.w3.org/2000/svg" xmlns:xlink="http://www.w3.org/1999/xlink" x="0px" y="0px"
	 viewBox="0 0 511.989 511.989" style="enable-background:new 0 0 511.989 511.989;" xml:space="preserve">
<path style="fill:#AF653D;" d="M511.653,255.659c0,109.725-69.122,203.296-166.189,239.558
	c-10.925,4.091-22.206,7.451-33.789,10.018c-4.038,0.897-8.118,1.701-12.23,2.4c-2.838,0.49-5.687,0.929-8.557,1.315
	c-1.941,0.271-3.882,0.511-5.833,0.73c-9.538,1.085-19.232,1.638-29.062,1.638c-5.03,0-10.028-0.146-14.995-0.428
	c-7.712-0.449-15.34-1.242-22.853-2.358C94.898,490.249,0.336,383.999,0.336,255.659C0.336,114.462,114.798,0,255.995,0
	c27.538,0,54.043,4.351,78.899,12.407c21.997,7.127,42.679,17.155,61.619,29.636C465.875,87.769,511.653,166.366,511.653,255.659z"
	/>
<circle style="fill:#BC7A58;" cx="255.998" cy="192.527" r="184.7"/>
<g>
	<path style="fill:#DDDAE0;" d="M352.31,55.024l-52.864,452.61c-2.838,0.49-5.687,0.929-8.557,1.315l53.125-454.885L352.31,55.024z"
		/>
	
		<rect x="299.546" y="45.256" transform="matrix(-0.9932 -0.1162 0.1162 -0.9932 572.9415 591.7462)" style="fill:#DDDAE0;" width="8.348" height="467.833"/>
	
		<rect x="282.942" y="47.294" transform="matrix(-0.9932 -0.1165 0.1165 -0.9932 541.3054 563.3436)" style="fill:#DDDAE0;" width="8.348" height="437.118"/>
	
		<rect x="265.4" y="65.832" transform="matrix(-0.9931 -0.1169 0.1169 -0.9931 506.8219 551.1226)" style="fill:#DDDAE0;" width="8.348" height="389.732"/>
	
		<rect x="246.952" y="100.163" transform="matrix(-0.993 -0.1179 0.1179 -0.993 469.4374 554.6948)" style="fill:#DDDAE0;" width="8.348" height="326.598"/>
	
		<rect x="228.568" y="134.42" transform="matrix(-0.9929 -0.1191 0.1191 -0.9929 432.1259 558.1849)" style="fill:#DDDAE0;" width="8.348" height="263.521"/>
	
		<rect x="210.385" y="163.712" transform="matrix(-0.9926 -0.1211 0.1211 -0.9926 395.276 556.8423)" style="fill:#DDDAE0;" width="8.348" height="205.395"/>
	
		<rect x="193.295" y="174.314" transform="matrix(-0.9924 -0.1233 0.1233 -0.9924 361.7016 537.0698)" style="fill:#DDDAE0;" width="8.348" height="166.058"/>
	
		<rect x="176.695" y="176.52" transform="matrix(-0.9921 -0.1257 0.1257 -0.9921 329.6239 508.966)" style="fill:#DDDAE0;" width="8.348" height="135.128"/>
	
		<rect x="160.402" y="172.551" transform="matrix(-0.9917 -0.1288 0.1288 -0.9917 298.4502 474.7775)" style="fill:#DDDAE0;" width="8.348" height="110.375"/>
	
		<rect x="144.543" y="161.315" transform="matrix(-0.9913 -0.1318 0.1318 -0.9913 268.7538 433.3235)" style="fill:#DDDAE0;" width="8.348" height="92.905"/>
	
		<rect x="129.308" y="138.967" transform="matrix(-0.9911 -0.1333 0.1333 -0.9911 241.476 380.7233)" style="fill:#DDDAE0;" width="8.348" height="86.623"/>
	
		<rect x="114.16" y="114.751" transform="matrix(-0.9909 -0.1344 0.1344 -0.9909 214.6475 326.1776)" style="fill:#DDDAE0;" width="8.348" height="82.184"/>
</g>
<path style="fill:#EDBB57;" d="M386.662,0.47C385.347,0.157,384.043,0,382.76,0c-8.171,0-15.402,6.136-16.362,14.672l-9.924-1.972
	c-7.252-0.803-14.473-0.887-21.58-0.292c-1.837,0.157-3.673,0.355-5.499,0.605c-32.38,4.351-61.744,22.832-79.578,51.288
	l-55.942,89.345c-6.991,11.166-23.051,11.771-30.856,1.148l-23.479-31.921c-10.539-14.327-29.99-18.752-45.685-10.383
	c-11.99,6.386-18.981,18.731-18.981,31.608c0,4.445,0.835,8.953,2.577,13.305l140.696,351.129
	c12.345,1.837,24.992,2.786,37.848,2.786c9.83,0,19.524-0.553,29.062-1.638L101.597,156.787c-2.734-5.259-0.407-11.719,5.04-14.056
	c1.638-0.699,3.371-0.929,5.051-0.751c3.037,0.313,5.875,1.993,7.576,4.738l21.882,35.114c20.693,33.215,68.903,33.58,90.107,0.689
	l57.873-89.804c6.637-10.299,18.053-16.508,30.303-16.498c1.263,0,2.525,0.073,3.757,0.198c11.489,1.21,21.361,7.816,27.027,17.249
	c3.277,5.426,5.155,11.792,5.155,18.595v1.377l-43.692,391.596c11.583-2.567,22.863-5.927,33.789-10.018l51.048-453.173
	l2.671-23.698C400.113,10.08,394.749,2.421,386.662,0.47z"/>
<g>
	<path style="fill:#E6993A;" d="M99.364,157.402c-1.743-4.351-2.577-8.859-2.577-13.305c0-12.877,6.991-25.222,18.981-31.608
		c1.91-1.023,3.871-1.847,5.875-2.494c-8.953-2.87-18.96-2.212-27.789,2.494c-11.99,6.386-18.981,18.731-18.981,31.608
		c0,4.445,0.835,8.953,2.577,13.305l140.696,351.129c7.513,1.117,15.141,1.91,22.853,2.358L99.364,157.402z"/>
	<path style="fill:#E6993A;" d="M355.368,113.638v-1.377c0-6.804-1.878-13.169-5.155-18.595l-20.818-80.653
		c8.859-1.19,17.948-1.325,27.079-0.313l9.924,1.972L355.368,113.638z"/>
</g>
<g>
</g>
<g>
</g>
<g>
</g>
<g>
</g>
<g>
</g>
<g>
</g>
<g>
</g>
<g>
</g>
<g>
</g>
<g>
</g>
<g>
</g>
<g>
</g>
<g>
</g>
<g>
</g>
<g>
</g>
</svg>
