<?xml version="1.0" encoding="iso-8859-1"?>
<!-- Generator: Adobe Illustrator 19.0.0, SVG Export Plug-In . SVG Version: 6.00 Build 0)  -->
<svg version="1.1" id="Capa_1" xmlns="http://www.w3.org/2000/svg" xmlns:xlink="http://www.w3.org/1999/xlink" x="0px" y="0px"
	 viewBox="0 0 512 512" style="enable-background:new 0 0 512 512;" xml:space="preserve">
<path style="fill:#62D6EA;" d="M512,256c0,141.385-114.615,256-256,256c-21.943,0-43.227-2.759-63.551-7.952
	c-3.783-0.961-7.523-2.017-11.233-3.145c-38.076-11.609-72.37-31.849-100.634-58.452c-3.793-3.574-7.481-7.252-11.045-11.045
	c-26.593-28.264-46.832-62.568-58.441-100.634c-1.139-3.709-2.184-7.45-3.145-11.233C2.759,299.217,0,277.932,0,256
	C0,114.615,114.615,0,256,0S512,114.615,512,256z"/>
<circle style="fill:#82ECF7;" cx="256" cy="192.784" r="184.947"/>
<g>
	<path style="fill:#EDBB57;" d="M506.954,41.419c-1.07,0-2.139-0.409-2.956-1.225l-5.753-5.753c-1.632-1.632-1.632-4.279,0-5.911
		c1.632-1.632,4.279-1.631,5.911,0l5.753,5.753c1.632,1.632,1.632,4.279,0,5.911C509.093,41.01,508.023,41.419,506.954,41.419z"/>
	<path style="fill:#EDBB57;" d="M480.512,14.978c-1.07,0-2.139-0.409-2.956-1.224l-5.753-5.753c-1.632-1.633-1.632-4.279,0-5.911
		c1.633-1.632,4.279-1.632,5.911,0l5.753,5.753c1.632,1.633,1.632,4.279,0,5.911C482.652,14.569,481.582,14.978,480.512,14.978z"/>
	<path style="fill:#EDBB57;" d="M481.82,60.252c-1.07,0-2.139-0.409-2.956-1.224l-6.379-6.379c-1.632-1.633-1.632-4.279,0-5.911
		c1.633-1.632,4.279-1.632,5.911,0l6.379,6.379c1.632,1.633,1.632,4.279,0,5.911C483.96,59.843,482.89,60.252,481.82,60.252z"/>
	<path style="fill:#EDBB57;" d="M469.925,72.148c-1.07,0-2.139-0.409-2.956-1.224l-6.379-6.379c-1.632-1.633-1.632-4.279,0-5.911
		c1.633-1.632,4.279-1.632,5.911,0l6.379,6.379c1.632,1.633,1.632,4.279,0,5.911C472.064,71.74,470.994,72.148,469.925,72.148z"/>
	<path style="fill:#EDBB57;" d="M456.994,46.287c-1.07,0-2.139-0.409-2.956-1.224l-6.379-6.379c-1.632-1.633-1.632-4.279,0-5.911
		c1.633-1.632,4.279-1.632,5.911,0l6.379,6.379c1.632,1.633,1.632,4.279,0,5.911C459.133,45.879,458.064,46.287,456.994,46.287z"/>
	<path style="fill:#EDBB57;" d="M445.098,58.183c-1.07,0-2.139-0.409-2.956-1.224l-6.379-6.379c-1.632-1.633-1.632-4.279,0-5.911
		c1.633-1.632,4.279-1.632,5.911,0l6.379,6.379c1.632,1.633,1.632,4.279,0,5.911C447.238,57.774,446.168,58.183,445.098,58.183z"/>
</g>
<path style="fill:#9E5329;" d="M317.858,325.82l-15.611,15.611c-9.561-6.019-27.136-0.47-41.148,13.552
	c-15.235,15.224-20.48,34.68-11.713,43.447c0.178,0.178,0.366,0.345,0.564,0.522c2.675,27.909-9.916,59.204-47.783,97.071
	c-3.041,3.041-6.28,5.705-9.718,8.025c-3.783-0.961-7.523-2.017-11.233-3.145c-81.251-24.775-145.345-88.879-170.12-170.13
	c-1.139-3.709-2.184-7.45-3.145-11.233c2.309-3.427,4.984-6.677,8.014-9.707c37.867-37.878,69.162-50.469,97.081-47.783
	c0.178,0.199,0.345,0.376,0.522,0.564c8.767,8.767,28.212,3.511,43.436-11.713c14.023-14.023,19.571-31.598,13.563-41.148
	l15.611-15.6c19.989-19.989,47.783-30.114,75.943-27.658l56.863,4.974l21.556,21.546l4.963,56.874
	C347.951,278.026,337.836,305.831,317.858,325.82z"/>
<path style="fill:#AF653D;" d="M311.944,319.906l-11.672,11.672c-2.267-0.606-4.712-0.909-7.293-0.909
	c-12.142,0-26.269,6.875-37.794,18.401c-17.878,17.878-23.395,40.741-13.343,53.436c1.432,26.833-13.511,55.526-45.589,87.615
	c-4.42,4.42-9.467,8.025-15.036,10.783c-81.251-24.775-145.345-88.879-170.12-170.13c2.727-5.517,6.311-10.564,10.783-15.036
	c30.73-30.73,58.19-45.672,83.947-45.672c1.212,0,2.445,0.031,3.668,0.094c4.169,3.323,9.519,5.057,15.632,5.057
	c12.131,0,26.269-6.886,37.794-18.411c14.503-14.503,21.044-32.005,17.512-45.087l11.661-11.661
	c16.488-16.488,38.39-25.558,61.691-25.558c2.529,0,5.089,0.104,7.607,0.324l53.844,4.702l17.241,17.241l4.702,53.844
	C339.425,276.365,330.219,301.631,311.944,319.906z"/>
<path style="fill:#EDBB57;" d="M169.057,378.166c-1.605,0-3.209-0.612-4.434-1.836l-28.964-28.964c-2.448-2.448-2.448-6.418,0-8.866
	c2.448-2.448,6.419-2.448,8.866,0l28.964,28.964c2.448,2.448,2.448,6.418,0,8.866C172.266,377.554,170.662,378.166,169.057,378.166z
	"/>
<path style="fill:#5B5560;" d="M473.27,26.832L437.84,62.261l0,0c-3.281-0.328-6.54,0.802-8.912,3.093L228.425,258.056
	l25.516,25.516L446.644,83.069c2.289-2.372,3.421-5.632,3.093-8.912l0,0l35.429-35.429"/>
<path style="fill:#AF653D;" d="M511.403,18.416L493.581,0.595c-0.792-0.792-2.075-0.792-2.866,0l-25.169,25.17
	c-0.792,0.792-0.792,2.075,0,2.866l17.822,17.822c0.792,0.792,2.075,0.792,2.866,0l25.17-25.17
	C512.194,20.491,512.194,19.208,511.403,18.416z"/>
<g>
	<path style="fill:#353434;" d="M190.197,282.835c1.832-2.627,5.702-9.692-0.406-15.801c-7.671-7.671-23.491-2.077-33.399,7.83
		c-9.908,9.908-13.264,11.666-17.738,9.908c0,0,2.877,3.516-2.077,8.47c-4.954,4.954-29.564,29.564-36.915,22.213
		c-2.134-2.134-2.253-4.684-1.359-7.23c1.936,1.083,4.428,0.806,6.074-0.84c1.985-1.985,1.985-5.206,0-7.191
		c-1.985-1.985-5.206-1.985-7.191,0c-0.323,0.323-0.588,0.681-0.806,1.059c-1.832,2.628-5.702,9.692,0.406,15.801
		c7.671,7.671,23.491,2.077,33.399-7.83s13.264-11.666,17.738-9.908c0,0-2.877-3.516,2.077-8.47
		c4.954-4.954,29.564-29.564,36.915-22.212c2.134,2.134,2.253,4.684,1.359,7.23c-1.936-1.083-4.428-0.806-6.074,0.84
		c-1.985,1.986-1.986,5.206,0,7.191c1.985,1.985,5.206,1.985,7.191,0C189.714,283.571,189.978,283.213,190.197,282.835z"/>
	<path style="fill:#353434;" d="M229.161,321.799c2.627-1.832,9.692-5.702,15.801,0.406c7.671,7.671,2.077,23.491-7.83,33.399
		c-9.908,9.908-11.666,13.264-9.908,17.738c0,0-3.516-2.877-8.47,2.077s-29.564,29.564-22.213,36.915
		c2.134,2.134,4.684,2.253,7.23,1.359c-1.083-1.936-0.806-4.428,0.84-6.074c1.985-1.986,5.206-1.985,7.191,0
		c1.985,1.985,1.985,5.206,0,7.191c-0.323,0.323-0.681,0.588-1.058,0.806c-2.628,1.832-9.692,5.702-15.801-0.406
		c-7.671-7.671-2.077-23.491,7.83-33.399c9.908-9.908,11.666-13.264,9.908-17.738c0,0,3.516,2.877,8.47-2.077
		s29.564-29.564,22.212-36.915c-2.134-2.134-4.684-2.253-7.23-1.359c1.083,1.936,0.806,4.428-0.84,6.074
		c-1.985,1.985-5.206,1.986-7.191,0c-1.985-1.985-1.985-5.206,0-7.191C228.425,322.282,228.782,322.018,229.161,321.799z"/>
</g>
<g>
	<polygon style="fill:#FFFFFF;" points="110.215,383.556 142.796,345.695 142.851,345.644 438.391,62.764 440.558,65.028 
		145.074,347.855 112.591,385.6 	"/>
	<polygon style="fill:#FFFFFF;" points="128.435,401.776 126.391,399.4 164.136,366.917 446.962,71.432 449.227,73.601 
		166.296,369.195 166.237,369.244 	"/>
	
		<rect x="280.033" y="1.027" transform="matrix(-0.7071 -0.7071 0.7071 -0.7071 317.808 592.4323)" style="fill:#FFFFFF;" width="3.135" height="458.737"/>
</g>
<path style="fill:#5B5560;" d="M134.019,403.498l-44.952,30.469l-8.485,8.485c-3.793-3.574-7.481-7.252-11.045-11.045l8.485-8.485
	l30.469-44.951L134.019,403.498z"/>
<g>
</g>
<g>
</g>
<g>
</g>
<g>
</g>
<g>
</g>
<g>
</g>
<g>
</g>
<g>
</g>
<g>
</g>
<g>
</g>
<g>
</g>
<g>
</g>
<g>
</g>
<g>
</g>
<g>
</g>
</svg>
