<?xml version="1.0" encoding="iso-8859-1"?>
<!-- Generator: Adobe Illustrator 19.0.0, SVG Export Plug-In . SVG Version: 6.00 Build 0)  -->
<svg version="1.1" id="Capa_1" xmlns="http://www.w3.org/2000/svg" xmlns:xlink="http://www.w3.org/1999/xlink" x="0px" y="0px"
	 viewBox="0 0 512 512" style="enable-background:new 0 0 512 512;" xml:space="preserve">
<path style="fill:#5B5560;" d="M512,256c0,89.788-46.226,168.782-116.182,214.486c-5.956,3.887-12.079,7.534-18.369,10.919
	C341.316,500.924,299.948,512,256,512c-111.146,0-205.74-70.823-241.121-169.806c-6.499-18.16-10.992-37.261-13.228-57.051
	c-0.961-8.432-1.515-17-1.63-25.663C0.01,258.32,0,257.16,0,256c0-11.985,0.825-23.782,2.424-35.328C19.634,96.005,126.6,0,256,0
	C397.385,0,512,114.615,512,256z"/>
<circle style="fill:#736F77;" cx="256" cy="192.784" r="184.947"/>
<path style="fill:#56B774;" d="M222.093,453.956l-35.882,35.882c-6.541,6.541-17.147,6.541-23.688,0L14.879,342.194
	C5.245,315.256,0,286.239,0,256c0-11.985,0.825-23.782,2.424-35.328c5.183-0.899,10.721,0.658,14.723,4.66l204.946,204.946
	C228.634,436.82,228.634,447.425,222.093,453.956z"/>
<path style="fill:#EDBB57;" d="M293.34,382.711l-35.879,35.879c-6.54,6.54-17.144,6.54-23.684,0L45.456,230.267
	c-6.54-6.54-6.54-17.144,0-23.684l35.879-35.879c6.54-6.54,17.144-6.54,23.684,0L293.34,359.027
	C299.88,365.567,299.88,376.171,293.34,382.711z"/>
<path style="fill:#F45367;" d="M364.591,311.46l-35.879,35.879c-6.54,6.54-17.144,6.54-23.684,0L132.221,174.532
	c-6.54-6.54-6.54-17.144,0-23.684L168.1,114.97c6.54-6.54,17.144-6.54,23.684,0l172.807,172.807
	C371.131,294.316,371.131,304.92,364.591,311.46z"/>
<path style="fill:#F29151;" d="M435.842,240.209l-35.879,35.879c-6.54,6.54-17.144,6.54-23.684,0L221.203,121.014
	c-6.54-6.54-6.54-17.144,0-23.684l35.879-35.879c6.54-6.54,17.144-6.54,23.684,0L435.84,216.527
	C442.382,223.066,442.382,233.669,435.842,240.209z"/>
<path style="fill:#62D6EA;" d="M507.091,168.96l-35.879,35.879c-6.54,6.54-17.144,6.54-23.684,0L312.904,70.214
	c-6.54-6.54-6.54-17.144,0-23.684l35.879-35.879c6.54-6.54,17.144-6.54,23.684,0l134.625,134.625
	C513.632,151.815,513.632,162.419,507.091,168.96z"/>
<g>
	<circle style="fill:#DDDAE0;" cx="177.215" cy="444.97" r="13.321"/>
	<path style="fill:#DDDAE0;" d="M13.751,281.506c-3.291,3.291-7.868,4.493-12.1,3.636c-0.961-8.432-1.515-17-1.63-25.663
		c4.65-1.588,10.01-0.533,13.73,3.187C18.954,267.87,18.954,276.302,13.751,281.506z"/>
	<circle style="fill:#DDDAE0;" cx="248.466" cy="373.718" r="13.321"/>
	<circle style="fill:#DDDAE0;" cx="94.386" cy="219.627" r="13.321"/>
	<circle style="fill:#DDDAE0;" cx="319.718" cy="302.467" r="13.321"/>
	<circle style="fill:#DDDAE0;" cx="180.078" cy="162.826" r="13.321"/>
	<circle style="fill:#DDDAE0;" cx="390.969" cy="231.215" r="13.321"/>
	<circle style="fill:#DDDAE0;" cx="267.954" cy="108.21" r="13.321"/>
	<circle style="fill:#DDDAE0;" cx="462.221" cy="159.963" r="13.321"/>
	<circle style="fill:#DDDAE0;" cx="361.367" cy="59.12" r="13.321"/>
	<path style="fill:#DDDAE0;" d="M395.818,470.486c-5.956,3.887-12.079,7.534-18.369,10.919l-79.59-235.144l19.79-6.698
		L395.818,470.486z"/>
	<path style="fill:#DDDAE0;" d="M347.038,204.983c6.915,20.428-0.3,42.231-16.397,54.772c-4.26,3.318-9.136,5.994-14.539,7.822
		c-25.832,8.744-53.851-5.103-62.595-30.935c-8.741-25.823,5.103-53.851,30.935-62.595c5.404-1.83,10.901-2.665,16.301-2.616
		C321.152,171.627,340.127,184.564,347.038,204.983z"/>
</g>
<path style="fill:#FFFFFF;" d="M347.038,204.983c6.915,20.428-0.3,42.231-16.397,54.772c-20.415-0.183-39.388-13.121-46.304-33.549
	c-6.911-20.418,0.303-42.22,16.406-54.776C321.152,171.627,340.127,184.564,347.038,204.983z"/>
<g>
</g>
<g>
</g>
<g>
</g>
<g>
</g>
<g>
</g>
<g>
</g>
<g>
</g>
<g>
</g>
<g>
</g>
<g>
</g>
<g>
</g>
<g>
</g>
<g>
</g>
<g>
</g>
<g>
</g>
</svg>
