<?xml version="1.0" encoding="iso-8859-1"?>
<!-- Generator: Adobe Illustrator 19.0.0, SVG Export Plug-In . SVG Version: 6.00 Build 0)  -->
<svg version="1.1" id="Capa_1" xmlns="http://www.w3.org/2000/svg" xmlns:xlink="http://www.w3.org/1999/xlink" x="0px" y="0px"
	 viewBox="0 0 512 512" style="enable-background:new 0 0 512 512;" xml:space="preserve">
<path style="fill:#F45367;" d="M512,256c0,141.385-114.615,256-256,256c-25.61,0-50.333-3.762-73.655-10.762
	c-10.658-3.187-21.023-7.064-31.044-11.567c-8.756-3.918-17.251-8.328-25.443-13.176c-42.402-25.078-76.946-62.046-99.046-106.297
	c-0.355-0.721-0.711-1.442-1.055-2.163c-7.377-15.13-13.312-31.096-17.617-47.72C2.832,299.76,0,278.215,0,256
	C0,114.615,114.615,0,256,0c22.215,0,43.76,2.832,64.303,8.14c16.624,4.305,32.601,10.23,47.741,17.617
	c0.47,0.23,0.951,0.47,1.421,0.7c44.586,22.079,81.816,56.759,107.029,99.391c4.848,8.202,9.258,16.697,13.176,25.464
	c4.504,10.021,8.38,20.386,11.567,31.044C508.238,205.678,512,230.4,512,256z"/>
<circle style="fill:#FC7385;" cx="256" cy="192.784" r="184.947"/>
<g>
	<path style="fill:#DDDAE0;" d="M371.169,22.632l-1.703,3.824L263.879,263.722L26.812,370.197
		c-7.868-15.768-14.158-32.465-18.672-49.883L320.303,8.14l0,0c4.838-4.838,12.266-5.954,18.312-2.751L371.169,22.632z"/>
	<path style="fill:#DDDAE0;" d="M506.358,177.236l-5.12,5.12L182.345,501.238c-19.968-5.977-38.902-14.336-56.487-24.743
		l350.636-350.647l2.853-2.853l27.011,27.011C513.881,157.518,513.881,169.712,506.358,177.236z"/>
</g>
<path style="fill:#62D6EA;" d="M498.667,142.315l-8.997,8.997L151.301,489.671c-8.756-3.918-17.251-8.328-25.443-13.176
	c-42.402-25.078-76.946-62.046-99.046-106.297c-0.355-0.721-0.711-1.442-1.055-2.163L368.044,25.757l7.032-7.032
	c7.053-7.053,18.484-7.053,25.537,0l98.053,98.053C505.72,123.831,505.72,135.262,498.667,142.315z"/>
<path style="fill:#41ADD1;" d="M61.655,377.949L376.273,63.331c6.39-6.39,16.75-6.39,23.139,0l54.645,54.645
	c6.39,6.39,6.39,16.75,0,23.139L139.438,455.733c-6.39,6.39-16.75,6.39-23.139,0l-54.645-54.645
	C55.266,394.699,55.266,384.339,61.655,377.949z"/>
<g>
	<path style="fill:#DDDAE0;" d="M397.492,114.617c-4.019-1.674-8.736-0.399-11.42,3.009c-2.511,3.188-2.722,7.724-0.582,11.155
		c4.44,7.119,15.543,5.418,17.702-2.697C404.418,121.467,401.932,116.416,397.492,114.617
		C396.894,114.367,398.08,114.855,397.492,114.617z"/>
	<path style="fill:#DDDAE0;" d="M120.051,385.857c-4.418,0.912-7.734,4.807-7.85,9.331c-0.094,3.699,1.997,7.224,5.289,8.912
		c3.726,1.909,8.388,1.194,11.356-1.773c2.917-2.917,3.669-7.475,1.865-11.177C128.809,387.241,124.327,384.98,120.051,385.857
		C119.426,385.985,120.676,385.728,120.051,385.857z"/>
</g>
<g>
</g>
<g>
</g>
<g>
</g>
<g>
</g>
<g>
</g>
<g>
</g>
<g>
</g>
<g>
</g>
<g>
</g>
<g>
</g>
<g>
</g>
<g>
</g>
<g>
</g>
<g>
</g>
<g>
</g>
</svg>
