<?xml version="1.0" encoding="iso-8859-1"?>
<!-- Generator: Adobe Illustrator 19.0.0, SVG Export Plug-In . SVG Version: 6.00 Build 0)  -->
<svg version="1.1" id="Capa_1" xmlns="http://www.w3.org/2000/svg" xmlns:xlink="http://www.w3.org/1999/xlink" x="0px" y="0px"
	 viewBox="0 0 512 512" style="enable-background:new 0 0 512 512;" xml:space="preserve">
<path style="fill:#56B774;" d="M512,256c0,141.385-114.615,256-256,256c-31.138,0-60.98-5.559-88.576-15.747
	c-4.921-1.808-9.759-3.772-14.535-5.872C89.443,462.43,39.497,409.485,15.538,344.012c-2.142-5.862-4.086-11.828-5.81-17.878
	C3.396,303.846,0,280.315,0,256C0,114.615,114.615,0,256,0S512,114.615,512,256z"/>
<circle style="fill:#6CD182;" cx="256" cy="192.784" r="184.947"/>
<rect x="329.621" y="94.139" transform="matrix(0.7071 0.7071 -0.7071 0.7071 174.0151 -221.9096)" style="fill:#353434;" width="50.51" height="9.922"/>
<path style="fill:#DCDBDD;" d="M344.028,88.246c6.693-6.693,1.909-22.328-4.784-29.021c-6.693-6.693-12.76-1.909-19.453,4.784
	s-11.477,12.76-4.784,19.453C321.7,90.155,337.336,94.938,344.028,88.246z"/>
<rect x="364.32" y="59.42" transform="matrix(0.7071 0.7071 -0.7071 0.7071 159.6281 -256.614)" style="fill:#353434;" width="50.51" height="9.922"/>
<path style="fill:#DCDBDD;" d="M378.733,53.542c6.693-6.693,1.909-22.328-4.784-29.021s-12.76-1.909-19.453,4.784
	s-11.477,12.76-4.784,19.453C356.404,55.45,372.04,60.234,378.733,53.542z"/>
<rect x="302.029" y="122.257" transform="matrix(0.7071 0.7071 -0.7071 0.7071 182.994 -189.9157)" style="fill:#353434;" width="37.433" height="7.356"/>
<path style="fill:#DCDBDD;" d="M312.7,117.893c4.96-4.96,1.415-16.547-3.545-21.507s-9.456-1.415-14.416,3.545
	c-4.96,4.96-8.505,9.456-3.545,14.416C296.153,119.307,307.74,122.853,312.7,117.893z"/>
<rect x="274.016" y="150.261" transform="matrix(0.7071 0.7071 -0.7071 0.7071 194.5905 -161.9055)" style="fill:#353434;" width="37.433" height="7.356"/>
<path style="fill:#DCDBDD;" d="M284.695,145.899c4.96-4.96,1.415-16.547-3.545-21.507c-4.96-4.96-9.456-1.415-14.416,3.545
	c-4.96,4.96-8.505,9.456-3.545,14.416C268.148,147.314,279.735,150.859,284.695,145.899z"/>
<rect x="246.003" y="178.264" transform="matrix(0.7071 0.7071 -0.7071 0.7071 206.1869 -133.8952)" style="fill:#353434;" width="37.433" height="7.356"/>
<path style="fill:#DCDBDD;" d="M256.689,173.904c4.96-4.96,1.415-16.547-3.545-21.507c-4.96-4.96-9.456-1.415-14.416,3.545
	c-4.96,4.96-8.505,9.456-3.545,14.416C240.142,175.319,251.729,178.865,256.689,173.904z"/>
<rect x="218.004" y="206.267" transform="matrix(0.7071 0.7071 -0.7071 0.7071 217.7877 -105.8955)" style="fill:#353434;" width="37.433" height="7.356"/>
<path style="fill:#DCDBDD;" d="M228.683,201.911c4.96-4.96,1.415-16.547-3.545-21.507c-4.96-4.96-9.456-1.415-14.416,3.545
	c-4.96,4.96-8.505,9.456-3.545,14.416C212.136,203.326,223.723,206.87,228.683,201.911z"/>
<rect x="190.002" y="234.281" transform="matrix(0.7071 0.7071 -0.7071 0.7071 229.3946 -77.8896)" style="fill:#353434;" width="37.433" height="7.356"/>
<g>
	<path style="fill:#DCDBDD;" d="M200.677,229.916c4.96-4.96,1.415-16.547-3.545-21.507c-4.96-4.96-9.456-1.415-14.416,3.545
		s-8.505,9.456-3.545,14.416C184.131,231.331,195.718,234.876,200.677,229.916z"/>
	<path style="fill:#DCDBDD;" d="M236.554,306.646v16.781c-11.964,11.964-20.929,26.269-26.488,41.806
		c-5.757,16.018-7.889,33.322-5.956,50.667c2.905,26.279-4.065,51.231-21.682,68.838c-4.545,4.545-9.582,8.38-15.005,11.515
		c-4.921-1.808-9.759-3.772-14.535-5.872C89.443,462.43,39.497,409.485,15.538,344.012c-2.142-5.862-4.086-11.828-5.81-17.878
		c1.996-2.633,4.18-5.141,6.562-7.523c17.617-17.607,42.559-24.576,68.848-21.682c17.335,1.923,34.638-0.209,50.657-5.966
		c15.527-5.559,29.853-14.514,41.806-26.478l18.233,1.442l40.709,3.208L236.554,306.646z"/>
</g>
<g>
	<path style="fill:#AF653D;" d="M201.571,362.182c-6.259,17.418-8.485,36.331-6.437,54.721c1.003,9.017,0.721,17.669-0.773,25.736
		c-2.278,12.288-13.093,21.138-25.579,21.138h-7.45v7.356c0.01,7.523-3.197,14.44-8.443,19.247
		C89.443,462.43,39.497,409.485,15.538,344.012c4.148-2.738,9.112-4.305,14.378-4.305h7.346v-7.45
		c-0.01-12.487,8.85-23.301,21.128-25.579c8.077-1.494,16.729-1.776,25.757-0.784c18.369,2.038,37.292-0.188,54.7-6.437
		c15.527-5.559,29.999-14.388,42.109-25.652l46.561,3.668l0.021,42.297C216.001,332.037,207.266,346.279,201.571,362.182z"/>
	<path style="fill:#AF653D;" d="M500.939,59.043l-41.162,41.162l-47.796-47.796l41.162-41.162c3.1-3.1,8.127-3.1,11.228,0
		l36.567,36.567C504.039,50.916,504.039,55.942,500.939,59.043z"/>
	<polygon style="fill:#AF653D;" points="466.036,93.948 236.559,323.425 177.604,264.486 253.028,189.061 285.997,156.077 
		336.089,106.001 378.835,63.24 397.17,44.919 408.153,33.923 	"/>
</g>
<path style="fill:#DCDBDD;" d="M210.062,365.236l-50.964-23.312l-23.305-50.957c15.527-5.559,29.85-14.521,41.811-26.482
	l8.395-8.395l58.947,58.947l-8.387,8.387C224.59,335.393,215.628,349.701,210.062,365.236z"/>
<g>
	
		<rect x="368.745" y="87.087" transform="matrix(-0.7071 -0.7071 0.7071 -0.7071 636.5793 444.8721)" style="fill:#353434;" width="83.361" height="7.019"/>
	
		<rect x="352.189" y="103.649" transform="matrix(-0.7071 -0.7071 0.7071 -0.7071 596.6047 461.4374)" style="fill:#353434;" width="83.361" height="7.019"/>
	
		<rect x="335.614" y="120.218" transform="matrix(-0.7071 -0.7071 0.7071 -0.7071 556.5946 478.0027)" style="fill:#353434;" width="83.361" height="7.019"/>
	
		<rect x="319.05" y="136.782" transform="matrix(-0.7071 -0.7071 0.7071 -0.7071 516.6053 494.568)" style="fill:#353434;" width="83.361" height="7.019"/>
	
		<rect x="302.494" y="153.344" transform="matrix(-0.7071 -0.7071 0.7071 -0.7071 476.6308 511.1332)" style="fill:#353434;" width="83.361" height="7.019"/>
	
		<rect x="285.92" y="169.913" transform="matrix(-0.7071 -0.7071 0.7071 -0.7071 436.6206 527.6985)" style="fill:#353434;" width="83.361" height="7.019"/>
	
		<rect x="269.356" y="186.478" transform="matrix(-0.7071 -0.7071 0.7071 -0.7071 396.6313 544.2638)" style="fill:#353434;" width="83.361" height="7.019"/>
	
		<rect x="252.799" y="203.039" transform="matrix(-0.7071 -0.7071 0.7071 -0.7071 356.6567 560.829)" style="fill:#353434;" width="83.361" height="7.019"/>
	
		<rect x="236.225" y="219.608" transform="matrix(-0.7071 -0.7071 0.7071 -0.7071 316.6465 577.3943)" style="fill:#353434;" width="83.361" height="7.019"/>
	
		<rect x="219.661" y="236.173" transform="matrix(-0.7071 -0.7071 0.7071 -0.7071 276.6573 593.9596)" style="fill:#353434;" width="83.361" height="7.019"/>
	
		<rect x="203.105" y="252.735" transform="matrix(-0.7071 -0.7071 0.7071 -0.7071 236.6827 610.5249)" style="fill:#353434;" width="83.361" height="7.019"/>
	
		<rect x="186.53" y="269.307" transform="matrix(-0.7071 -0.7071 0.7071 -0.7071 196.6703 627.0955)" style="fill:#353434;" width="83.361" height="7.019"/>
</g>
<g>
	<path style="fill:#DCDBDD;" d="M434.437,16.48l-3.889-3.889c-1.972-1.972-1.972-5.167,0-7.139l3.889-3.889
		c1.972-1.972,5.167-1.972,7.139,0l3.889,3.889c1.972,1.972,1.972,5.167,0,7.139l-3.889,3.889
		C439.604,18.452,436.409,18.452,434.437,16.48z"/>
	<path style="fill:#DCDBDD;" d="M418.579,32.339l-3.889-3.889c-1.972-1.972-1.972-5.167,0-7.139l3.889-3.889
		c1.972-1.972,5.167-1.972,7.139,0l3.889,3.889c1.972,1.972,1.972,5.167,0,7.139l-3.889,3.889
		C423.747,34.31,420.551,34.31,418.579,32.339z"/>
	<path style="fill:#DCDBDD;" d="M499.406,81.449l-3.889-3.889c-1.972-1.972-1.972-5.167,0-7.139l3.889-3.889
		c1.972-1.972,5.167-1.972,7.139,0l3.889,3.889c1.972,1.972,1.972,5.167,0,7.139l-3.889,3.889
		C504.574,83.42,501.378,83.42,499.406,81.449z"/>
	<path style="fill:#DCDBDD;" d="M483.548,97.307l-3.889-3.889c-1.972-1.972-1.972-5.167,0-7.139l3.889-3.889
		c1.972-1.972,5.167-1.972,7.139,0l3.889,3.889c1.972,1.972,1.972,5.167,0,7.139l-3.889,3.889
		C488.715,99.279,485.519,99.279,483.548,97.307z"/>
</g>
<g>
	<circle style="fill:#353434;" cx="459.703" cy="26.196" r="7.687"/>
	<circle style="fill:#353434;" cx="483.338" cy="49.828" r="7.687"/>
	<circle style="fill:#353434;" cx="443.632" cy="42.265" r="7.687"/>
	<circle style="fill:#353434;" cx="467.268" cy="65.902" r="7.687"/>
</g>
<g>
	<path style="fill:#DCDBDD;" d="M182.928,415.889l-13.5-13.5c-4.176-4.176-10.948-4.176-15.126,0
		c-4.176,4.176-4.176,10.948,0,15.126c4.176,4.178,10.948,4.176,15.126,0c0.448-0.448,0.839-0.932,1.191-1.435l7.654,5.358
		c1.445,1.011,3.407,0.84,4.655-0.408C184.348,419.61,184.348,417.308,182.928,415.889z"/>
	<path style="fill:#DCDBDD;" d="M85.148,318.108l13.5,13.5c4.176,4.176,4.176,10.948,0,15.126c-4.176,4.178-10.948,4.176-15.126,0
		c-4.177-4.176-4.176-10.948,0-15.126c0.448-0.448,0.932-0.839,1.435-1.191l-5.358-7.654c-1.011-1.445-0.84-3.407,0.408-4.655
		C81.427,316.689,83.728,316.689,85.148,318.108z"/>
</g>
<g>
	<path style="fill:#FFFFFF;" d="M179.529,321.5l3.9,17.37c23.397-23.397,22.688-43.959,22.688-43.959s-20.561-0.709-43.959,22.688
		L179.529,321.5z"/>
	
		<rect x="239.481" y="-31.338" transform="matrix(-0.7071 -0.7072 0.7072 -0.7071 263.7075 532.2327)" style="fill:#FFFFFF;" width="5.225" height="485.667"/>
	
		<rect x="248.886" y="-21.65" transform="matrix(-0.7071 -0.7072 0.7072 -0.7071 272.9966 555.2166)" style="fill:#FFFFFF;" width="5.225" height="485.427"/>
	
		<rect x="258.299" y="-11.944" transform="matrix(-0.7071 -0.7072 0.7072 -0.7071 282.2856 578.2361)" style="fill:#FFFFFF;" width="5.225" height="485.186"/>
	
		<rect x="267.718" y="-2.223" transform="matrix(-0.7071 -0.7072 0.7072 -0.7071 291.5818 601.2674)" style="fill:#FFFFFF;" width="5.225" height="484.925"/>
	
		<rect x="277.123" y="7.475" transform="matrix(-0.7071 -0.7072 0.7072 -0.7071 300.8635 624.2691)" style="fill:#FFFFFF;" width="5.225" height="484.685"/>
	
		<rect x="286.528" y="17.174" transform="matrix(-0.7071 -0.7072 0.7072 -0.7071 310.1452 647.2708)" style="fill:#FFFFFF;" width="5.225" height="484.444"/>
</g>
<g>
	<path style="fill:#DCDBDD;" d="M114.621,440.225l-53.81-53.81c-1.587-1.587-1.587-4.16,0-5.747l16.941-16.941
		c1.587-1.587,4.16-1.587,5.747,0l53.81,53.81c1.587,1.587,1.587,4.16,0,5.747l-16.941,16.941
		C118.781,441.812,116.208,441.812,114.621,440.225z"/>
	<path style="fill:#DCDBDD;" d="M467.107,92.877l-11.365,11.365l-8.735-8.735c1.567-1.567,2.347-3.623,2.347-5.679
		c-0.007-2.049-0.787-4.105-2.347-5.664l-30.14-30.14c-3.126-3.126-8.203-3.126-11.337,0.007l-8.742-8.742l11.365-11.365
		L467.107,92.877z"/>
</g>
<g>
</g>
<g>
</g>
<g>
</g>
<g>
</g>
<g>
</g>
<g>
</g>
<g>
</g>
<g>
</g>
<g>
</g>
<g>
</g>
<g>
</g>
<g>
</g>
<g>
</g>
<g>
</g>
<g>
</g>
</svg>
