<?xml version="1.0" encoding="iso-8859-1"?>
<!-- Generator: Adobe Illustrator 19.0.0, SVG Export Plug-In . SVG Version: 6.00 Build 0)  -->
<svg version="1.1" id="Layer_1" xmlns="http://www.w3.org/2000/svg" xmlns:xlink="http://www.w3.org/1999/xlink" x="0px" y="0px"
	 viewBox="0 0 496.2 496.2" style="enable-background:new 0 0 496.2 496.2;" xml:space="preserve">
<path style="fill:#32BEA6;" d="M496.2,248.1C496.2,111.1,385.1,0,248.1,0S0,111.1,0,248.1s111.1,248.1,248.1,248.1
	S496.2,385.1,496.2,248.1z"/>
<polygon style="fill:#916B33;" points="336.6,243.7 174.2,368.7 156.2,368.7 318.9,244.3 "/>
<polygon style="fill:#B58A45;" points="159.7,243.7 322.1,368.7 340.2,368.7 177.4,244.3 "/>
<polygon style="fill:#D9B169;" points="360.5,252.7 158.3,408.3 135.8,408.3 347.9,245.8 "/>
<polygon style="fill:#E2BA7A;" points="135.8,252.7 338,408.3 360.5,408.3 148.6,245.8 "/>
<polygon style="fill:#CEA672;" points="137.3,258.4 115,258.4 115,236.1 158.6,210.7 172.5,210.7 172.5,224.6 "/>
<polygon style="fill:#EFCA95;" points="137.3,236.1 115,236.1 158.6,210.7 172.5,210.7 "/>
<rect x="115" y="236.1" style="fill:#E2BA7A;" width="22.3" height="22.3"/>
<polygon style="fill:#CEA672;" points="358.9,258.4 381.2,258.4 381.2,236.1 337.6,210.7 323.7,210.7 323.7,224.6 "/>
<polygon style="fill:#EFCA95;" points="358.9,236.1 381.2,236.1 337.6,210.7 323.7,210.7 "/>
<g>
	<rect x="358.9" y="236.1" style="fill:#E2BA7A;" width="22.3" height="22.3"/>
	<rect x="355.6" y="174.5" style="fill:#E2BA7A;" width="5.3" height="53.9"/>
</g>
<polygon style="fill:#CEA672;" points="355.6,228.4 353.4,226.9 353.4,173 355.6,174.5 "/>
<rect x="330.1" y="135.1" style="fill:#E2BA7A;" width="5.3" height="77.2"/>
<polygon style="fill:#CEA672;" points="330.1,212.3 327.8,210.7 327.8,133.6 330.1,135.1 "/>
<rect x="135.4" y="174.5" style="fill:#E2BA7A;" width="5.3" height="53.9"/>
<polygon style="fill:#CEA672;" points="140.6,228.4 142.9,226.9 142.9,173 140.6,174.5 "/>
<rect x="160.5" y="135.5" style="fill:#E2BA7A;" width="5.3" height="77.2"/>
<g>
	<polygon style="fill:#CEA672;" points="165.8,212.7 168,211.1 168,133.9 165.8,135.5 	"/>
	<polygon style="fill:#CEA672;" points="358.9,183.7 381.2,183.7 381.2,179.5 337.6,166.8 323.7,166.8 323.7,169.8 	"/>
</g>
<polygon style="fill:#EFCA95;" points="358.9,179.5 381.2,179.5 337.6,166.8 323.7,166.8 "/>
<rect x="358.9" y="179.5" style="fill:#E2BA7A;" width="22.3" height="4.3"/>
<path style="fill:#0F0F0F;" d="M358.9,250c0,0-55.4,13-110.8,13s-110.4-13-110.4-13v-4.9h221.2V250z"/>
<g>
	<path style="fill:#3A3A38;" d="M358.9,245.1c0,0-56.8,13-112.2,13s-109-13-109-13l34.6-26.5c0,0,28.5,3.9,76.4,3.9
		s75.6-3.9,75.6-3.9L358.9,245.1z"/>
	<path style="fill:#3A3A38;" d="M335.9,87.9c0,0-24.2,3-88.3,3s-87.9-3-87.9-3l0.2,61.4c0,0,33,3.9,88.3,3.9
		c55.4,0,87.5-3.9,87.5-3.9L335.9,87.9z"/>
</g>
<polygon style="fill:#CEA672;" points="137.3,183.7 115,183.7 115,179.5 158.6,166.8 172.5,166.8 172.5,169.8 "/>
<polygon style="fill:#EFCA95;" points="137.3,179.5 115,179.5 158.6,166.8 172.5,166.8 "/>
<rect x="115" y="179.5" style="fill:#E2BA7A;" width="22.3" height="4.3"/>
<g>
</g>
<g>
</g>
<g>
</g>
<g>
</g>
<g>
</g>
<g>
</g>
<g>
</g>
<g>
</g>
<g>
</g>
<g>
</g>
<g>
</g>
<g>
</g>
<g>
</g>
<g>
</g>
<g>
</g>
</svg>
