<?xml version="1.0" encoding="iso-8859-1"?>
<!-- Generator: Adobe Illustrator 19.0.0, SVG Export Plug-In . SVG Version: 6.00 Build 0)  -->
<svg version="1.1" id="Layer_1" xmlns="http://www.w3.org/2000/svg" xmlns:xlink="http://www.w3.org/1999/xlink" x="0px" y="0px"
	 viewBox="0 0 496.2 496.2" style="enable-background:new 0 0 496.2 496.2;" xml:space="preserve">
<path style="fill:#25B7D3;" d="M496.2,248.1C496.2,111.1,385.1,0,248.1,0S0,111.1,0,248.1s111.1,248.1,248.1,248.1
	S496.2,385.1,496.2,248.1z"/>
<path style="fill:#DD2234;" d="M250.9,136.8c-0.9,0-1.8,0-2.8,0.1c-0.9-0.1-1.8-0.1-2.8-0.1c-84.3,0-180.5-100.5-180.5,94
	s96.3,110.4,180.5,110.4c0.9,0,1.8,0,2.8-0.1c0.9,0.1,1.8,0.1,2.8,0.1c84.3,0,180.5,84.1,180.5-110.4S335.1,136.8,250.9,136.8z"/>
<g>
	<path style="fill:#DFA17C;" d="M362.5,266.2c0-10.9-13.2-21.6-14.8-31.8c-9.6-62-41-108.3-99.6-108.3c-59.1,0-90.7,47.1-99.8,110.1
		c-1.4,9.7-14.5,19.7-14.5,30c0,45.5,28.1,51.8,38,74.1c16.5,37.3,54.2,62.3,76.3,62.3s59.8-25.1,76.3-62.3
		C334.3,318,362.5,319.1,362.5,266.2z"/>
	
		<ellipse transform="matrix(-0.9446 0.3282 -0.3282 -0.9446 343.2349 427.4851)" style="fill:#DFA17C;" cx="135.543" cy="242.707" rx="21.7" ry="33.6"/>
	
		<ellipse transform="matrix(-0.9446 -0.3282 0.3282 -0.9446 616.9431 589.5427)" style="fill:#DFA17C;" cx="358.222" cy="242.709" rx="21.7" ry="33.6"/>
</g>
<path style="fill:#BF8A13;" d="M306.3,143.3c0-25.7-26.1-46.5-58.2-46.5c-32.2,0-58.2,20.8-58.2,46.5S306.3,169,306.3,143.3z"/>
<path style="fill:#2F8442;" d="M291.8,77.1c0,0-23.8,13.1-56.1,59l5.5,4.6c0,0,36.3-45.5,53-60C310.8,66.1,291.8,77.1,291.8,77.1z"
	/>
<path style="fill:#F6A2A3;" d="M329.9,62.2c-6.3,6.2-16,9.1-20.2,4.9s-1.4-14,4.9-20.2c6.2-6.2,13.5-6.7,17.8-2.4
	C336.5,48.7,336.1,55.9,329.9,62.2z"/>
<path style="fill:#E84849;" d="M325.7,62.5c-4.6,4.6-11.4,6.4-14.5,3.3s-1.3-9.9,3.3-14.5c4.6-4.6,10.2-5.2,13.3-2.1
	C330.9,52.3,330.3,57.9,325.7,62.5z"/>
<path style="fill:#F6A2A3;" d="M328.7,82.6c-8.8,0-17.7-4.9-17.7-10.9s8.9-10.9,17.7-10.9c8.8,0,14.3,4.9,14.3,10.9
	S337.5,82.6,328.7,82.6z"/>
<path style="fill:#E84849;" d="M325.6,79.9c-6.5,0-12.6-3.6-12.6-8s6.1-8,12.6-8s10.9,3.6,10.9,8C336.4,76.3,332.1,79.9,325.6,79.9z
	"/>
<path style="fill:#F6A2A3;" d="M286.2,84.5c3.3-8.2,11.1-14.6,16.7-12.4s6.7,12.3,3.4,20.5c-3.3,8.2-9.9,11.4-15.4,9.2
	C285.4,99.6,282.9,92.7,286.2,84.5z"/>
<path style="fill:#E84849;" d="M289.9,82.6c2.4-6,8-10.3,12.1-8.7c4.1,1.6,5.1,8.6,2.7,14.6s-7.4,8.7-11.5,7.1
	C289.1,94.1,287.5,88.7,289.9,82.6z"/>
<path style="fill:#F6A2A3;" d="M294,47.8c6.3,6.2,9.3,15.8,5.1,20.1c-4.2,4.3-13.9,1.6-20.3-4.6c-6.3-6.2-6.8-13.5-2.6-17.7
	C280.4,41.3,287.7,41.6,294,47.8z"/>
<path style="fill:#E84849;" d="M294.3,51.9c4.6,4.5,6.5,11.3,3.4,14.5c-3.1,3.1-9.9,1.4-14.6-3.1c-4.6-4.5-5.3-10.1-2.2-13.3
	C284.1,46.9,289.7,47.4,294.3,51.9z"/>
<path style="fill:#F6A2A3;" d="M315.6,46c0.1,8.8-4.6,17.8-10.6,17.8c-6,0.1-11-8.7-11.1-17.6c-0.1-8.8,4.7-14.3,10.7-14.4
	C310.6,31.8,315.5,37.2,315.6,46z"/>
<path style="fill:#E84849;" d="M313,49.1c0.1,6.5-3.4,12.6-7.8,12.7s-8-6-8.1-12.5s3.4-10.9,7.8-11C309.3,38.3,312.9,42.7,313,49.1z
	"/>
<path style="fill:#F6A2A3;" d="M305.9,98.8c-5.7-6.7-7.8-16.7-3.2-20.5c4.6-3.9,14-0.3,19.7,6.5c5.7,6.7,5.5,14,1,17.9
	C318.9,106.5,311.6,105.5,305.9,98.8z"/>
<path style="fill:#E84849;" d="M305.9,94.6c-4.2-4.9-5.4-11.9-2.1-14.7c3.3-2.8,10-0.5,14.2,4.4s4.3,10.6,1,13.4
	C315.7,100.6,310.1,99.6,305.9,94.6z"/>
<path style="fill:#F6A2A3;" d="M277.9,65.5c8.1-3.4,18.2-2.4,20.5,3.1s-3.9,13.5-12.1,16.9c-8.1,3.4-15,1.1-17.4-4.4
	C266.6,75.5,269.7,68.9,277.9,65.5z"/>
<path style="fill:#E84849;" d="M281.8,66.8c6-2.5,13-1.6,14.7,2.4c1.7,4.1-2.5,9.7-8.5,12.2s-11.4,1-13.1-3.1
	C273.2,74.3,275.8,69.3,281.8,66.8z"/>
<ellipse transform="matrix(-0.7071 0.7071 -0.7071 -0.7071 566.1931 -93.2258)" style="fill:#F4E028;" cx="302.404" cy="70.65" rx="12.6" ry="14.3"/>
<path style="fill:#E5CE27;" d="M295.8,64c3.3-3.3,8.9-2.9,12.5,0.8c3.7,3.7,4,9.3,0.8,12.5c-3.3,3.3-8.9,2.9-12.5-0.8
	C292.9,72.8,292.5,67.2,295.8,64z"/>
<path style="fill:#E5AA17;" d="M304.2,138.3c0-24.7-25.1-44.8-56.1-44.8s-56.1,20-56.1,44.8C192,151.4,304.2,150.7,304.2,138.3z"/>
<path style="fill:#4F392F;" d="M299.6,299.7c-2.6-3.7-6.4-8-11.7-8c-3.6,0-6.9,1.9-10.6,4.2c-6.1,3.6-14.3,8.6-29.2,8.6
	c-14.9,0-23.2-4.9-29.2-8.6c-3.7-2.2-7-4.2-10.6-4.2c-5.3,0-9,4.2-11.7,8c-7.7,10.8,1.2,20.7,9.8,30.3c1.5,1.7,3.1,3.5,4.7,5.3
	c6.6,7.7,9.5,16.2,12,23.7c3.7,11,7.3,21.3,21.5,23c1.1,0.2,2.2,0.2,3.3,0.2h0.1h0.1c0.2,0,0.3,0,0.5,0c0.9,0,1.9-0.1,2.8-0.2
	c14.2-1.7,17.7-12,21.5-23c2.5-7.5,5.4-15.9,12-23.7c1.6-1.8,3.2-3.6,4.7-5.3C298.4,320.4,307.3,310.5,299.6,299.7z"/>
<path style="fill:#FFFFFF;" d="M296.6,301.9c-12.5-17.4-14.8,6.3-48.5,6.3c-33.6,0-36-23.8-48.5-6.3c-7,9.9,4,18.9,14.4,31
	c16.9,19.8,10.7,43.1,31.2,45.4c0.7,0.1,1.5,0.2,2.3,0.2c0.2,0,0.4,0,0.7,0c0.2,0,0.4,0,0.7,0c0.8,0,1.5-0.1,2.3-0.2
	c20.5-2.3,14.3-25.6,31.2-45.4C292.6,320.8,303.6,311.7,296.6,301.9z"/>
<path style="fill:#DD2234;" d="M279.2,314.5c-8-11.2-9.5,4.1-31.1,4.1s-23.1-15.2-31.1-4.1c-4.5,6.3,2.6,12.1,9.2,19.9
	c10.9,12.7,6.9,27.6,20,29.1c0.5,0.1,0.9,0.1,1.4,0.1c0.1,0,0.3,0,0.4,0c0.1,0,0.3,0,0.4,0c0.5,0,1,0,1.5-0.1
	c13.2-1.5,9.2-16.4,20-29.1C276.6,326.6,283.7,320.8,279.2,314.5z"/>
<path style="fill:#821223;" d="M260.2,328.2c-3.1-4.3-3.7,1.6-12.1,1.6s-9-5.9-12.1-1.6c-1.8,2.5,1,4.7,3.6,7.7
	c4.2,4.9,12.8,4.9,17,0C259.2,332.9,261.9,330.7,260.2,328.2z"/>
<path style="fill:#EFE8E6;" d="M232.1,244.8v-24.7c0-16.6-13.5-30.1-30.1-30.1l0,0c-16.6,0-30.1,13.5-30.1,30.1v37l2.5-0.2
	L232.1,244.8z"/>
<path style="fill:#664A3B;" d="M171.8,257.2c-1.4,0-2.5-1.1-2.5-2.5V220c0-18,14.6-32.6,32.6-32.6s32.6,14.6,32.6,32.6v22.2
	c0,1.4-1.1,2.1-2.5,2.5c-0.2,0-2.5,0.5-2.5,0.5v-25.1c0-15.2-12.4-27.6-27.6-27.6c-15.2,0-27.6,12.4-27.6,27.6V257
	C174.3,257,173.2,257.2,171.8,257.2z"/>
<g>
	<path style="fill:#4F392F;" d="M201.3,238.6c-1.4,0-2.5-1.1-2.5-2.5v-26.3c0-1.4,1.1-2.5,2.5-2.5s2.5,1.1,2.5,2.5v26.3
		C203.8,237.5,202.7,238.6,201.3,238.6z"/>
	<path style="fill:#4F392F;" d="M214.5,225.4h-26.4c-1.4,0-2.5-1.1-2.5-2.5s1.1-2.5,2.5-2.5h26.3c1.4,0,2.5,1.1,2.5,2.5
		S215.8,225.4,214.5,225.4z"/>
	<circle style="fill:#4F392F;" cx="201.3" cy="223.2" r="8.2"/>
</g>
<path style="fill:#EFE8E6;" d="M264.1,244.8v-24.7c0-16.6,13.5-30.1,30.1-30.1l0,0c16.6,0,30.1,13.5,30.1,30.1v37l-2.5-0.2
	L264.1,244.8z"/>
<path style="fill:#664A3B;" d="M324.4,257.2c1.4,0,2.5-1.1,2.5-2.5V220c0-18-14.6-32.6-32.6-32.6S261.7,202,261.7,220v22.2
	c0,1.4,1.1,2.1,2.5,2.5c0.2,0,2.5,0.5,2.5,0.5v-25.1c0-15.2,12.4-27.6,27.6-27.6s27.6,12.4,27.6,27.6V257
	C321.9,257,323,257.2,324.4,257.2z"/>
<g>
	<path style="fill:#4F392F;" d="M294.9,238.6c1.4,0,2.5-1.1,2.5-2.5v-26.3c0-1.4-1.1-2.5-2.5-2.5s-2.5,1.1-2.5,2.5v26.3
		C292.4,237.5,293.5,238.6,294.9,238.6z"/>
	<path style="fill:#4F392F;" d="M281.7,225.4h26.4c1.4,0,2.5-1.1,2.5-2.5s-1.1-2.5-2.5-2.5h-26.3c-1.4,0-2.5,1.1-2.5,2.5
		S280.4,225.4,281.7,225.4z"/>
	<circle style="fill:#4F392F;" cx="294.9" cy="223.2" r="8.2"/>
</g>
<path style="fill:#DD2234;" d="M213.9,255.7c0-15.1,12.2-27.3,27.3-27.3h13.7c15.1,0,27.3,12.2,27.3,27.3v13.7
	c0,15.1-12.2,27.3-27.3,27.3h-13.7c-15.1,0-27.3-12.2-27.3-27.3L213.9,255.7L213.9,255.7z"/>
<g>
</g>
<g>
</g>
<g>
</g>
<g>
</g>
<g>
</g>
<g>
</g>
<g>
</g>
<g>
</g>
<g>
</g>
<g>
</g>
<g>
</g>
<g>
</g>
<g>
</g>
<g>
</g>
<g>
</g>
</svg>
