<?xml version="1.0" encoding="iso-8859-1"?>
<!-- Generator: Adobe Illustrator 19.0.0, SVG Export Plug-In . SVG Version: 6.00 Build 0)  -->
<svg version="1.1" id="Layer_1" xmlns="http://www.w3.org/2000/svg" xmlns:xlink="http://www.w3.org/1999/xlink" x="0px" y="0px"
	 viewBox="0 0 496.2 496.2" style="enable-background:new 0 0 496.2 496.2;" xml:space="preserve">
<path style="fill:#334D5C;" d="M496.2,248.1C496.2,111.1,385.1,0,248.1,0S0,111.1,0,248.1s111.1,248.1,248.1,248.1
	S496.2,385.1,496.2,248.1z"/>
<path style="fill:#929293;" d="M106,160.6c-0.4,37.1,3.1,67.2,30.4,67.5s68.8-29.8,69.2-66.9S165.8,94,137.7,93.7
	C109.7,93.5,106.4,123.5,106,160.6z"/>
<g>
	<path style="fill:#FFFFFF;" d="M120.8,223.3c0,0,4.3-28.3,4.3-64.4s-4.1-60-4.1-60c4.3-3.4,9.7-5.2,16.8-5.1
		c24.7,0.2,58.7,23.5,66.3,54.4c0.4,1.1,0.7,2.3,0.9,3.7c1.7,9,3.7,24.3,3.8,31.7c0.3,29.7,0,100.7,0,100.7l-32.4,0.2v-52.9
		c-0.3-4.3-1.9-14.6-10.9-11.9c-9.9,5.5-20.2,8.5-29.1,8.5C130,228.1,124.9,226.3,120.8,223.3z"/>
	<path style="fill:#FFFFFF;" d="M122.1,158.7c0-11.3-0.3-21.5-0.8-30.2c-0.7-12.3-1.7-21.8-2.4-27.7c1.6-1.6,2.1-1.8,2.1-1.8
		s1.6,9,2.8,24.4c0.8,9.6,1.4,21.7,1.4,35.6c0,35.8-4.2,63.9-4.3,64.4c-0.7-0.6-1.5-1.2-2.2-1.8
		C119.9,210.2,122.1,186.6,122.1,158.7z"/>
</g>
<path style="fill:#E2E2E2;" d="M187.6,341.5v147.8c3.3,0.5,6.5,0.9,9.8,1.3V341.5H187.6z"/>
<rect x="176.4" y="279.1" style="fill:#CDD2D6;" width="32.4" height="72.3"/>
<path style="fill:#FFFFFF;" d="M297.1,217.5c0,92.1,0,66.8,0,66.8l32.4,0.2v-67L297.1,217.5z"/>
<circle style="fill:#CDD2D6;" cx="313.3" cy="161.8" r="68"/>
<circle style="fill:#FFFFFF;" cx="313.3" cy="161.8" r="64"/>
<circle style="fill:#929293;" cx="313.3" cy="161.8" r="58"/>
<g>
	<circle style="fill:#767677;" cx="313.3" cy="161.8" r="27.7"/>
	<path style="fill:#767677;" d="M366.7,139.2c0,0-13.4-2-13.4,22s13.9,22.2,13.9,22.2c2.7-6.7,4.1-13.9,4.1-21.5
		C371.3,153.8,369.6,146.1,366.7,139.2z"/>
	<path style="fill:#767677;" d="M259.9,139.2c0,0,13.4-2,13.4,22s-13.9,22.2-13.9,22.2c-2.7-6.7-4.1-13.9-4.1-21.5
		C255.3,153.8,256.9,146.1,259.9,139.2z"/>
	<path style="fill:#767677;" d="M290.7,108.3c0,0-2,13.4,22,13.4s22.2-13.9,22.2-13.9c-6.7-2.7-13.9-4.1-21.5-4.1
		C305.3,103.7,297.7,105.4,290.7,108.3z"/>
	<path style="fill:#767677;" d="M290.5,215.4c0,0-2-13.4,22-13.4s22.2,13.9,22.2,13.9c-6.7,2.7-13.9,4.1-21.5,4.1
		C305.1,220,297.4,218.3,290.5,215.4z"/>
</g>
<path style="fill:#E2E2E2;" d="M308.5,341.5v146.8c3.3-0.5,6.6-1,9.8-1.5V341.5H308.5z"/>
<rect x="297.1" y="279.1" style="fill:#CDD2D6;" width="32.4" height="72.3"/>
<g>
</g>
<g>
</g>
<g>
</g>
<g>
</g>
<g>
</g>
<g>
</g>
<g>
</g>
<g>
</g>
<g>
</g>
<g>
</g>
<g>
</g>
<g>
</g>
<g>
</g>
<g>
</g>
<g>
</g>
</svg>
