<?xml version="1.0" encoding="iso-8859-1"?>
<!-- Generator: Adobe Illustrator 19.0.0, SVG Export Plug-In . SVG Version: 6.00 Build 0)  -->
<svg version="1.1" id="Layer_1" xmlns="http://www.w3.org/2000/svg" xmlns:xlink="http://www.w3.org/1999/xlink" x="0px" y="0px"
	 viewBox="0 0 496.2 496.2" style="enable-background:new 0 0 496.2 496.2;" xml:space="preserve">
<path style="fill:#25B7D3;" d="M496.2,248.1C496.2,111.1,385.1,0,248.1,0S0,111.1,0,248.1s111.1,248.1,248.1,248.1
	S496.2,385.1,496.2,248.1z"/>
<path style="fill:#757575;" d="M325.8,400.4c0,7.2-5.8,13.1-13.1,13.1H183.5c-7.2,0-13.1-5.8-13.1-13.1V95.8
	c0-7.2,5.8-13.1,13.1-13.1h129.2c7.2,0,13.1,5.8,13.1,13.1L325.8,400.4L325.8,400.4z"/>
<rect x="179.3" y="92.3" style="fill:#3A3A38;" width="137.6" height="152.6"/>
<polygon style="fill:#444443;" points="179.3,92.3 316.9,92.3 179.3,244.8 "/>
<circle style="fill:#3A3A38;" cx="248.1" cy="329.5" r="58.2"/>
<circle style="fill:#757575;" cx="248.1" cy="329.5" r="21"/>
<g>
	<path style="fill:#A8A8A5;" d="M198.1,329.3l7.8-4.8c0.2-0.1,0.5-0.1,0.7,0s0.4,0.4,0.4,0.6v9.6c0,0.3-0.1,0.5-0.4,0.6
		c-0.1,0.1-0.2,0.1-0.3,0.1s-0.3,0-0.4-0.1l-7.8-4.8c-0.2-0.1-0.3-0.4-0.3-0.6C197.7,329.7,197.9,329.5,198.1,329.3z"/>
	<path style="fill:#A8A8A5;" d="M208.3,329.3l7.8-4.8c0.2-0.1,0.5-0.1,0.7,0s0.4,0.4,0.4,0.6v9.6c0,0.3-0.1,0.5-0.4,0.6
		c-0.1,0.1-0.2,0.1-0.3,0.1s-0.3,0-0.4-0.1l-7.8-4.8c-0.2-0.1-0.3-0.4-0.3-0.6C207.9,329.7,208,329.5,208.3,329.3z"/>
	<path style="fill:#A8A8A5;" d="M297.5,330.5l-7.8,4.8c-0.2,0.1-0.5,0.1-0.7,0s-0.4-0.4-0.4-0.6v-9.6c0-0.3,0.1-0.5,0.4-0.6
		c0.1-0.1,0.2-0.1,0.3-0.1c0.1,0,0.3,0,0.4,0.1l7.8,4.8c0.2,0.1,0.3,0.4,0.3,0.6C297.8,330.2,297.7,330.4,297.5,330.5z"/>
	<path style="fill:#A8A8A5;" d="M287.3,330.5l-7.8,4.8c-0.2,0.1-0.5,0.1-0.7,0s-0.4-0.4-0.4-0.6v-9.6c0-0.3,0.1-0.5,0.4-0.6
		c0.1-0.1,0.2-0.1,0.3-0.1c0.1,0,0.3,0,0.4,0.1l7.8,4.8c0.2,0.1,0.3,0.4,0.3,0.6C287.6,330.2,287.5,330.4,287.3,330.5z"/>
	<path style="fill:#A8A8A5;" d="M248,368.9l-7.1-4.4c-0.2-0.1-0.4-0.1-0.7,0c-0.2,0.1-0.3,0.3-0.3,0.6v8.7c0,0.2,0.1,0.4,0.3,0.6
		c0.1,0.1,0.2,0.1,0.3,0.1s0.2,0,0.3-0.1l7.1-4.3c0.2-0.1,0.3-0.3,0.3-0.5S248.2,369,248,368.9z"/>
	<path style="fill:#A8A8A5;" d="M254.2,364.2h-2.4c-0.2,0-0.4,0.2-0.4,0.4v9.5c0,0.2,0.2,0.4,0.4,0.4h2.4c0.2,0,0.4-0.2,0.4-0.4
		v-9.5C254.6,364.4,254.5,364.2,254.2,364.2z"/>
	<path style="fill:#A8A8A5;" d="M258.7,364.2h-2.4c-0.2,0-0.4,0.2-0.4,0.4v9.5c0,0.2,0.2,0.4,0.4,0.4h2.4c0.2,0,0.4-0.2,0.4-0.4
		v-9.5C259.1,364.4,258.9,364.2,258.7,364.2z"/>
	<path style="fill:#A8A8A5;" d="M236,293l-1.2-4.9v5.3c0,0.3-0.1,0.5-0.2,0.7c-0.1,0.1-0.3,0.2-0.5,0.2s-0.4-0.1-0.5-0.2
		s-0.2-0.4-0.2-0.7v-6.1c0-0.3,0.1-0.6,0.3-0.7s0.4-0.2,0.7-0.2h0.5c0.3,0,0.5,0,0.6,0.1s0.2,0.1,0.3,0.3c0.1,0.1,0.1,0.4,0.2,0.7
		l1.1,4.2l1.1-4.2c0.1-0.3,0.2-0.5,0.2-0.7c0.1-0.1,0.2-0.2,0.3-0.3c0.1-0.1,0.3-0.1,0.6-0.1h0.5c0.3,0,0.5,0.1,0.7,0.2
		s0.3,0.3,0.3,0.7v6.1c0,0.3-0.1,0.5-0.2,0.7c-0.1,0.1-0.3,0.2-0.5,0.2s-0.4-0.1-0.5-0.2s-0.2-0.4-0.2-0.7v-5.3l-1.2,4.9
		c-0.1,0.3-0.1,0.5-0.2,0.7c0,0.1-0.1,0.3-0.3,0.4c-0.1,0.1-0.3,0.2-0.6,0.2c-0.2,0-0.3,0-0.5-0.1c-0.1-0.1-0.2-0.2-0.3-0.3
		c-0.1-0.1-0.1-0.3-0.2-0.4C236,293.3,236,293.1,236,293z"/>
	<path style="fill:#A8A8A5;" d="M247.3,287.7h-3.5v1.9h3.2c0.2,0,0.4,0.1,0.5,0.2s0.2,0.2,0.2,0.4c0,0.2-0.1,0.3-0.2,0.4
		c-0.1,0.1-0.3,0.2-0.5,0.2h-3.2v2.2h3.6c0.2,0,0.4,0.1,0.6,0.2c0.1,0.1,0.2,0.3,0.2,0.5s-0.1,0.3-0.2,0.4c-0.1,0.1-0.3,0.2-0.6,0.2
		h-4.2c-0.3,0-0.6-0.1-0.7-0.2c-0.1-0.1-0.2-0.4-0.2-0.7v-5.8c0-0.2,0-0.4,0.1-0.5s0.2-0.2,0.3-0.3c0.1-0.1,0.3-0.1,0.5-0.1h4.1
		c0.2,0,0.4,0.1,0.5,0.2s0.2,0.3,0.2,0.4c0,0.2-0.1,0.3-0.2,0.4C247.8,287.6,247.6,287.7,247.3,287.7z"/>
	<path style="fill:#A8A8A5;" d="M251.4,287.3l3,4.5v-4.5c0-0.3,0.1-0.5,0.2-0.7c0.1-0.1,0.3-0.2,0.5-0.2s0.4,0.1,0.5,0.2
		s0.2,0.4,0.2,0.7v6c0,0.7-0.3,1-0.8,1c-0.1,0-0.3,0-0.4-0.1c-0.1,0-0.2-0.1-0.3-0.2c-0.1-0.1-0.2-0.2-0.3-0.3
		c-0.1-0.1-0.2-0.2-0.2-0.4l-2.9-4.5v4.5c0,0.3-0.1,0.5-0.2,0.7c-0.1,0.1-0.3,0.2-0.5,0.2s-0.4-0.1-0.5-0.2
		c-0.1-0.2-0.2-0.4-0.2-0.7v-5.9c0-0.2,0-0.4,0.1-0.6s0.2-0.3,0.3-0.4c0.2-0.1,0.3-0.1,0.5-0.1c0.1,0,0.3,0,0.4,0.1
		c0.1,0,0.2,0.1,0.3,0.2c0.1,0.1,0.2,0.2,0.2,0.3S251.3,287.1,251.4,287.3z"/>
	<path style="fill:#A8A8A5;" d="M257.5,291v-3.7c0-0.3,0.1-0.5,0.2-0.7s0.3-0.2,0.6-0.2c0.2,0,0.4,0.1,0.6,0.2
		c0.1,0.2,0.2,0.4,0.2,0.7v3.8c0,0.4,0,0.8,0.1,1.1c0.1,0.3,0.3,0.5,0.5,0.7s0.6,0.2,1,0.2c0.6,0,1-0.2,1.3-0.5s0.4-0.8,0.4-1.5
		v-3.8c0-0.3,0.1-0.6,0.2-0.7c0.1-0.2,0.3-0.2,0.6-0.2c0.2,0,0.4,0.1,0.6,0.2c0.1,0.2,0.2,0.4,0.2,0.7v3.7c0,0.6-0.1,1.1-0.2,1.5
		s-0.3,0.8-0.7,1.1c-0.3,0.3-0.6,0.4-1,0.6c-0.4,0.1-0.8,0.2-1.3,0.2c-0.6,0-1.1-0.1-1.5-0.2s-0.8-0.3-1-0.6c-0.3-0.3-0.5-0.6-0.6-1
		C257.6,292,257.5,291.5,257.5,291z"/>
</g>
<g>
</g>
<g>
</g>
<g>
</g>
<g>
</g>
<g>
</g>
<g>
</g>
<g>
</g>
<g>
</g>
<g>
</g>
<g>
</g>
<g>
</g>
<g>
</g>
<g>
</g>
<g>
</g>
<g>
</g>
</svg>
