<?xml version="1.0" encoding="iso-8859-1"?>
<!-- Generator: Adobe Illustrator 19.0.0, SVG Export Plug-In . SVG Version: 6.00 Build 0)  -->
<svg version="1.1" id="Layer_1" xmlns="http://www.w3.org/2000/svg" xmlns:xlink="http://www.w3.org/1999/xlink" x="0px" y="0px"
	 viewBox="0 0 496.2 496.2" style="enable-background:new 0 0 496.2 496.2;" xml:space="preserve">
<path style="fill:#EA4949;" d="M496.2,248.1C496.2,111.1,385.1,0,248.1,0S0,111.1,0,248.1s111.1,248.1,248.1,248.1
	S496.2,385.1,496.2,248.1z"/>
<g>
	<ellipse style="fill:#D1D1D1;" cx="254.5" cy="406" rx="77.9" ry="29.6"/>
	<rect x="176.6" y="383.9" style="fill:#D1D1D1;" width="155.8" height="24.2"/>
</g>
<ellipse style="fill:#EFEEED;" cx="254.5" cy="385" rx="77.9" ry="29.6"/>
<path style="fill:#A5A5A5;" d="M268,255.7l5.4,29.4l-15.8,106.1l-40.7-19c0,0,5.8-81.8,13.8-92l16.7-23.7L268,255.7z"/>
<polygon style="fill:#EFEEED;" points="277.6,284.8 284,384.7 257.2,391.9 255.8,289.1 "/>
<polygon style="fill:#D1D1D1;" points="230.6,291.5 255.8,289.1 257.2,391.9 221.2,378.1 "/>
<g>
	<path style="fill:#E5E5E5;" d="M278.2,228.5l3.5,22.5c0,0,15.4,20.7-9.6,27.2l-5.7-20.5l-17.1,1.1l3.1,22.3l-18.2,2.4
		c0,0-15.7-2.9-12.5-24.7l-12.5-24.1L278.2,228.5z"/>
	<path style="fill:#E5E5E5;" d="M314.6,179.8c0,0,3.8,8.9,1.4,19.7c-2.4,11-11.2,24-37,31.3c0,0-32.2,4.8-39.4,3.4
		c0,0-26.5,5.8-39,1c0,0-9.1,1-13.5-20.7l1.9-5.8c0,0-5.1-1.4-3.8-10.1c0,0-5.3-2.9-2.9-12.3c0,0-4.6-3.1-3.6-10.8
		c0,0-4.8-6.3-2.6-12.3c0,0-5.1-3.1-2.9-11.5c0,0-4.3-4.8-2.9-11.1c0,0-3.6-4.6-2.9-11.8c0,0-15.2-25.5,16.1-49.5
		c0,0,12.2-8.4,29.9-13.9c20.3-6.3,47.7-8.9,72.1,9.4c0,0,3.8,3.6,6,14.4c0,0,1,3.4-2.9,6c0,0,3.8,1.4,5.3,2.9c0,0,1.7,4.3,0.4,6
		c0,0-1.3,2.4-2.8,2.8c0,0,3.8,1.4,5.3,3.2c0,0,2,4.2-0.1,6.4c0,0-1.5,1.9-2.2,2.6c0,0,3.8,1,5.2,2.5c0,0,1.3,3.2,0.3,5.7
		c0,0-1.5,2.6-3,3.4c0,0,5.3,1.3,6.1,3.4c0,0,2.5,6-2.3,8.7c0,0,4.2,1,5.3,2.7c0,0,2.6,5.1-3.8,8.6c0,0,6.4,0.4,6.8,4.7
		c0,0,0.9,5.1-4.2,7.8c0,0,5.1-0.2,7,3.1c0,0,2,3.8-3,8.5L314.6,179.8z"/>
</g>
<g>
	<path style="fill:#EAE7E5;" d="M306.1,150.3c-0.1,0.2-0.2,0.4-0.3,0.6c-0.4-0.1-0.6-0.1-0.6-0.1
		C305.5,150.6,305.8,150.5,306.1,150.3z"/>
	<path style="fill:#EAE7E5;" d="M299.9,127.4L299.9,127.4L299.9,127.4L299.9,127.4z"/>
	<path style="fill:#EAE7E5;" d="M307.8,163.3c0.2-0.1,0.4-0.2,0.6-0.4c-0.1,0.1-0.1,0.2-0.2,0.4C308,163.3,307.8,163.3,307.8,163.3z
		"/>
</g>
<path style="fill:#D8D8D8;" d="M207.2,67.4c0.2-0.1,0.4-0.1,0.6-0.2c-6.8,20.5,25.6,133.7,31,137.6c5.2,3.7,63.4,2.8,77.3-5.4
	c0,0,0,0,0,0.1c-2.4,11-78.9,19.6-84.6,15.4C225.7,210.7,187.2,75.9,207.2,67.4z"/>
<path style="fill:#EAE7E5;" d="M294.6,103.5C294.6,103.5,294.6,103.6,294.6,103.5c-0.1,0.1-0.1,0-0.1,0
	C294.5,103.6,294.5,103.5,294.6,103.5z"/>
<path style="fill:#EFEEED;" d="M238.8,204.8c-5.4-3.9-37.8-117.1-31-137.6c1.8-0.7,3.7-1.3,5.7-1.9c20.3-6.3,47.7-8.9,72.1,9.4
	c0,0,3.8,3.6,6,14.4c0,0,1,3.4-2.9,6c0,0,3.8,1.4,5.3,2.9c0,0,1.4,3.6,0.6,5.5c-0.1,0-0.1,0-0.1,0s0,0,0.1,0
	c-0.1,0.1-0.1,0.3-0.2,0.4c0,0-1.3,2.4-2.8,2.8c0,0,3.8,1.4,5.3,3.2c0,0,2,4.2-0.1,6.4c0,0-1.5,1.9-2.2,2.6c0,0,3.8,1,5.2,2.5
	c0,0,1.3,3.2,0.3,5.7c0,0-0.1,0.1-0.1,0.2l0,0l0,0c-0.4,0.7-1.7,2.5-2.9,3.2c0,0,5.3,1.3,6.1,3.4c0,0,2.5,6-2.3,8.7
	c0,0,4.2,1,5.3,2.7c0,0,1.2,2.3,0,4.8c-0.3,0.2-0.6,0.4-0.9,0.6c0,0,0.2,0,0.6,0.1c-0.6,1.1-1.7,2.2-3.5,3.1c0,0,6.4,0.4,6.8,4.7
	c0,0,0.3,2-0.7,4.2c-0.2,0.1-0.4,0.2-0.6,0.4c0,0,0.2,0,0.4,0c-0.6,1.2-1.6,2.3-3.3,3.2c0,0,5.1-0.2,7,3.1c0,0,2,3.8-3,8.5l5.7,1.7
	c0,0,3.7,8.9,1.4,19.7C302.2,207.6,244,208.5,238.8,204.8z"/>
<g>
	<path style="fill:#423F36;" d="M172.2,134.5c1.2,1.3,3,1.5,6-1.3c3.1-2.8,3-4.6,1.8-5.9c-1.2-1.3-3-1.5-6,1.3
		C171,131.4,171,133.2,172.2,134.5z"/>
	<path style="fill:#423F36;" d="M169.1,123c1.2,1.3,3,1.5,6-1.3c3.1-2.8,3-4.6,1.8-5.9s-3-1.5-6,1.3
		C167.8,119.9,167.9,121.7,169.1,123z"/>
	<path style="fill:#423F36;" d="M175.1,146.4c1.2,1.3,3,1.5,6-1.3c3.1-2.8,3-4.6,1.8-5.9c-1.2-1.3-3-1.5-6,1.3
		C173.8,143.3,173.9,145.1,175.1,146.4z"/>
	<path style="fill:#423F36;" d="M178.1,157.6c1.2,1.3,3,1.5,6-1.3c3.1-2.8,3-4.6,1.8-5.9c-1.2-1.3-3-1.5-6,1.3
		C176.9,154.5,177,156.3,178.1,157.6z"/>
	<path style="fill:#423F36;" d="M181,168.7c1.2,1.3,3,1.5,6-1.3c3.1-2.8,3-4.6,1.8-5.9c-1.2-1.3-3-1.5-6,1.3
		C179.8,165.6,179.8,167.4,181,168.7z"/>
	<path style="fill:#423F36;" d="M183.6,180.4c1.2,1.3,3,1.5,6-1.3c3.1-2.8,3-4.6,1.8-5.9c-1.2-1.3-3-1.5-6,1.3
		S182.4,179.1,183.6,180.4z"/>
	<path style="fill:#423F36;" d="M186.5,192.4c1.2,1.3,3,1.5,6-1.3c3.1-2.8,3-4.6,1.8-5.9c-1.2-1.3-3-1.5-6,1.3
		C185.2,189.3,185.3,191.1,186.5,192.4z"/>
	<path style="fill:#423F36;" d="M188.7,204.7c1.2,1.3,3,1.5,6-1.3s3-4.6,1.8-5.9c-1.2-1.3-3-1.5-6,1.3
		C187.5,201.7,187.5,203.5,188.7,204.7z"/>
	<path style="fill:#423F36;" d="M305.5,190.4c0,0-1-2.7-3-2.3c-1.9,0.3-2.3,1.8-1.8,6.4c0,0,0.7,8.7-0.2,12.3
		c-1,3.6-9.3,12.8-11.5,15.2l4.5-1c0,0,10-8.3,12-14.4C307.6,200.1,307.4,196.6,305.5,190.4z"/>
	<path style="fill:#423F36;" d="M313.8,189.6c-0.6-1.5-1.3-2.3-2.6-2.1c-1.3,0.2-1.2,1-0.5,6.2c0.5,3.3,0,7.8-1,11.4
		c-1,3.6-8.3,10.4-8.3,10.4s7.6-2.9,11-10.6C312.5,204.8,316.1,194.8,313.8,189.6z"/>
	<path style="fill:#423F36;" d="M294.7,190.7c-0.3-1.5-0.9-2.9-3.3-2.4c-1.5,0.3-2.5,0.8-1.9,6.7c0,0,0.7,9-0.2,12.8
		s-17.4,20-19.6,22.5l4.5-1c0,0,20.8-16.7,21.6-22C296.5,202.1,295.2,193.1,294.7,190.7z"/>
	<path style="fill:#423F36;" d="M282.6,191.7c0,0-1-2.7-3.3-2.3c-2.9,0.5-4,0.6-3,6.4c0,0,0.3,8.9-0.6,12.7
		c-1,3.8-17.5,21.1-19.7,23.6l3,0.3c0,0,22.4-15.6,24-21.7C284.5,204.5,284.6,198.2,282.6,191.7z"/>
	<path style="fill:#423F36;" d="M269.3,193.1c-1.3-2.2-4-1.9-5-1.5c-1.1,0.4-2.7,0.8-1.7,6.6c0,0,0.7,6.6-0.4,10.3
		c-2.4,8.2-20.7,23.3-20.7,23.3l5.5,0.3c0,0,20-12.2,22.9-21.8C271.3,205.5,270.6,195.3,269.3,193.1z"/>
	<path style="fill:#423F36;" d="M253.6,195.9c-1.4-2.2-2.9-2.7-5.2-2.4c0,0-4,0.4-3,6.2c0,0,0.5,4.4-1,9.2
		c-1.4,4.8-17.3,18.8-17.3,18.8l4.2,2.6c0,0,1,1.3,4-0.6c3-1.9,15.4-9.9,17.6-17.4C255,204.8,255.5,198.9,253.6,195.9z"/>
	<path style="fill:#423F36;" d="M272.8,173.3l1.8,7.5c0,0-19.1,2.7-23.3,3.4c0,0-11.5,1-21,5.1l-18.9,6.4c0,0-3.2,1.1-4.3-1.1
		c0,0-1.8-3.5,2.4-5.5c0,0,17-7.9,23.4-9.5c6.4-1.5,11.1-1.9,16.6-2.8C254.9,175.8,272.8,173.3,272.8,173.3z"/>
	<path style="fill:#423F36;" d="M309.5,174.3c0,0,0.5,4.2-12.5,5l-14.3,0.6l-1.9-7.4C280.8,172.6,301.5,170.5,309.5,174.3z"/>
	<path style="fill:#423F36;" d="M269.9,160.5l1.8,7.5c0,0-19.1,2.7-23.3,3.4c0,0-11.5,1-21,5.1l-18.9,6.4c0,0-3.2,1.1-4.3-1.1
		c0,0-1.8-3.5,2.4-5.5c0,0,17-7.9,23.4-9.5c6.4-1.5,11.1-1.9,16.6-2.8C252,163.1,269.9,160.5,269.9,160.5z"/>
	<path style="fill:#423F36;" d="M306.6,161.6c0,0,0.5,4.2-12.5,5l-14.3,0.6l-1.9-7.4C277.9,159.8,298.6,157.7,306.6,161.6z"/>
	<path style="fill:#423F36;" d="M266.5,148l1.8,7.5c0,0-19.1,2.7-23.3,3.4c0,0-11.5,1-21,5.1l-18.9,6.4c0,0-3.2,1.1-4.3-1.1
		c0,0-1.8-3.5,2.4-5.5c0,0,17-7.9,23.4-9.5c6.4-1.5,11.1-1.9,16.6-2.8C248.7,150.6,266.5,148,266.5,148z"/>
	<path style="fill:#423F36;" d="M303.3,149.1c0,0,0.5,4.2-12.5,5l-14.3,0.6l-1.9-7.4C274.6,147.3,295.2,145.2,303.3,149.1z"/>
	<path style="fill:#423F36;" d="M263.7,135.5l1.8,7.5c0,0-19.1,2.7-23.3,3.4c0,0-11.5,1-21,5.1l-19.1,7.1c0,0-3.2,1.1-4.3-1.1
		c0,0-1.8-3.5,2.4-5.5c0,0,17.2-8.7,23.6-10.2s11.1-1.9,16.6-2.8C245.8,138,263.7,135.5,263.7,135.5z"/>
	<path style="fill:#423F36;" d="M300.4,137.9c0,0,0.3,3.7-12.7,4.5l-14.1-0.2l-1.9-7.4C271.7,134.8,292.4,134.1,300.4,137.9z"/>
	<path style="fill:#423F36;" d="M260.8,123l1.8,7.5c0,0-19.1,2.7-23.3,3.4c0,0-11.5,1-21,5.1l-18.9,7.5c0,0-3.2,1.1-4.3-1.1
		c0,0-1.8-3.5,2.4-5.5c0,0,17-9,23.4-10.5c6.4-1.5,11.1-1.9,16.6-2.8C242.9,125.5,260.8,123,260.8,123z"/>
	<path style="fill:#423F36;" d="M296.5,126.2c0,0,1,5.6-11.5,3.5l-14.3-0.1l-1.9-7.4C268.8,122.3,288.5,122.4,296.5,126.2z"/>
	<path style="fill:#423F36;" d="M257.9,110.7l1.8,7.5c0,0-19.1,2.7-23.3,3.4c0,0-11.5,1-21,5.1l-19.2,7.5c0,0-3.2,1.1-4.3-1.1
		c0,0-1.8-3.5,2.4-5.5c0,0,17.4-9.1,23.7-10.6c6.4-1.5,11.1-1.9,16.6-2.8C240,113.3,257.9,110.7,257.9,110.7z"/>
	<path style="fill:#423F36;" d="M293.8,115c0,0,1.9,3.5-10.9,2.9l-15.1-0.5l-1.9-7.4C265.9,110,287.2,109.5,293.8,115z"/>
	<path style="fill:#423F36;" d="M255,98.2l1.8,7.5c0,0-19.1,2.7-23.2,3.4c0,0-11.5,1-21,5.1l-19.1,8c0,0-3.2,1.1-4.3-1.1
		c0,0-1.8-3.5,2.4-5.5c0,0,17.2-9.5,23.6-11.1c6.4-1.5,11.1-1.9,16.6-2.8C237.1,100.8,255,98.2,255,98.2z"/>
	<path style="fill:#423F36;" d="M291.7,103.1c0,0,2.9,4.3-11.4,2.6l-15.4-0.8l-1.9-7.4C263,97.5,285.8,97.5,291.7,103.1z"/>
	<path style="fill:#423F36;" d="M252.1,86.2l1.8,7.5c0,0-19.1,2.7-23.3,3.4c0,0-11.5,1-21,5.1l-19.1,8.7c0,0-3.2,1.1-4.3-1.1
		c0,0-1.8-3.5,2.4-5.5c0,0,17.2-10.2,23.6-11.7c6.4-1.5,11.1-1.9,16.6-2.8C234.2,88.7,252.1,86.2,252.1,86.2z"/>
	<path style="fill:#423F36;" d="M288.5,91.9c0,0-0.4,1.5-4.2,2c-1.6,0.2-3.7,0.2-6.6-0.2c-3.4-0.4-15.7-0.8-15.7-0.8l-1.9-7.4
		C260.1,85.5,287.7,88.1,288.5,91.9z"/>
	<path style="fill:#423F36;" d="M280.8,72.8c0,0,7.1,3.8,5.5,7.1c0,0-2.1-0.3-3.5-2.2L280.8,72.8z"/>
	<path style="fill:#423F36;" d="M237.7,61.7c-0.5,0,5.2,3.6,7,7.1c0,0,2.4,6.3,3.2,7.1c0,0,2.8,2.8,4.8,2.6c0,0,3.7-0.8,2.9-4.9
		c0,0-2-6.6-5.1-9.1C250.5,64.4,246.7,60.8,237.7,61.7z"/>
	<path style="fill:#423F36;" d="M223.6,63.4c-0.5,0,5.2,3.6,7,7.1c0,0,2.4,6.3,3.2,7.1c0,0,2.8,2.8,4.8,2.6c0,0,3.7-0.8,2.9-4.9
		c0,0-2-6.6-5.1-9.1C236.5,66.1,232.6,62.5,223.6,63.4z"/>
	<path style="fill:#423F36;" d="M250.7,62.7c-0.5,0,4.8,3.3,6.4,6.5c0,0,2.2,5.8,3,6.5c0,0,2.6,2.6,4.4,2.4c0,0,3.4-0.8,2.7-4.5
		c0,0-1.9-6.1-4.7-8.4C262.5,65.3,259,62,250.7,62.7z"/>
	<path style="fill:#423F36;" d="M263.3,64.8c-0.4,0,4.5,3.1,6,6.2c0,0,2.1,5.4,2.8,6.2c0,0,2.4,2.4,4.2,2.3c0,0,3.2-0.7,2.5-4.3
		c0,0-1.8-5.7-4.4-7.9C274.4,67.2,271.1,64,263.3,64.8z"/>
	<path style="fill:#423F36;" d="M219.6,68.3c1.4,0.6,7.2,6.1,6.9,9c-0.4,2.9-2.5,5.4-5.9,4.8s-9.6-6.4-7.9-10.9
		S219.6,68.3,219.6,68.3z"/>
</g>
<ellipse transform="matrix(0.479 0.8778 -0.8778 0.479 356.085 -63.3875)" style="fill:#A5A5A5;" cx="231.443" cy="268.286" rx="7.7" ry="6.5"/>
<ellipse transform="matrix(-0.1011 -0.9949 0.9949 -0.1011 16.7731 559.1745)" style="fill:#F4F3F2;" cx="261.003" cy="272.01" rx="7" ry="6.4"/>
<ellipse transform="matrix(-0.1011 -0.9949 0.9949 -0.1011 16.7815 559.1741)" style="fill:#D8D8D8;" cx="261.007" cy="272.006" rx="4.2" ry="3.8"/>
<g>
</g>
<g>
</g>
<g>
</g>
<g>
</g>
<g>
</g>
<g>
</g>
<g>
</g>
<g>
</g>
<g>
</g>
<g>
</g>
<g>
</g>
<g>
</g>
<g>
</g>
<g>
</g>
<g>
</g>
</svg>
