<?xml version="1.0" encoding="iso-8859-1"?>
<!-- Generator: Adobe Illustrator 19.0.0, SVG Export Plug-In . SVG Version: 6.00 Build 0)  -->
<svg version="1.1" id="Layer_1" xmlns="http://www.w3.org/2000/svg" xmlns:xlink="http://www.w3.org/1999/xlink" x="0px" y="0px"
	 viewBox="0 0 496.2 496.2" style="enable-background:new 0 0 496.2 496.2;" xml:space="preserve">
<path style="fill:#334D5C;" d="M0,248.1c0,137,111.1,248.1,248.1,248.1s248.1-111.1,248.1-248.1S385.1,0,248.1,0S0,111.1,0,248.1z"
	/>
<g>
	<path style="fill:#F2F1DF;" d="M413.8,367.3V63.5c-23.2-20.8-50.4-37.4-80.3-48.4v352.1h80.3V367.3z"/>
	<path style="fill:#F2F1DF;" d="M330.3,367.3V14c-25.2-8.9-52.2-13.7-80.4-14v367.2h80.4V367.3z"/>
	<path style="fill:#F2F1DF;" d="M246.7,367.3V0c-28.1,0.2-55.1,5-80.3,13.8v353.4h80.3V367.3z"/>
	<path style="fill:#F2F1DF;" d="M163.1,367.3V15C133.2,25.9,106,42.4,82.8,63.2v304.1H163.1z"/>
	<path style="fill:#F2F1DF;" d="M416.9,66.3v301h48.9c19.4-35.4,30.4-76,30.4-119.2C496.2,176.3,465.6,111.6,416.9,66.3z"/>
	<path style="fill:#F2F1DF;" d="M79.7,65.9C30.7,111.2,0,176.1,0,248.1c0,43.2,11,83.8,30.4,119.2h49.3V65.9z"/>
</g>
<path style="fill:#3A3A38;" d="M353.4,259.8V23.4c-13.5-6.3-27.7-11.5-42.4-15.3v251.7H353.4z"/>
<path style="fill:#565656;" d="M320,259.8V10.6c-3-0.9-6-1.7-9-2.5v251.7H320z"/>
<polygon style="fill:#282828;" points="319,251.3 345.4,251.3 353.4,259.8 311,259.8 "/>
<path style="fill:#444443;" d="M345.3,251.3V19.8c-8.5-3.6-17.2-6.8-26.1-9.4v240.9L345.3,251.3L345.3,251.3z"/>
<path style="fill:#3A3A38;" d="M269.5,259.8V1c-7.1-0.6-14.2-0.9-21.4-0.9c-7,0-14,0.3-20.9,0.9v258.9h42.3V259.8z"/>
<path style="fill:#565656;" d="M236.1,259.8V0.3c-3,0.1-6,0.3-9,0.6v258.9L236.1,259.8L236.1,259.8z"/>
<path style="fill:#444443;" d="M261.4,251.3V0.4C257,0.2,252.6,0,248.1,0c-4.3,0-8.6,0.1-12.8,0.3v250.9h26.1V251.3z"/>
<polygon style="fill:#282828;" points="235.1,251.3 261.6,251.3 269.5,259.8 227.2,259.8 "/>
<path style="fill:#3A3A38;" d="M185.7,259.8V7.9c-14.7,3.8-28.8,8.9-42.3,15.2v236.6h42.3V259.8z"/>
<path style="fill:#565656;" d="M152.3,259.8V19.2c-3,1.3-6,2.6-9,4v236.6H152.3z"/>
<path style="fill:#444443;" d="M177.6,251.3v-241c-8.9,2.6-17.6,5.8-26.1,9.3v231.7H177.6z"/>
<polygon style="fill:#282828;" points="151.3,251.3 177.7,251.3 185.7,259.8 143.3,259.8 "/>
<g>
</g>
<g>
</g>
<g>
</g>
<g>
</g>
<g>
</g>
<g>
</g>
<g>
</g>
<g>
</g>
<g>
</g>
<g>
</g>
<g>
</g>
<g>
</g>
<g>
</g>
<g>
</g>
<g>
</g>
</svg>
