<?xml version="1.0" encoding="iso-8859-1"?>
<!-- Generator: Adobe Illustrator 19.0.0, SVG Export Plug-In . SVG Version: 6.00 Build 0)  -->
<svg version="1.1" id="Layer_1" xmlns="http://www.w3.org/2000/svg" xmlns:xlink="http://www.w3.org/1999/xlink" x="0px" y="0px"
	 viewBox="0 0 496.2 496.2" style="enable-background:new 0 0 496.2 496.2;" xml:space="preserve">
<path style="fill:#32BEA6;" d="M0,248.1C0,111.1,111.1,0,248.1,0s248.1,111.1,248.1,248.1S385.1,496.2,248.1,496.2S0,385.1,0,248.1z
	"/>
<path style="fill:#3A3A38;" d="M404.1,143.1h-312c-2.5,0-4.5,2-4.5,4.5v193.9c0,2.5,2,4.5,4.5,4.5h312c2.5,0,4.5-2,4.5-4.5V147.6
	C408.6,145.1,406.6,143.1,404.1,143.1z"/>
<g>
	<circle style="fill:#6D6D6A;" cx="248.1" cy="149.1" r="3.4"/>
	<rect x="96.7" y="155.3" style="fill:#6D6D6A;" width="302.7" height="174.8"/>
</g>
<polygon style="fill:#565654;" points="399.5,155.3 96.7,155.3 96.7,330.1 "/>
<path style="fill:#DDDDDD;" d="M64.1,341.6v10.5c0,2.5,2,4.5,4.5,4.5h359.1c2.5,0,4.5-2,4.5-4.5v-10.4H64.1V341.6z"/>
<path style="fill:#BFBFBE;" d="M223.2,349.4h49.7c1.4,0,2.6-1.2,2.6-2.6v-5.2h-54.9v5.2C220.7,348.2,221.8,349.4,223.2,349.4z"/>
<g>
</g>
<g>
</g>
<g>
</g>
<g>
</g>
<g>
</g>
<g>
</g>
<g>
</g>
<g>
</g>
<g>
</g>
<g>
</g>
<g>
</g>
<g>
</g>
<g>
</g>
<g>
</g>
<g>
</g>
</svg>
