<?xml version="1.0" encoding="iso-8859-1"?>
<!-- Generator: Adobe Illustrator 19.0.0, SVG Export Plug-In . SVG Version: 6.00 Build 0)  -->
<svg version="1.1" id="Layer_1" xmlns="http://www.w3.org/2000/svg" xmlns:xlink="http://www.w3.org/1999/xlink" x="0px" y="0px"
	 viewBox="0 0 496.2 496.2" style="enable-background:new 0 0 496.2 496.2;" xml:space="preserve">
<path style="fill:#EA4949;" d="M496.2,248.1C496.2,111.1,385.1,0,248.1,0S0,111.1,0,248.1s111.1,248.1,248.1,248.1
	S496.2,385.1,496.2,248.1z"/>
<path style="fill:#3A3A38;" d="M430.5,340.2c0,2.5-2.1,4.6-4.6,4.6H70.3c-2.5,0-4.6-2.1-4.6-4.6V130.5c0-2.5,2.1-4.6,4.6-4.6h355.6
	c2.5,0,4.6,2.1,4.6,4.6V340.2z"/>
<path style="fill:#0591A8;" d="M413.8,325.9c0,2.3-1.8,4.1-4.1,4.1H86.6c-2.3,0-4.1-1.8-4.1-4.1V145.4c0-2.3,1.8-4.1,4.1-4.1h323.1
	c2.3,0,4.1,1.8,4.1,4.1V325.9z"/>
<path style="fill:#099FAF;" d="M83.7,328.8c-0.7-0.7-1.2-1.8-1.2-2.9V145.4c0-2.3,1.8-4.1,4.1-4.1h323.1c1.1,0,2.2,0.5,2.9,1.2
	L83.7,328.8z"/>
<g>
	<rect x="228.6" y="342.3" style="fill:#3A3A38;" width="39" height="32"/>
	<path style="fill:#3A3A38;" d="M332.3,365H163.9c-1.6,0-2.9,1.3-2.9,2.9v7.4c0,1.6,1.3,2.9,2.9,2.9h168.5c1.6,0,2.9-1.3,2.9-2.9
		v-7.4C335.3,366.4,334,365,332.3,365z"/>
</g>
<g>
</g>
<g>
</g>
<g>
</g>
<g>
</g>
<g>
</g>
<g>
</g>
<g>
</g>
<g>
</g>
<g>
</g>
<g>
</g>
<g>
</g>
<g>
</g>
<g>
</g>
<g>
</g>
<g>
</g>
</svg>
